<?xml version="1.0" encoding="UTF-8"?>
<svg xmlns="http://www.w3.org/2000/svg" xmlns:xlink="http://www.w3.org/1999/xlink" width="62" height="99" viewBox="0 0 62 99">
<path fill-rule="nonzero" fill="rgb(63.921569%, 38.431373%, 89.019608%)" fill-opacity="1" d="M 18.359375 93.746094 L 18.359375 94.152344 L 18.703125 94.152344 L 18.703125 94.554688 L 18.011719 95.363281 L 17.664062 95.769531 L 17.320312 96.171875 L 16.972656 96.171875 L 16.625 96.578125 L 16.28125 96.980469 L 15.585938 96.980469 L 15.585938 96.578125 L 15.238281 96.171875 L 14.894531 96.171875 L 15.238281 96.578125 L 15.238281 97.386719 L 15.585938 97.386719 L 15.933594 96.980469 L 15.238281 97.789062 L 14.199219 98.191406 L 12.121094 98.597656 L 9.699219 98.597656 L 8.3125 99 L 7.621094 99 L 7.964844 98.597656 L 8.3125 98.597656 L 9.003906 98.191406 L 9.351562 98.191406 L 9.699219 98.597656 L 10.390625 98.597656 L 11.082031 98.191406 L 11.777344 98.191406 L 12.46875 97.789062 L 12.121094 96.980469 L 11.429688 96.171875 L 11.082031 96.171875 L 11.429688 95.769531 L 11.429688 95.363281 L 11.082031 94.960938 L 11.082031 95.363281 L 10.738281 95.363281 L 11.082031 95.769531 L 10.390625 95.769531 L 10.390625 95.363281 L 10.042969 95.363281 L 9.699219 94.960938 L 9.699219 94.152344 L 9.351562 94.152344 L 9.351562 92.9375 L 9.699219 92.53125 L 10.042969 92.128906 L 9.699219 91.722656 L 9.351562 90.101562 L 9.003906 89.695312 L 8.3125 89.695312 L 8.3125 88.882812 L 7.964844 88.480469 L 7.621094 88.480469 L 7.964844 88.882812 L 7.964844 89.289062 L 7.621094 89.289062 L 7.621094 90.101562 L 7.273438 90.101562 L 7.273438 91.316406 L 6.925781 91.316406 L 6.925781 92.53125 L 6.582031 92.9375 L 6.582031 93.746094 L 6.234375 94.152344 L 6.234375 96.980469 L 5.886719 96.980469 L 5.886719 96.578125 L 4.847656 96.578125 L 5.195312 96.171875 L 4.503906 95.769531 L 3.464844 95.769531 L 3.117188 95.363281 L 3.117188 95.769531 L 2.769531 95.769531 L 2.425781 95.363281 L 1.730469 95.363281 L 1.386719 95.769531 L 1.386719 93.746094 L 1.039062 91.722656 L 1.039062 86.042969 L 0.691406 84.011719 L 0.691406 78.308594 L 0.347656 76.675781 L 0.347656 72.589844 L 0 70.953125 L 0 63.566406 L 0.347656 62.335938 L 0.347656 61.101562 L 0.691406 59.453125 L 0.691406 57.390625 L 1.039062 55.328125 L 1.039062 53.261719 L 1.386719 50.78125 L 1.730469 48.296875 L 2.078125 45.808594 L 2.425781 42.902344 L 2.769531 39.988281 L 3.117188 37.074219 L 3.117188 34.152344 L 3.464844 31.226562 L 3.808594 28.714844 L 4.15625 25.78125 L 4.503906 22.839844 L 4.847656 20.316406 L 5.542969 15.261719 L 5.542969 12.726562 L 5.886719 10.609375 L 5.886719 8.917969 L 6.234375 7.222656 L 6.234375 5.949219 L 6.582031 4.675781 L 6.582031 2.976562 L 6.925781 2.128906 L 6.582031 1.703125 L 5.886719 1.703125 L 5.542969 0.851562 L 5.195312 0 L 27.710938 0 L 30.480469 0.425781 L 49.878906 0.425781 L 49.878906 1.703125 L 50.222656 2.976562 L 50.222656 3.828125 L 50.570312 5.101562 L 50.917969 6.796875 L 50.917969 8.070312 L 51.261719 9.765625 L 51.609375 11.878906 L 51.957031 13.570312 L 52.300781 15.261719 L 52.648438 17.367188 L 52.996094 19.476562 L 53.339844 21.160156 L 53.6875 23.261719 L 54.035156 25.359375 L 54.035156 27.039062 L 54.378906 29.132812 L 54.726562 30.808594 L 55.074219 32.480469 L 55.417969 34.152344 L 55.765625 35.820312 L 55.765625 37.074219 L 56.113281 38.742188 L 56.113281 39.574219 L 56.457031 40.40625 L 56.457031 42.070312 L 56.804688 42.484375 L 56.804688 43.316406 L 57.496094 44.980469 L 57.152344 45.394531 L 57.152344 45.808594 L 57.496094 45.808594 L 57.496094 46.222656 L 57.84375 46.636719 L 57.84375 47.054688 L 58.191406 47.46875 L 58.191406 48.296875 L 58.535156 48.710938 L 58.535156 49.539062 L 58.882812 49.539062 L 58.882812 49.953125 L 59.921875 51.609375 L 60.269531 52.023438 L 60.269531 52.851562 L 60.613281 53.261719 L 60.613281 53.675781 L 60.960938 53.675781 L 60.960938 54.503906 L 60.613281 54.503906 L 60.613281 54.914062 L 60.269531 55.328125 L 60.269531 55.742188 L 60.613281 56.15625 L 61.652344 56.566406 L 62 56.980469 L 62 57.390625 L 61.652344 57.390625 L 61.652344 58.214844 L 60.613281 58.214844 L 60.960938 58.628906 L 60.613281 58.628906 L 60.613281 59.039062 L 59.574219 59.039062 L 59.574219 60.6875 L 59.230469 60.6875 L 59.230469 62.746094 L 58.882812 63.15625 L 58.535156 63.980469 L 58.191406 64.800781 L 57.84375 65.621094 L 57.84375 66.851562 L 58.535156 68.902344 L 58.535156 69.3125 L 59.230469 70.132812 L 59.230469 71.769531 L 59.574219 72.179688 L 59.574219 72.589844 L 59.230469 73 L 59.230469 74.226562 L 58.882812 74.632812 L 58.882812 77.085938 L 58.535156 77.085938 L 58.535156 77.492188 L 58.191406 77.492188 L 58.535156 77.898438 L 58.535156 79.53125 L 58.882812 79.9375 L 59.230469 79.9375 L 59.574219 80.753906 L 59.921875 81.570312 L 60.269531 82.382812 L 60.269531 83.195312 L 15.238281 83.195312 L 15.238281 84.417969 L 14.894531 85.230469 L 14.894531 86.449219 L 15.238281 86.449219 L 15.933594 87.667969 L 16.28125 87.667969 L 16.625 88.480469 L 16.972656 88.882812 L 18.359375 89.695312 L 18.703125 89.695312 L 18.703125 90.507812 L 18.359375 90.910156 L 18.359375 91.722656 L 18.011719 92.128906 L 18.011719 92.9375 L 18.359375 93.746094 M 16.972656 97.386719 L 17.320312 97.386719 L 18.011719 96.980469 L 18.011719 97.386719 L 17.320312 97.386719 L 17.320312 97.789062 L 16.625 97.789062 L 16.625 97.386719 L 16.972656 97.386719 M 6.925781 98.191406 L 6.925781 98.597656 L 2.769531 98.597656 L 3.117188 98.597656 L 4.847656 98.191406 L 6.234375 98.191406 L 6.234375 97.789062 L 6.582031 97.789062 L 6.925781 98.191406 "/>
</svg>
