<?xml version="1.0" encoding="UTF-8"?>
<svg xmlns="http://www.w3.org/2000/svg" xmlns:xlink="http://www.w3.org/1999/xlink" width="87" height="74" viewBox="0 0 87 74">
<path fill-rule="nonzero" fill="rgb(63.921569%, 38.431373%, 89.019608%)" fill-opacity="1" d="M 75.773438 32.28125 L 76.125 33.132812 L 76.125 33.984375 L 75.773438 34.835938 L 74.722656 35.261719 L 72.96875 36.113281 L 72.617188 36.113281 L 72.617188 36.539062 L 72.96875 36.964844 L 72.96875 37.816406 L 71.214844 37.816406 L 71.214844 38.238281 L 70.863281 39.089844 L 70.511719 39.9375 L 70.863281 41.210938 L 70.863281 43.757812 L 70.511719 44.601562 L 70.160156 45.027344 L 69.460938 45.449219 L 69.109375 45.449219 L 68.40625 45.871094 L 68.054688 45.871094 L 68.054688 45.449219 L 67.707031 45.449219 L 67.707031 47.140625 L 67.355469 47.5625 L 66.652344 47.5625 L 65.953125 49.253906 L 65.25 49.253906 L 64.546875 50.097656 L 64.199219 50.097656 L 64.199219 50.941406 L 65.601562 51.363281 L 65.601562 52.207031 L 65.25 52.628906 L 63.847656 52.628906 L 63.144531 53.050781 L 62.792969 53.472656 L 62.09375 53.472656 L 61.742188 53.894531 L 62.09375 53.894531 L 62.09375 54.316406 L 62.445312 54.316406 L 62.792969 54.734375 L 62.445312 55.578125 L 62.445312 56.839844 L 62.792969 57.261719 L 62.445312 57.679688 L 62.445312 58.101562 L 61.390625 58.101562 L 61.039062 58.519531 L 60.691406 58.519531 L 59.988281 59.78125 L 59.636719 59.78125 L 59.636719 60.199219 L 59.988281 60.621094 L 60.691406 61.039062 L 61.039062 61.878906 L 60.691406 62.296875 L 59.636719 62.296875 L 59.285156 62.71875 L 59.988281 63.554688 L 60.339844 63.554688 L 60.691406 63.976562 L 61.390625 64.394531 L 61.390625 66.066406 L 61.039062 66.484375 L 60.339844 67.324219 L 60.339844 67.742188 L 60.691406 68.160156 L 61.390625 68.578125 L 61.742188 68.996094 L 61.742188 71.5 L 60.691406 71.5 L 60.691406 74 L 10.171875 74 L 10.171875 62.71875 L 9.472656 62.71875 L 9.121094 62.296875 L 8.070312 62.296875 L 7.367188 61.878906 L 7.367188 62.296875 L 6.664062 62.296875 L 5.964844 61.878906 L 5.613281 61.878906 L 5.261719 62.296875 L 5.261719 62.71875 L 4.210938 62.71875 L 3.859375 62.296875 L 4.210938 62.296875 L 3.859375 62.296875 L 3.15625 61.878906 L 2.804688 61.460938 L 2.804688 61.039062 L 2.457031 61.039062 L 2.457031 51.785156 L 2.804688 47.140625 L 2.804688 33.132812 L 3.15625 28.867188 L 3.15625 24.160156 L 2.804688 21.160156 L 2.457031 18.152344 L 2.105469 15.140625 L 1.753906 12.121094 L 1.050781 9.101562 L 0.703125 6.074219 L 0.351562 3.039062 L 0 0 L 78.230469 0 L 78.230469 0.433594 L 78.582031 0.867188 L 78.929688 0.867188 L 78.929688 1.738281 L 79.632812 2.171875 L 79.632812 2.605469 L 79.984375 2.605469 L 79.984375 3.039062 L 79.632812 3.472656 L 79.632812 3.90625 L 79.984375 4.339844 L 79.984375 4.773438 L 79.632812 4.773438 L 79.632812 5.207031 L 78.929688 5.207031 L 78.929688 6.074219 L 78.582031 6.074219 L 77.878906 6.503906 L 77.527344 6.9375 L 76.828125 6.9375 L 76.828125 7.804688 L 76.476562 8.234375 L 75.773438 8.234375 L 75.773438 8.667969 L 75.421875 8.667969 L 75.074219 9.101562 L 75.074219 9.53125 L 74.371094 10.828125 L 74.371094 11.261719 L 75.773438 11.261719 L 78.230469 10.828125 L 85.949219 10.828125 L 86.296875 11.691406 L 86.648438 12.121094 L 87 12.554688 L 86.648438 12.984375 L 85.949219 12.554688 L 85.597656 12.554688 L 85.246094 12.984375 L 84.894531 12.984375 L 84.894531 13.417969 L 85.246094 13.847656 L 85.597656 13.847656 L 85.949219 14.277344 L 84.894531 15.140625 L 82.089844 16.429688 L 81.738281 16.863281 L 81.738281 17.292969 L 82.089844 17.722656 L 82.789062 18.152344 L 82.441406 18.582031 L 82.441406 19.011719 L 82.089844 19.011719 L 81.738281 19.441406 L 82.089844 19.441406 L 82.089844 19.871094 L 82.441406 20.730469 L 81.738281 20.730469 L 81.386719 21.160156 L 80.683594 21.160156 L 80.683594 22.445312 L 80.335938 22.875 L 80.335938 23.304688 L 79.28125 24.160156 L 78.929688 24.589844 L 78.929688 26.300781 L 79.28125 27.15625 L 79.632812 28.4375 L 79.632812 29.292969 L 79.28125 29.71875 L 78.929688 29.71875 L 78.230469 29.292969 L 77.878906 29.71875 L 77.527344 30.148438 L 77.527344 31 L 77.175781 31.425781 L 76.476562 31.425781 L 76.125 31.855469 L 75.421875 31.855469 L 75.773438 32.28125 "/>
</svg>
