<svg width="100" height="50" viewBox="0 0 100 50" fill="none" xmlns="http://www.w3.org/2000/svg">
<path d="M6.32408 34.76L7.48653 35.4058C7.94193 35.6588 8.51526 35.5198 8.80423 35.0864L10.0302 33.2475C10.1637 33.0472 10.3885 32.9269 10.6292 32.9269C10.9725 32.9269 11.268 33.1691 11.3353 33.5057L11.5686 34.6721C11.6517 35.0879 11.988 35.406 12.4077 35.466L13.4146 35.6098L15.7223 36.0713C15.8095 36.0888 15.8939 36.1177 15.9734 36.1575L16.8293 36.5854L17.7063 37.1701C18.058 37.4045 18.2243 37.8347 18.1218 38.2447L17.8655 39.2697C17.8257 39.4289 17.8257 39.5955 17.8655 39.7548L18.2927 41.4635L18.6912 43.4562C18.7479 43.7397 18.9246 43.9848 19.1757 44.1283L22.1951 45.8537L23.1757 46.5074C23.4743 46.7065 23.8566 46.7303 24.1776 46.5698L24.5706 46.3733C24.6129 46.3521 24.6567 46.334 24.7016 46.319L25.8205 45.9461C25.9979 45.8869 26.1915 45.9007 26.3588 45.9843C26.7381 46.174 26.8654 46.6532 26.6301 47.0061L26.3689 47.398C26.1977 47.6547 26.1546 47.9762 26.2522 48.2689L26.5107 49.0444C26.5598 49.1917 26.6425 49.3255 26.7523 49.4353L26.7803 49.4633C26.9678 49.6508 27.2222 49.7561 27.4874 49.7561H27.8127C27.968 49.7561 28.1211 49.72 28.2599 49.6506L28.7869 49.3871C28.9425 49.3093 29.0752 49.1922 29.1717 49.0474L29.9039 47.9491C29.9675 47.8537 30.0142 47.7481 30.042 47.6369L30.3141 46.5487C30.4876 45.8545 31.376 45.6513 31.8341 46.201C31.9114 46.2937 32.0069 46.3694 32.1148 46.4233L33.2578 46.9948C33.6428 47.1873 34.1077 47.1118 34.4121 46.8075L34.6287 46.5908C34.7884 46.4312 34.878 46.2147 34.878 45.9889C34.878 45.7476 34.9805 45.5176 35.1598 45.3562L37.1763 43.5414C37.2693 43.4577 37.3458 43.3572 37.4018 43.2453L37.7323 42.5842C37.7804 42.4881 37.8436 42.4003 37.9196 42.3243L38.6657 41.5782C38.7417 41.5022 38.8295 41.439 38.9256 41.3909L40.1789 40.7642C40.5177 40.5948 40.7317 40.2486 40.7317 39.8698V39.0166C40.7317 38.8614 40.7679 38.7082 40.8373 38.5694L41.1093 38.0253C41.1817 37.8805 41.2881 37.7555 41.4195 37.661L46.8376 33.7599C47.0696 33.5929 47.0633 33.2455 46.8255 33.0869C46.6815 32.9909 46.6134 32.8148 46.6553 32.6469L46.8026 32.0578C46.8203 31.987 46.8457 31.9183 46.8784 31.8531L47.2755 31.0588C47.3032 31.0035 47.3256 30.9457 47.3426 30.8863L47.7299 29.5307C47.779 29.3589 47.8732 29.2034 48.0027 29.0804L52.5748 24.7369C52.6465 24.6688 52.7279 24.6117 52.8163 24.5675L54.2637 23.8438C54.5009 23.7252 54.6813 23.5172 54.7651 23.2656L54.9153 22.8151C55.0395 22.4426 54.9183 22.0322 54.6117 21.7869C54.2165 21.4707 54.1437 20.8978 54.4474 20.4929L54.5915 20.3008C54.6199 20.2629 54.6509 20.2271 54.6844 20.1937L55.0368 19.8412C55.3332 19.5448 55.2844 19.0514 54.9356 18.8189C54.8973 18.7934 54.8565 18.7719 54.8138 18.7548L54.1953 18.5074C53.8632 18.3746 53.6274 18.0745 53.5768 17.7204L53.4887 17.1041C53.4423 16.7792 53.2395 16.4978 52.946 16.3511L52.6502 16.2032C52.5113 16.1337 52.3582 16.0976 52.203 16.0976H50.7239C50.5686 16.0976 50.4155 16.0614 50.2767 15.992L49.5122 15.6098L48.7032 15.2053C48.6011 15.1542 48.5366 15.0498 48.5366 14.9356C48.5366 14.7691 48.6716 14.6342 48.8381 14.6342H52.6908C52.846 14.6342 52.9991 14.598 53.138 14.5286L53.6913 14.2519C53.8302 14.1825 53.9833 14.1464 54.1385 14.1464H56.2587C56.3138 14.1464 56.3688 14.1509 56.4231 14.16L58.2819 14.4698C58.8267 14.5606 59.1947 15.0758 59.1039 15.6206L58.8059 17.4084C58.7891 17.5095 58.7879 17.6127 58.8024 17.7142L59.1456 20.1171C59.216 20.6097 59.6379 20.9756 60.1356 20.9756H63.061C63.1339 20.9756 63.2067 20.9676 63.2779 20.9518L67.2767 20.0632C67.4624 20.0219 67.6324 19.9286 67.7669 19.7941L67.9036 19.6574C67.9994 19.5616 68.0747 19.4474 68.125 19.3216L68.3071 18.8665C68.4477 18.5149 68.775 18.2728 69.1525 18.2414L71.0984 18.0792C71.3341 18.0596 71.5552 17.957 71.7224 17.7898L72.369 17.1432C72.4156 17.0966 72.4574 17.0456 72.4939 16.9908L73.3037 15.7762C73.3769 15.6663 73.4712 15.5721 73.581 15.4988L74.7134 14.7439C74.8221 14.6714 74.9439 14.621 75.072 14.5954L76.8786 14.234C77.1576 14.1782 77.4472 14.2439 77.6748 14.4146L78.6006 15.109C78.9873 15.399 79.1112 15.924 78.8951 16.3562L78.8861 16.3742C78.8166 16.5131 78.7805 16.6662 78.7805 16.8214V17.5136C78.7805 17.848 78.9476 18.1602 79.2258 18.3457L79.992 18.8565C80.1562 18.966 80.3493 19.0244 80.5467 19.0244H81.1978C81.3719 19.0244 81.5429 18.979 81.694 18.8927L83.1707 18.0488L84.1463 17.561L85.1219 17.0732L85.7643 16.752C85.9685 16.6499 86.0976 16.4411 86.0976 16.2127C86.0976 15.8797 86.3675 15.6098 86.7005 15.6098H88.9219C89.2837 15.6098 89.6144 15.4054 89.7762 15.0818C89.9164 14.8014 90.1851 14.6077 90.4954 14.5634L92.749 14.2414C93.1515 14.1839 93.4791 13.8885 93.5777 13.494L93.9024 12.1951L94.3518 10.6225C94.3773 10.5331 94.3902 10.4407 94.3902 10.3478V9.81368C94.3902 9.47944 94.2014 9.17388 93.9024 9.0244C93.6035 8.87492 93.4146 8.56936 93.4146 8.23512V7.13205C93.4146 6.93463 93.4731 6.74162 93.5826 6.57735L93.9705 5.99551C94.1934 5.66117 94.0728 5.20713 93.7134 5.02743C93.5253 4.9334 93.3039 4.9334 93.1159 5.02743L92.5372 5.31677C92.4719 5.3494 92.4033 5.37479 92.3325 5.39248L90.8467 5.76394C90.6151 5.82184 90.3704 5.79498 90.1569 5.68823L89.7233 5.47143C89.5845 5.402 89.4314 5.36586 89.2761 5.36586H88.6668C88.288 5.36586 87.9418 5.57986 87.7724 5.91865L87.6335 6.19632C87.5855 6.29246 87.5222 6.38022 87.4462 6.45622L87.35 6.55245C87.1727 6.7297 86.9323 6.82928 86.6817 6.82928C86.3237 6.82928 85.9964 7.03154 85.8363 7.35173L85.7153 7.59374C85.6459 7.7326 85.6097 7.88571 85.6097 8.04096V10C85.6097 10.4041 85.2822 10.7317 84.878 10.7317C84.4739 10.7317 84.1463 10.4041 84.1463 10V9.88127C84.1463 9.51521 83.9121 9.19022 83.5648 9.07446L82.9069 8.85515C82.7596 8.80606 82.6258 8.72335 82.516 8.61357L82.488 8.58559C82.3005 8.39805 82.0461 8.29269 81.7809 8.29269H80.4878H79.9922C79.8369 8.29269 79.6838 8.32884 79.5449 8.39826L79.3975 8.47198C79.029 8.65622 78.584 8.584 78.2927 8.29269L77.4318 7.43183C77.3558 7.35583 77.2681 7.29257 77.1719 7.24451L76.884 7.10053C76.56 6.93854 76.1687 7.00203 75.9126 7.25816C75.8734 7.29734 75.8382 7.3403 75.8074 7.38641L75.5803 7.72712C75.4423 7.9341 75.2321 8.08222 74.9908 8.14255L74.659 8.22551C74.4831 8.26947 74.3225 8.36039 74.1944 8.48855L74.0593 8.6236C73.9579 8.72506 73.8244 8.7883 73.6817 8.80257L72.6471 8.90603C72.313 8.93944 72.1464 8.51212 72.4151 8.31064C72.431 8.2987 72.448 8.28821 72.4658 8.27932L73.4146 7.80489L73.9539 7.53523C74.2213 7.40154 74.3902 7.12823 74.3902 6.82928C74.3902 6.53032 74.2213 6.25702 73.9539 6.12332L73.7055 5.99909C73.5165 5.90458 73.3023 5.87238 73.0939 5.90712L70.8648 6.27863C70.6282 6.31807 70.3871 6.24081 70.2175 6.0712C70.0782 5.93191 69.8893 5.85366 69.6924 5.85366H69.183C69.0814 5.85366 68.984 5.89401 68.9122 5.96582L68.8034 6.07467C68.6721 6.20593 68.4509 6.17002 68.3678 6.00399C68.3218 5.91186 68.2276 5.85366 68.1246 5.85366H67.4133C67.2254 5.85366 67.0732 6.00594 67.0732 6.19377C67.0732 6.46542 66.7704 6.62744 66.5444 6.47676L66.4435 6.40949C66.377 6.36514 66.2988 6.34147 66.2188 6.34147H66.1009C65.7999 6.34147 65.5247 6.51152 65.3901 6.78073L64.6829 8.19513C64.6513 8.25846 64.5999 8.30981 64.5366 8.34147C64.2553 8.48211 63.9579 8.18178 64.0985 7.90051C64.1295 7.8385 64.1402 7.76805 64.1288 7.69967L64.0722 7.3602C63.9794 6.80296 63.4437 6.43322 62.8897 6.54401L62.8142 6.55911C62.7271 6.57654 62.6426 6.60551 62.5631 6.64526L62.3021 6.77577C61.7736 7.04001 61.1427 6.70232 61.0694 6.11602L61.0553 6.00306C61.0098 5.63903 60.7003 5.36586 60.3335 5.36586C60.274 5.36586 60.2147 5.37315 60.157 5.38758L58.5614 5.78649C58.3856 5.83044 58.225 5.92136 58.0968 6.04952L57.5191 6.62722C57.3898 6.75659 57.2143 6.82928 57.0313 6.82928H56.8181C56.5549 6.82928 56.3415 6.61588 56.3415 6.35265C56.3415 6.19329 56.4211 6.04447 56.5537 5.95607L57.3596 5.41882C57.6378 5.23336 57.8049 4.92113 57.8049 4.58677V3.31079C57.8049 3.21787 57.8178 3.12541 57.8433 3.03607L58.1968 1.79892C58.2576 1.58608 58.2219 1.35727 58.0991 1.17309C57.7648 0.671653 57.0066 0.745133 56.7748 1.30143L56.2217 2.62893C56.141 2.82261 56.0014 2.986 55.8227 3.09597L52.9268 4.87805L51.2478 5.62429C50.9275 5.76664 50.7051 6.06628 50.6617 6.41407L50.6349 6.62773C50.5588 7.23671 49.9446 7.62382 49.3624 7.42974C49.1441 7.357 48.9072 7.36396 48.6936 7.44939L47.016 8.12044C46.7429 8.22969 46.5317 8.45363 46.4387 8.73269L46.2285 9.36315C46.1447 9.61476 45.9643 9.82274 45.7271 9.94135L45.3331 10.1383C45.1942 10.2078 45.0411 10.2439 44.8859 10.2439H44.3824C44.2272 10.2439 44.0741 10.2801 43.9352 10.3495L43.4689 10.5826C43.2753 10.6794 43.1184 10.8363 43.0217 11.0299L42.7844 11.5044C42.7176 11.638 42.6217 11.7549 42.5039 11.8466L40.7399 13.2186C40.5759 13.3461 40.4557 13.5216 40.396 13.7206L39.7561 15.8537L39.3398 16.8944C39.2926 17.0125 39.2683 17.1386 39.2683 17.2658V18.2791C39.2683 18.4369 39.3575 18.5812 39.4986 18.6518L39.5935 18.6992C39.8615 18.8332 39.8615 19.2156 39.5935 19.3496C39.4139 19.4394 39.1955 19.3666 39.1057 19.187L38.8896 18.7548C38.8227 18.6211 38.6861 18.5366 38.5366 18.5366H38.2191C37.9539 18.5366 37.6995 18.4312 37.512 18.2437L37.4425 18.1743C37.0906 17.8224 36.5336 17.7828 36.1354 18.0814L34.9349 18.9818C34.897 19.0102 34.8613 19.0412 34.8278 19.0747L33.6287 20.2737C33.4891 20.4133 33.3113 20.5085 33.1177 20.5472L31.2018 20.9304C31.0543 20.9599 30.9189 21.0324 30.8125 21.1387L30.101 21.8502C29.8837 22.0675 29.5122 21.9136 29.5122 21.6063C29.5122 21.5148 29.4759 21.4271 29.4112 21.3624L29.2683 21.2195C29.1121 21.0634 28.9003 20.9756 28.6795 20.9756H28.2508C27.8698 20.9756 27.561 20.6668 27.561 20.2858C27.561 20.1028 27.4866 19.9257 27.3572 19.7963C27.1825 19.6215 26.9265 19.5489 26.6867 19.6088L26.4554 19.6667C26.2251 19.7242 26.0246 19.8655 25.893 20.063C25.716 20.3284 25.4182 20.4878 25.0992 20.4878H24.5606C24.2953 20.4878 24.041 20.5932 23.8534 20.7807L23.6585 20.9756L23.4636 21.1705C23.2761 21.3581 23.0217 21.4634 22.7565 21.4634H21.4634C21.3287 21.4634 21.2195 21.5726 21.2195 21.7073C21.2195 21.842 21.1103 21.9512 20.9756 21.9512H20.7317C20.4623 21.9512 20.2439 21.7328 20.2439 21.4634V21.1008C20.2439 20.7347 20.0097 20.4097 19.6624 20.294L19.2324 20.1507C18.9554 20.0583 18.6501 20.1304 18.4436 20.3369C18.3449 20.4356 18.2211 20.5057 18.0856 20.5396L16.448 20.949C16.3772 20.9667 16.3085 20.9921 16.2433 21.0247L15.8849 21.2039C15.5639 21.3644 15.1816 21.3406 14.883 21.1415L14.6081 20.9583C14.2122 20.6943 13.6791 20.7857 13.3936 21.1663C13.2509 21.3566 13.0385 21.4823 12.8031 21.516L11.7934 21.6602C11.5792 21.6908 11.3807 21.79 11.2277 21.943L8.8272 24.3436C8.5164 24.6544 8.02944 24.7026 7.66372 24.4588C7.59553 24.4133 7.52158 24.3771 7.44383 24.3512L7.08839 24.2327C6.54827 24.0527 5.96704 24.3593 5.81064 24.9067L5.70217 25.2863C5.64221 25.4962 5.51525 25.6807 5.34065 25.8116L2.90726 27.6367C2.76053 27.7467 2.6469 27.895 2.57878 28.0653L2.19512 29.0244L1.88096 30.124C1.7749 30.4952 1.46464 30.7722 1.08384 30.8357L0.866528 30.8719C0.491746 30.9343 0.194626 31.222 0.120111 31.5946C0.0474332 31.958 0.201241 32.3293 0.509588 32.5349L1.21149 33.0028C1.37576 33.1123 1.56877 33.1708 1.76619 33.1708H2.87945C3.2138 33.1708 3.52603 33.3379 3.7115 33.6161L4.09338 34.1889C4.27884 34.4671 4.59107 34.6342 4.92543 34.6342H5.83844C6.00838 34.6342 6.17552 34.6775 6.32408 34.76Z" fill="#A362E3"/>
<path d="M95.1749 16.526L96.7923 16.2025C97.1201 16.137 97.4591 16.2396 97.6955 16.476L97.8819 16.6624C97.9916 16.7721 98.1255 16.8548 98.2727 16.9039L99.1192 17.1861C99.3708 17.27 99.5788 17.4504 99.6974 17.6876L99.8466 17.9858C99.946 18.1847 99.9763 18.4111 99.9327 18.6291L99.7824 19.3809C99.7649 19.4681 99.736 19.5525 99.6962 19.632L99.5447 19.935C99.3753 20.2738 99.029 20.4878 98.6503 20.4878H95.2915C95.0268 20.4878 94.7729 20.3827 94.5857 20.1955C94.4578 20.0676 94.3671 19.9073 94.3232 19.7318L93.9922 18.4077C93.9343 18.1761 93.9611 17.9314 94.0679 17.7179L94.3177 17.2183C94.3657 17.1222 94.429 17.0344 94.505 16.9584L94.664 16.7995C94.8036 16.6599 94.9814 16.5647 95.1749 16.526Z" fill="#A362E3"/>
</svg>
