<?xml version="1.0" encoding="UTF-8"?>
<svg xmlns="http://www.w3.org/2000/svg" xmlns:xlink="http://www.w3.org/1999/xlink" width="101" height="120" viewBox="0 0 101 120">
<path fill-rule="nonzero" fill="rgb(63.921569%, 38.431373%, 89.019608%)" fill-opacity="1" d="M 66.75 120 L 65.703125 119.589844 L 65.003906 119.589844 L 64.304688 119.183594 L 63.257812 118.773438 L 62.558594 118.363281 L 61.507812 118.363281 L 60.460938 117.953125 L 59.761719 117.542969 L 58.710938 117.136719 L 58.015625 116.726562 L 50.675781 114.265625 L 43.683594 111.804688 L 36.347656 108.925781 L 29.355469 106.457031 L 22.015625 103.984375 L 15.027344 101.09375 L 7.6875 98.613281 L 0.699219 96.132812 L 0 95.71875 L 0.347656 95.304688 L 0.347656 93.644531 L 0.699219 93.230469 L 1.046875 92.816406 L 1.046875 92.402344 L 1.398438 92.402344 L 1.398438 91.984375 L 1.746094 91.15625 L 2.445312 90.738281 L 4.894531 90.738281 L 5.242188 90.324219 L 5.242188 89.492188 L 5.589844 89.078125 L 5.941406 88.660156 L 6.289062 88.246094 L 6.289062 87.832031 L 5.941406 86.582031 L 5.941406 86.164062 L 6.289062 85.75 L 5.941406 85.75 L 5.589844 84.914062 L 4.894531 84.5 L 3.496094 84.5 L 2.097656 83.664062 L 2.097656 82.832031 L 2.445312 81.996094 L 2.445312 79.910156 L 2.097656 79.492188 L 1.746094 79.074219 L 1.746094 78.238281 L 2.097656 77.820312 L 2.097656 77.402344 L 1.746094 77.402344 L 1.746094 76.5625 L 3.144531 76.5625 L 3.496094 76.144531 L 4.195312 74.890625 L 4.195312 74.46875 L 4.542969 74.050781 L 4.894531 74.050781 L 4.894531 73.632812 L 5.242188 73.210938 L 4.894531 72.792969 L 4.894531 72.375 L 5.242188 72.375 L 5.242188 71.113281 L 5.589844 70.695312 L 5.589844 70.273438 L 5.941406 70.273438 L 5.589844 69.855469 L 5.589844 68.59375 L 5.242188 68.59375 L 5.242188 67.332031 L 5.589844 66.910156 L 5.941406 66.488281 L 5.589844 66.488281 L 5.242188 66.070312 L 5.242188 65.226562 L 5.589844 64.804688 L 6.289062 64.382812 L 6.640625 63.960938 L 6.988281 63.960938 L 6.988281 63.542969 L 7.339844 62.277344 L 7.6875 61.855469 L 8.386719 61.433594 L 10.136719 60.164062 L 10.484375 60.164062 L 10.832031 59.320312 L 12.230469 58.476562 L 12.230469 57.628906 L 11.53125 57.207031 L 11.53125 56.78125 L 11.183594 56.78125 L 10.832031 56.359375 L 9.4375 55.511719 L 9.085938 55.089844 L 8.738281 55.089844 L 8.738281 54.664062 L 8.039062 54.664062 L 8.039062 54.242188 L 7.6875 54.242188 L 7.6875 53.394531 L 8.039062 52.96875 L 7.6875 52.96875 L 7.6875 52.546875 L 7.339844 52.121094 L 6.988281 51.695312 L 6.988281 50.847656 L 5.589844 48.296875 L 4.894531 48.296875 L 4.542969 47.871094 L 4.542969 46.597656 L 4.195312 46.171875 L 3.496094 46.171875 L 3.496094 42.761719 L 3.144531 42.335938 L 3.496094 41.480469 L 3.496094 41.054688 L 3.144531 40.628906 L 3.144531 40.199219 L 4.195312 40.199219 L 4.195312 36.777344 L 3.84375 36.351562 L 3.84375 35.066406 L 3.144531 34.207031 L 2.796875 32.921875 L 2.796875 32.0625 L 3.144531 31.203125 L 2.796875 30.347656 L 3.144531 29.484375 L 2.796875 29.484375 L 2.445312 27.765625 L 2.097656 27.335938 L 2.097656 25.613281 L 2.445312 25.183594 L 2.445312 24.75 L 2.796875 24.320312 L 2.445312 23.890625 L 1.746094 23.027344 L 1.746094 22.59375 L 1.398438 22.164062 L 1.398438 21.300781 L 1.746094 21.300781 L 1.746094 19.570312 L 2.097656 19.570312 L 2.097656 19.136719 L 2.796875 19.136719 L 3.144531 18.707031 L 4.195312 18.273438 L 4.894531 18.273438 L 5.589844 18.707031 L 6.289062 18.707031 L 6.289062 19.136719 L 6.988281 19.136719 L 6.988281 18.707031 L 8.386719 18.707031 L 8.738281 19.136719 L 9.085938 20.003906 L 9.4375 20.433594 L 9.4375 20.867188 L 9.785156 20.867188 L 10.136719 21.300781 L 11.53125 21.300781 L 12.230469 20.867188 L 12.582031 20.003906 L 12.582031 19.136719 L 12.929688 18.273438 L 13.28125 17.839844 L 13.628906 17.40625 L 13.628906 0 L 101 0 L 101 120 L 66.75 120 "/>
</svg>
