<?xml version="1.0" encoding="UTF-8"?>
<svg xmlns="http://www.w3.org/2000/svg" xmlns:xlink="http://www.w3.org/1999/xlink" width="179" height="208" viewBox="0 0 179 208">
<path fill-rule="nonzero" fill="rgb(63.921569%, 38.431373%, 89.019608%)" fill-opacity="1" d="M 168.550781 204.269531 L 167.855469 204.683594 L 164.023438 204.683594 L 162.632812 205.097656 L 158.800781 205.097656 L 157.410156 205.515625 L 154.972656 205.515625 L 153.578125 205.929688 L 149.746094 205.929688 L 148.703125 206.34375 L 145.917969 206.34375 L 144.871094 206.757812 L 141.039062 206.757812 L 139.648438 207.171875 L 135.816406 207.171875 L 134.425781 207.585938 L 131.988281 207.585938 L 130.59375 208 L 126.761719 208 L 126.414062 207.585938 L 126.414062 205.929688 L 126.066406 205.515625 L 125.71875 205.097656 L 125.019531 205.097656 L 125.019531 204.683594 L 125.371094 204.269531 L 125.71875 204.683594 L 126.066406 204.683594 L 126.066406 205.097656 L 126.414062 205.515625 L 126.414062 205.929688 L 126.761719 206.757812 L 127.109375 206.757812 L 127.109375 206.34375 L 126.761719 205.515625 L 126.761719 205.097656 L 126.414062 205.097656 L 126.414062 204.683594 L 126.066406 204.683594 L 125.71875 204.269531 L 125.019531 204.269531 L 124.671875 204.683594 L 124.671875 205.515625 L 124.671875 205.097656 L 124.324219 204.683594 L 124.324219 203.023438 L 123.976562 202.195312 L 123.976562 201.363281 L 124.324219 201.777344 L 124.324219 200.53125 L 123.976562 198.453125 L 123.976562 198.035156 L 123.628906 197.617188 L 123.28125 196.367188 L 122.582031 195.117188 L 120.144531 191.363281 L 118.40625 190.109375 L 117.359375 189.269531 L 117.011719 188.851562 L 116.316406 188.433594 L 115.96875 188.433594 L 115.269531 187.597656 L 114.574219 186.757812 L 113.527344 185.921875 L 112.484375 185.921875 L 111.789062 185.082031 L 109.699219 182.984375 L 109.351562 182.984375 L 108.652344 182.566406 L 107.957031 182.566406 L 108.304688 182.984375 L 107.609375 182.984375 L 107.609375 182.144531 L 107.261719 182.566406 L 106.5625 182.566406 L 106.5625 183.824219 L 106.214844 183.824219 L 105.867188 183.40625 L 105.171875 183.40625 L 105.171875 182.984375 L 104.125 182.984375 L 104.125 182.144531 L 104.476562 181.726562 L 104.476562 180.042969 L 104.125 179.625 L 103.777344 178.78125 L 103.082031 177.519531 L 102.386719 177.097656 L 102.035156 176.675781 L 99.25 176.675781 L 99.25 177.097656 L 98.554688 176.675781 L 98.207031 177.097656 L 97.507812 177.097656 L 97.507812 177.519531 L 97.160156 177.097656 L 96.464844 176.675781 L 94.722656 176.675781 L 94.375 176.253906 L 94.027344 176.253906 L 93.332031 175.835938 L 92.984375 175.835938 L 92.632812 175.414062 L 91.9375 175.414062 L 92.285156 175.414062 L 91.9375 175.414062 L 91.242188 174.992188 L 90.542969 174.570312 L 90.542969 174.148438 L 90.195312 174.148438 L 90.195312 174.570312 L 90.195312 174.148438 L 89.847656 174.148438 L 89.847656 173.304688 L 89.5 173.304688 L 89.5 172.039062 L 89.152344 172.039062 L 89.152344 171.613281 L 88.457031 171.613281 L 88.105469 171.191406 L 87.757812 170.769531 L 87.0625 170.769531 L 87.0625 170.347656 L 86.714844 170.347656 L 86.714844 169.925781 L 86.015625 169.925781 L 86.015625 169.5 L 84.972656 169.5 L 84.972656 169.078125 L 84.625 169.078125 L 84.277344 168.65625 L 82.1875 168.65625 L 81.839844 169.078125 L 80.792969 169.078125 L 80.445312 168.65625 L 79.402344 168.65625 L 79.402344 169.078125 L 78.703125 169.078125 L 78.355469 168.65625 L 78.007812 168.230469 L 76.964844 168.230469 L 76.613281 167.808594 L 74.875 167.808594 L 74.175781 167.386719 L 73.480469 167.808594 L 68.953125 167.808594 L 68.605469 168.230469 L 68.257812 167.808594 L 67.910156 166.960938 L 67.910156 166.539062 L 67.210938 166.113281 L 66.863281 166.113281 L 66.515625 165.691406 L 65.472656 165.691406 L 65.472656 164.417969 L 65.820312 163.570312 L 66.167969 163.144531 L 66.167969 162.71875 L 65.820312 162.296875 L 65.820312 161.871094 L 65.472656 161.445312 L 65.820312 161.019531 L 65.820312 159.320312 L 65.472656 158.894531 L 65.472656 158.46875 L 64.773438 158.46875 L 65.121094 157.617188 L 65.472656 156.339844 L 65.472656 153.355469 L 65.121094 153.355469 L 65.121094 152.925781 L 64.425781 152.925781 L 64.425781 152.5 L 63.382812 152.5 L 63.382812 152.925781 L 62.683594 152.5 L 61.988281 152.074219 L 61.292969 151.644531 L 61.292969 151.21875 L 60.945312 151.21875 L 60.945312 150.363281 L 61.292969 150.363281 L 61.640625 149.078125 L 61.640625 149.507812 L 61.988281 149.507812 L 61.988281 149.078125 L 61.640625 148.652344 L 61.640625 148.222656 L 61.292969 147.796875 L 61.292969 146.9375 L 60.246094 146.9375 L 59.898438 146.511719 L 59.203125 146.511719 L 58.503906 146.082031 L 58.15625 145.222656 L 57.460938 144.796875 L 56.765625 143.507812 L 56.417969 143.078125 L 56.417969 142.648438 L 55.371094 142.648438 L 55.023438 142.21875 L 54.328125 142.21875 L 54.328125 141.789062 L 53.980469 141.359375 L 53.628906 140.929688 L 53.628906 140.070312 L 53.28125 139.640625 L 52.933594 138.777344 L 52.585938 138.777344 L 51.890625 137.917969 L 51.539062 137.917969 L 51.191406 137.488281 L 51.191406 137.054688 L 50.84375 136.625 L 50.84375 135.332031 L 50.496094 134.898438 L 50.148438 134.46875 L 49.453125 134.46875 L 49.101562 134.035156 L 48.753906 133.605469 L 48.753906 133.171875 L 48.40625 133.171875 L 48.058594 132.308594 L 47.710938 131.875 L 47.363281 131.445312 L 47.011719 131.011719 L 46.664062 130.578125 L 45.96875 130.148438 L 45.621094 130.148438 L 45.273438 129.714844 L 44.574219 129.714844 L 44.574219 128.847656 L 44.226562 128.847656 L 43.878906 128.414062 L 43.53125 128.414062 L 43.53125 126.246094 L 43.183594 126.246094 L 43.183594 125.378906 L 42.835938 124.945312 L 42.835938 123.644531 L 42.488281 123.644531 L 43.183594 123.644531 L 43.183594 123.210938 L 42.835938 123.210938 L 42.835938 122.773438 L 42.136719 122.773438 L 42.136719 122.339844 L 42.488281 122.339844 L 42.488281 121.46875 L 42.488281 121.90625 L 42.835938 121.46875 L 42.835938 121.035156 L 43.183594 121.035156 L 43.183594 121.46875 L 43.53125 121.46875 L 43.878906 121.90625 L 44.226562 121.46875 L 44.574219 121.035156 L 44.925781 120.601562 L 44.925781 120.164062 L 45.273438 119.292969 L 45.273438 118.859375 L 45.96875 119.292969 L 45.96875 118.859375 L 45.273438 118.859375 L 45.273438 117.988281 L 45.621094 117.550781 L 45.273438 116.679688 L 44.226562 114.933594 L 43.878906 114.058594 L 43.53125 114.058594 L 42.835938 113.621094 L 42.488281 113.621094 L 42.488281 114.058594 L 41.09375 114.058594 L 41.09375 114.496094 L 40.746094 114.496094 L 40.398438 114.058594 L 39.351562 114.058594 L 39.351562 113.621094 L 39.003906 113.621094 L 38.65625 113.1875 L 38.308594 112.75 L 37.960938 112.75 L 37.960938 112.3125 L 37.261719 111.875 L 37.261719 111.4375 L 36.914062 111 L 36.566406 111 L 36.566406 110.5625 L 35.871094 110.5625 L 35.871094 110.125 L 35.519531 109.683594 L 35.519531 109.246094 L 34.824219 109.246094 L 34.824219 108.371094 L 34.476562 108.371094 L 34.476562 107.492188 L 34.824219 106.617188 L 34.824219 105.300781 L 34.476562 104.859375 L 34.476562 104.421875 L 34.128906 103.542969 L 34.128906 102.660156 L 33.78125 102.222656 L 33.082031 102.222656 L 32.734375 101.78125 L 32.734375 100.019531 L 33.082031 100.019531 L 33.082031 97.375 L 32.734375 96.492188 L 32.734375 96.050781 L 33.082031 96.050781 L 33.433594 95.609375 L 33.433594 95.167969 L 33.78125 95.609375 L 34.476562 95.167969 L 34.824219 95.167969 L 34.824219 95.609375 L 35.171875 95.609375 L 35.171875 96.933594 L 35.519531 96.933594 L 35.519531 97.375 L 35.171875 97.375 L 35.171875 97.816406 L 34.824219 97.375 L 35.171875 98.257812 L 35.171875 99.140625 L 35.519531 99.578125 L 35.519531 100.019531 L 35.171875 99.578125 L 35.171875 100.019531 L 35.519531 100.019531 L 35.871094 100.460938 L 37.261719 100.460938 L 37.261719 100.902344 L 37.609375 100.902344 L 37.609375 101.339844 L 38.308594 101.339844 L 38.308594 101.78125 L 38.65625 102.222656 L 39.351562 102.222656 L 39.699219 102.660156 L 39.699219 103.101562 L 40.046875 103.101562 L 40.398438 103.542969 L 40.746094 103.542969 L 41.09375 103.101562 L 40.746094 102.660156 L 40.746094 102.222656 L 40.046875 102.222656 L 40.046875 101.78125 L 39.699219 101.339844 L 39.351562 100.460938 L 39.003906 99.578125 L 39.003906 98.699219 L 38.65625 97.816406 L 38.308594 97.816406 L 38.308594 97.375 L 37.960938 97.816406 L 37.261719 97.375 L 37.261719 96.933594 L 37.960938 96.933594 L 37.960938 96.492188 L 36.914062 96.492188 L 36.566406 96.050781 L 35.871094 96.050781 L 36.21875 95.609375 L 35.871094 95.609375 L 35.871094 95.167969 L 36.566406 95.167969 L 36.566406 94.28125 L 36.21875 94.28125 L 36.566406 93.839844 L 36.21875 93.839844 L 36.21875 93.398438 L 34.824219 93.398438 L 35.171875 92.957031 L 34.824219 92.957031 L 34.476562 92.511719 L 34.476562 92.070312 L 34.824219 92.070312 L 34.824219 91.628906 L 35.519531 91.628906 L 35.519531 90.742188 L 35.871094 91.183594 L 36.21875 91.183594 L 36.21875 90.742188 L 36.914062 90.742188 L 36.914062 90.296875 L 37.261719 90.296875 L 37.609375 89.855469 L 38.308594 89.855469 L 38.65625 90.296875 L 39.003906 90.742188 L 39.699219 90.742188 L 40.398438 90.296875 L 40.746094 89.855469 L 41.789062 89.855469 L 42.835938 90.296875 L 43.878906 90.296875 L 44.574219 90.742188 L 46.664062 90.742188 L 47.011719 91.183594 L 47.363281 90.742188 L 46.664062 90.742188 L 46.664062 90.296875 L 47.363281 90.296875 L 47.363281 89.410156 L 48.40625 89.410156 L 48.40625 88.96875 L 49.101562 88.96875 L 49.101562 89.855469 L 48.40625 89.855469 L 48.058594 90.296875 L 48.40625 90.296875 L 48.40625 90.742188 L 49.101562 90.742188 L 49.101562 89.855469 L 49.800781 89.855469 L 50.148438 90.296875 L 50.496094 90.296875 L 50.84375 90.742188 L 51.191406 91.183594 L 51.539062 91.183594 L 51.191406 90.742188 L 50.84375 90.296875 L 50.496094 90.296875 L 50.148438 89.855469 L 49.800781 89.855469 L 49.453125 89.410156 L 49.101562 88.96875 L 47.363281 88.96875 L 47.363281 89.855469 L 47.011719 89.855469 L 46.664062 90.296875 L 46.316406 90.742188 L 45.96875 90.296875 L 45.621094 90.296875 L 45.621094 89.855469 L 45.96875 89.855469 L 45.96875 89.410156 L 46.316406 89.410156 L 46.664062 88.96875 L 47.011719 88.96875 L 47.363281 88.523438 L 47.363281 88.082031 L 47.011719 88.523438 L 46.664062 88.96875 L 46.316406 89.410156 L 45.96875 89.410156 L 45.273438 89.855469 L 44.925781 89.855469 L 44.574219 89.410156 L 44.226562 89.410156 L 44.226562 89.855469 L 43.183594 89.855469 L 43.53125 89.410156 L 42.136719 89.410156 L 41.441406 88.96875 L 42.136719 88.523438 L 41.789062 88.082031 L 40.746094 88.082031 L 40.746094 88.523438 L 40.398438 88.96875 L 40.046875 89.410156 L 39.699219 89.855469 L 39.351562 90.296875 L 39.003906 90.296875 L 39.003906 89.855469 L 37.960938 89.855469 L 37.609375 89.410156 L 37.261719 89.855469 L 36.914062 89.410156 L 36.566406 88.96875 L 34.824219 87.636719 L 34.476562 88.082031 L 34.128906 88.523438 L 33.082031 88.523438 L 33.433594 88.96875 L 33.433594 89.410156 L 33.082031 89.855469 L 33.082031 90.742188 L 33.78125 91.183594 L 34.128906 91.628906 L 33.433594 91.628906 L 33.082031 92.070312 L 33.433594 92.511719 L 33.082031 92.511719 L 33.082031 92.957031 L 33.433594 92.957031 L 33.433594 93.398438 L 34.128906 93.398438 L 34.128906 93.839844 L 33.78125 93.839844 L 33.78125 94.28125 L 33.433594 93.839844 L 33.082031 93.398438 L 33.082031 93.839844 L 33.433594 94.28125 L 33.433594 95.167969 L 32.386719 95.167969 L 32.386719 94.726562 L 32.039062 94.726562 L 31.691406 94.28125 L 31.34375 93.839844 L 30.996094 93.839844 L 30.644531 93.398438 L 29.253906 93.398438 L 28.90625 92.957031 L 28.90625 92.511719 L 28.207031 92.511719 L 27.859375 91.628906 L 27.511719 91.628906 L 27.511719 91.183594 L 27.164062 91.183594 L 26.117188 90.296875 L 25.421875 90.296875 L 25.421875 89.855469 L 25.769531 89.855469 L 25.421875 89.410156 L 25.421875 90.742188 L 24.726562 90.742188 L 24.726562 91.183594 L 24.027344 91.183594 L 24.378906 90.296875 L 25.421875 88.082031 L 25.074219 87.636719 L 25.074219 86.75 L 24.726562 86.75 L 24.726562 86.304688 L 24.378906 86.304688 L 24.378906 85.859375 L 24.726562 85.859375 L 25.074219 86.304688 L 25.769531 87.191406 L 26.117188 87.636719 L 26.117188 88.082031 L 26.816406 88.523438 L 27.164062 88.96875 L 26.816406 88.523438 L 26.46875 87.636719 L 25.421875 86.304688 L 25.074219 86.304688 L 25.074219 85.414062 L 24.726562 85.414062 L 24.726562 84.972656 L 24.378906 84.527344 L 24.027344 84.082031 L 23.679688 84.082031 L 23.332031 84.527344 L 22.984375 84.082031 L 23.332031 83.636719 L 22.984375 83.191406 L 22.984375 82.300781 L 22.636719 82.300781 L 22.636719 81.855469 L 22.289062 81.855469 L 22.289062 81.410156 L 21.242188 80.515625 L 19.851562 79.625 L 19.5 79.625 L 18.804688 78.734375 L 18.457031 78.734375 L 18.457031 78.285156 L 18.109375 77.839844 L 18.109375 77.394531 L 17.414062 76.945312 L 17.0625 76.5 L 16.714844 76.050781 L 16.019531 75.15625 L 15.671875 74.710938 L 15.324219 74.710938 L 14.976562 73.816406 L 14.625 73.816406 L 14.625 73.367188 L 13.929688 73.367188 L 13.234375 72.46875 L 12.886719 71.574219 L 12.1875 71.125 L 11.839844 70.675781 L 11.839844 70.226562 L 11.492188 69.78125 L 11.839844 69.78125 L 12.1875 68.882812 L 12.535156 68.433594 L 12.1875 67.984375 L 12.1875 67.082031 L 11.839844 66.632812 L 11.839844 65.734375 L 11.492188 65.734375 L 11.492188 65.285156 L 11.144531 64.382812 L 10.796875 63.933594 L 10.449219 63.03125 L 10.449219 61.679688 L 10.097656 61.226562 L 10.097656 58.96875 L 10.449219 57.613281 L 11.144531 56.707031 L 11.144531 56.253906 L 10.796875 55.347656 L 10.796875 53.988281 L 10.449219 53.988281 L 10.449219 52.628906 L 9.75 52.628906 L 9.75 50.8125 L 9.402344 49.902344 L 9.054688 49.902344 L 8.707031 49.445312 L 8.007812 48.539062 L 7.660156 48.082031 L 7.3125 47.171875 L 6.964844 46.714844 L 6.617188 46.261719 L 6.269531 45.804688 L 5.570312 45.804688 L 5.570312 44.4375 L 4.875 43.980469 L 4.527344 43.523438 L 3.832031 43.523438 L 3.132812 42.609375 L 2.4375 42.152344 L 1.394531 41.238281 L 1.394531 40.78125 L 1.042969 40.78125 L 0.695312 40.324219 L 0.695312 39.867188 L 1.042969 38.953125 L 0.695312 38.492188 L 0.695312 37.578125 L 0 36.660156 L 0 35.742188 L 0.347656 35.285156 L 0.347656 34.824219 L 0.695312 33.90625 L 0.695312 33.449219 L 1.042969 32.988281 L 1.394531 32.070312 L 1.394531 31.609375 L 1.742188 31.609375 L 1.394531 31.609375 L 1.742188 31.148438 L 1.742188 30.6875 L 2.089844 30.226562 L 2.4375 29.308594 L 2.785156 28.847656 L 2.785156 29.765625 L 2.4375 30.226562 L 2.785156 30.226562 L 3.132812 30.6875 L 3.132812 29.308594 L 3.484375 29.308594 L 3.484375 28.386719 L 3.832031 27.925781 L 4.875 27.925781 L 5.222656 27.460938 L 5.570312 27.460938 L 5.570312 27 L 5.222656 26.539062 L 4.179688 26.539062 L 4.179688 27 L 3.832031 27.460938 L 3.484375 27.925781 L 3.484375 28.386719 L 3.132812 28.847656 L 2.785156 28.847656 L 3.132812 28.386719 L 3.832031 27 L 4.527344 24.691406 L 4.875 23.769531 L 4.875 22.378906 L 4.527344 22.378906 L 4.527344 21.453125 L 4.179688 21.453125 L 4.179688 20.0625 L 4.527344 20.0625 L 4.875 19.136719 L 4.875 18.210938 L 5.570312 15.421875 L 5.921875 14.027344 L 5.921875 13.09375 L 5.570312 12.164062 L 5.570312 11.230469 L 5.921875 10.765625 L 5.570312 10.765625 L 5.222656 10.300781 L 5.222656 9.367188 L 4.875 8.898438 L 4.875 8.429688 L 4.527344 7.964844 L 4.527344 7.03125 L 4.179688 6.09375 L 3.484375 6.09375 L 2.785156 5.625 L 2.4375 5.160156 L 2.785156 4.691406 L 2.785156 4.222656 L 3.132812 3.285156 L 3.132812 2.347656 L 3.484375 0.9375 L 3.484375 0.46875 L 3.132812 0 L 76.613281 0 L 76.613281 68.882812 L 80.792969 72.46875 L 84.625 76.050781 L 88.804688 80.070312 L 92.984375 83.636719 L 97.160156 87.191406 L 100.992188 90.742188 L 105.171875 94.28125 L 109.351562 97.816406 L 112.484375 100.902344 L 115.617188 103.980469 L 118.753906 107.054688 L 121.886719 110.125 L 125.371094 113.1875 L 128.503906 116.242188 L 131.636719 119.292969 L 134.773438 122.339844 L 137.558594 124.945312 L 143.128906 130.148438 L 145.917969 133.171875 L 148.703125 135.761719 L 151.488281 138.347656 L 154.273438 141.359375 L 157.058594 143.9375 L 160.195312 146.9375 L 163.675781 150.363281 L 166.8125 153.355469 L 170.292969 156.339844 L 170.292969 159.320312 L 170.992188 159.320312 L 171.339844 159.746094 L 171.339844 161.019531 L 171.6875 161.445312 L 172.382812 161.445312 L 173.777344 163.992188 L 173.777344 164.84375 L 174.125 165.265625 L 174.472656 165.691406 L 174.472656 166.113281 L 174.820312 166.113281 L 174.472656 166.539062 L 174.472656 167.386719 L 174.820312 167.386719 L 174.820312 167.808594 L 175.515625 167.808594 L 175.515625 168.230469 L 175.867188 168.230469 L 176.214844 168.65625 L 177.605469 169.5 L 177.957031 169.925781 L 178.304688 169.925781 L 178.304688 170.347656 L 179 170.769531 L 179 171.613281 L 178.304688 172.039062 L 177.605469 172.460938 L 177.257812 173.304688 L 176.910156 173.304688 L 175.167969 174.570312 L 174.472656 174.992188 L 174.125 175.414062 L 173.777344 176.675781 L 173.777344 177.097656 L 173.429688 177.097656 L 173.078125 177.519531 L 172.382812 177.941406 L 172.035156 178.363281 L 172.035156 179.203125 L 172.382812 179.625 L 172.730469 179.625 L 172.382812 180.042969 L 172.035156 180.464844 L 172.035156 181.726562 L 172.382812 181.726562 L 172.382812 182.984375 L 172.730469 183.40625 L 172.382812 183.40625 L 172.382812 183.824219 L 172.035156 184.242188 L 172.035156 185.503906 L 171.6875 185.503906 L 171.6875 185.921875 L 172.035156 186.339844 L 171.6875 186.757812 L 171.6875 187.179688 L 171.339844 187.179688 L 170.992188 187.597656 L 170.992188 188.015625 L 170.292969 189.269531 L 169.945312 189.6875 L 168.550781 189.6875 L 168.550781 190.527344 L 168.902344 190.527344 L 168.902344 190.945312 L 168.550781 191.363281 L 168.550781 192.195312 L 168.902344 192.613281 L 169.25 193.03125 L 169.25 195.117188 L 168.902344 195.953125 L 168.902344 196.785156 L 169.597656 197.203125 L 170.292969 197.617188 L 171.6875 197.617188 L 172.382812 198.035156 L 172.730469 198.867188 L 173.078125 198.867188 L 172.730469 199.285156 L 172.730469 199.699219 L 173.078125 200.945312 L 173.078125 201.363281 L 172.730469 201.777344 L 172.382812 202.195312 L 172.035156 202.609375 L 172.035156 203.4375 L 171.6875 203.855469 L 169.25 203.855469 L 168.550781 204.269531 M 105.171875 202.195312 L 104.476562 202.195312 L 104.125 202.609375 L 103.777344 202.195312 L 103.082031 201.777344 L 102.734375 201.363281 L 102.734375 200.945312 L 102.386719 200.945312 L 102.035156 200.53125 L 102.035156 199.699219 L 101.6875 199.699219 L 101.6875 199.285156 L 101.339844 199.285156 L 101.339844 198.453125 L 100.992188 198.035156 L 100.992188 197.617188 L 101.339844 198.035156 L 101.339844 197.617188 L 101.6875 198.035156 L 101.6875 198.453125 L 102.035156 198.453125 L 102.035156 198.867188 L 102.386719 199.285156 L 102.734375 199.699219 L 103.082031 200.117188 L 103.429688 200.117188 L 103.429688 200.53125 L 104.476562 201.363281 L 104.824219 201.777344 L 105.171875 202.195312 M 85.667969 193.03125 L 86.015625 193.03125 L 86.367188 193.449219 L 86.367188 193.867188 L 84.972656 193.867188 L 84.625 193.449219 L 84.277344 193.449219 L 84.277344 193.03125 L 83.929688 193.03125 L 83.929688 192.613281 L 84.972656 192.613281 L 85.320312 193.03125 L 85.667969 193.03125 M 102.386719 189.6875 L 102.035156 189.6875 L 102.035156 189.269531 L 101.339844 189.269531 L 101.339844 188.851562 L 100.992188 188.851562 L 100.992188 188.433594 L 102.035156 188.433594 L 102.035156 188.851562 L 102.734375 188.851562 L 102.734375 189.269531 L 103.429688 189.269531 L 103.777344 189.6875 L 104.824219 189.6875 L 105.171875 190.109375 L 105.171875 190.527344 L 105.867188 191.363281 L 106.214844 191.363281 L 106.214844 191.78125 L 105.867188 191.78125 L 106.214844 192.195312 L 105.519531 192.195312 L 105.171875 191.78125 L 103.429688 191.78125 L 103.082031 191.363281 L 103.082031 189.6875 L 102.386719 189.6875 M 75.917969 176.675781 L 75.917969 177.941406 L 76.964844 177.941406 L 76.964844 178.363281 L 77.3125 178.78125 L 76.265625 178.78125 L 75.917969 179.203125 L 75.222656 179.203125 L 75.222656 179.625 L 74.175781 179.625 L 73.828125 179.203125 L 73.480469 179.203125 L 73.480469 178.78125 L 73.132812 178.363281 L 72.4375 177.519531 L 72.785156 177.097656 L 73.132812 177.519531 L 73.480469 177.519531 L 73.828125 177.097656 L 75.222656 177.097656 L 75.570312 176.675781 L 75.917969 176.675781 M 70.695312 176.675781 L 71.042969 176.675781 L 71.390625 177.097656 L 69.648438 177.097656 L 69.648438 176.675781 L 69.300781 176.675781 L 69.300781 177.097656 L 68.953125 177.097656 L 68.953125 176.675781 L 69.300781 176.253906 L 70 176.253906 L 70.347656 175.835938 L 70.347656 176.675781 L 70.695312 176.675781 M 84.972656 177.097656 L 84.625 177.097656 L 84.625 177.519531 L 83.929688 177.519531 L 83.929688 177.941406 L 82.1875 177.941406 L 81.839844 178.363281 L 79.050781 178.363281 L 79.050781 177.941406 L 78.703125 177.941406 L 78.703125 176.675781 L 78.355469 176.675781 L 78.007812 176.253906 L 78.007812 175.835938 L 79.050781 175.835938 L 79.402344 176.253906 L 81.140625 176.253906 L 81.140625 176.675781 L 81.839844 176.675781 L 81.839844 177.097656 L 83.578125 177.097656 L 83.230469 176.675781 L 83.929688 176.675781 L 83.929688 176.253906 L 84.277344 176.253906 L 84.625 176.675781 L 84.972656 176.675781 L 84.972656 177.097656 M 107.261719 182.566406 L 107.609375 182.566406 L 107.261719 182.566406 L 107.261719 183.40625 L 106.914062 183.40625 L 107.261719 182.984375 L 106.914062 182.984375 L 106.914062 183.40625 L 106.5625 182.984375 L 106.914062 182.984375 L 106.914062 182.566406 L 107.261719 182.566406 "/>
</svg>
