<svg width="1732" height="1271" viewBox="0 0 1732 1271" fill="none" xmlns="http://www.w3.org/2000/svg">
<path d="M1598.32 415.245L1596.91 417.771L1595.72 426.609L1597.19 429.483L1594.95 436.287L1598.88 442.038L1598.46 445.197L1592.77 453.684L1588 456.636L1589.05 470.592L1584.27 489.531L1586.87 511.419L1585.47 517.662L1589.26 522.363L1623.1 514.716L1627.03 510.087L1632.58 505.806L1635.53 505.668L1635.74 497.037L1632.65 494.583L1632.02 490.938L1625.98 484.482L1625.28 478.869L1616.36 448.635L1605.55 412.086L1604.08 413.211L1598.32 415.245Z" fill="#A362E3" stroke="#A362E3" stroke-linecap="round" stroke-linejoin="round"/>
<path d="M1654.84 552.465L1652.8 552.534L1646.35 559.056L1642.34 560.88L1640.16 561.021L1638.27 556.251L1635.53 555.129L1630.12 552.744L1629.42 548.886L1628.09 548.955L1626.68 543.345L1614.68 546.078L1586.8 552.183L1586.24 554.286L1584.91 552.534L1565.39 556.602L1564.48 556.743L1566.37 527.208L1589.26 522.369L1623.1 514.722L1627.03 510.093L1632.59 505.812L1635.53 505.674L1639.88 511.986L1643.74 515.493L1641.43 517.527L1640.59 522.579L1638.98 523.77L1638.2 526.086L1638.34 529.032L1639.25 529.875L1644.73 531.066L1647.61 533.241L1649.64 538.923L1652.38 540.117L1656.03 545.727L1662 547.341L1667.55 547.482L1671.2 545.451L1671.55 542.922L1670 536.748L1671.48 536.046L1672.39 536.958L1674.99 544.26L1674.43 546.012L1669.1 551.34L1665.86 551.619L1659.82 555.828L1656.95 555.972L1654.84 552.465Z" fill="#A362E3" stroke="#A362E3" stroke-linecap="round" stroke-linejoin="round"/>
<path d="M1627.93 546.855L1626.35 541.794L1614.35 544.53L1619.92 570.834L1618.87 571.605L1619.29 574.971L1628.7 570.06L1630.95 568.59L1633.26 565.782L1634.46 556.521L1639.01 553.323L1634.71 548.397L1631.25 546.72L1627.93 546.855Z" fill="#A362E3" stroke="#A362E3" stroke-linecap="round" stroke-linejoin="round"/>
<path d="M1478.32 700.815L1478.46 700.884L1476.35 699.621L1478.6 697.236L1483.45 700.671L1479.8 705.375V704.952L1479.59 702.567L1478.32 700.815Z" fill="#A362E3" stroke="#A362E3" stroke-linecap="round" stroke-linejoin="round"/>
<path d="M1187.14 761.085L1184.54 762.486L1184.9 766.488L1182.51 767.256L1181.24 770.205L1180.61 767.886L1177.52 768.24L1174.79 764.733L1168.75 767.886L1165.87 773.079L1156.53 767.256L1151.61 768.45L1150.7 766.068L1150.77 770.694L1148.87 772.029L1147.76 768.942L1144.1 770.205L1141.29 768.168L1139.89 769.08L1140.87 772.515L1139.18 774.204L1136.38 772.938L1136.31 773.079L1134.76 772.59L1136.66 771.816L1134.27 769.782L1136.59 769.431L1136.17 763.611L1138.55 762.135L1136.8 761.505L1139.61 759.54L1137.78 756.03L1139.33 753.297L1142.13 753.72L1144.94 746.844L1148.38 745.299L1147.68 742.704L1152.32 735.129L1150.77 730.218L1151.4 726.849L1147.05 720.678L1149.43 716.751L1148.17 712.89L1151.19 709.944L1149.79 659.577L1148.52 616.155L1151.05 617.205L1154.77 618.468L1159.41 618.609L1166.36 613.767L1198.59 612.576L1230.11 610.962L1230.26 612.996L1233.27 663.366L1236.43 717.453L1236.22 717.801L1234.18 719.415L1236.22 722.505L1234.96 725.307L1237.76 726.081L1237.21 730.005L1231.73 730.5L1225.76 734.496L1222.6 732.321L1217.4 733.443L1218.52 740.811L1212.77 744.807L1210.81 750.843L1206.03 751.893L1203.99 755.892L1203.57 761.577L1199.71 764.802L1192.41 761.226L1191.92 757.998L1189.04 755.892L1190.37 758.349L1186.23 758.7L1187.14 761.085Z" fill="#A362E3" stroke="#A362E3" stroke-linecap="round" stroke-linejoin="round"/>
<path d="M1124.77 799.515L1121.89 794.325L1122.73 789.972L1135.44 785.976L1132.98 778.959L1136.35 772.926L1136.28 773.067L1134.74 772.578L1136.63 771.804L1134.25 769.77L1136.56 769.419L1136.15 763.599L1138.53 762.123L1136.78 761.493L1139.58 759.528L1137.76 756.018L1139.3 753.285L1142.11 753.708L1144.92 746.832L1148.36 745.287L1147.66 742.692L1152.29 735.117L1150.75 730.206L1151.38 726.834L1147.02 720.666L1149.41 716.739L1148.15 712.878L1151.17 709.932L1149.77 659.565L1148.5 616.143L1146.6 612.981L1144.43 606.18L1139.45 594.114L1139.3 586.467L1097.1 587.169L1055.12 587.238L1061.15 591.87L1062.14 596.076L1069.09 601.269L1069.93 606.321L1068.32 613.332L1064.88 616.209L1063.4 622.665L1053.71 627.714L1042.69 629.679L1040.72 636.624L1045 641.676L1045.21 647.217L1040.86 652.41L1039.25 658.932L1031.1 662.859L1032.02 669.663L1029.07 671.208L1027.45 680.958L1031.52 696.813L1039.95 704.601L1041.84 708.108L1049.64 713.931L1052.45 726.981L1054.55 730.416L1056.73 730.695L1060.46 727.329L1065.65 729.012L1070.21 732.453L1070 733.782L1067.83 737.292L1068.18 740.871L1062.28 751.953L1062.84 757.209L1072.95 767.106L1076.53 767.874L1089.31 778.749L1089.24 783.591L1091.98 789.483L1089.52 795.234L1091.28 796.218L1093.87 803.934L1097.32 806.037L1096.33 803.094L1097.67 802.458L1100.12 806.529L1102.58 807.162L1102.09 806.529L1100.75 802.953L1106.51 796.917L1121.33 803.094L1124.77 799.515Z" fill="#A362E3" stroke="#A362E3" stroke-linecap="round" stroke-linejoin="round"/>
<path d="M1035.04 529.095L1037.57 534.567L1038.55 545.79L1040.66 569.22L1043.18 576.516L1053.64 580.233L1055.47 584.091L1055.12 587.25L1097.11 587.178L1139.31 586.479L1139.45 579.534L1138.96 574.971L1136.78 565.641L1136.29 556.662L1137.69 549.507L1141.9 538.494L1141.97 531.48L1143.1 525.729L1146.05 515.766L1145.9 511.065L1146.96 504.051L1149.56 497.388L1153.98 489.459L1157.71 479.286L1156.3 474.66L1149.41 482.937L1149.21 487.635L1148.08 491.913L1144.43 492.618L1132.64 503.841L1132.57 501.315L1136.15 493.107L1137.34 490.581L1140.71 487.635L1144.08 481.113L1142.39 481.041L1142.46 480.9L1138.46 477.744L1140.64 471.081L1139.87 469.749L1134.18 470.658L1134.32 467.571L1136.15 465.258L1135.37 462.522L1136.5 461.469L1135.37 459.084L1136.08 457.89L1133.12 454.947L1127.02 453.33L1127.93 450.387L1127.02 448.212L1115.57 444.843L1112.2 445.758L1106.66 444.564L1098.8 440.073L1070.78 432.636L1067.97 425.904L1064.95 423.729L1063.19 424.221L1062.77 422.817L1052.73 421.626L1050.62 423.729L1049.99 422.466L1051.54 416.784L1051.33 412.152L1048.31 409.068L1029.56 420.363L1023.1 421.695L1018.96 421.065L1016.92 417.768L1014.4 415.452L1012.99 418.818L1010.81 418.68L1010.11 441.828L1008.14 444.072L998.595 448.353L995.787 453.822L992.979 456.279L992.559 461.328L996.42 462.522L999.018 467.925L995.997 473.253V480.339L994.383 482.022L995.577 487.917L993.612 494.721L995.997 498.3L1002.18 500.892L1005.2 505.314L1010.04 505.104L1014.54 507.63L1020.08 514.083L1022.05 519.414L1035.04 529.095Z" fill="#A362E3" stroke="#A362E3" stroke-linecap="round" stroke-linejoin="round"/>
<path d="M1331.29 707.415L1331.71 710.436L1329.67 711.555L1331.92 717.309L1329.81 716.751L1327.08 719.694L1326.44 715.416L1322.93 714.996L1318.3 724.677L1320.12 731.13L1317.18 732.531L1316.12 738.285L1307.98 740.25L1303.97 735.339L1299.69 734.007L1297.1 727.554L1293.16 729.024L1289.79 733.305L1285.02 734.568L1278.14 730.641L1274.9 731.832L1273.92 734.007L1270.91 733.377L1266.55 729.024L1255.81 727.623L1252.58 720.117L1247.73 716.469L1242.68 718.224L1238.82 715.698L1236.22 717.801L1236.43 717.453L1233.27 663.366L1230.25 612.996L1271.82 610.191L1280.03 612.435L1284.17 615.594L1286.91 616.224L1290.92 615.663L1292.46 617.487L1302.85 618.258L1312.75 613.98L1321.74 613.137L1339.72 599.457L1349.75 593.637L1357.55 591.321L1363.45 644.706L1363.37 644.634L1359.93 646.038L1358.96 647.514L1361.69 652.071L1361.06 654.876L1362.25 658.242L1359.16 667.575L1359.23 674.379L1357.76 674.73L1358.25 676.902L1356.43 680.904L1357.76 682.797L1356.77 686.865L1347.02 696.966L1342.8 699.351L1339.72 696.966L1336.62 702.72L1333.18 703.635L1331.29 707.415Z" fill="#A362E3" stroke="#A362E3" stroke-linecap="round" stroke-linejoin="round"/>
<path d="M1205.11 412.095L1209.39 412.026L1210.8 414.831L1211.15 420.234L1215.85 422.409L1219.64 423.039L1226.87 421.638L1230.81 421.356L1232.14 423.039L1232.7 425.421L1234.1 427.881L1234.81 433.563L1238.04 435.246L1240.07 437.91L1242.67 439.245L1243.31 440.718L1243.1 441L1239.72 441.279L1230.6 444.435L1228.28 441.84L1225.68 440.436L1224.56 442.683L1224.28 446.4L1220.2 446.682L1217.89 444.015L1216.34 443.244L1210.94 440.787L1204.61 439.593L1198.58 441.207L1195.42 445.629L1187.48 447.03L1180.46 449.556L1171.9 459.447L1169.09 459.87L1168.95 450.048L1165.44 453.276L1161.5 455.169L1159.96 454.959L1154.9 460.992L1144.1 481.125L1142.41 481.053L1142.47 480.912L1138.47 477.756L1140.65 471.093L1139.88 469.761L1134.19 470.67L1134.33 467.583L1136.16 465.27L1135.39 462.534L1136.51 461.481L1135.39 459.096L1136.09 457.902L1133.14 454.959L1127.03 453.342L1127.94 450.399L1127.03 448.224L1115.59 444.855L1112.21 445.77L1106.67 444.576L1098.81 440.085L1070.79 432.648L1067.98 425.916L1064.96 423.741L1063.21 424.233L1062.78 422.829L1069.24 422.268L1079 415.323L1085.11 413.22L1092.7 411.603L1098.03 407.328L1103.51 404.238L1109.41 397.362L1116.85 392.1L1122.47 388.947L1127.87 386.982L1133.28 386.634L1134.47 386.841L1134.26 389.226L1129.77 392.664L1121.9 402.555L1118.6 404.382L1116.29 407.748L1115.79 413.85L1116.08 415.815L1119.94 411.816L1122.4 412.449L1130.26 410.763L1139.6 415.674L1142.69 420.444L1148.72 425.916L1153.29 424.863L1165.58 426.828L1168.32 425.844L1171.47 421.776L1175.97 419.955L1180.74 416.727L1196.19 416.094L1200.47 415.044L1205.11 412.095Z" fill="#A362E3" stroke="#A362E3" stroke-linecap="round" stroke-linejoin="round"/>
<path d="M1231.66 454.515L1228.36 455.427L1227.3 454.446L1221.26 453.114L1215.44 454.095L1212.91 457.533L1213.05 460.335L1213.82 463.074L1216.56 466.371L1215.65 467.982L1209.05 471.141L1204.41 472.473L1204.48 479.562L1203.92 484.962L1201.4 488.046L1199.71 489.732L1198.94 488.19L1197.96 481.17L1196.55 478.437L1194.16 480.051L1191.5 483.348L1184.83 488.256L1184.05 492.888L1181.38 496.536L1181.67 501.867L1180.89 505.302L1180.54 511.968L1181.32 513.792L1178.44 516.249L1177.67 526.068L1175.27 537.714L1179.7 549.99L1183.14 555.042L1184.97 559.812L1184.83 578.19L1180.19 592.5L1174.64 603.936L1173.87 608.496L1166.36 613.755L1198.59 612.564L1230.11 610.95L1230.25 612.981L1271.82 610.179L1273.93 606.321L1280.53 598.251L1280.39 592.011L1282.42 585.555L1285.16 582.399L1284.88 578.682L1285.58 575.736L1288.6 572.226L1295.06 571.665L1297.66 556.653L1297.59 552.726L1296.74 553.917L1294.92 551.391L1292.81 547.044L1290.22 535.959L1289.3 529.857L1286.56 523.965L1279.34 514.353L1274.91 515.406L1266.62 519.684L1265.78 520.599L1262.83 529.296L1259.25 532.101L1256.16 533.646L1252.58 532.593L1251.11 530.418L1252.02 525.507L1254.2 520.248L1261.08 513.723L1262.83 508.461L1265.78 504.672L1266.77 501.375L1266.35 496.113L1263.18 484.962L1261.36 481.872L1260.65 477.876L1262.06 475.56L1262.97 475.209L1258.97 468.687L1255.32 465.81L1247.32 463.353L1244.02 461.04L1241.42 460.335L1234.53 455.499L1231.66 454.515Z" fill="#A362E3" stroke="#A362E3" stroke-linecap="round" stroke-linejoin="round"/>
<path d="M1247.74 716.475L1242.68 718.23L1238.82 715.704L1236.22 717.807L1234.19 719.421L1236.22 722.511L1234.96 725.313L1237.77 726.087L1237.21 730.014L1231.73 730.506L1225.76 734.502L1222.6 732.327L1217.41 733.449L1218.53 740.817L1212.77 744.813L1210.81 750.849L1206.03 751.899L1204 755.898L1203.58 761.583L1199.72 764.808L1192.41 761.232L1191.92 758.004L1189.04 755.898L1190.37 758.355L1186.23 758.706L1187.14 761.091L1184.55 762.492L1184.9 766.494L1182.51 767.262L1181.25 770.211L1180.61 767.892L1177.52 768.246L1174.79 764.739L1168.75 767.892L1165.87 773.085L1156.53 767.262L1151.61 768.456L1150.7 766.074L1150.77 770.7L1148.87 772.035L1147.75 768.948L1144.11 770.211L1141.29 768.174L1139.89 769.086L1140.87 772.521L1139.19 774.21L1136.38 772.944L1133.01 778.977L1135.47 785.994L1122.76 789.99L1121.92 794.343L1124.8 799.533L1121.35 803.112L1106.54 796.935L1100.78 802.971L1102.11 806.547L1102.61 807.18L1102.26 814.968L1098.61 823.173L1094.32 820.926L1092 825.906L1137.58 825.348L1136.31 817.704L1143.4 818.193L1144.04 819.597L1184.97 818.4L1186.51 816.861L1231.03 814.968L1278.29 812.229L1295.77 808.158L1297.66 803.811L1303.84 801.285L1304.19 797.847L1308.34 795.183L1308.48 791.889L1318.59 785.433L1330.52 773.436V773.577L1325.05 772.875L1323.43 770.277L1319.64 768.735L1318.66 765.228L1312.76 759.054L1313.11 757.092L1307.14 750.423L1308.97 746.781L1307.91 739.977L1307.98 740.256L1303.98 735.345L1299.7 734.013L1297.1 727.56L1293.17 729.027L1289.8 733.311L1285.02 734.574L1278.14 730.644L1274.91 731.838L1273.93 734.013L1270.91 733.383L1266.55 729.027L1255.81 727.629L1252.58 720.123L1247.74 716.475Z" fill="#A362E3" stroke="#A362E3" stroke-linecap="round" stroke-linejoin="round"/>
<path d="M1133.83 884.835L1176.17 883.782L1218.5 882.24L1261.33 880.062L1261.9 871.365L1263.58 869.682L1268.78 869.541L1270.6 863.019L1274.54 859.092L1279.17 856.914L1287.24 856.143L1297.5 847.725L1303.11 846.462L1305.5 842.184L1305.36 839.517L1308.66 840.081L1309.71 837.135L1314 834.396L1316.53 838.323L1324.67 830.538L1327.48 829.416L1331.83 831.309L1336.6 822.756L1339.56 820.296L1342.79 820.647L1341.45 818.334L1342.85 814.755L1342.01 813.072L1343.42 807.18L1278.26 812.229L1231.01 814.968L1186.49 816.861L1184.95 818.4L1144.01 819.597L1143.38 818.193L1136.29 817.704L1137.55 825.348L1091.98 825.906L1091 827.943L1090.22 823.662L1087.97 824.016L1089.46 830.961L1086.22 832.782L1088.26 835.728L1084.19 836.289L1086.92 840.57L1082.92 845.829L1085.1 849.762L1081.38 850.53L1083.27 852.213L1082.43 853.548L1075.83 856.848L1077.45 860.496L1075.62 862.035L1076.74 864.843L1073.8 865.335L1070.21 872.067L1070.99 880.698L1068.25 880.977L1067.2 883.782L1063.9 885.258H1096.05L1133.83 884.835Z" fill="#A362E3" stroke="#A362E3" stroke-linecap="round" stroke-linejoin="round"/>
<path d="M1297.57 883.515L1300.87 881.127L1301.78 877.545H1301.71L1261.33 880.071L1218.5 882.249L1227.78 923.496L1236.69 962.43L1240.2 976.389L1245.4 985.02L1244.41 988.527L1248 991.05L1242.8 996.942L1241.89 1006.06L1244.27 1013.08L1243.08 1035.25L1246.59 1042.12L1248.7 1049.14L1251.79 1053.34L1343.35 1054.12L1344.47 1059.94L1346.15 1061.97L1350.44 1061.27L1351.07 1053.41L1349.53 1046.75L1351.91 1043.24L1362.94 1046.12H1367.85L1367.36 1036.15L1370.38 1029.7L1371.64 1022.2L1373.04 1016.79L1379.37 998.208L1382.95 992.244L1384.84 991.614L1376.21 988.245L1375.71 980.457L1371.43 972.603L1365.53 969.444L1365.19 964.257L1361.11 956.259L1361.25 953.943L1351.77 948.753L1351.42 946.785L1348.61 945.309L1348.47 942.858L1345.17 941.103V936.756L1335.48 929.805H1335.34L1331.69 924.195L1322.84 918.867L1321.37 916.272H1321.44L1316.24 910.587L1312.87 903.153V903.291L1310.56 898.593L1305.57 898.734L1300.72 894.309L1294.06 890.316L1297.57 883.515Z" fill="#A362E3" stroke="#A362E3" stroke-linecap="round" stroke-linejoin="round"/>
<path d="M1307.41 1099.12L1314.43 1106.91L1318.57 1109.5L1326.44 1112.17L1328.05 1114.56L1329.45 1119.33L1331 1131.25L1328.96 1153.77L1329.24 1157.7L1330.86 1164.37L1331.14 1165H1334.09L1334.23 1158.82L1337.25 1159.66L1339.98 1161.91L1337.81 1170.4L1337.03 1176.29L1338.37 1183.24L1342.02 1189.83L1351.78 1202.32L1353.11 1202.88L1357.89 1200.63L1360.21 1211.93L1363.3 1210.66L1363.93 1211.15L1362.32 1214.31L1361.89 1216.77L1368 1224.83L1370.96 1233.39L1373.2 1237.46L1376.71 1240.97H1382.39L1386.26 1244.19L1393.91 1258.37L1394.12 1266.78L1394.83 1268.19L1397.7 1270.15L1406.27 1269.59L1412.59 1267.49L1420.52 1262.93L1425.79 1264.96L1428.38 1259.77L1425.23 1257.46L1427.47 1243.99L1431.05 1229.95L1430.91 1216.7L1428.95 1203.3L1428.67 1194.53L1415.12 1166.4L1408.37 1155.59L1406.06 1147.39L1406.13 1136.37L1404.65 1130.55L1399.17 1121.57L1386.47 1104.32L1375.72 1079.62L1366.67 1050.02L1367.86 1046.09H1362.95L1351.92 1043.22L1349.54 1046.72L1351.08 1053.39L1350.45 1061.24L1346.16 1061.95L1344.48 1059.91L1343.36 1054.09L1251.8 1053.32L1248.71 1049.11L1246.6 1042.09L1199.42 1043.92L1156.8 1045.04L1156.37 1050.79L1164.38 1058.72L1162.91 1063.7L1163.89 1070.15L1169.15 1064.82L1172.46 1064.19L1175.61 1061.45L1176.46 1061.52L1176.67 1063.07L1174.91 1067.84L1179.48 1067.56L1193.31 1063.63L1200.4 1063.77L1203.28 1064.68L1203 1066.86L1200.96 1067.84L1201.46 1068.82L1205.74 1071.27L1212.62 1073.66L1229.33 1082.08L1232.21 1085.02L1235.93 1091.26L1238.67 1093.3L1247.51 1090.99L1256.57 1088.95L1265.35 1083.84L1269.07 1083.55L1269.63 1083.13L1269.98 1079.83L1273.28 1077.24L1278.83 1076.53L1282.13 1076.89L1288.59 1078.99L1293.36 1082.92L1299.96 1090.08L1303.27 1091.55L1304.03 1097.65L1307.41 1099.12Z" fill="#A362E3" stroke="#A362E3" stroke-linecap="round" stroke-linejoin="round"/>
<path d="M1129.63 1069.97L1135.11 1070.66L1137.57 1069.27L1142.69 1048.5L1144.1 1052.64V1058.32L1145.78 1066.31L1145.57 1068.98L1144.03 1073.19L1144.94 1075.23L1150.63 1074.45L1163.9 1070.18L1162.91 1063.72L1164.39 1058.74L1156.38 1050.81L1156.8 1045.06L1199.42 1043.94L1246.6 1042.11L1243.1 1035.24L1244.29 1013.07L1241.9 1006.06L1242.82 996.936L1248.01 991.044L1244.43 988.521L1245.41 985.014L1240.22 976.383L1236.71 962.424L1227.79 923.49L1218.52 882.243L1176.18 883.785L1133.84 884.838L1137.43 889.044L1132.37 943.413L1125.98 1009.57L1129.63 1069.97Z" fill="#A362E3" stroke="#A362E3" stroke-linecap="round" stroke-linejoin="round"/>
<path d="M1526.11 615.675L1524.07 617.358L1524.35 620.442L1524.14 620.376L1525.41 625.002L1528.78 625.074L1530.53 630.126L1533.13 630.477L1542.05 638.823L1533.9 646.329L1531.58 649.626L1532.43 651.309L1531.73 652.503L1525.55 655.377L1524.07 657.204L1522.53 659.169L1520.35 664.92L1522.25 667.236L1526.81 671.301L1531.17 674.88L1535.94 675.513L1540.01 678.318L1545.77 677.616L1546.89 685.194L1547.87 686.805L1551.25 681.546L1555.39 670.674L1558.97 666.321L1560.38 661.974L1559.88 659.73L1562.55 657.762L1563.32 656.01L1563.4 644.718L1564.1 642.963L1565.43 643.242L1566.41 642.543L1567.11 633.984L1567.04 630.966L1565.78 628.44L1562.21 625.149L1557.92 623.811L1557.14 622.758L1556.72 620.376L1558.13 615.324L1559.46 613.359L1561.22 601.152L1534.33 590.352L1531.03 594.696L1528.08 603.258L1524.14 607.746L1527.09 611.817L1526.11 615.675Z" fill="#A362E3" stroke="#A362E3" stroke-linecap="round" stroke-linejoin="round"/>
<path d="M1528.09 603.255L1531.04 594.693L1534.34 590.346L1532.51 588.03L1525 586.839L1521.56 582.348L1520.92 575.685L1519.31 575.403L1519.81 573.858L1514.4 572.88L1513.2 569.793L1509.27 568.668L1486.73 572.526L1458.09 577.155L1430.91 581.154L1406.13 584.523L1379.87 587.889L1378.6 577.227L1374.17 580.944L1368.28 582.276L1364.28 586.767L1357.54 591.327L1363.44 644.712L1367.44 681.681L1399.46 678.102L1512.64 662.109H1512.71L1516.29 656.427L1520.15 655.515L1524.09 657.198L1525.56 655.374L1531.74 652.497L1532.44 651.306L1531.6 649.62L1533.92 646.326L1542.06 638.817L1533.14 630.471L1530.55 630.12L1528.79 625.068L1525.42 624.999L1524.16 620.37L1524.37 620.439L1524.09 617.352L1526.12 615.669L1527.1 611.811L1524.16 607.743L1528.09 603.255Z" fill="#A362E3" stroke="#A362E3" stroke-linecap="round" stroke-linejoin="round"/>
<path d="M1522.27 667.215L1521.85 671.283L1523.53 675.495L1533.43 688.752L1540.6 696.117L1545.37 705.516L1544.04 709.305L1523.04 712.602L1512.72 662.094L1516.3 656.412L1520.16 655.5L1524.1 657.186L1522.55 659.148L1520.37 664.899L1522.27 667.215Z" fill="#A362E3" stroke="#A362E3" stroke-linecap="round" stroke-linejoin="round"/>
<path d="M1704.34 383.469L1706.44 385.575L1711.36 387.117L1716.06 386.628L1718.17 385.575V383.889L1719.43 386.136L1721.61 391.956L1720.7 395.394L1720.84 396.726L1724.14 396.378L1725.54 398.691L1725.61 401.286L1723.23 404.655L1719.29 406.266L1718.1 408.303L1714.73 409.707L1713.4 412.299L1711.43 413.703L1705.74 416.088L1705.18 419.667L1702.44 422.121L1699.98 422.823L1697.1 427.242L1696.33 430.191L1694.37 431.661L1688.61 429.276L1686.36 431.1L1683.76 431.031L1681.87 428.577L1680.53 424.998L1679.48 424.857L1677.87 425.979L1675.9 428.856L1676.25 434.466L1675.27 438.537L1675.83 442.326L1674.56 447.726L1673.65 448.5L1669.93 448.146L1668.39 450.603L1667.47 454.884L1665.37 456.426L1664.03 456.774L1662 454.599L1660.81 455.232L1660.73 460.635L1659.61 463.371L1658.56 463.23L1655.82 459.723H1653.85L1650.06 463.02L1647.32 468.138L1647.46 474.315L1645.42 477.891L1642.13 488.556L1635.74 497.04L1632.65 494.586L1632.02 490.941L1625.98 484.485L1625.28 478.875L1616.36 448.638L1605.55 412.089L1609.41 409.143L1615.1 410.127L1614.25 406.761L1614.82 406.338L1618.89 406.761V405.567L1617.2 402.762L1617.27 400.095L1618.39 397.5L1621.13 393.852L1621.55 392.238L1618.54 373.929L1618.81 369.51L1620.22 365.091L1620.01 361.791L1621.21 354.636L1620.01 342.222L1627.45 316.614L1630.05 313.74L1632.79 313.248L1637.07 315.492L1639.32 318.231L1640.86 320.124L1647.46 320.406L1655.12 316.125L1657.01 309.669L1660.52 308.76L1676.74 317.457L1684.11 342.921L1692.26 371.472L1700.54 372.945L1703 381.153L1704.34 383.469Z" fill="#A362E3" stroke="#A362E3" stroke-linecap="round" stroke-linejoin="round"/>
<path d="M1727.29 403.461L1727.85 406.338L1729.05 403.392L1730.94 402.762L1730.52 400.305L1730.1 397.848L1727.99 397.71L1726.94 400.164L1727.29 403.461Z" fill="#A362E3" stroke="#A362E3" stroke-linecap="round" stroke-linejoin="round"/>
<path d="M1540.87 726.855L1539.82 721.668L1543.68 714.372L1544.03 709.32L1523.04 712.617L1512.71 662.109H1512.64L1399.46 678.105H1399.53L1401.57 698.727V698.865L1407.25 694.023L1412.17 686.871L1413.85 685.89L1416.8 686.94L1420.87 681.681L1421.58 678.597L1422.91 679.437L1422.7 681.189L1428.25 682.38H1428.31L1431.62 681.822L1432.67 680.628L1431.68 679.788L1433.09 679.086L1432.25 677.961L1436.81 677.121L1439.41 673.965L1445.73 676.98L1450.22 676.068L1450.72 677.472L1449.45 678.243L1450.36 679.926L1451.35 679.014L1451.49 680.556L1453.17 680.205L1452.33 682.524L1454.51 683.433L1455 686.871L1460.97 687.291L1464.27 689.535L1463.14 693.465L1465.53 695.853L1471 696.27L1472.97 698.727L1476.34 699.639L1478.59 697.254L1483.43 700.689L1479.79 705.393V704.97L1480.06 707.706L1477.75 709.11L1477.47 713.529L1477.68 715.212L1476.62 719.142L1478.1 720.264L1482.52 720.615L1489.26 723.138L1492.56 722.577L1495.02 724.539L1499.23 725.103L1502.67 727.839L1506.88 729.171L1503.3 720.264L1498.6 717.105L1501.41 716.406V715.773L1499.79 712.617L1497.9 705.81L1497.2 690.45L1494.88 686.238L1499.16 683.364L1505.34 676.209L1506.82 671.79L1508.22 669.123L1509.49 669.054L1511.1 670.107L1511.66 671.298L1511.1 674.805L1510.05 677.052L1507.38 678.945L1505.69 682.311L1506.04 685.398L1507.73 688.272L1507.66 690.591L1504.29 695.853L1505.48 697.392L1508.64 696.972L1509.49 697.887L1509.91 702.021L1511.24 706.374L1508.92 708.687L1507.87 710.931L1507.8 713.949L1509.13 717.459L1513.48 721.107L1518.12 720.474L1520.58 721.242L1524.23 726.924L1525.14 730.857L1526.69 732.048" fill="#A362E3"/>
<path d="M1540.87 726.855L1539.82 721.668L1543.68 714.372L1544.03 709.32L1523.04 712.617L1512.71 662.109H1512.64L1399.46 678.105H1399.53L1401.57 698.727V698.865L1407.25 694.023L1412.17 686.871L1413.85 685.89L1416.8 686.94L1420.87 681.681L1421.58 678.597L1422.91 679.437L1422.7 681.189L1428.25 682.38H1428.31L1431.62 681.822L1432.67 680.628L1431.68 679.788L1433.09 679.086L1432.25 677.961L1436.81 677.121L1439.41 673.965L1445.73 676.98L1450.22 676.068L1450.72 677.472L1449.45 678.243L1450.36 679.926L1451.35 679.014L1451.49 680.556L1453.17 680.205L1452.33 682.524L1454.51 683.433L1455 686.871L1460.97 687.291L1464.27 689.535L1463.14 693.465L1465.53 695.853L1471 696.27L1472.97 698.727L1476.34 699.639L1478.59 697.254L1483.43 700.689L1479.79 705.393V704.97L1480.06 707.706L1477.75 709.11L1477.47 713.529L1477.68 715.212L1476.62 719.142L1478.1 720.264L1482.52 720.615L1489.26 723.138L1492.56 722.577L1495.02 724.539L1499.23 725.103L1502.67 727.839L1506.88 729.171L1503.3 720.264L1498.6 717.105L1501.41 716.406V715.773L1499.79 712.617L1497.9 705.81L1497.2 690.45L1494.88 686.238L1499.16 683.364L1505.34 676.209L1506.82 671.79L1508.22 669.123L1509.49 669.054L1511.1 670.107L1511.66 671.298L1511.1 674.805L1510.05 677.052L1507.38 678.945L1505.69 682.311L1506.04 685.398L1507.73 688.272L1507.66 690.591L1504.29 695.853L1505.48 697.392L1508.64 696.972L1509.49 697.887L1509.91 702.021L1511.24 706.374L1508.92 708.687L1507.87 710.931L1507.8 713.949L1509.13 717.459L1513.48 721.107L1518.12 720.474L1520.58 721.242L1524.23 726.924L1525.14 730.857L1526.69 732.048" stroke="#A362E3" stroke-linecap="round" stroke-linejoin="round"/>
<path d="M1399.54 678.105L1401.57 698.727V698.865L1407.26 694.023L1412.17 686.871L1413.85 685.89L1416.81 686.94L1420.88 681.681L1421.58 678.594L1422.92 679.437L1422.71 681.189L1428.25 682.38H1428.32L1431.62 681.822L1432.68 680.628L1431.69 679.785L1433.1 679.083L1432.25 677.958L1436.82 677.121L1439.42 673.962L1445.73 676.983L1450.23 676.068L1450.72 677.469L1449.46 678.243L1450.37 679.929L1451.35 679.014L1451.49 680.559L1453.18 680.205L1452.34 682.521L1454.51 683.433L1455 686.871L1453.11 694.656L1436.12 684.204L1434.85 696.69L1430.22 704.76L1427.48 707.355L1426 706.863L1422.78 713.457L1418.56 711.285L1411.47 729.453L1404.38 727.98L1402.77 724.683L1399.39 723.978L1398.69 730.506L1395.95 735.486L1396.23 737.52L1392.79 741.657L1391.32 748.392L1385.42 756.744L1383.25 762.492L1385.63 764.664L1383.1 767.262L1384.37 769.086L1379.1 773.367L1376.58 772.035L1369.98 776.172L1366.39 774.768L1365.55 775.962L1366.39 778.065L1365.34 779.187L1355.51 783.261L1350.53 779.817L1349.12 782.556L1342.6 785.853L1335.5 783.117L1332.27 780.171L1331.99 777.507L1330.09 776.244L1331.22 774.489L1330.52 773.577L1325.04 772.875L1323.43 770.277L1319.63 768.735L1318.65 765.228L1312.75 759.054L1313.1 757.092L1307.13 750.423L1308.96 746.778L1307.91 739.977L1307.98 740.256L1316.12 738.291L1317.18 732.537L1320.12 731.136L1318.3 724.683L1322.93 715.002L1326.44 715.422L1327.08 719.7L1329.81 716.757L1331.92 717.315L1329.67 711.561L1331.71 710.442L1331.29 707.421L1333.18 703.641L1336.62 702.726L1339.72 696.972L1342.8 699.357L1347.01 696.972L1356.77 686.871L1357.76 682.803L1356.43 680.907L1358.25 676.908L1357.76 674.739L1359.23 674.385L1359.16 667.578L1362.25 658.251L1361.06 654.882L1361.69 652.077L1358.95 647.517L1359.93 646.044L1363.37 644.64L1363.45 644.709L1367.45 681.681L1399.47 678.105H1399.54Z" fill="#A362E3" stroke="#A362E3" stroke-linecap="round" stroke-linejoin="round"/>
<path d="M1312.96 874.515L1315.27 871.917L1323.07 869.532L1324.33 867.501L1359.09 866.727L1368.43 866.655L1369.41 870.447L1372.5 867.711L1377.97 873.744L1378.33 879.354L1415.26 875.709L1456.61 910.221L1459.91 908.748L1470.23 906.225L1480.98 899.487L1481.54 895.764L1482.73 893.247L1485.75 889.806L1488.35 884.262L1492.77 880.197L1503.16 873.252L1515.59 870.939L1523.88 863.919L1524.51 860.133L1523.74 855.924L1518.47 855.642L1515.59 857.328L1515.24 858.732L1514.82 857.187L1514.68 853.821L1517.07 850.734L1517.77 848.067L1520.3 844.911L1517.77 842.808L1507.8 840.072L1515.31 839.157L1518.75 835.23L1520.65 839.013L1523.04 838.947L1525.28 841.332L1531.25 840.351L1534.48 837.891L1538.97 829.827L1541.92 827.16L1541.15 821.895L1539.88 818.115L1536.86 814.608L1534.48 818.391L1532.37 824.991L1531.88 825.057L1530.41 822.813L1528.58 815.307L1514.26 819.939L1510.54 819.726L1508.99 815.025L1507.8 806.328L1508.85 804.645L1511.8 812.568L1514.05 813.9L1517.28 813.483L1525 807.102L1527.39 807.027L1527.25 804.714L1531.04 805.554L1534.41 805.206L1537.01 809.346L1537.08 808.854L1535.39 804.645L1532.86 801.489L1531.11 796.227L1529.77 794.754L1530.2 784.791L1504.92 788.58L1479.64 792.087L1448.54 796.086L1419.12 799.593L1392.3 802.47L1363.86 805.344L1343.43 807.171L1342.03 813.063L1342.86 814.746L1341.46 818.325L1342.8 820.638L1339.57 820.287L1336.62 822.747L1331.84 831.3L1327.49 829.407L1324.68 830.529L1316.54 838.314L1314.01 834.387L1309.72 837.126L1308.67 840.072L1305.37 839.508L1305.51 842.175L1303.12 846.453L1297.51 847.716L1287.25 856.134L1279.18 856.905L1274.55 859.083L1270.62 863.01L1268.79 869.532L1263.6 869.673L1261.91 871.356L1261.35 880.053L1301.72 877.527L1312.04 873.672L1312.96 874.515Z" fill="#A362E3" stroke="#A362E3" stroke-linecap="round" stroke-linejoin="round"/>
<path d="M1323.07 869.535L1315.27 871.923L1312.96 874.521L1312.04 873.678L1301.72 877.533H1301.79L1300.88 881.115L1297.58 883.503L1294.07 890.304L1300.74 894.3L1305.58 898.722L1310.57 898.581L1312.88 903.279V903.141L1316.25 910.575L1321.45 916.26H1321.38L1322.86 918.855L1331.7 924.183L1335.35 929.796H1335.49L1345.18 936.744V941.091L1348.48 942.846L1348.62 945.3L1351.43 946.773L1351.78 948.741L1361.26 953.931L1361.12 956.247L1365.2 964.245L1365.54 969.432L1371.44 972.591L1375.72 980.445L1376.22 988.233L1384.85 991.602L1383.94 988.443L1384.57 987.042L1389.91 983.532L1393 983.256L1394.69 980.235L1393.14 977.079L1389.7 972.729L1389.28 971.118L1389.77 969.921L1399.46 968.241H1409.15L1411.96 967.119L1424.74 954.003L1426.07 953.859L1428.67 951.543L1429.65 947.196L1435.06 944.67L1438.36 941.232L1439.69 937.095L1437.94 933.795L1441.38 930.57L1444.26 923.415L1448.12 918.081L1455.98 913.173L1456.61 910.227L1415.26 875.715L1378.33 879.36L1377.97 873.75L1372.5 867.717L1369.41 870.453L1368.43 866.661L1359.09 866.733L1324.33 867.507L1323.07 869.535Z" fill="#A362E3" stroke="#A362E3" stroke-linecap="round" stroke-linejoin="round"/>
<path d="M1526.68 732.045L1529.48 732.747L1528.99 736.254L1526.68 737.586L1525.62 739.899L1522.25 754.143L1523.03 759.123L1525.06 764.877L1526.54 766.206L1529.42 765.435L1531.1 763.614L1532.36 760.455L1534.12 745.443L1541.21 726.483" fill="#A362E3" stroke="#A362E3" stroke-linecap="round" stroke-linejoin="round"/>
<path d="M1383.1 767.265L1385.62 764.667L1383.24 762.495L1385.42 756.747L1391.31 748.395L1392.79 741.657L1396.22 737.523L1395.95 735.489L1398.68 730.509L1399.39 723.981L1402.76 724.686L1404.37 727.983L1411.46 729.456L1418.56 711.288L1422.77 713.46L1426 706.866L1427.47 707.358L1430.21 704.763L1434.84 696.696L1436.11 684.207L1453.1 694.659L1454.99 686.874L1460.97 687.294L1464.26 689.538L1463.14 693.468L1465.53 695.856L1471 696.273L1472.97 698.73L1476.34 699.642L1478.45 700.902L1478.31 700.836L1479.57 702.588L1479.78 704.973L1480.06 707.709L1477.75 709.113L1477.47 713.532L1475.36 715.005L1474.16 718.863L1474.52 720.477L1475.71 722.019L1485.68 725.388L1491.86 729.666L1498.11 730.575L1505.76 732.963L1509.41 736.611L1510.47 740.187L1509.69 747.624L1507.59 748.467L1507.66 749.1L1509.13 753.588L1512.15 754.989L1514.96 759.621L1512.85 759.831L1510.67 761.301L1510.96 763.62L1512.43 766.914L1515.59 768.036L1516.72 770.352L1514.4 771.897L1508.64 772.878L1508.57 775.896L1512.01 777.576L1515.52 778.209L1516.64 776.523L1517.98 776.034L1528.3 777.021L1530.2 784.803L1504.92 788.592L1479.64 792.099L1448.53 796.098L1419.12 799.605L1392.29 802.482L1363.86 805.356L1343.42 807.183L1278.27 812.232L1295.75 808.161L1297.65 803.814L1303.83 801.288L1304.18 797.85L1308.32 795.186L1308.46 791.892L1318.57 785.436L1330.51 773.439V773.58L1331.21 774.492L1330.09 776.247L1331.98 777.51L1332.26 780.174L1335.49 783.12L1342.59 785.856L1349.11 782.559L1350.52 779.823L1355.5 783.264L1365.33 779.19L1366.39 778.068L1365.54 775.965L1366.39 774.771L1369.97 776.175L1376.57 772.038L1379.1 773.37L1384.36 769.089L1383.1 767.265Z" fill="#A362E3" stroke="#A362E3" stroke-linecap="round" stroke-linejoin="round"/>
<path d="M1055.62 896.535L1058.78 896.325V893.244L1065.31 889.311L1063.9 885.246L1067.2 883.77L1068.26 880.965L1070.99 880.686L1070.22 872.055L1073.81 865.323L1076.75 864.831L1075.63 862.023L1077.46 860.481L1075.84 856.836L1082.44 853.536L1083.28 852.204L1081.39 850.518L1085.11 849.75L1082.93 845.817H1061.65L1064.47 841.398L1072.05 834.456V830.739L1068.75 825.405L1041.64 825.264L1014.61 824.844L986.04 824.142L954.651 823.161L925.02 821.895L927.48 867.216L924.318 937.086L926.778 940.521L933.657 939.54L938.433 941.154L937.59 962.97L985.686 964.374L1035.4 965.145L1035.05 960.936L1037.29 958.692L1036.87 955.041L1034.41 953.079L1036.17 946.626L1032.73 943.398L1035.33 942.414L1035.61 940.662L1032.87 938.349L1038.42 934.068L1039.75 928.176L1037.71 926.283L1044.67 923.829L1045.01 921.723L1042.14 919.827L1045.3 917.724L1046.63 914.499L1048.53 914.709V910.989L1054.71 908.952L1054.28 900.816L1055.62 896.535Z" fill="#A362E3" stroke="#A362E3" stroke-linecap="round" stroke-linejoin="round"/>
<path d="M1039.69 397.359L1060.97 380.805L1070.58 377.295L1081.89 367.263H1079.5L1072.55 363.969L1059.91 363.546L1051.56 360.321L1046.78 360.459L1040.6 363.687L1037.37 364.038L1031.61 361.023L1027.68 356.181L1021.93 354.285L1018.49 351.273L1014.2 349.797L1011.67 348.324L1009.22 344.955L1004.65 342.012L1000.02 340.047L987.591 338.433L983.448 340.746L978.393 340.887L974.883 339.624L974.952 338.994L973.899 337.8L967.932 335.697L965.475 334.155L960.771 334.716L958.596 334.575L957.963 333.735L954.03 333.942L950.376 323.352L949.605 322.575L944.973 306.726L941.532 305.742L939.564 305.604L938.37 322.998L909.51 320.892L883.251 318.576H883.182L885.711 331.068L883.674 335.484L882.759 350.988L888.237 374.139L887.043 397.008L887.325 400.866L888.447 401.358L886.344 412.161L887.958 420.72L890.766 425.631L891.255 432.084L890.694 440.994L889.785 444.849V444.99L887.184 448.638L881.988 451.866L881.073 454.179L885.15 461.826L889.431 463.722L891.537 466.95L888.939 499.08L885.852 538.782L895.047 539.484L921.798 541.308L950.1 542.85L975.864 544.044L1000.3 544.887L1027.05 545.586L1038.57 545.796L1037.58 534.573L1035.06 529.101L1022.07 519.423L1020.1 514.089L1014.56 507.636L1010.06 505.11L1005.22 505.32L1002.2 500.901L996.015 498.306L993.63 494.727L995.595 487.923L994.401 482.031L996.015 480.348V473.262L999.036 467.931L996.438 462.528L992.577 461.337L992.997 456.288L995.805 453.831L998.613 448.359L1008.16 444.075L1010.13 441.837L1010.83 418.686L1013.01 418.827L1014.41 415.458L1016.94 417.774L1020.59 413.775L1039.69 397.359Z" fill="#A362E3" stroke="#A362E3" stroke-linecap="round" stroke-linejoin="round"/>
<path d="M894.189 626.475L895.524 621.705L893.277 620.79V617.916L890.82 617.985L890.679 612.093L892.365 607.743L889.836 603.534L890.328 600.378L887.31 597.57L887.241 594.765L884.994 591.816L885.693 587.961L883.587 584.313L884.289 579.051L881.832 578.28L877.83 577.368L875.865 571.335L863.646 565.794L860.346 561.933L842.793 560.673L840.126 563.616L837.81 563.691L827.487 557.094L824.538 553.377L824.469 553.446L813.375 552.114L786.555 549.096L762.12 546.147L736.281 542.643L708.054 538.575L681.372 534.366L662.907 531.279L656.235 571.122L649.635 611.601L680.109 616.512L709.878 620.931L704.544 659.652L732.561 663.372L762.261 666.948L789.36 669.894L814.989 672.492L843.144 675.018L872.988 677.403L901.143 679.296L907.32 679.644L907.881 676.629L905.634 673.191L906.057 671.439L900.651 668.142L900.021 659.865L897.912 658.809L897.981 656.217L897.843 653.973L895.032 650.883L897.069 644.922L896.088 638.118L896.859 632.994L894.684 631.803L896.577 627.876L894.189 626.475Z" fill="#A362E3" stroke="#A362E3" stroke-linecap="round" stroke-linejoin="round"/>
<path d="M1086.94 840.555L1084.2 836.274L1088.27 835.713L1086.24 832.767L1089.47 830.946L1087.99 824.001L1090.24 823.647L1091.01 827.928L1091.99 825.891L1094.32 820.908L1098.6 823.158L1102.25 814.953L1102.6 807.165L1100.14 806.532L1097.68 802.464L1096.35 803.097L1097.33 806.04L1093.89 803.937L1091.3 796.221L1089.54 795.237L1091.99 789.486L1089.26 783.594L1089.33 778.752L1076.55 767.877L1072.97 767.109L1062.85 757.215L1062.29 751.956L1068.19 740.874L1067.84 737.295L1070.02 733.782L1070.23 732.456L1065.67 729.015L1060.47 727.332L1056.75 730.698L1054.57 730.419L1052.47 726.984L1049.66 713.934L1041.86 708.111L1039.97 704.604L1031.54 696.816L1027.47 680.964L1029.09 671.214L1022.41 663.495L1020.94 661.392L1001.98 660.972L975.021 660.126L945.387 658.866L917.373 657.393L897.993 656.202L897.921 658.794L900.033 659.847L900.663 668.127L906.069 671.424L905.649 673.176L907.896 676.614L907.335 679.629L913.794 685.245L916.533 686.997L921.375 686.013L923.412 692.328H920.397L915.618 699.624L921.726 706.71L923.481 713.514L930.294 716.109L928.257 755.604L925.938 802.044L925.029 821.892L954.66 823.158L986.046 824.139L1014.62 824.841L1041.65 825.261L1068.76 825.402L1072.06 830.736V834.453L1064.47 841.395L1061.66 845.814H1082.94L1086.94 840.555Z" fill="#A362E3" stroke="#A362E3" stroke-linecap="round" stroke-linejoin="round"/>
<path d="M917.379 657.405L897.999 656.214L897.861 653.97L895.05 650.88L897.09 644.919L896.106 638.115L896.874 632.991L894.699 631.8L896.598 627.873L894.21 626.472L895.542 621.702L893.295 620.787V617.913L890.841 617.982L890.697 612.09L892.38 607.74L889.854 603.531L890.349 600.375L887.328 597.567L887.256 594.762L885.012 591.813L885.714 587.958L883.605 584.31L884.307 579.048L881.853 578.277L882.06 576.381L880.377 573.576L881.22 572.733L877.92 568.806L880.866 564.387L882.906 558.705H882.693L884.661 553.863L884.1 550.143L881.427 549.375L882.132 548.388L881.358 547.062L882.693 546.78L883.113 543.621L881.499 540.957V538.431L885.855 538.782L895.05 539.484L921.801 541.308L950.103 542.85L975.867 544.044L1000.3 544.887L1027.05 545.586L1038.57 545.796L1040.68 569.229L1043.2 576.522L1053.66 580.239L1055.49 584.1L1055.14 587.256L1061.17 591.885L1062.16 596.094L1069.11 601.287L1069.95 606.336L1068.34 613.35L1064.9 616.227L1063.42 622.68L1053.73 627.732L1042.71 629.697L1040.75 636.639L1045.03 641.691L1045.24 647.235L1040.89 652.425L1039.27 658.95L1031.13 662.877L1032.04 669.681L1029.09 671.226L1022.42 663.507L1020.94 661.404L1001.99 660.984L975.027 660.138L945.393 658.878L917.379 657.405Z" fill="#A362E3" stroke="#A362E3" stroke-linecap="round" stroke-linejoin="round"/>
<path d="M882.879 558.705H882.669L884.634 553.869L884.073 550.146L881.406 549.378L882.111 548.391L881.334 547.065L882.669 546.78L883.092 543.627L881.478 540.957V538.437L885.831 538.782L888.921 499.08L891.516 466.953L889.413 463.725L885.126 461.829L881.055 454.185L881.97 451.869L887.166 448.641L889.761 444.996V444.852L890.673 440.997L878.808 439.944L853.248 437.559L826.218 434.682L800.73 431.736L777.489 428.718L752.985 425.28L726.162 421.143L700.815 416.934L683.331 413.844L676.662 451.449L669.852 490.731L662.901 531.276L681.366 534.366L708.048 538.575L736.275 542.643L762.114 546.147L786.549 549.093L813.369 552.114L824.463 553.446L824.532 553.377L827.481 557.091L837.804 563.691L840.12 563.619L842.787 560.673L860.34 561.936L863.64 565.794L875.859 571.332L877.824 577.368L881.826 578.277L882.039 576.384L880.353 573.579L881.193 572.739L877.896 568.812L880.845 564.39L882.879 558.705Z" fill="#A362E3" stroke="#A362E3" stroke-linecap="round" stroke-linejoin="round"/>
<path d="M855.729 315.771L832.488 313.113L807.072 309.813L783.057 306.447L774.771 305.181L705.402 293.325L698.592 329.805L691.5 368.454L685.179 403.674L683.352 413.841L700.836 416.931L726.183 421.14L753.006 425.277L777.51 428.715L800.751 431.733L826.239 434.679L853.269 437.556L878.829 439.941L890.694 440.994L891.258 432.081L890.766 425.631L887.955 420.717L886.341 412.158L888.45 401.358L887.325 400.869L887.043 397.011L888.237 374.139L882.762 350.991L883.674 335.487L885.708 331.071L883.182 318.579H883.254L877.704 318.018L855.729 315.771Z" fill="#A362E3" stroke="#A362E3" stroke-linecap="round" stroke-linejoin="round"/>
<path d="M468.639 727.335L465.48 742.908L445.47 738.489L419.211 732.525L391.545 725.865L361.215 718.146L332.637 710.571L309.255 704.043L314.169 684.897L323.931 647.715L333.057 613.833L342.816 578.127L353.697 539.052L364.161 502.224L382.419 507.834L408.816 515.553L436.833 523.407L450.525 527.058L440.553 567.324L468.99 574.551L499.605 581.913L491.529 618.813L483.105 657.888L475.593 693.522L468.639 727.335Z" fill="#A362E3" stroke="#A362E3" stroke-linecap="round" stroke-linejoin="round"/>
<path d="M843.159 675.015L814.998 672.489L789.372 669.894L762.276 666.945L732.573 663.369L704.553 659.649L699.573 696.408L694.446 735.27L689.811 770.838L688.476 781.08L692.619 781.641L721.899 785.22L752.931 788.655L781.158 791.532L807.978 794.058L837.402 796.443L868.431 798.687L897.921 800.511L925.938 802.056L928.26 755.616L930.291 716.121L923.481 713.526L921.726 706.722L915.618 699.636L920.397 692.34H923.412L921.375 686.025L916.533 687.009L913.791 685.257L907.335 679.644L901.158 679.293L872.997 677.4L843.159 675.015Z" fill="#A362E3" stroke="#A362E3" stroke-linecap="round" stroke-linejoin="round"/>
<path d="M859.719 927.975L862.524 931.557L863.514 929.094L866.67 929.379L868.71 926.781L875.655 924.468L880.923 926.505L881.205 924.819L887.457 923.064L889.071 925.803L895.596 926.64L899.67 922.923L907.749 927.483L910.974 931.833L924.318 937.095L927.477 867.225L925.02 821.904L925.932 802.056L897.912 800.511L868.422 798.687L837.393 796.443L807.969 794.058L781.149 791.532L752.922 788.655L721.89 785.22L692.61 781.641L688.467 781.08L657.15 776.871L654.342 797.355L671.898 799.743L701.388 803.526L732.564 807.18L750.75 809.139L742.815 886.866L746.958 887.499L754.26 895.566L757.344 894.513L761.703 896.406L763.878 893.04L768.513 898.581L769.074 903.705L775.671 904.056L783.045 907.911L787.962 907.563L792.102 911.559L795.828 909.033L804.39 909.456L804.6 914.433L808.887 916.191L808.185 919.977L810.99 921.519L819.207 917.031L820.752 917.874L820.893 920.682L824.541 921.027L825.735 924.183L833.739 921.588L833.181 925.803L835.353 928.818L838.23 925.239L837.531 923.628L847.575 921.45L850.659 924.747L859.719 927.975Z" fill="#A362E3" stroke="#A362E3" stroke-linecap="round" stroke-linejoin="round"/>
<path d="M629.199 978.615L633.969 940.173L638.466 904.464L643.521 865.392L648.438 828.423L652.719 797.133L654.336 797.346L657.144 776.862L622.176 771.528L595.638 767.322L567.549 762.624L536.865 757.08L497.829 749.505L465.459 742.908L458.016 780.087L450.294 819.444L443.412 855.36L437.022 889.383L430.212 926.844L421.926 973.353L449.238 978.402L452.607 959.112L508.218 968.232L507.096 961.005L524.718 963.81L555.756 968.583L588.543 973.281L618.453 977.283L629.199 978.615Z" fill="#A362E3" stroke="#A362E3" stroke-linecap="round" stroke-linejoin="round"/>
<path d="M491.529 618.825L499.602 581.928L518.421 586.209L545.736 592.17L574.593 598.062L600.993 603.114L626.058 607.674L649.65 611.604L680.124 616.515L709.893 620.934L704.559 659.655L699.573 696.414L694.446 735.276L689.814 770.844L688.479 781.086L657.165 776.877L622.197 771.543L595.656 767.337L567.57 762.639L536.886 757.095L497.85 749.52L465.48 742.923L468.639 727.35L475.59 693.537L483.105 657.9L491.529 618.825Z" fill="#A362E3" stroke="#A362E3" stroke-linecap="round" stroke-linejoin="round"/>
<path d="M450.519 527.055L440.547 567.321L468.984 574.548L499.599 581.91L518.418 586.191L545.73 592.152L574.587 598.047L600.987 603.099L626.052 607.656L649.647 611.586L656.244 571.107L662.919 531.264L669.867 490.716L676.677 451.431L651.543 446.802L624.438 441.471L598.881 436.071L575.571 430.947L551.067 425.196L524.244 418.53L498.966 411.867L481.482 407.097L476.148 427.302L463.791 474.792L450.519 527.055Z" fill="#A362E3" stroke="#A362E3" stroke-linecap="round" stroke-linejoin="round"/>
<path d="M166.503 210.201L167.556 212.865L165.309 218.196L166.713 219.252L167.976 217.914L169.872 212.232L171.978 208.584V207.324L170.082 206.829L168.816 205.428L168.678 203.673L170.082 200.166L172.893 198.273L174.927 195.75L174.363 192.591L170.925 194.556L170.574 193.713L171.768 186.486L176.121 169.23L176.823 160.038L175.419 153.306V148.536L176.331 144.537L178.719 140.046L182.088 136.467L185.04 135L188.337 140.325L198.87 152.043L202.941 154.149L207.789 158.286L214.179 160.953L218.88 166.983L224.217 168.738L223.866 173.226L221.268 177.156L219.936 178.14L217.125 178.419L215.232 179.4L206.802 187.122L204.558 192.873L207.999 194.274L209.892 191.466L208.842 190.344L211.089 188.592L216.774 186.975L223.587 181.647L226.533 181.857L227.448 182.769L227.52 186.837L227.937 187.188L231.591 181.086L234.819 173.718L236.013 164.886V163.056L234.399 160.815L232.992 157.092L233.205 156.462H235.38L238.611 154.5L240.717 150.15L242.403 150.219L243.597 152.187L244.371 151.833L243.807 149.166L240.717 146.079L237.486 144.537L236.646 140.121L236.787 135.417L264.168 149.028L286.215 159.477L309.669 170.142L331.224 179.613L351.726 188.244L375.108 197.781L356.784 248.01L339.228 297.186L337.614 299.847L338.244 309.108L335.646 311.565L336.63 315.984L281.511 294.237L278.214 295.218L265.293 290.658L262.062 292.275L254.268 290.307L245.772 291.012L238.893 289.326L235.731 285.75L219.792 284.976L217.335 279.294L204.699 273.195L198.519 274.455L189.882 273.333L179.631 264.141L183.144 251.025L183 246.393L177.804 237.765L175.698 234.399L174.156 229.98L164.115 225.351L162.006 221.073L162.99 217.002L166.503 210.201Z" fill="#A362E3" stroke="#A362E3" stroke-linecap="round" stroke-linejoin="round"/>
<path d="M416.619 397.005L414.582 393.216L414.159 389.991L415.776 389.007L416.478 386.904L415.986 382.344L414.369 381.642L414.234 377.925L412.266 372.873L413.247 369.999L412.476 367.542L413.67 364.875L412.404 363.474L413.598 360.528L409.668 354.987L408.822 356.877L404.961 359.055L401.451 359.334L398.361 361.089L395.553 356.529L393.027 355.407L396.327 350.214L395.484 346.917L401.451 344.04L401.103 342.219L402.153 339.975L400.398 338.781L402.435 334.782L401.664 332.256L403.908 331.767L404.259 328.398L408.822 321.873L408.753 319.488L410.79 318.927L412.686 313.737L405.807 312.546L404.613 310.722L405.666 309.177L404.751 307.422L401.802 307.983L402.576 305.598L399.765 301.671L400.539 298.302L398.01 294.585L394.431 281.538L390.429 278.172L389.445 274.032L386.355 270.663L389.376 269.613L387.69 265.824L390.006 264.282L390.15 259.932L385.725 245.622L399.135 207.039L448.848 225.066L480.723 235.728L503.895 243.024L528.468 250.461L551.358 257.058L566.667 261.264L591.45 267.786L614.13 273.402L635.682 278.451L659.349 283.713L684.483 288.903L705.408 293.322L698.598 329.802L691.506 368.454L685.185 403.668L683.361 413.841L676.689 451.44L651.555 446.811L624.45 441.48L598.893 436.08L575.583 430.956L551.079 425.205L524.256 418.539L498.978 411.876L481.494 407.106L476.16 427.311L472.929 422.469L471.666 415.806L470.262 414.333L466.962 415.455V417.348L464.643 419.31L465.204 422.049L459.801 419.592L455.73 420.153L454.113 418.05L448.074 417.558L444.072 414.822L441.264 415.524L438.948 418.26L431.295 413.772L428.976 413.91L426.306 415.593L426.378 417.627L425.535 418.05L421.953 412.998L422.868 409.983L421.533 406.686L422.868 404.862L421.674 399.111L419.355 396.654L416.619 397.005Z" fill="#A362E3" stroke="#A362E3" stroke-linecap="round" stroke-linejoin="round"/>
<path d="M270.009 781.065L271.203 775.455L273.309 775.029L274.995 767.385L275.628 750.405L278.151 744.516L276.819 740.871L279.138 737.922L284.541 734.133L287.352 736.311L290.439 736.518L292.407 741.78L295.005 742.902L297.039 742.131L300.831 737.082L309.258 704.037L332.64 710.565L361.218 718.14L391.548 725.859L419.214 732.519L445.473 738.483L465.486 742.902L458.04 780.081L450.321 819.438L443.439 855.354L437.049 889.377L430.236 926.838L421.953 973.347L357.705 960.507L241.572 880.398L241.644 876.33L245.505 873.174L250.347 875.067L254.352 870.087L255.123 865.737L248.664 858.93L250.839 853.878L249.717 849.813L250.701 845.604L253.86 845.745L258.846 840.903L260.178 835.854L261.864 834.66L263.127 824.559L266.778 822.738L268.746 819.579L279.138 815.016L277.311 806.529L273.447 802.041L269.025 785.625L270.009 781.065Z" fill="#A362E3" stroke="#A362E3" stroke-linecap="round" stroke-linejoin="round"/>
<path d="M59.637 572.325L62.724 574.221L63.075 576.324L64.692 577.797L67.08 576.957L67.992 575.901L71.361 567.627L78.735 571.206L84.633 576.816L80.07 577.728L76.416 577.095L72.555 579.48L71.994 583.41L73.818 596.037L73.119 599.472L69.816 593.652L68.271 588.39V584.673L66.165 583.131L63.777 587.337L62.868 591.618L63.429 599.613L61.53 611.889L64.551 619.539L71.082 623.883L72.276 630.9L70.026 637.986L65.184 639.882L63.006 647.88L63.357 650.823L70.8 670.185L73.818 684.282L79.437 697.05L82.245 700.278L80.562 707.292L84.279 711.645L85.896 717.042L85.824 718.656L83.298 722.52L81.894 727.989L80.7 737.319L81.261 740.193L84.633 743.211L94.815 748.896L100.569 755.346L103.869 754.506L107.451 756.468L111.942 761.796L116.58 765.729L117.915 770.499L125.85 777.444L128.586 780.669L129.99 783.828L132.87 780.669L135.465 781.374L137.433 783.477L140.805 789.579L140.172 796.455L140.592 797.856L148.386 801.366L153.933 807.888L157.443 813.291L162.852 825.915L166.641 832.653L168.465 839.739L166.008 856.713L166.08 861.693L241.632 876.357L245.493 873.201L250.335 875.094L254.34 870.114L255.111 865.764L248.652 858.957L250.827 853.905L249.705 849.84L250.689 845.631L253.845 845.772L258.834 840.93L260.166 835.881L261.852 834.69L263.115 824.586L266.766 822.765L268.734 819.606L279.126 815.043L277.299 806.556L273.435 802.068L269.013 785.652L269.997 781.092L247.317 741.879L229.341 710.802L212.841 681.129L198.312 653.91L183.354 624.87L167.487 592.881L153.09 562.296L167.064 521.538L180.333 483.654L195.429 441.636L168.957 430.554L142.134 418.839L108.153 403.266L82.104 390.777L81.192 396.879L77.4 417.084L70.662 428.73L65.886 439.953L60.405 444.792L54.582 448.23L52.404 453.069L51.63 456.225L53.739 461.067L57.741 489.477L57.318 492.846L55.071 495.651L52.404 502.176L49.104 525.396L51.069 531.147L52.755 539.286L58.302 554.019L58.371 559.206L56.403 564.189L56.826 566.922L59.637 572.325Z" fill="#A362E3" stroke="#A362E3" stroke-linecap="round" stroke-linejoin="round"/>
<path d="M419.349 396.657L416.613 397.008L414.576 393.219L414.153 389.994L415.77 389.01L416.472 386.907L415.98 382.347L414.363 381.648L414.225 377.928L412.26 372.876L413.241 370.002L412.467 367.545L413.664 364.878L412.398 363.477L413.592 360.531L409.659 354.99L408.816 356.883L404.955 359.058L401.445 359.337L398.355 361.092L395.547 356.532L393.021 355.41L396.321 350.217L395.475 346.92L401.445 344.043L401.094 342.222L402.147 339.978L400.392 338.784L402.429 334.785L401.655 332.262L403.902 331.77L404.253 328.401L408.816 321.876L408.747 319.491L410.784 318.93L412.68 313.74L405.801 312.549L404.604 310.725L405.66 309.18L404.745 307.425L401.796 307.986L402.57 305.601L399.759 301.674L400.533 298.305L398.004 294.588L394.422 281.541L390.42 278.175L389.439 274.035L386.349 270.666L389.37 269.616L387.684 265.827L390 264.285L390.144 259.935L385.716 245.625L399.129 207.042L375.117 197.781L356.79 248.01L339.234 297.183L337.623 299.85L338.253 309.111L335.652 311.565L336.639 315.984L337.692 324.051L342.324 328.821L342.675 335.907L334.041 343.905L329.898 350.64L324.558 355.128L323.229 359.127L320.346 362.283L315.645 364.32L307.08 372.945L305.112 380.805L310.377 383.751L311.643 388.38L308.34 390.837L308.412 394.275L303.567 400.866L279.414 473.895L297.459 480.276L323.508 489.255L351.243 498.162L364.161 502.233L382.419 507.843L408.816 515.562L436.833 523.416L450.525 527.067L463.797 474.804L476.154 427.314L472.923 422.472L471.657 415.809L470.256 414.336L466.956 415.458V417.351L464.637 419.316L465.198 422.052L459.795 419.595L455.721 420.156L454.104 418.053L448.068 417.561L444.066 414.825L441.258 415.527L438.942 418.266L431.286 413.775L428.97 413.913L426.3 415.596L426.372 417.633L425.529 418.053L421.947 413.004L422.862 409.986L421.527 406.689L422.862 404.865L421.665 399.114L419.349 396.657Z" fill="#A362E3" stroke="#A362E3" stroke-linecap="round" stroke-linejoin="round"/>
<path d="M183.147 251.025L179.634 264.141L189.885 273.33L198.522 274.452L204.702 273.192L217.338 279.297L219.798 284.979L235.734 285.75L238.896 289.326L245.775 291.012L254.271 290.31L262.065 292.272L265.296 290.658L278.217 295.221L281.514 294.24L336.633 315.987L337.686 324.054L342.318 328.821L342.672 335.907L334.035 343.902L329.892 350.64L324.555 355.128L323.223 359.127L320.343 362.283L315.639 364.32L307.074 372.945L305.106 380.805L310.371 383.751L311.637 388.38L308.334 390.834L308.406 394.272L303.561 400.869L279.408 473.892L266.277 469.125L238.896 458.883L213.195 448.851L195.432 441.624L168.96 430.542L142.137 418.827L108.156 403.254L82.1069 390.765L82.5269 388.098L83.2319 375.471L88.0739 361.302L90.1139 352.533L98.6789 339.555L103.524 335.559L107.595 334.857L108.72 330.576L107.877 330.153L108.156 329.385L110.403 325.317L118.758 313.671L121.917 307.008L125.289 302.655L134.628 280.278L139.332 274.599L146.985 258.603L150.636 255.096L152.604 249.27L154.851 246.75L154.005 244.503L155.13 240.996L159.201 233.49L160.887 231.312L162.924 230.823L172.263 234.471L176.616 238.959L177.807 237.765L183.003 246.393L183.147 251.025Z" fill="#A362E3" stroke="#A362E3" stroke-linecap="round" stroke-linejoin="round"/>
<path d="M275.619 750.405L274.986 767.385L273.3 775.029L271.194 775.455L270 781.065L247.32 741.852L229.344 710.775L212.844 681.102L198.315 653.883L183.357 624.843L167.49 592.854L153.093 562.269L167.067 521.511L180.336 483.627L195.432 441.609L213.195 448.836L238.896 458.868L266.277 469.107L279.405 473.877L297.453 480.261L323.502 489.24L351.24 498.15L364.155 502.218L353.694 539.046L342.813 578.121L333.051 613.827L323.925 647.712L314.163 684.888L309.249 704.04L300.822 737.082L297.03 742.131L294.996 742.902L292.398 741.78L290.43 736.518L287.343 736.311L284.532 734.133L279.129 737.922L276.81 740.871L278.142 744.516L275.619 750.405Z" fill="#A362E3" stroke="#A362E3" stroke-linecap="round" stroke-linejoin="round"/>
<path d="M1036.18 946.635L1032.74 943.407L1035.34 942.423L1035.62 940.671L1032.88 938.358L1038.43 934.077L1039.76 928.185L1037.72 926.292L1044.68 923.835L1045.02 921.732L1042.15 919.836L1045.31 917.733L1046.64 914.508L1048.54 914.718V910.998L1054.72 908.964L1054.29 900.825L1055.63 896.544L1058.79 896.334V893.253L1065.32 889.32L1063.91 885.255H1096.07L1133.85 884.832L1137.43 889.038L1132.37 943.407L1125.98 1009.56L1129.63 1069.96L1108.64 1068.97L1101.27 1073.33L1096 1071.85L1088.14 1075.85L1085.47 1067.36L1081.12 1063.36L1079.57 1059.01L1083.43 1045.97L1017.15 1045.54L1016.87 1045.76L1019.82 1042.88L1017.36 1035.02L1021.72 1033.76L1022.91 1029.34L1021.72 1025.2L1025.15 1022.39L1027.68 1012.64L1037.16 1005.21L1036.67 1000.3L1038.99 1000.23L1043.34 992.793L1036.6 987.183L1036.95 983.463L1034.57 979.746L1037.86 977.778L1034.92 975.183L1037.86 968.802L1034.78 966.837L1035.41 965.154L1035.06 960.945L1037.3 958.701L1036.88 955.05L1034.42 953.088L1036.18 946.635Z" fill="#A362E3" stroke="#A362E3" stroke-linecap="round" stroke-linejoin="round"/>
<path d="M1061.17 1117.15H1058.29L1055.06 1118.84L1051.69 1116.52L1046.42 1119.12L1041.09 1117.43L1039.26 1115.54L1031.96 1115.05L1025.01 1104.32L1021.01 1103.4L1016.8 1098.77L1006.82 1093.51L1000.72 1093.3L998.748 1095.34L998.958 1098.85L994.89 1102.49L987.306 1102.07L979.227 1100.46L972.42 1097.37L959.007 1092.95L939.42 1095.34L936.258 1091.2L939.768 1088.11L941.805 1083.9L944.331 1081.17L945.318 1078.01L944.964 1072.4L943.632 1069.8L945.735 1065.66L944.613 1061.74L950.793 1051.07L950.583 1048.2L952.056 1046.3L950.724 1043.71L952.827 1042.65L951.423 1040.2L952.266 1036.55L951.213 1036.2L951.285 1036.13L950.091 1035.92L947.562 1031.01L948.615 1028.9L945.456 1024.62L946.299 1023.08L942.717 1019.79L943.491 1015.37L942.645 1012.07L935.976 1003.37L937.593 962.964L985.689 964.368L1035.4 965.139L1034.77 966.822L1037.86 968.787L1034.91 975.168L1037.86 977.763L1034.56 979.731L1036.94 983.448L1036.59 987.168L1043.34 992.778L1038.98 1000.21L1036.67 1000.28L1037.15 1005.19L1027.68 1012.63L1025.15 1022.38L1021.71 1025.19L1022.9 1029.33L1021.71 1033.75L1017.35 1035.01L1019.81 1042.87L1016.86 1045.74L1017.14 1045.53L1083.43 1045.95L1079.57 1059L1081.11 1063.35L1085.47 1067.35L1088.13 1075.84L1078.3 1073.94L1069.1 1069.59L1061.03 1072.12L1059.13 1078.99L1064.26 1083.41L1070.58 1083.06L1075.56 1079.41L1078.09 1079.13L1079.63 1079.48L1081.25 1086.71L1083.78 1087.13L1087.5 1083.9L1094.94 1080.61L1096.34 1080.95L1097.82 1082.36L1096.21 1091.41L1088.9 1096.74L1086.16 1101.72L1086.03 1103.34L1090.73 1109.44L1101.26 1114.56L1104.14 1118.63L1103.16 1121.57L1098.53 1123.47L1095.93 1124.66L1089.19 1115.75L1081.82 1112.38L1077.25 1108.03H1073.95L1072.82 1108.94L1073.25 1111.33L1072.33 1113.37L1067.91 1118.7L1061.17 1117.15Z" fill="#A362E3" stroke="#A362E3" stroke-linecap="round" stroke-linejoin="round"/>
<path d="M819.339 1243.57L816.534 1241.12L814.005 1233.82L813.09 1228.91L812.247 1227.72L809.229 1210.39L809.019 1203.8L812.106 1201.97L812.67 1194.19L811.968 1193L807.966 1191.73L806.208 1190.47L807.051 1188.09H811.83L813.582 1190.12L816.813 1188.29L818.007 1183.38L818.847 1174.83L815.619 1168.23L824.958 1166.97L828.678 1160.65L828.33 1159.04L824.535 1159.81L824.958 1156.8L831.417 1153.43L833.661 1153.92L837.597 1149.78L838.44 1147.54L839.841 1146L846.162 1145.78L848.763 1144.52L849.324 1141.64L845.808 1138.35L845.955 1135.33L847.077 1133.44L850.233 1135.05L852.204 1137.09L852.765 1136.74L852.903 1133.93L853.743 1132.66L855.15 1133.23L856.833 1136.38L857.676 1136.59L859.782 1135.68L860.907 1132.81L861.96 1132.17L862.944 1137.86L873.405 1134.91L874.812 1135.26L874.245 1136.38L871.581 1137.79L864.837 1139.75L859.575 1142.14L858.237 1143.75L859.575 1144.45L870.528 1140.94L880.494 1136.31L884.709 1132.74L893.838 1127.05L895.872 1124.25L899.874 1114.22L901.563 1093.59L903.528 1091.77L905.565 1090.86L907.107 1091.07L907.248 1098.57L911.739 1098.99L910.407 1101.66L906.474 1103.13L907.812 1103.83L920.52 1099.35L928.242 1095.41L939.408 1095.35L936.246 1091.21L939.759 1088.12L941.793 1083.91L944.322 1081.18L945.303 1078.02L944.955 1072.41L943.62 1069.81L945.723 1065.67L944.598 1061.74L950.781 1051.08L950.574 1048.21L952.044 1046.31L950.712 1043.72L952.818 1042.66L951.411 1040.21L952.257 1036.56L951.204 1036.21L951.273 1036.14L950.082 1035.93L947.55 1031.02L948.603 1028.91L945.447 1024.63L946.284 1023.09L942.708 1019.8L943.476 1015.38L942.636 1012.08L935.964 1003.38L937.581 962.973L938.424 941.157L933.648 939.546L926.769 940.524L924.312 937.089L910.968 931.827L907.74 927.477L899.664 922.917L895.593 926.634L889.065 925.797L887.451 923.058L881.199 924.813L880.917 926.499L875.652 924.462L868.704 926.775L866.664 929.373L863.508 929.088L862.521 931.548L859.713 927.969L850.656 924.741L847.569 921.444L837.525 923.622L838.224 925.233L835.347 928.812L833.172 925.797L833.733 921.582L825.729 924.177L824.535 921.021L820.887 920.673L820.743 917.868L819.201 917.025L810.984 921.513L808.176 919.971L808.881 916.185L804.597 914.427L804.384 909.45L795.822 909.027L792.096 911.553L787.956 907.557L783.039 907.905L775.665 904.047L769.068 903.699L768.507 898.575L763.869 893.034L761.697 896.4L757.341 894.507L754.254 895.56L746.952 887.493L742.806 886.86L750.741 809.133L732.555 807.171L701.382 803.52L671.892 799.737L654.339 797.349L652.722 797.136L648.441 828.426L643.524 865.395L638.469 904.467L633.972 940.176L629.202 978.618L618.456 977.286L588.546 973.284L555.759 968.586L524.721 963.813L507.099 961.008L508.221 968.235L514.119 973.143L516.438 974.829L519.666 983.598L526.971 988.437L531.324 997.275L541.716 1010.32L558.285 1025.48L563.064 1058.8L570.783 1072.27L580.893 1083.91L595.497 1096.47L609.75 1100.89L628.146 1072.48L630.393 1070.3L637.77 1068.41L644.649 1071L673.017 1072.97L677.367 1079.35L687.201 1090.93L690.639 1098.01L696.957 1103.55L706.716 1134.7L716.199 1146.98L720.972 1159.61L731.505 1168.16L738.873 1200.43L748.776 1218.11L759.165 1226.32L768.576 1227.93L777.843 1234.17L795.396 1236.56L807.333 1243.29L818.64 1244.9L819.339 1243.57Z" fill="#A362E3" stroke="#A362E3" stroke-linecap="round" stroke-linejoin="round"/>
<path d="M1589.05 470.595L1588 456.636L1592.77 453.687L1598.46 445.2L1598.88 442.044L1594.95 436.293L1597.2 429.489L1595.72 426.612L1594.81 426.822L1545.1 438.117L1546.29 440.991L1545.59 443.376L1547.27 445.833L1547.48 452.778L1551.27 458.739L1550.78 462.387L1552.19 466.878L1550.85 469.26L1550.29 475.434L1554.92 487.713L1554.15 492.06L1555.14 494.727L1557.59 491.85L1560.19 494.727L1564.61 523.839L1566.37 527.205L1589.26 522.366L1585.47 517.665L1586.87 511.422L1584.27 489.534L1589.05 470.595Z" fill="#A362E3" stroke="#A362E3" stroke-linecap="round" stroke-linejoin="round"/>
<path d="M1565.38 556.605L1568.89 586.209L1571.56 589.506L1565.31 595.398L1568.33 598.623L1574.02 596.028L1580.19 591.33L1585.88 588.735L1587.49 584.664L1591.22 582.069L1599.01 581.928L1605.33 578.913L1619.3 574.983L1618.88 571.617L1619.93 570.846L1614.67 546.081L1586.79 552.186L1586.23 554.289L1584.9 552.537L1565.38 556.605Z" fill="#A362E3" stroke="#A362E3" stroke-linecap="round" stroke-linejoin="round"/>
<path d="M1575.4 599.835L1571.4 603.834V610.836L1569.4 616.836L1577.4 615.834L1596.4 608.835L1611.4 599.835L1630.4 586.836V582.834L1621.4 584.835L1610.4 589.836L1613.4 581.835L1607.4 583.836L1604.4 588.834L1599.4 596.835L1588.4 598.836L1579.4 600.834L1575.4 599.835Z" fill="#A362E3" stroke="#A362E3" stroke-linecap="round" stroke-linejoin="round"/>
<path d="M1476.07 494.595L1475.93 492.21L1474.1 490.596L1470.31 491.298L1469.19 488.631L1470.66 484.707L1480.07 476.775L1482.32 470.958L1482.6 467.586L1482.67 467.52L1483.65 464.082L1492.43 456.573L1499.38 447.384L1506.89 445.911L1545.09 438.123L1546.28 441L1545.58 443.385L1547.27 445.842L1547.48 452.787L1551.27 458.748L1550.78 462.399L1552.18 466.89L1550.84 469.272L1550.29 475.443L1554.92 487.722L1554.15 492.069L1555.13 494.736L1557.59 491.859L1560.18 494.736L1564.61 523.848L1566.36 527.214L1564.47 556.749L1565.38 556.608L1568.89 586.212L1571.56 589.509L1565.31 595.401L1568.33 598.626L1566.15 604.731L1562.99 605.292L1559.48 613.359L1561.24 601.152L1534.34 590.352L1532.52 588.036L1525.01 586.842L1521.57 582.354L1520.94 575.688L1519.32 575.409L1519.81 573.861L1514.41 572.883L1513.21 569.799L1509.28 568.674L1486.74 572.532L1458.1 577.161L1430.92 581.16L1406.14 584.526L1379.88 587.898L1378.61 577.233L1386.97 569.724L1391.81 563.835L1393.78 563.202L1395.53 561.66L1397.08 558.222L1403.05 551.064L1400.52 544.611L1397.64 540.684L1395.53 535.842L1400.31 532.686L1410.77 528.336L1422.07 525.396L1425.58 524.901L1433.52 525.672L1438.57 528.549L1443.97 525.741L1445.95 526.092L1456.41 524.058L1460.97 521.742L1468.48 513.606L1477.05 510.45L1477.47 506.73L1475.65 501.822L1472.63 499.086L1471.99 497.472L1472.42 496.068L1474.38 496.14L1476.07 494.595Z" fill="#A362E3" stroke="#A362E3" stroke-linecap="round" stroke-linejoin="round"/>
</svg>
