<?xml version="1.0" encoding="UTF-8"?>
<svg xmlns="http://www.w3.org/2000/svg" xmlns:xlink="http://www.w3.org/1999/xlink" width="34" height="25" viewBox="0 0 34 25">
<path fill-rule="nonzero" fill="rgb(63.921569%, 38.431373%, 89.019608%)" fill-opacity="1" d="M 1.417969 25 L 1.417969 24.53125 L 1.0625 24.53125 L 1.0625 24.0625 L 0.355469 23.597656 L 0 22.660156 L 0.355469 22.191406 L 1.0625 21.722656 L 3.1875 20.785156 L 3.894531 20.3125 L 4.25 19.84375 L 3.894531 19.375 L 3.542969 18.90625 L 3.542969 18.4375 L 3.1875 17.964844 L 3.1875 14.203125 L 3.542969 13.257812 L 3.542969 9.007812 L 3.894531 7.589844 L 3.894531 3.324219 L 4.25 2.375 L 4.25 0 L 6.375 0 L 8.5 0.476562 L 16.292969 0.476562 L 16.292969 1.425781 L 17 0.949219 L 17 0.476562 L 19.480469 0.476562 L 19.832031 0.949219 L 20.1875 0.949219 L 20.542969 0.476562 L 21.605469 0.476562 L 24.082031 0.949219 L 34 0.949219 L 34 15.144531 L 33.644531 15.144531 L 33.644531 15.613281 L 33.292969 17.027344 L 33.292969 17.496094 L 32.9375 17.496094 L 32.9375 17.027344 L 30.8125 17.027344 L 29.75 17.496094 L 29.042969 16.554688 L 28.6875 17.027344 L 28.6875 17.496094 L 26.917969 17.496094 L 26.917969 17.964844 L 26.5625 17.496094 L 25.5 18.4375 L 24.792969 17.964844 L 24.4375 17.964844 L 24.082031 17.496094 L 24.4375 17.496094 L 24.4375 17.027344 L 24.082031 16.554688 L 23.730469 16.554688 L 24.082031 17.027344 L 24.082031 18.4375 L 21.605469 18.4375 L 21.605469 18.90625 L 21.25 18.90625 L 21.25 18.4375 L 20.894531 18.90625 L 20.1875 18.4375 L 18.769531 18.4375 L 18.417969 18.90625 L 17.707031 18.90625 L 17.707031 18.4375 L 16.644531 18.4375 L 16.644531 18.90625 L 15.582031 18.90625 L 15.230469 19.375 L 14.519531 19.375 L 14.519531 17.964844 L 14.167969 17.964844 L 14.167969 18.4375 L 13.8125 18.4375 L 13.457031 18.90625 L 12.75 19.84375 L 12.394531 20.3125 L 12.042969 20.3125 L 11.6875 19.84375 L 11.6875 20.3125 L 10.980469 20.3125 L 10.980469 20.785156 L 10.625 21.253906 L 10.980469 21.722656 L 10.269531 21.722656 L 9.917969 21.253906 L 8.855469 21.253906 L 8.855469 21.722656 L 8.5 21.722656 L 8.5 22.191406 L 7.792969 22.191406 L 7.792969 21.722656 L 7.4375 22.191406 L 6.730469 22.191406 L 6.375 22.660156 L 6.019531 22.660156 L 5.3125 23.128906 L 4.957031 23.128906 L 4.25 23.597656 L 3.894531 24.0625 L 3.542969 24.53125 L 3.1875 24.0625 L 3.1875 24.53125 L 1.769531 24.53125 L 1.769531 25 L 1.417969 25 "/>
</svg>
