<?xml version="1.0" encoding="UTF-8"?>
<svg xmlns="http://www.w3.org/2000/svg" xmlns:xlink="http://www.w3.org/1999/xlink" width="13" height="31" viewBox="0 0 13 31">
<path fill-rule="nonzero" fill="rgb(63.921569%, 38.431373%, 89.019608%)" fill-opacity="1" d="M 12.648438 31 L 1.40625 31 L 1.40625 27.4375 L 1.054688 25.652344 L 1.054688 20.734375 L 0.703125 19.390625 L 0.703125 15.800781 L 0.351562 14.003906 L 0.351562 10.851562 L 0 9.5 L 0 2.71875 L 0.351562 1.8125 L 0.703125 1.359375 L 1.40625 0.90625 L 1.757812 0.453125 L 2.109375 0.453125 L 2.460938 0 L 4.917969 0 L 5.621094 0.453125 L 5.972656 0.453125 L 6.324219 0.90625 L 5.621094 1.359375 L 5.269531 1.359375 L 5.269531 2.265625 L 3.863281 4.078125 L 3.511719 4.078125 L 3.164062 4.53125 L 3.164062 5.433594 L 3.511719 5.886719 L 3.863281 5.886719 L 3.863281 7.242188 L 3.511719 7.695312 L 3.511719 8.597656 L 3.863281 9.046875 L 3.863281 9.5 L 4.566406 9.949219 L 4.917969 10.851562 L 5.269531 11.300781 L 5.621094 11.753906 L 5.972656 11.753906 L 6.675781 12.652344 L 6.675781 17.597656 L 7.378906 18.046875 L 7.730469 18.492188 L 8.082031 19.390625 L 8.082031 20.734375 L 8.433594 20.734375 L 9.488281 22.078125 L 10.1875 22.972656 L 10.890625 23.417969 L 11.242188 23.867188 L 11.945312 23.867188 L 11.945312 23.417969 L 12.296875 23.417969 L 12.648438 26.097656 L 12.648438 26.992188 L 12.296875 26.992188 L 12.296875 25.652344 L 11.59375 26.097656 L 11.242188 26.097656 L 11.59375 26.542969 L 11.242188 26.542969 L 11.242188 26.992188 L 11.945312 26.992188 L 11.59375 27.4375 L 10.1875 27.882812 L 10.539062 27.882812 L 10.1875 28.328125 L 10.1875 28.773438 L 11.59375 27.882812 L 11.59375 28.328125 L 11.945312 28.773438 L 12.648438 27.882812 L 12.648438 27.4375 L 12.648438 30.109375 L 13 30.554688 L 13 31 L 12.648438 31 "/>
</svg>
