<?xml version="1.0" encoding="UTF-8"?>
<svg xmlns="http://www.w3.org/2000/svg" xmlns:xlink="http://www.w3.org/1999/xlink" width="132" height="128" viewBox="0 0 132 128">
<path fill-rule="nonzero" fill="rgb(63.921569%, 38.431373%, 89.019608%)" fill-opacity="1" d="M 3.132812 13.847656 L 2.4375 13.847656 L 2.785156 13.441406 L 3.132812 13.847656 L 3.132812 13.441406 L 3.484375 13.441406 L 3.484375 12.628906 L 4.179688 11.816406 L 4.875 11.816406 L 4.875 11.410156 L 4.527344 11.003906 L 3.832031 11.003906 L 3.832031 10.597656 L 3.484375 10.597656 L 3.132812 9.785156 L 3.132812 8.972656 L 3.484375 8.566406 L 3.484375 7.75 L 3.832031 7.34375 L 3.832031 6.527344 L 3.484375 6.527344 L 2.089844 5.714844 L 1.742188 5.304688 L 1.394531 4.492188 L 1.042969 4.492188 L 0.347656 3.265625 L 0 3.265625 L 0 2.042969 L 0.347656 1.226562 L 0.347656 0 L 45.625 0 L 45.625 0.410156 L 45.972656 0.816406 L 46.320312 1.632812 L 46.671875 2.042969 L 46.671875 3.675781 L 47.019531 4.898438 L 47.714844 5.714844 L 50.152344 5.714844 L 51.199219 6.121094 L 56.074219 6.121094 L 57.816406 6.527344 L 60.949219 6.527344 L 62.691406 6.9375 L 68.613281 6.9375 L 70.355469 7.34375 L 74.53125 7.34375 L 76.273438 7.75 L 80.105469 7.75 L 81.847656 8.15625 L 85.328125 8.15625 L 86.722656 8.566406 L 91.597656 8.566406 L 92.296875 8.972656 L 93.6875 8.972656 L 93.6875 9.785156 L 94.035156 10.191406 L 94.386719 10.597656 L 94.386719 11.003906 L 94.035156 11.003906 L 94.035156 11.816406 L 94.386719 12.628906 L 94.734375 12.628906 L 94.734375 13.035156 L 96.824219 13.035156 L 96.824219 12.628906 L 97.171875 12.628906 L 97.171875 11.410156 L 97.519531 10.191406 L 97.519531 8.15625 L 97.171875 7.75 L 97.171875 5.304688 L 97.519531 4.898438 L 97.519531 4.492188 L 98.214844 4.492188 L 98.214844 4.082031 L 98.566406 3.675781 L 99.609375 3.675781 L 99.957031 4.082031 L 101.699219 4.898438 L 102.394531 4.898438 L 102.742188 5.304688 L 103.09375 5.304688 L 103.789062 5.714844 L 104.832031 5.714844 L 105.53125 6.121094 L 106.226562 5.714844 L 106.574219 5.714844 L 106.574219 6.121094 L 107.621094 6.121094 L 107.621094 6.527344 L 107.96875 6.527344 L 107.621094 6.9375 L 107.621094 9.785156 L 107.273438 9.378906 L 107.273438 8.15625 L 106.921875 7.75 L 106.574219 7.75 L 106.574219 9.378906 L 106.921875 9.378906 L 106.921875 9.785156 L 107.621094 10.191406 L 107.621094 10.597656 L 107.96875 10.597656 L 107.96875 11.003906 L 108.316406 11.003906 L 108.316406 12.222656 L 108.664062 12.628906 L 108.316406 13.441406 L 108.316406 14.253906 L 109.011719 16.6875 L 109.710938 19.117188 L 110.40625 21.949219 L 110.058594 22.351562 L 110.40625 22.351562 L 110.40625 22.757812 L 110.753906 23.160156 L 110.753906 25.179688 L 111.101562 25.582031 L 111.453125 26.390625 L 111.800781 27.195312 L 112.148438 28.003906 L 112.148438 28.808594 L 112.84375 30.417969 L 113.890625 33.234375 L 115.28125 35.644531 L 115.980469 37.25 L 116.328125 38.453125 L 116.675781 38.855469 L 116.675781 39.257812 L 117.023438 39.257812 L 117.023438 39.65625 L 117.371094 40.058594 L 117.371094 40.457031 L 119.808594 44.460938 L 120.855469 46.058594 L 121.898438 47.257812 L 122.945312 49.253906 L 123.292969 50.449219 L 123.640625 50.847656 L 122.945312 51.644531 L 122.945312 52.042969 L 122.597656 52.042969 L 122.246094 52.441406 L 122.246094 56.421875 L 122.597656 58.40625 L 122.945312 58.804688 L 122.945312 59.203125 L 123.292969 59.996094 L 124.6875 62.375 L 124.6875 63.167969 L 124.335938 62.375 L 124.335938 61.980469 L 123.640625 61.1875 L 123.640625 60.390625 L 122.597656 58.804688 L 121.898438 57.214844 L 121.898438 52.839844 L 122.597656 50.449219 L 122.597656 49.652344 L 122.246094 48.855469 L 122.246094 48.054688 L 121.203125 48.054688 L 121.203125 48.453125 L 119.808594 48.453125 L 119.460938 48.054688 L 119.113281 48.054688 L 119.113281 46.457031 L 119.460938 46.859375 L 119.460938 46.457031 L 119.808594 46.058594 L 119.460938 45.660156 L 118.765625 45.261719 L 118.417969 44.859375 L 118.070312 44.460938 L 118.070312 46.457031 L 118.417969 46.859375 L 118.417969 47.257812 L 118.765625 48.453125 L 118.765625 48.855469 L 119.113281 49.652344 L 119.460938 51.246094 L 119.460938 51.644531 L 119.808594 52.839844 L 120.507812 54.035156 L 120.507812 54.433594 L 123.292969 60.789062 L 126.078125 67.128906 L 126.777344 69.894531 L 129.214844 76.207031 L 128.867188 76.207031 L 128.167969 75.8125 L 127.820312 75.8125 L 127.820312 75.417969 L 127.472656 75.417969 L 127.820312 76.207031 L 128.867188 76.207031 L 129.5625 76.992188 L 130.257812 77.386719 L 130.257812 78.175781 L 130.605469 78.960938 L 130.957031 80.140625 L 131.304688 80.535156 L 131.304688 80.929688 L 130.957031 81.320312 L 130.605469 81.320312 L 130.957031 81.714844 L 131.304688 81.714844 L 131.652344 82.105469 L 132 83.679688 L 132 84.464844 L 131.652344 84.855469 L 132 85.246094 L 132 88.777344 L 131.652344 88.777344 L 131.652344 91.515625 L 131.304688 91.90625 L 131.304688 94.253906 L 130.957031 96.988281 L 130.605469 97.375 L 130.605469 104 L 130.257812 104 L 130.257812 103.222656 L 130.605469 102.445312 L 130.605469 102.054688 L 130.257812 101.664062 L 129.5625 102.445312 L 129.5625 103.222656 L 129.214844 103.613281 L 129.214844 104.390625 L 128.867188 104.777344 L 128.515625 104.777344 L 128.515625 105.167969 L 128.167969 105.167969 L 128.167969 105.945312 L 127.820312 106.722656 L 127.472656 107.109375 L 127.125 107.5 L 127.125 108.664062 L 126.777344 109.054688 L 126.777344 110.605469 L 127.125 110.605469 L 126.777344 110.992188 L 126.777344 111.382812 L 127.125 111.382812 L 127.125 111.769531 L 126.425781 112.542969 L 125.730469 113.320312 L 125.730469 113.707031 L 125.382812 114.09375 L 125.382812 115.257812 L 125.730469 115.257812 L 125.730469 115.644531 L 125.035156 114.871094 L 124.6875 114.871094 L 124.6875 114.480469 L 124.335938 114.480469 L 123.988281 114.871094 L 124.335938 114.871094 L 124.6875 115.257812 L 125.035156 115.257812 L 125.035156 115.644531 L 124.6875 115.644531 L 124.6875 115.257812 L 124.335938 114.871094 L 123.988281 115.257812 L 123.640625 114.871094 L 123.640625 114.480469 L 123.988281 114.480469 L 122.597656 114.480469 L 122.246094 114.871094 L 122.246094 115.644531 L 121.898438 115.257812 L 121.203125 115.257812 L 121.203125 116.03125 L 120.507812 116.03125 L 120.160156 116.417969 L 119.460938 116.417969 L 119.460938 116.03125 L 119.113281 116.417969 L 119.113281 116.03125 L 118.765625 116.03125 L 118.765625 116.417969 L 118.070312 115.644531 L 117.71875 115.644531 L 117.371094 116.03125 L 116.675781 116.417969 L 114.585938 116.417969 L 113.890625 116.804688 L 113.539062 116.804688 L 112.84375 116.03125 L 112.496094 115.257812 L 112.148438 114.871094 L 112.148438 114.09375 L 112.496094 113.320312 L 112.84375 112.542969 L 113.191406 112.933594 L 113.539062 112.933594 L 113.539062 113.320312 L 113.890625 113.707031 L 114.238281 114.09375 L 115.628906 114.480469 L 115.628906 114.871094 L 115.28125 114.871094 L 115.628906 115.257812 L 115.980469 115.257812 L 116.328125 114.871094 L 116.675781 114.871094 L 116.675781 114.09375 L 115.628906 112.933594 L 115.28125 112.933594 L 114.585938 112.542969 L 114.238281 112.542969 L 113.539062 112.15625 L 112.84375 111.769531 L 112.84375 111.382812 L 112.496094 111.382812 L 112.496094 110.605469 L 112.148438 109.828125 L 111.453125 109.054688 L 111.800781 108.664062 L 112.148438 108.664062 L 112.148438 108.277344 L 111.101562 108.277344 L 111.101562 107.109375 L 110.753906 106.332031 L 110.40625 105.945312 L 110.40625 105.554688 L 109.710938 105.554688 L 109.710938 105.167969 L 109.363281 104.777344 L 109.011719 104.390625 L 109.363281 104.390625 L 109.710938 104 L 109.710938 103.613281 L 109.363281 103.222656 L 108.664062 102.832031 L 108.316406 102.445312 L 107.273438 102.445312 L 107.273438 102.054688 L 106.921875 101.664062 L 106.574219 102.054688 L 106.574219 101.664062 L 105.878906 101.664062 L 105.53125 101.273438 L 105.183594 101.664062 L 105.183594 101.273438 L 104.832031 101.273438 L 104.484375 100.886719 L 104.136719 100.886719 L 104.136719 101.273438 L 103.441406 101.273438 L 103.09375 100.886719 L 103.09375 101.664062 L 102.742188 101.664062 L 102.742188 101.273438 L 102.394531 101.273438 L 102.394531 100.496094 L 102.742188 100.496094 L 103.09375 100.886719 L 103.441406 100.886719 L 103.441406 100.496094 L 103.789062 100.496094 L 103.789062 100.105469 L 102.742188 100.105469 L 102.394531 99.714844 L 102.394531 99.328125 L 102.742188 99.328125 L 102.046875 98.9375 L 101.699219 98.546875 L 101.699219 96.988281 L 101.351562 96.988281 L 101.351562 97.765625 L 101.003906 96.207031 L 101.003906 93.863281 L 100.304688 93.082031 L 100.304688 92.6875 L 100.65625 92.6875 L 100.65625 91.125 L 100.304688 91.125 L 99.957031 90.34375 L 99.957031 91.125 L 99.609375 91.125 L 99.609375 90.734375 L 99.261719 90.734375 L 98.214844 90.34375 L 97.867188 90.34375 L 97.867188 89.558594 L 98.566406 89.558594 L 99.261719 88.777344 L 99.609375 88.382812 L 99.609375 87.601562 L 99.957031 87.601562 L 100.65625 86.816406 L 100.65625 86.425781 L 101.351562 86.425781 L 101.351562 86.03125 L 101.699219 86.03125 L 101.699219 85.640625 L 101.351562 86.03125 L 100.65625 86.03125 L 100.304688 86.425781 L 99.957031 86.425781 L 99.609375 87.207031 L 99.261719 87.601562 L 98.914062 89.167969 L 98.214844 89.167969 L 97.867188 89.558594 L 97.867188 89.167969 L 97.519531 89.167969 L 97.519531 89.558594 L 97.171875 89.558594 L 96.824219 89.167969 L 96.824219 87.601562 L 96.476562 86.816406 L 96.476562 86.03125 L 96.824219 83.679688 L 96.824219 82.5 L 96.476562 82.5 L 96.125 82.105469 L 96.476562 81.714844 L 97.519531 81.320312 L 97.867188 80.929688 L 98.214844 80.140625 L 97.867188 80.140625 L 97.519531 80.535156 L 96.824219 80.929688 L 95.777344 80.929688 L 95.777344 81.320312 L 95.082031 81.320312 L 94.734375 80.929688 L 94.734375 80.535156 L 94.386719 80.929688 L 94.035156 80.929688 L 93.6875 80.140625 L 93.339844 80.140625 L 92.992188 79.75 L 92.992188 80.140625 L 93.6875 80.929688 L 94.035156 81.320312 L 94.035156 80.929688 L 94.386719 81.320312 L 94.734375 81.714844 L 94.734375 82.105469 L 95.082031 82.894531 L 95.082031 84.464844 L 95.082031 83.679688 L 94.734375 83.679688 L 94.386719 84.070312 L 94.035156 83.679688 L 93.339844 83.679688 L 92.992188 83.285156 L 92.296875 83.285156 L 91.945312 81.320312 L 91.25 80.929688 L 91.597656 81.320312 L 91.597656 81.714844 L 91.25 81.714844 L 91.25 81.320312 L 89.859375 78.175781 L 89.507812 77.386719 L 89.160156 76.601562 L 89.160156 76.207031 L 89.160156 76.601562 L 89.160156 75.8125 L 88.8125 75.8125 L 88.464844 75.417969 L 88.464844 75.023438 L 88.117188 74.628906 L 88.117188 74.234375 L 88.117188 74.628906 L 88.464844 74.628906 L 88.464844 74.234375 L 88.117188 73.445312 L 87.769531 72.261719 L 87.417969 71.867188 L 86.722656 71.472656 L 86.027344 71.472656 L 85.679688 71.078125 L 85.328125 69.894531 L 84.980469 69.5 L 85.328125 69.5 L 85.328125 70.289062 L 85.679688 70.683594 L 86.375 70.683594 L 86.375 71.078125 L 86.722656 70.683594 L 86.722656 70.289062 L 86.027344 70.289062 L 86.375 69.894531 L 86.722656 69.894531 L 87.070312 70.289062 L 87.769531 70.289062 L 87.417969 69.894531 L 86.722656 69.894531 L 87.070312 69.5 L 87.769531 69.5 L 87.769531 69.105469 L 87.417969 69.105469 L 87.070312 69.5 L 87.070312 69.105469 L 87.417969 69.105469 L 87.417969 68.710938 L 87.769531 68.3125 L 88.117188 68.3125 L 88.117188 67.917969 L 88.464844 67.128906 L 88.8125 67.128906 L 88.8125 66.730469 L 89.160156 66.335938 L 89.507812 66.335938 L 89.507812 65.941406 L 89.859375 65.542969 L 90.207031 65.148438 L 90.902344 64.355469 L 91.25 63.960938 L 90.902344 63.566406 L 90.554688 62.773438 L 90.554688 61.980469 L 90.207031 61.980469 L 89.859375 61.582031 L 89.507812 61.980469 L 89.507812 63.960938 L 88.8125 63.960938 L 88.464844 63.566406 L 88.464844 61.582031 L 88.117188 61.1875 L 87.070312 61.1875 L 87.417969 60.789062 L 87.070312 60.390625 L 86.722656 60.390625 L 86.722656 59.996094 L 86.375 59.996094 L 86.375 60.390625 L 85.679688 59.597656 L 86.027344 59.996094 L 86.027344 60.789062 L 85.679688 60.789062 L 86.027344 61.1875 L 86.722656 61.1875 L 86.375 61.1875 L 85.679688 61.582031 L 85.328125 61.980469 L 86.027344 61.980469 L 86.722656 62.375 L 87.417969 62.773438 L 88.117188 62.773438 L 87.769531 62.773438 L 87.417969 63.167969 L 87.417969 64.355469 L 87.070312 64.355469 L 87.070312 64.753906 L 86.722656 65.148438 L 87.070312 65.542969 L 87.070312 65.941406 L 86.722656 66.335938 L 86.027344 66.335938 L 86.027344 65.542969 L 85.328125 65.542969 L 84.632812 64.753906 L 83.9375 63.960938 L 83.589844 63.566406 L 83.589844 64.355469 L 84.632812 65.542969 L 84.980469 65.941406 L 85.328125 66.335938 L 85.328125 67.128906 L 84.980469 67.128906 L 84.980469 66.730469 L 84.632812 66.335938 L 84.632812 65.148438 L 83.589844 64.355469 L 83.238281 63.960938 L 83.238281 63.566406 L 82.890625 62.773438 L 82.890625 62.375 L 83.238281 61.980469 L 83.238281 61.582031 L 83.238281 62.773438 L 83.9375 61.1875 L 84.285156 59.203125 L 84.285156 58.40625 L 84.632812 58.40625 L 84.285156 58.011719 L 84.285156 56.421875 L 84.632812 56.023438 L 84.980469 55.226562 L 85.328125 54.828125 L 85.328125 54.433594 L 84.980469 54.433594 L 85.679688 52.839844 L 86.027344 52.441406 L 86.027344 52.042969 L 86.375 51.644531 L 86.375 49.652344 L 86.722656 48.054688 L 86.722656 45.261719 L 86.375 45.261719 L 86.375 44.859375 L 86.027344 44.460938 L 86.027344 44.0625 L 86.375 44.0625 L 86.722656 44.859375 L 86.722656 42.460938 L 86.027344 42.460938 L 86.027344 42.058594 L 85.328125 41.261719 L 84.980469 40.859375 L 85.328125 40.457031 L 84.980469 40.457031 L 84.632812 40.058594 L 84.980469 40.058594 L 84.980469 39.257812 L 84.285156 38.453125 L 83.9375 38.453125 L 84.285156 38.054688 L 83.9375 38.054688 L 83.9375 36.851562 L 83.589844 37.25 L 83.238281 37.25 L 83.238281 36.851562 L 82.890625 37.25 L 82.195312 36.851562 L 79.757812 36.851562 L 79.757812 36.449219 L 79.410156 36.449219 L 79.410156 36.046875 L 79.0625 36.046875 L 79.410156 35.644531 L 79.0625 35.246094 L 79.0625 34.84375 L 78.015625 34.84375 L 78.015625 34.441406 L 77.667969 34.441406 L 77.667969 33.636719 L 77.320312 32.832031 L 76.621094 32.03125 L 76.273438 32.03125 L 75.925781 31.628906 L 75.578125 31.628906 L 75.230469 31.226562 L 74.183594 30.015625 L 74.183594 30.417969 L 73.488281 29.613281 L 73.488281 29.210938 L 73.140625 28.808594 L 73.488281 28.40625 L 73.488281 27.195312 L 73.140625 26.792969 L 72.09375 26.792969 L 72.09375 26.390625 L 71.746094 26.390625 L 71.398438 25.988281 L 71.050781 25.988281 L 70.703125 25.582031 L 70.355469 25.179688 L 70.355469 23.96875 L 70.003906 23.96875 L 70.003906 23.566406 L 69.65625 23.566406 L 69.65625 23.160156 L 68.960938 22.351562 L 68.613281 21.949219 L 67.914062 21.140625 L 67.21875 21.140625 L 66.871094 20.734375 L 66.175781 20.734375 L 65.476562 20.332031 L 63.734375 19.117188 L 62.691406 18.308594 L 61.644531 18.308594 L 60.601562 18.710938 L 59.90625 18.710938 L 59.90625 18.308594 L 58.511719 18.308594 L 58.164062 18.710938 L 58.164062 19.117188 L 57.46875 19.117188 L 56.769531 19.523438 L 56.421875 19.523438 L 56.421875 19.925781 L 56.421875 19.523438 L 56.074219 19.925781 L 56.421875 19.925781 L 56.074219 20.332031 L 56.769531 20.332031 L 57.117188 20.734375 L 57.117188 21.140625 L 56.769531 20.734375 L 55.726562 20.734375 L 55.378906 20.332031 L 55.027344 20.332031 L 55.027344 20.734375 L 55.378906 20.734375 L 55.378906 21.140625 L 56.421875 21.140625 L 57.117188 21.542969 L 57.117188 22.351562 L 56.421875 22.757812 L 56.769531 22.351562 L 56.074219 21.949219 L 54.332031 21.949219 L 53.289062 22.351562 L 52.589844 23.160156 L 51.546875 23.160156 L 51.199219 23.566406 L 50.152344 24.371094 L 50.152344 24.777344 L 49.457031 24.777344 L 48.761719 25.179688 L 48.410156 25.179688 L 48.0625 25.582031 L 47.367188 25.582031 L 47.714844 25.179688 L 48.0625 24.371094 L 47.714844 24.371094 L 47.367188 24.777344 L 47.019531 24.777344 L 46.671875 25.179688 L 45.972656 25.582031 L 45.625 25.988281 L 43.535156 25.988281 L 41.445312 26.792969 L 41.097656 26.792969 L 40.75 26.390625 L 40.402344 26.390625 L 39.703125 26.792969 L 39.355469 26.792969 L 38.660156 25.988281 L 38.3125 24.371094 L 38.3125 23.160156 L 38.660156 22.757812 L 38.660156 24.777344 L 39.007812 25.582031 L 39.007812 25.988281 L 39.703125 26.792969 L 40.054688 26.390625 L 40.402344 26.390625 L 40.402344 24.371094 L 40.054688 23.96875 L 39.703125 23.160156 L 39.355469 22.757812 L 39.007812 22.351562 L 39.007812 21.949219 L 38.660156 21.542969 L 36.570312 20.734375 L 36.222656 20.332031 L 35.875 19.925781 L 35.875 19.523438 L 36.222656 19.925781 L 36.570312 20.332031 L 36.917969 20.734375 L 37.265625 20.734375 L 35.175781 18.710938 L 34.828125 18.710938 L 33.785156 17.902344 L 33.785156 17.496094 L 34.828125 17.902344 L 34.828125 18.308594 L 36.222656 18.308594 L 36.570312 18.710938 L 36.570312 19.117188 L 37.265625 19.523438 L 37.964844 19.925781 L 38.3125 19.925781 L 38.3125 19.523438 L 38.660156 19.523438 L 38.660156 19.117188 L 37.964844 19.117188 L 37.613281 19.523438 L 37.265625 19.523438 L 37.265625 18.308594 L 36.570312 18.308594 L 36.917969 17.902344 L 36.917969 17.496094 L 36.570312 17.496094 L 36.222656 17.902344 L 35.875 17.496094 L 35.875 17.902344 L 35.523438 17.902344 L 35.175781 17.496094 L 34.480469 17.496094 L 34.132812 17.09375 L 33.433594 16.6875 L 33.085938 16.6875 L 33.085938 16.28125 L 33.433594 16.28125 L 34.132812 15.066406 L 34.480469 15.066406 L 34.828125 15.472656 L 35.523438 14.660156 L 35.875 14.660156 L 35.875 14.253906 L 35.523438 13.847656 L 35.175781 13.847656 L 34.828125 14.660156 L 33.785156 14.660156 L 33.433594 15.066406 L 33.433594 15.472656 L 33.085938 15.066406 L 33.085938 14.660156 L 32.390625 13.847656 L 32.390625 14.253906 L 31.695312 14.253906 L 31.34375 14.660156 L 30.996094 14.660156 L 30.648438 15.066406 L 30.996094 15.472656 L 32.390625 15.472656 L 32.738281 15.875 L 32.738281 16.6875 L 33.085938 17.09375 L 33.433594 17.09375 L 33.085938 17.496094 L 33.085938 17.09375 L 32.738281 17.09375 L 33.085938 17.496094 L 32.738281 17.496094 L 30.648438 15.875 L 28.90625 15.066406 L 27.167969 14.253906 L 24.726562 13.441406 L 21.941406 12.628906 L 19.851562 12.222656 L 19.15625 12.222656 L 19.503906 12.222656 L 19.503906 11.816406 L 20.898438 12.222656 L 22.289062 12.222656 L 22.636719 11.816406 L 22.636719 11.410156 L 22.988281 11.410156 L 22.988281 11.816406 L 23.335938 12.222656 L 24.378906 12.222656 L 24.378906 11.816406 L 23.683594 11.816406 L 24.03125 11.410156 L 24.726562 12.222656 L 25.773438 12.222656 L 26.121094 12.628906 L 26.46875 12.628906 L 26.46875 12.222656 L 26.121094 12.222656 L 26.121094 11.816406 L 25.425781 11.003906 L 25.773438 11.003906 L 25.773438 10.597656 L 25.425781 10.597656 L 25.078125 11.003906 L 24.726562 10.597656 L 24.726562 10.191406 L 22.988281 10.191406 L 22.289062 10.597656 L 21.59375 10.597656 L 21.246094 11.003906 L 20.898438 11.003906 L 20.546875 10.597656 L 20.546875 10.191406 L 20.898438 9.785156 L 20.199219 9.785156 L 20.199219 10.191406 L 19.851562 9.785156 L 19.851562 10.597656 L 19.503906 10.597656 L 19.503906 11.003906 L 18.808594 11.003906 L 18.460938 11.410156 L 17.761719 11.410156 L 17.761719 11.816406 L 14.28125 11.816406 L 13.582031 12.222656 L 12.886719 12.222656 L 10.101562 12.628906 L 8.359375 13.035156 L 7.3125 13.035156 L 7.3125 12.628906 L 7.664062 12.628906 L 8.359375 12.222656 L 10.449219 12.222656 L 10.796875 11.816406 L 11.839844 11.003906 L 12.191406 11.003906 L 12.539062 11.410156 L 12.539062 11.003906 L 12.191406 10.597656 L 11.144531 10.597656 L 11.144531 10.191406 L 10.796875 10.191406 L 10.449219 9.785156 L 10.796875 9.378906 L 11.492188 8.972656 L 11.492188 8.566406 L 11.144531 8.972656 L 10.796875 8.566406 L 10.796875 8.15625 L 10.449219 8.15625 L 10.449219 8.566406 L 10.101562 9.785156 L 9.753906 10.191406 L 9.753906 11.003906 L 9.402344 11.410156 L 9.054688 11.410156 L 9.054688 9.378906 L 8.359375 9.378906 L 8.707031 9.378906 L 8.707031 8.972656 L 8.359375 8.972656 L 8.359375 8.566406 L 7.664062 8.566406 L 7.664062 9.785156 L 8.011719 10.191406 L 8.011719 10.597656 L 7.664062 11.410156 L 7.3125 11.410156 L 7.3125 11.816406 L 6.617188 11.816406 L 6.269531 12.222656 L 6.269531 13.035156 L 5.921875 13.035156 L 5.574219 13.441406 L 5.222656 13.441406 L 5.574219 13.847656 L 5.222656 13.847656 L 3.132812 14.253906 L 3.132812 13.847656 M 102.394531 127.230469 L 102.394531 127.613281 L 102.046875 127.613281 L 101.699219 128 L 101.003906 128 L 101.003906 127.613281 L 101.699219 127.613281 L 102.046875 127.230469 L 102.394531 127.230469 M 103.09375 126.84375 L 103.789062 126.84375 L 103.789062 127.230469 L 102.742188 127.613281 L 102.742188 126.84375 L 103.09375 126.84375 M 106.574219 126.074219 L 105.878906 126.457031 L 105.53125 126.84375 L 104.136719 127.230469 L 104.136719 126.84375 L 104.832031 126.84375 L 105.183594 126.457031 L 105.53125 126.457031 L 105.53125 126.074219 L 105.183594 126.074219 L 105.183594 125.6875 L 105.53125 126.074219 L 105.878906 126.074219 L 105.878906 126.457031 L 106.226562 126.457031 L 106.226562 126.074219 L 105.878906 125.6875 L 105.53125 125.6875 L 105.53125 124.917969 L 105.53125 125.300781 L 105.878906 125.300781 L 106.574219 126.074219 M 113.890625 125.300781 L 113.539062 124.917969 L 112.84375 124.917969 L 113.191406 124.53125 L 114.238281 124.144531 L 114.585938 124.144531 L 114.585938 124.53125 L 114.238281 124.53125 L 113.890625 124.917969 L 113.890625 125.300781 M 107.621094 123.757812 L 107.96875 123.757812 L 107.96875 124.144531 L 108.664062 124.53125 L 109.011719 125.300781 L 109.363281 126.074219 L 109.011719 126.074219 L 109.011719 125.6875 L 107.621094 123.757812 M 116.675781 123.757812 L 116.328125 123.757812 L 115.980469 124.144531 L 114.585938 124.53125 L 115.980469 123.757812 L 116.675781 123.375 L 116.675781 123.757812 M 118.765625 122.214844 L 118.765625 122.601562 L 118.765625 122.214844 L 119.113281 122.214844 L 119.113281 122.601562 L 118.765625 122.601562 L 118.765625 122.988281 L 117.71875 122.988281 L 118.070312 122.601562 L 118.765625 122.214844 M 127.125 114.480469 L 126.425781 115.257812 L 126.425781 116.03125 L 125.035156 117.578125 L 124.335938 117.578125 L 124.335938 118.351562 L 123.640625 118.738281 L 122.597656 119.898438 L 122.246094 119.898438 L 122.597656 119.898438 L 122.945312 119.511719 L 122.945312 118.738281 L 123.640625 118.738281 L 123.640625 118.351562 L 124.335938 117.964844 L 124.335938 117.191406 L 124.6875 117.191406 L 125.035156 116.804688 L 125.035156 116.417969 L 124.6875 116.417969 L 124.6875 116.03125 L 125.382812 116.417969 L 125.730469 115.257812 L 126.425781 114.871094 L 126.777344 114.480469 L 126.425781 114.09375 L 126.425781 113.320312 L 127.125 113.320312 L 127.472656 112.542969 L 127.820312 112.15625 L 128.167969 112.542969 L 127.820312 112.933594 L 127.820312 113.320312 L 127.472656 113.707031 L 127.125 114.480469 M 129.214844 109.828125 L 129.214844 110.605469 L 128.867188 110.992188 L 128.515625 111.382812 L 128.867188 110.992188 L 128.867188 110.605469 L 129.214844 109.828125 L 129.214844 109.441406 L 129.5625 109.441406 L 129.5625 109.828125 L 129.214844 109.828125 M 129.910156 105.945312 L 129.5625 105.945312 L 129.5625 105.167969 L 129.910156 105.167969 L 129.910156 104.777344 L 129.910156 105.945312 M 95.777344 90.734375 L 96.824219 90.734375 L 97.519531 91.125 L 97.171875 91.125 L 96.476562 91.515625 L 96.125 91.515625 L 95.082031 90.734375 L 94.734375 90.734375 L 94.734375 90.34375 L 94.386719 90.34375 L 94.386719 88.777344 L 94.386719 89.167969 L 94.734375 89.558594 L 94.734375 89.949219 L 95.082031 90.34375 L 95.429688 90.734375 L 95.777344 90.734375 M 93.339844 86.03125 L 93.6875 86.03125 L 93.6875 86.425781 L 94.035156 87.207031 L 94.035156 87.601562 L 93.6875 87.207031 L 93.6875 86.816406 L 93.339844 86.03125 M 95.429688 88.382812 L 95.429688 87.207031 L 95.082031 86.425781 L 94.734375 86.03125 L 95.429688 86.03125 L 95.777344 86.425781 L 95.777344 87.992188 L 96.125 88.382812 L 96.476562 88.777344 L 96.476562 89.949219 L 96.125 89.949219 L 96.125 89.558594 L 95.777344 88.777344 L 95.429688 88.382812 M 92.992188 84.070312 L 93.339844 84.464844 L 93.339844 85.640625 L 92.992188 85.246094 L 92.992188 84.070312 M 86.375 72.261719 L 86.027344 71.867188 L 86.027344 71.472656 L 86.375 71.867188 L 86.722656 72.660156 L 87.417969 73.445312 L 86.722656 72.660156 L 86.375 72.261719 M 126.078125 65.941406 L 125.730469 65.941406 L 125.730469 65.148438 L 125.035156 63.566406 L 124.6875 63.167969 L 125.035156 63.167969 L 125.035156 63.566406 L 125.382812 63.566406 L 125.382812 64.355469 L 125.730469 65.148438 L 126.425781 66.335938 L 126.777344 67.128906 L 126.777344 68.3125 L 129.910156 76.207031 L 129.910156 76.601562 L 129.214844 75.8125 L 129.214844 75.023438 L 128.167969 72.660156 L 127.820312 72.261719 L 127.820312 71.867188 L 127.472656 71.867188 L 127.472656 71.078125 L 126.777344 67.917969 L 126.425781 67.917969 L 126.425781 67.523438 L 126.078125 67.128906 L 126.078125 65.941406 M 121.550781 56.816406 L 121.550781 56.421875 L 121.898438 56.816406 L 121.550781 56.816406 M 120.855469 48.855469 L 121.203125 48.453125 L 121.898438 48.453125 L 121.898438 49.652344 L 121.550781 50.847656 L 121.203125 51.644531 L 121.203125 55.625 L 121.550781 56.023438 L 121.203125 55.226562 L 120.507812 53.636719 L 120.160156 53.238281 L 120.160156 51.246094 L 119.808594 50.847656 L 119.808594 49.652344 L 120.160156 49.652344 L 120.855469 48.855469 M 43.1875 27.601562 L 42.839844 27.601562 L 42.839844 27.195312 L 42.492188 27.195312 L 42.492188 26.792969 L 41.792969 26.792969 L 42.839844 26.792969 L 43.1875 26.390625 L 43.535156 26.390625 L 43.882812 26.792969 L 44.230469 26.792969 L 43.882812 27.195312 L 43.882812 27.601562 L 43.1875 27.601562 M 50.152344 25.582031 L 50.5 25.582031 L 50.847656 25.179688 L 50.847656 25.582031 L 50.5 25.582031 L 49.457031 26.390625 L 47.714844 27.195312 L 47.367188 27.601562 L 46.320312 28.003906 L 45.625 28.40625 L 44.929688 28.40625 L 44.230469 28.003906 L 44.582031 28.40625 L 44.929688 28.003906 L 45.972656 28.003906 L 49.457031 26.390625 L 49.457031 25.988281 L 50.152344 25.988281 L 50.152344 25.582031 M 52.242188 24.371094 L 52.589844 23.96875 L 52.9375 23.96875 L 52.9375 24.371094 L 52.589844 24.777344 L 51.546875 24.777344 L 52.242188 24.371094 M 16.019531 12.222656 L 16.71875 11.816406 L 17.414062 11.816406 L 19.15625 12.222656 L 18.460938 12.222656 L 6.617188 13.847656 L 5.574219 13.441406 L 7.3125 13.441406 L 9.402344 13.035156 L 10.449219 12.628906 L 12.191406 12.628906 L 12.539062 12.222656 L 15.671875 12.222656 L 16.019531 11.816406 L 16.019531 12.222656 M 95.777344 127.613281 L 95.777344 127.613281 M 95.777344 127.230469 L 95.429688 126.84375 L 95.777344 126.84375 L 96.125 127.230469 L 95.777344 127.613281 L 95.777344 127.230469 M 107.96875 125.6875 L 107.96875 125.6875 M 110.753906 125.300781 L 110.753906 125.6875 L 110.40625 125.6875 L 110.753906 125.300781 M 107.621094 125.300781 L 107.621094 125.6875 L 107.273438 125.6875 L 107.273438 125.300781 L 107.621094 125.300781 M 106.921875 125.300781 L 106.921875 125.6875 L 106.226562 125.6875 L 106.226562 124.917969 L 106.574219 124.917969 L 106.921875 125.300781 M 109.710938 124.917969 L 109.710938 125.300781 L 109.363281 125.300781 L 109.363281 124.917969 L 109.710938 124.917969 M 120.507812 121.445312 L 120.160156 121.828125 L 119.808594 121.828125 L 120.160156 121.828125 L 120.507812 121.445312 M 121.898438 120.285156 L 121.898438 120.671875 L 121.550781 121.058594 L 121.203125 121.058594 L 121.898438 120.285156 M 114.585938 113.320312 L 114.585938 113.707031 L 113.890625 113.707031 L 113.890625 112.933594 L 114.238281 112.933594 L 114.585938 113.320312 M 113.890625 112.542969 L 113.890625 112.933594 L 113.539062 112.933594 L 113.191406 112.542969 L 113.890625 112.542969 M 108.664062 103.222656 L 108.664062 103.613281 L 107.96875 103.613281 L 107.96875 103.222656 L 107.621094 103.613281 L 107.621094 102.832031 L 107.96875 102.445312 L 107.96875 102.832031 L 108.316406 102.832031 L 108.664062 103.222656 M 107.273438 103.222656 L 106.921875 102.832031 L 106.574219 102.832031 L 106.574219 102.445312 L 106.574219 102.832031 L 106.226562 102.832031 L 106.226562 102.445312 L 106.921875 102.445312 L 106.921875 102.054688 L 107.273438 102.445312 L 107.273438 103.222656 M 103.441406 101.664062 L 103.789062 101.664062 L 103.789062 102.054688 L 103.441406 102.445312 L 103.09375 102.445312 L 103.09375 102.054688 L 102.742188 102.054688 L 103.09375 101.664062 L 103.441406 101.664062 M 105.878906 101.664062 L 105.878906 102.445312 L 105.878906 102.054688 L 105.53125 102.054688 L 105.53125 101.664062 L 105.878906 101.664062 M 86.375 45.660156 L 86.375 46.058594 L 85.679688 46.058594 L 86.027344 46.058594 L 86.027344 45.660156 L 86.375 45.660156 M 85.679688 45.261719 L 85.679688 44.859375 L 86.027344 44.859375 L 86.027344 45.261719 L 85.679688 45.261719 M 79.757812 37.652344 L 79.410156 37.652344 L 79.410156 37.25 L 79.757812 37.25 L 79.757812 37.652344 "/>
</svg>
