<?xml version="1.0" encoding="UTF-8"?>
<svg xmlns="http://www.w3.org/2000/svg" xmlns:xlink="http://www.w3.org/1999/xlink" width="83" height="96" viewBox="0 0 83 96">
<path fill-rule="nonzero" fill="rgb(63.921569%, 38.431373%, 89.019608%)" fill-opacity="1" d="M 81.953125 61.8125 L 82.300781 61.8125 L 82.300781 62.222656 L 83 62.222656 L 83 62.632812 L 82.652344 63.042969 L 81.953125 63.453125 L 81.605469 63.453125 L 81.605469 63.042969 L 81.257812 63.042969 L 81.257812 63.453125 L 80.90625 63.453125 L 80.90625 63.863281 L 81.257812 64.273438 L 81.605469 64.683594 L 80.90625 65.09375 L 80.558594 65.503906 L 80.210938 65.503906 L 79.863281 65.09375 L 78.816406 65.09375 L 78.816406 64.683594 L 78.464844 64.273438 L 78.117188 64.683594 L 78.464844 65.09375 L 77.769531 65.503906 L 78.816406 65.914062 L 79.164062 66.324219 L 79.511719 66.324219 L 79.164062 67.144531 L 78.464844 67.550781 L 78.464844 67.960938 L 76.722656 67.960938 L 76.375 67.550781 L 76.023438 67.550781 L 75.675781 67.144531 L 75.328125 67.550781 L 75.675781 67.550781 L 75.675781 67.960938 L 76.375 67.960938 L 76.722656 68.371094 L 76.722656 68.78125 L 76.023438 69.597656 L 75.675781 70.007812 L 74.980469 71.234375 L 74.628906 71.640625 L 74.28125 71.640625 L 74.28125 72.050781 L 74.628906 72.457031 L 74.628906 73.277344 L 73.933594 74.089844 L 73.933594 74.5 L 74.28125 75.316406 L 74.28125 75.722656 L 74.628906 76.128906 L 74.28125 76.128906 L 72.886719 75.722656 L 72.1875 75.722656 L 71.839844 75.316406 L 71.492188 75.722656 L 72.1875 76.128906 L 72.886719 76.128906 L 73.585938 76.539062 L 74.628906 76.539062 L 75.328125 77.351562 L 75.675781 77.351562 L 75.675781 77.761719 L 75.328125 78.167969 L 75.328125 78.574219 L 74.980469 78.167969 L 74.28125 79.386719 L 73.933594 79.796875 L 73.585938 80.203125 L 72.886719 80.203125 L 72.886719 78.574219 L 72.539062 78.574219 L 72.1875 78.980469 L 72.539062 79.796875 L 72.539062 80.203125 L 72.1875 80.609375 L 71.839844 80.203125 L 71.492188 80.609375 L 72.1875 81.015625 L 72.539062 81.421875 L 72.539062 81.015625 L 72.886719 81.015625 L 73.234375 80.609375 L 73.234375 81.015625 L 72.886719 82.640625 L 72.539062 82.640625 L 72.539062 82.234375 L 72.1875 81.828125 L 71.839844 81.421875 L 71.144531 81.015625 L 72.1875 82.234375 L 72.1875 83.046875 L 71.839844 83.046875 L 71.144531 83.453125 L 71.492188 83.859375 L 72.1875 83.859375 L 72.1875 84.265625 L 71.492188 84.671875 L 71.492188 85.886719 L 70.792969 85.886719 L 70.792969 86.292969 L 71.144531 86.292969 L 71.144531 87.105469 L 71.492188 87.105469 L 71.492188 88.726562 L 71.144531 88.726562 L 70.445312 89.128906 L 69.746094 88.726562 L 68.703125 88.726562 L 68.003906 88.320312 L 67.65625 88.320312 L 67.308594 87.914062 L 66.609375 87.914062 L 64.867188 87.105469 L 64.515625 86.699219 L 63.46875 86.699219 L 63.121094 87.105469 L 63.121094 87.507812 L 62.425781 87.507812 L 62.425781 87.914062 L 62.074219 88.320312 L 62.074219 90.75 L 62.425781 91.152344 L 62.425781 93.175781 L 62.074219 94.386719 L 62.074219 95.597656 L 61.726562 95.597656 L 61.726562 96 L 59.632812 96 L 59.632812 95.597656 L 59.285156 95.597656 L 58.9375 94.789062 L 58.9375 93.980469 L 59.285156 93.980469 L 59.285156 93.578125 L 58.9375 93.175781 L 58.589844 92.769531 L 58.589844 91.960938 L 57.191406 91.960938 L 56.496094 91.558594 L 51.613281 91.558594 L 50.21875 91.152344 L 46.730469 91.152344 L 44.988281 90.75 L 41.152344 90.75 L 39.40625 90.34375 L 35.222656 90.34375 L 33.480469 89.9375 L 27.550781 89.9375 L 25.808594 89.535156 L 22.667969 89.535156 L 20.925781 89.128906 L 16.042969 89.128906 L 14.996094 88.726562 L 12.554688 88.726562 L 11.855469 87.914062 L 11.507812 86.699219 L 11.507812 85.078125 L 11.160156 84.671875 L 10.8125 83.859375 L 10.460938 83.453125 L 10.460938 82.234375 L 9.765625 80.609375 L 9.414062 79.796875 L 9.066406 79.796875 L 8.71875 79.386719 L 8.71875 77.761719 L 8.371094 77.351562 L 8.71875 77.351562 L 8.71875 76.945312 L 9.066406 76.945312 L 9.066406 74.5 L 9.414062 74.089844 L 9.414062 72.867188 L 9.765625 72.457031 L 9.765625 72.050781 L 9.414062 71.640625 L 9.414062 70.007812 L 8.71875 69.1875 L 8.71875 68.78125 L 8.019531 66.734375 L 8.019531 65.503906 L 8.371094 64.683594 L 9.066406 63.042969 L 9.414062 62.632812 L 9.414062 60.578125 L 9.765625 60.578125 L 9.765625 58.933594 L 10.8125 58.933594 L 10.8125 58.523438 L 11.160156 58.523438 L 10.8125 58.113281 L 11.855469 58.113281 L 11.855469 57.289062 L 12.207031 57.289062 L 12.207031 56.878906 L 11.855469 56.464844 L 10.8125 56.054688 L 10.460938 55.640625 L 10.460938 55.230469 L 10.8125 54.816406 L 10.8125 54.40625 L 11.160156 54.40625 L 11.160156 53.582031 L 10.8125 53.582031 L 10.8125 53.167969 L 10.460938 52.753906 L 10.460938 51.929688 L 10.113281 51.515625 L 9.066406 49.863281 L 9.066406 49.449219 L 8.71875 49.449219 L 8.71875 48.625 L 8.371094 48.210938 L 8.371094 47.382812 L 8.019531 46.96875 L 8.019531 46.554688 L 7.671875 46.140625 L 7.671875 45.726562 L 7.324219 45.726562 L 7.324219 45.3125 L 7.671875 44.898438 L 6.976562 43.238281 L 6.976562 42.410156 L 6.625 41.996094 L 6.625 40.332031 L 6.277344 39.503906 L 6.277344 38.671875 L 5.929688 37.007812 L 5.929688 35.757812 L 5.578125 34.089844 L 4.882812 30.753906 L 4.535156 29.082031 L 4.183594 26.988281 L 4.183594 25.316406 L 3.488281 21.121094 L 3.136719 19.441406 L 2.789062 17.335938 L 2.441406 15.234375 L 2.09375 13.546875 L 1.742188 11.859375 L 1.394531 9.746094 L 1.046875 8.054688 L 1.046875 6.785156 L 0.699219 5.09375 L 0.347656 3.820312 L 0.347656 2.972656 L 0 1.699219 L 0 0.425781 L 26.15625 0.425781 L 27.550781 0 L 43.242188 0 L 43.242188 0.851562 L 42.894531 1.273438 L 42.546875 1.273438 L 42.199219 1.699219 L 41.847656 2.125 L 41.5 2.546875 L 41.152344 2.546875 L 40.800781 2.972656 L 40.800781 3.394531 L 40.453125 3.394531 L 39.757812 4.246094 L 39.757812 5.09375 L 39.40625 5.09375 L 39.058594 6.363281 L 39.757812 6.785156 L 41.152344 8.054688 L 41.847656 8.480469 L 42.199219 8.054688 L 42.546875 8.054688 L 42.546875 8.902344 L 43.242188 9.324219 L 43.59375 9.746094 L 43.941406 9.746094 L 44.289062 10.167969 L 44.636719 10.59375 L 44.988281 11.015625 L 47.078125 11.015625 L 47.777344 11.4375 L 48.125 11.859375 L 48.125 12.703125 L 48.476562 13.125 L 48.476562 13.546875 L 49.519531 14.8125 L 49.519531 15.234375 L 49.871094 17.335938 L 50.21875 17.335938 L 50.21875 17.757812 L 50.566406 18.179688 L 51.265625 18.179688 L 51.265625 19.019531 L 51.613281 19.441406 L 51.613281 19.859375 L 52.3125 19.859375 L 52.3125 20.28125 L 52.660156 20.699219 L 52.660156 21.960938 L 53.707031 21.960938 L 54.054688 22.378906 L 54.402344 22.800781 L 54.753906 23.21875 L 55.101562 23.636719 L 55.796875 24.058594 L 56.496094 24.476562 L 57.191406 24.894531 L 57.890625 25.734375 L 58.589844 26.152344 L 58.589844 27.410156 L 59.285156 28.246094 L 59.285156 28.664062 L 59.632812 29.082031 L 59.984375 29.5 L 60.679688 29.5 L 61.378906 29.917969 L 61.726562 29.917969 L 62.074219 30.335938 L 62.773438 31.171875 L 63.121094 31.585938 L 63.820312 32.003906 L 64.167969 32.421875 L 63.820312 32.839844 L 64.167969 32.839844 L 64.167969 33.257812 L 63.820312 33.257812 L 63.820312 33.675781 L 64.167969 34.089844 L 63.820312 34.089844 L 63.820312 34.507812 L 64.867188 35.339844 L 65.5625 35.339844 L 65.5625 35.757812 L 65.214844 35.757812 L 65.5625 36.175781 L 65.5625 37.007812 L 65.910156 37.421875 L 66.609375 37.421875 L 66.609375 37.839844 L 66.957031 38.671875 L 67.65625 39.085938 L 69.050781 39.917969 L 69.746094 40.332031 L 70.445312 40.75 L 70.445312 41.164062 L 71.144531 41.164062 L 71.492188 41.578125 L 71.492188 43.238281 L 71.839844 43.652344 L 72.539062 45.3125 L 72.886719 45.726562 L 72.886719 46.554688 L 73.234375 46.96875 L 73.234375 47.796875 L 72.886719 47.796875 L 72.886719 48.210938 L 73.234375 48.210938 L 73.234375 50.277344 L 73.585938 50.277344 L 73.933594 50.691406 L 74.628906 50.691406 L 74.980469 51.105469 L 75.328125 51.515625 L 75.675781 51.515625 L 76.023438 51.929688 L 76.023438 52.34375 L 76.375 52.34375 L 76.722656 52.753906 L 76.722656 53.582031 L 77.421875 55.230469 L 77.769531 55.640625 L 77.769531 56.054688 L 78.117188 56.464844 L 77.769531 56.878906 L 77.769531 58.113281 L 77.421875 58.523438 L 77.421875 58.933594 L 77.769531 59.347656 L 77.769531 59.757812 L 78.117188 60.167969 L 78.816406 60.578125 L 78.816406 60.988281 L 79.863281 60.578125 L 80.210938 60.988281 L 80.90625 60.988281 L 80.90625 61.402344 L 81.257812 61.8125 L 81.953125 61.8125 M 71.839844 87.105469 L 71.839844 86.292969 L 71.492188 85.886719 L 71.492188 85.480469 L 71.839844 85.078125 L 72.539062 84.265625 L 72.886719 83.453125 L 72.886719 85.078125 L 72.539062 85.886719 L 72.539062 86.699219 L 72.1875 87.105469 L 72.1875 88.726562 L 71.839844 87.105469 M 75.675781 72.867188 L 76.023438 72.457031 L 76.375 72.457031 L 76.722656 72.050781 L 77.070312 72.050781 L 77.070312 72.867188 L 76.722656 73.277344 L 76.375 73.683594 L 76.023438 74.089844 L 75.675781 75.316406 L 75.328125 75.316406 L 74.980469 74.90625 L 74.980469 74.5 L 75.328125 74.089844 L 75.328125 73.683594 L 75.675781 72.867188 M 77.421875 69.597656 L 77.769531 68.78125 L 77.769531 69.597656 L 78.117188 70.414062 L 77.769531 70.414062 L 77.769531 71.234375 L 77.421875 71.640625 L 77.070312 71.234375 L 77.421875 70.824219 L 77.070312 70.414062 L 77.070312 69.597656 L 77.421875 69.597656 "/>
</svg>
