<svg width="209" height="126" viewBox="0 0 209 126" fill="none" xmlns="http://www.w3.org/2000/svg">
<path d="M177.693 125.517L181.971 119.094L191.541 113.493L206.745 108.723L208.98 103.674L198.276 95.994L197.898 90.576L193.809 86.238L169.512 75.345L167.121 77.046L167.685 81.702L169.89 85.857L160.95 94.8L163.467 99.708L167.373 110.286L167.625 122.241L177.693 125.517Z" fill="#A362E3"/>
<path d="M144.453 55.1971L146.655 63.1352H151.317L157.92 61.1822L162.951 58.8002L162.456 55.0742L152.388 49.6592L144.579 51.2342L139.731 45.3181L138.285 46.0112L135.834 50.2231L138.537 54.1292L144.453 55.1971Z" fill="#A362E3"/>
<path d="M131.883 54.1472L130.245 56.4152L125.778 57.2972L125.085 54.0182L122.376 51.9452L122.31 50.8112L127.728 50.2412L131.883 54.1472Z" fill="#A362E3"/>
<path d="M133.713 44.727L135.768 41.295L114.801 38.844L112.731 43.497L114.684 43.932L121.797 43.182L130.167 45.447L133.713 44.727Z" fill="#A362E3"/>
<path d="M92.223 27.6872L87.318 20.6941L81.588 24.8521L75.606 25.1041L82.596 36.0572L90.3389 35.5561L95.244 36.9391L98.901 34.9261L92.223 27.6872Z" fill="#A362E3"/>
<path d="M24.8731 1.19696L19.3921 4.77896L18.4531 9.06601L26.8261 13.2179L31.9921 13.0889L35.1961 10.4519L35.8921 3.14694L32.3671 0L24.8731 1.19696Z" fill="#A362E3"/>
<path d="M5.85301 7.677L7.23601 8.74496L1.76102 17.37L0 16.365L5.85301 7.677Z" fill="#A362E3"/>
</svg>
