<?xml version="1.0" encoding="UTF-8"?>
<svg xmlns="http://www.w3.org/2000/svg" xmlns:xlink="http://www.w3.org/1999/xlink" width="113" height="73" viewBox="0 0 113 73">
<path fill-rule="nonzero" fill="rgb(63.921569%, 38.431373%, 89.019608%)" fill-opacity="1" d="M 2.78125 23.316406 L 2.78125 22.375 L 2.433594 22.375 L 2.433594 21.429688 L 2.085938 21.429688 L 2.085938 20.957031 L 1.738281 20.957031 L 1.738281 20.484375 L 2.085938 20.484375 L 2.085938 20.007812 L 1.738281 20.007812 L 1.738281 19.535156 L 0.695312 19.0625 L 0 18.117188 L 0 17.167969 L 0.347656 17.167969 L 0.695312 16.695312 L 0.695312 15.746094 L 1.390625 15.746094 L 1.390625 14.796875 L 1.738281 14.796875 L 1.738281 13.371094 L 2.085938 13.371094 L 2.085938 11.945312 L 2.433594 11.945312 L 2.433594 10.992188 L 3.128906 10.039062 L 3.128906 8.132812 L 2.78125 7.179688 L 2.78125 6.699219 L 1.042969 6.699219 L 1.042969 6.222656 L 1.390625 6.222656 L 1.390625 5.746094 L 1.042969 5.746094 L 1.042969 5.265625 L 1.738281 5.265625 L 1.738281 2.875 L 1.390625 2.398438 L 1.390625 1.917969 L 1.042969 1.917969 L 1.042969 1.4375 L 0.695312 1.4375 L 0.695312 0 L 93.527344 0 L 93.527344 0.480469 L 93.875 0.960938 L 94.226562 1.4375 L 94.226562 2.875 L 94.574219 2.875 L 94.574219 3.355469 L 95.964844 3.832031 L 96.660156 4.3125 L 96.660156 5.265625 L 96.3125 6.222656 L 95.269531 7.179688 L 95.269531 11.945312 L 95.617188 11.945312 L 95.617188 13.84375 L 96.3125 14.796875 L 96.660156 15.269531 L 96.660156 16.695312 L 97.355469 18.117188 L 97.355469 18.589844 L 97.703125 18.589844 L 98.746094 19.0625 L 101.527344 19.535156 L 102.222656 20.007812 L 103.265625 20.007812 L 103.613281 20.484375 L 103.960938 21.429688 L 103.960938 21.902344 L 104.65625 22.847656 L 104.308594 23.316406 L 103.960938 24.261719 L 104.308594 24.261719 L 104.65625 24.734375 L 105.003906 24.734375 L 105.351562 25.207031 L 106.046875 25.675781 L 107.4375 26.621094 L 107.785156 27.089844 L 108.132812 28.03125 L 108.132812 29.441406 L 108.480469 29.914062 L 108.828125 29.914062 L 109.523438 30.851562 L 109.871094 30.851562 L 111.261719 31.792969 L 111.609375 31.792969 L 111.957031 32.261719 L 111.957031 32.730469 L 112.652344 32.730469 L 112.652344 33.667969 L 113 34.605469 L 113 36.011719 L 112.652344 36.945312 L 112.304688 38.347656 L 112.304688 39.285156 L 111.957031 39.75 L 111.609375 40.21875 L 111.261719 40.21875 L 110.566406 40.683594 L 110.21875 41.152344 L 110.21875 41.617188 L 109.871094 42.082031 L 109.871094 42.550781 L 109.523438 43.015625 L 109.523438 44.878906 L 109.175781 44.878906 L 108.480469 45.34375 L 107.785156 46.273438 L 107.089844 46.273438 L 105.351562 46.738281 L 105.003906 46.738281 L 103.960938 48.132812 L 103.265625 48.132812 L 98.050781 48.597656 L 97.355469 49.058594 L 97.007812 49.988281 L 96.660156 50.914062 L 96.3125 51.84375 L 96.3125 53.695312 L 96.660156 54.617188 L 97.355469 54.617188 L 98.050781 55.542969 L 98.746094 56.003906 L 98.746094 56.929688 L 99.09375 58.3125 L 99.09375 59.234375 L 98.746094 60.15625 L 97.007812 61.996094 L 96.3125 62.917969 L 96.3125 64.753906 L 95.964844 65.675781 L 95.269531 66.132812 L 94.921875 66.589844 L 94.226562 67.050781 L 92.832031 67.050781 L 92.136719 67.507812 L 91.441406 67.96875 L 90.746094 68.882812 L 90.746094 69.339844 L 91.441406 69.800781 L 91.441406 72.542969 L 90.398438 73 L 90.050781 73 L 89.703125 72.542969 L 89.355469 72.542969 L 89.007812 71.628906 L 88.660156 71.628906 L 88.660156 71.171875 L 88.3125 70.714844 L 87.964844 70.714844 L 87.964844 70.257812 L 87.269531 70.257812 L 87.269531 69.800781 L 86.574219 69.339844 L 86.226562 69.339844 L 86.226562 68.882812 L 85.878906 68.882812 L 85.878906 67.96875 L 85.53125 67.96875 L 85.183594 67.507812 L 83.445312 67.507812 L 81.707031 67.96875 L 68.148438 67.96875 L 65.019531 68.425781 L 23.992188 68.425781 L 21.90625 67.96875 L 15.296875 67.96875 L 15.296875 67.050781 L 14.949219 66.589844 L 14.601562 66.132812 L 13.90625 66.132812 L 13.558594 65.675781 L 13.558594 64.296875 L 13.90625 64.296875 L 14.253906 63.378906 L 13.90625 62.917969 L 13.90625 61.996094 L 14.253906 61.539062 L 14.253906 60.617188 L 13.90625 60.15625 L 13.90625 58.773438 L 13.558594 58.773438 L 13.210938 58.3125 L 13.210938 57.851562 L 13.558594 57.851562 L 13.558594 57.390625 L 13.210938 57.390625 L 13.210938 56.929688 L 13.558594 56.464844 L 13.558594 56.003906 L 13.210938 55.082031 L 13.558594 54.617188 L 12.515625 54.15625 L 12.515625 52.769531 L 12.863281 52.304688 L 13.210938 52.304688 L 13.558594 51.84375 L 13.210938 51.378906 L 12.863281 51.378906 L 12.167969 50.914062 L 11.820312 50.914062 L 12.167969 49.523438 L 12.167969 49.058594 L 12.515625 48.132812 L 12.167969 48.132812 L 11.472656 47.667969 L 11.125 47.667969 L 11.125 46.738281 L 11.472656 46.273438 L 11.125 46.273438 L 10.777344 45.808594 L 10.777344 46.273438 L 9.734375 46.273438 L 9.734375 44.878906 L 9.386719 44.878906 L 9.386719 42.550781 L 9.734375 42.082031 L 9.734375 41.152344 L 10.082031 40.683594 L 10.082031 40.21875 L 9.734375 39.75 L 8.691406 38.816406 L 8.691406 38.347656 L 8.34375 37.882812 L 8.34375 37.414062 L 8.691406 36.945312 L 8.34375 36.011719 L 7.648438 35.074219 L 6.953125 35.074219 L 6.605469 34.136719 L 6.605469 32.730469 L 6.257812 32.261719 L 5.910156 32.261719 L 5.214844 31.324219 L 4.867188 30.851562 L 5.214844 30.382812 L 5.214844 28.503906 L 4.867188 28.03125 L 4.867188 27.5625 L 4.171875 27.089844 L 4.171875 25.675781 L 4.519531 24.734375 L 4.171875 23.789062 L 3.824219 23.789062 L 3.476562 23.316406 L 2.78125 23.316406 "/>
</svg>
