<?xml version="1.0" encoding="UTF-8"?>
<svg xmlns="http://www.w3.org/2000/svg" xmlns:xlink="http://www.w3.org/1999/xlink" width="108" height="175" viewBox="0 0 108 175">
<path fill-rule="nonzero" fill="rgb(63.921569%, 38.431373%, 89.019608%)" fill-opacity="1" d="M 3.15625 0 L 20.6875 0 L 20.6875 26.917969 L 21.039062 26.917969 L 21.742188 27.960938 L 22.441406 28.484375 L 22.441406 29.527344 L 23.144531 29.527344 L 23.144531 30.050781 L 23.492188 30.050781 L 23.84375 30.570312 L 24.195312 30.570312 L 24.195312 31.089844 L 24.546875 32.132812 L 25.246094 32.652344 L 25.246094 33.175781 L 25.597656 33.175781 L 25.597656 33.695312 L 25.949219 33.695312 L 26.296875 34.214844 L 26.296875 35.253906 L 27 36.292969 L 27 37.328125 L 26.648438 37.328125 L 26.296875 37.847656 L 25.949219 37.847656 L 26.296875 37.847656 L 26.648438 38.363281 L 27 38.882812 L 27 39.402344 L 27.351562 39.402344 L 27.703125 39.917969 L 27.351562 40.4375 L 26.296875 40.4375 L 26.296875 40.953125 L 26.648438 40.953125 L 27.351562 41.46875 L 28.753906 42.503906 L 29.453125 43.019531 L 29.804688 43.535156 L 29.804688 44.054688 L 30.15625 44.570312 L 31.207031 44.570312 L 32.960938 45.601562 L 33.3125 45.601562 L 33.3125 46.113281 L 33.664062 46.113281 L 33.664062 46.628906 L 34.011719 46.628906 L 34.011719 47.144531 L 34.363281 47.660156 L 34.714844 47.660156 L 34.714844 48.175781 L 35.414062 48.175781 L 35.414062 48.6875 L 36.117188 49.203125 L 36.117188 49.71875 L 37.871094 51.769531 L 37.871094 52.285156 L 38.222656 52.285156 L 38.222656 52.796875 L 38.921875 52.796875 L 39.625 53.820312 L 39.972656 53.820312 L 40.324219 54.332031 L 40.324219 55.867188 L 40.675781 56.378906 L 41.027344 56.378906 L 41.375 56.890625 L 41.726562 56.890625 L 41.726562 57.402344 L 42.078125 57.402344 L 42.429688 57.914062 L 43.128906 57.914062 L 43.128906 59.445312 L 43.480469 59.445312 L 43.832031 58.933594 L 44.183594 58.933594 L 44.53125 58.425781 L 44.882812 58.933594 L 45.234375 58.933594 L 45.585938 59.445312 L 45.585938 59.957031 L 45.234375 59.957031 L 45.234375 60.464844 L 45.585938 60.976562 L 45.933594 60.976562 L 46.285156 61.484375 L 46.988281 61.484375 L 47.335938 60.976562 L 47.6875 60.976562 L 48.039062 61.484375 L 48.390625 60.976562 L 49.089844 60.976562 L 50.144531 60.464844 L 50.84375 60.464844 L 50.84375 61.992188 L 50.492188 61.992188 L 50.492188 64.539062 L 49.792969 64.539062 L 49.441406 65.046875 L 49.792969 65.554688 L 49.792969 66.570312 L 49.441406 67.585938 L 49.441406 69.105469 L 49.089844 69.613281 L 48.742188 69.613281 L 48.742188 70.625 L 48.390625 70.625 L 48.390625 71.128906 L 48.742188 71.128906 L 48.742188 73.152344 L 47.6875 73.152344 L 47.6875 74.164062 L 48.390625 74.667969 L 48.390625 75.675781 L 48.039062 76.179688 L 48.039062 77.691406 L 48.742188 77.691406 L 49.089844 78.195312 L 49.441406 78.195312 L 49.441406 78.699219 L 49.089844 78.699219 L 49.089844 79.703125 L 49.792969 80.207031 L 49.792969 80.710938 L 49.441406 80.710938 L 49.089844 81.210938 L 48.039062 81.210938 L 47.6875 81.714844 L 47.6875 82.214844 L 47.335938 82.214844 L 47.335938 82.71875 L 46.988281 82.71875 L 46.988281 84.222656 L 47.335938 84.222656 L 47.6875 84.722656 L 47.6875 86.226562 L 47.335938 86.726562 L 46.988281 86.726562 L 46.988281 88.726562 L 48.390625 88.726562 L 49.089844 89.226562 L 49.441406 89.726562 L 50.144531 90.222656 L 50.492188 90.722656 L 51.546875 90.722656 L 51.894531 90.222656 L 52.246094 89.726562 L 52.246094 89.226562 L 53.296875 89.226562 L 53.648438 88.726562 L 54.351562 88.226562 L 54.703125 88.226562 L 54.703125 87.726562 L 55.402344 87.726562 L 55.402344 86.726562 L 55.753906 86.726562 L 56.453125 86.226562 L 56.453125 85.222656 L 57.15625 85.222656 L 57.855469 85.726562 L 58.207031 86.226562 L 58.207031 86.726562 L 58.558594 86.726562 L 58.558594 87.226562 L 59.609375 87.226562 L 60.3125 88.226562 L 59.960938 88.226562 L 59.960938 88.726562 L 59.609375 89.226562 L 59.960938 89.726562 L 60.664062 89.726562 L 60.664062 92.21875 L 61.363281 92.71875 L 61.363281 95.207031 L 61.714844 95.207031 L 62.066406 95.703125 L 62.414062 95.703125 L 62.414062 96.199219 L 63.117188 97.191406 L 63.46875 97.191406 L 63.46875 97.691406 L 63.816406 97.691406 L 63.816406 98.683594 L 64.167969 98.683594 L 64.167969 99.675781 L 65.222656 99.675781 L 65.222656 100.167969 L 65.570312 100.167969 L 65.921875 101.160156 L 66.273438 102.148438 L 66.273438 103.632812 L 65.921875 103.632812 L 65.570312 104.128906 L 65.570312 104.621094 L 65.921875 104.621094 L 65.921875 105.117188 L 66.273438 105.609375 L 66.273438 106.105469 L 66.625 106.105469 L 66.625 106.597656 L 67.675781 106.597656 L 67.675781 107.089844 L 68.027344 107.089844 L 68.027344 107.582031 L 69.078125 107.582031 L 69.429688 107.089844 L 70.480469 107.089844 L 70.832031 107.582031 L 71.183594 107.582031 L 71.53125 108.074219 L 71.882812 108.570312 L 72.234375 109.0625 L 72.234375 109.554688 L 72.585938 110.046875 L 72.933594 110.539062 L 72.933594 111.03125 L 73.285156 111.03125 L 73.285156 111.519531 L 72.933594 112.011719 L 72.933594 112.503906 L 73.285156 112.996094 L 73.285156 113.484375 L 73.636719 113.484375 L 73.636719 113.976562 L 73.988281 113.976562 L 73.988281 115.9375 L 74.6875 115.9375 L 74.6875 116.429688 L 75.039062 116.917969 L 75.390625 116.917969 L 76.089844 117.410156 L 76.441406 117.410156 L 76.792969 117.898438 L 77.492188 117.898438 L 77.492188 117.410156 L 77.144531 116.917969 L 77.144531 116.429688 L 78.195312 115.449219 L 78.894531 114.957031 L 80.296875 114.957031 L 82.402344 115.449219 L 83.804688 115.449219 L 84.15625 115.9375 L 85.207031 115.9375 L 85.207031 115.449219 L 85.558594 114.957031 L 85.558594 113.976562 L 85.910156 113.976562 L 86.257812 113.484375 L 89.066406 113.484375 L 89.414062 113.976562 L 90.117188 113.976562 L 91.871094 113.484375 L 91.871094 113.976562 L 92.222656 113.484375 L 94.324219 113.484375 L 94.324219 113.976562 L 94.675781 113.976562 L 94.675781 114.46875 L 95.027344 114.46875 L 95.375 113.976562 L 96.429688 113.976562 L 97.128906 113.484375 L 99.933594 113.484375 L 100.285156 113.976562 L 100.988281 113.976562 L 100.988281 113.484375 L 100.636719 113.484375 L 100.285156 112.996094 L 100.285156 111.519531 L 100.636719 111.03125 L 100.988281 111.03125 L 101.335938 110.539062 L 100.988281 110.539062 L 100.988281 109.554688 L 101.335938 109.554688 L 102.039062 109.0625 L 102.390625 108.570312 L 102.742188 108.570312 L 103.441406 109.0625 L 103.792969 109.0625 L 103.792969 109.554688 L 104.492188 111.03125 L 104.84375 111.03125 L 104.84375 111.519531 L 105.195312 111.519531 L 105.195312 112.503906 L 105.546875 112.503906 L 105.546875 112.996094 L 105.894531 112.996094 L 106.246094 113.484375 L 106.949219 114.46875 L 107.296875 114.957031 L 108 114.957031 L 108 175 L 3.507812 175 L 3.507812 132.019531 L 3.15625 131.535156 L 3.507812 131.050781 L 3.855469 130.566406 L 4.207031 130.082031 L 4.207031 129.59375 L 4.558594 129.109375 L 4.558594 128.625 L 4.910156 127.167969 L 4.910156 126.195312 L 4.558594 125.21875 L 4.558594 124.734375 L 4.910156 124.246094 L 5.257812 124.246094 L 5.609375 123.757812 L 5.609375 122.785156 L 5.257812 122.296875 L 4.910156 122.296875 L 4.558594 121.808594 L 4.558594 121.320312 L 4.207031 121.320312 L 4.207031 120.34375 L 3.855469 120.832031 L 2.804688 120.832031 L 2.453125 120.34375 L 2.105469 119.855469 L 1.753906 120.34375 L 1.402344 120.34375 L 1.402344 120.832031 L 0.703125 120.34375 L 0.351562 119.855469 L 0.351562 118.386719 L 0 117.898438 L 0 116.917969 L 0.351562 116.429688 L 0.351562 115.449219 L 0.703125 114.957031 L 0.703125 114.46875 L 1.402344 114.46875 L 1.402344 113.976562 L 1.753906 113.484375 L 1.753906 112.996094 L 2.105469 112.011719 L 2.105469 111.519531 L 2.804688 111.03125 L 3.15625 109.554688 L 3.507812 109.0625 L 4.558594 108.074219 L 4.910156 107.582031 L 5.257812 107.582031 L 6.3125 106.105469 L 6.664062 105.117188 L 6.664062 104.621094 L 7.011719 103.632812 L 7.011719 102.644531 L 6.664062 102.644531 L 6.664062 102.148438 L 7.011719 101.65625 L 8.765625 98.683594 L 9.117188 98.1875 L 9.46875 96.199219 L 9.816406 96.199219 L 9.816406 94.707031 L 10.167969 94.210938 L 10.167969 93.710938 L 10.871094 92.71875 L 11.222656 92.21875 L 11.921875 90.722656 L 11.921875 90.222656 L 12.273438 89.226562 L 12.625 89.226562 L 12.972656 88.726562 L 13.324219 88.226562 L 13.324219 86.726562 L 12.625 85.222656 L 12.273438 84.222656 L 11.921875 83.722656 L 11.570312 83.21875 L 10.871094 83.21875 L 9.816406 82.71875 L 9.46875 82.214844 L 8.066406 81.714844 L 8.066406 81.210938 L 7.714844 81.210938 L 6.664062 80.207031 L 6.3125 78.699219 L 5.609375 76.683594 L 4.558594 75.171875 L 4.910156 74.667969 L 5.257812 74.164062 L 5.609375 73.65625 L 5.609375 73.152344 L 4.910156 72.140625 L 4.910156 71.128906 L 4.558594 70.625 L 4.207031 69.613281 L 3.15625 68.597656 L 3.15625 0 "/>
</svg>
