<?xml version="1.0" encoding="UTF-8"?>
<svg xmlns="http://www.w3.org/2000/svg" xmlns:xlink="http://www.w3.org/1999/xlink" width="70" height="126" viewBox="0 0 70 126">
<path fill-rule="nonzero" fill="rgb(63.921569%, 38.431373%, 89.019608%)" fill-opacity="1" d="M 42 126 L 40.601562 126 L 40.601562 125.125 L 40.25 125.125 L 39.898438 124.6875 L 39.898438 124.25 L 39.550781 123.8125 L 38.851562 123.8125 L 38.851562 124.6875 L 39.199219 124.6875 L 39.199219 125.5625 L 38.5 125.125 L 37.449219 124.6875 L 37.101562 124.25 L 37.449219 123.375 L 37.101562 122.933594 L 36.398438 122.058594 L 36.050781 121.183594 L 35.699219 120.742188 L 35.699219 119.867188 L 35 119.867188 L 35 118.988281 L 35.351562 118.109375 L 36.050781 117.667969 L 36.398438 116.789062 L 36.050781 115.910156 L 35.699219 115.027344 L 35.351562 114.589844 L 35 113.707031 L 35 111.0625 L 34.648438 111.0625 L 35 110.621094 L 34.648438 110.179688 L 32.898438 109.296875 L 32.550781 108.855469 L 31.851562 107.96875 L 31.5 107.085938 L 31.148438 106.640625 L 30.101562 106.199219 L 29.398438 106.199219 L 28.699219 104.871094 L 28 104.429688 L 26.601562 104.429688 L 26.25 103.984375 L 25.199219 103.542969 L 24.5 103.097656 L 24.148438 102.65625 L 23.800781 102.210938 L 23.449219 101.765625 L 22.75 101.324219 L 22.398438 100.878906 L 22.050781 100.878906 L 22.050781 100.433594 L 21.699219 99.992188 L 21.351562 99.992188 L 20.648438 99.101562 L 20.300781 98.65625 L 20.300781 98.210938 L 19.949219 97.765625 L 19.949219 95.984375 L 20.300781 95.539062 L 21 93.757812 L 22.050781 91.523438 L 22.75 90.183594 L 23.101562 89.289062 L 23.101562 87.050781 L 23.449219 86.605469 L 23.800781 86.15625 L 24.148438 85.257812 L 24.5 84.8125 L 24.148438 84.363281 L 23.449219 83.914062 L 21.699219 83.015625 L 20.648438 82.566406 L 19.949219 82.566406 L 19.601562 82.117188 L 18.199219 82.117188 L 17.148438 83.464844 L 16.449219 83.914062 L 15.050781 83.015625 L 14.351562 81.21875 L 14.351562 80.320312 L 14 79.867188 L 14 79.417969 L 14.351562 78.96875 L 14.351562 78.519531 L 14 78.066406 L 13.648438 77.617188 L 14 77.167969 L 14 76.714844 L 13.648438 76.265625 L 13.648438 75.8125 L 12.949219 74.910156 L 12.601562 74.460938 L 12.25 74.007812 L 8.050781 70.84375 L 7.699219 70.390625 L 7.699219 69.484375 L 7.351562 69.03125 L 2.800781 64.949219 L 2.449219 64.496094 L 2.449219 63.132812 L 2.101562 63.132812 L 2.101562 62.675781 L 1.75 62.222656 L 1.398438 62.222656 L 1.398438 61.765625 L 1.050781 61.3125 L 1.398438 60.855469 L 1.398438 59.945312 L 1.050781 59.488281 L 0.699219 59.03125 L 0.699219 58.578125 L 0.351562 58.578125 L 0 54.464844 L 0 52.636719 L 0.351562 51.261719 L 0.699219 50.34375 L 1.398438 49.886719 L 2.449219 49.425781 L 2.449219 46.671875 L 1.75 46.210938 L 1.75 45.753906 L 2.101562 45.292969 L 2.449219 44.832031 L 3.148438 44.371094 L 3.851562 43.910156 L 5.25 43.910156 L 5.949219 43.453125 L 6.300781 42.992188 L 7 42.53125 L 7.351562 41.609375 L 7.351562 39.761719 L 7.699219 39.300781 L 8.050781 38.839844 L 9.800781 36.988281 L 10.148438 36.0625 L 10.148438 35.136719 L 9.800781 33.75 L 9.800781 32.820312 L 9.101562 32.355469 L 8.398438 31.429688 L 7.699219 31.429688 L 7.351562 30.5 L 7.351562 28.640625 L 7.699219 27.710938 L 8.050781 26.78125 L 8.398438 25.847656 L 9.101562 25.382812 L 14.351562 24.914062 L 15.050781 24.914062 L 15.398438 24.449219 L 16.101562 23.515625 L 16.449219 23.515625 L 18.199219 23.050781 L 18.898438 23.050781 L 19.25 22.582031 L 19.601562 22.117188 L 20.300781 21.648438 L 20.648438 21.648438 L 20.648438 19.777344 L 21 19.3125 L 21 18.84375 L 21.351562 18.375 L 21.351562 17.90625 L 21.699219 17.4375 L 22.398438 16.96875 L 22.75 16.96875 L 23.101562 16.5 L 23.449219 16.03125 L 23.449219 15.09375 L 23.800781 13.683594 L 24.148438 12.746094 L 24.148438 11.335938 L 23.800781 10.394531 L 23.800781 9.449219 L 23.101562 9.449219 L 23.101562 8.980469 L 22.75 8.507812 L 22.398438 8.507812 L 21 7.566406 L 20.648438 7.566406 L 19.949219 6.621094 L 19.601562 6.621094 L 19.25 6.148438 L 19.25 4.734375 L 18.898438 3.789062 L 18.550781 3.316406 L 17.148438 2.367188 L 16.449219 1.894531 L 16.101562 1.421875 L 15.75 1.421875 L 15.398438 0.949219 L 15.050781 0.949219 L 15.398438 0 L 18.550781 0 L 21.699219 0.472656 L 65.101562 0.472656 L 65.101562 0.949219 L 64.75 3.316406 L 64.75 6.621094 L 65.101562 7.566406 L 65.800781 8.507812 L 65.800781 9.449219 L 66.148438 9.449219 L 66.148438 9.921875 L 66.5 9.921875 L 67.199219 10.394531 L 67.550781 10.863281 L 67.550781 11.335938 L 67.898438 13.683594 L 68.25 14.625 L 68.601562 16.5 L 68.949219 17.4375 L 70 18.84375 L 70 59.03125 L 69.648438 62.222656 L 69.648438 73.105469 L 68.601562 73.554688 L 68.25 74.007812 L 68.25 74.910156 L 68.601562 75.8125 L 68.601562 76.714844 L 67.550781 77.617188 L 67.550781 78.96875 L 67.898438 78.96875 L 68.601562 79.417969 L 68.601562 79.867188 L 68.949219 80.769531 L 68.949219 81.21875 L 69.648438 81.667969 L 69.648438 83.464844 L 69.300781 83.914062 L 69.648438 84.8125 L 70 85.707031 L 70 86.605469 L 69.648438 87.949219 L 69.648438 88.394531 L 68.949219 88.394531 L 68.601562 88.84375 L 68.25 88.84375 L 68.25 90.183594 L 67.898438 90.183594 L 67.550781 90.632812 L 67.550781 91.523438 L 67.898438 91.972656 L 67.898438 92.417969 L 67.199219 92.417969 L 66.851562 92.863281 L 66.148438 93.3125 L 65.800781 93.3125 L 66.148438 93.757812 L 65.800781 94.203125 L 65.800781 94.648438 L 65.449219 95.09375 L 64.75 95.09375 L 64.75 95.539062 L 64.398438 95.984375 L 64.398438 96.875 L 64.050781 97.320312 L 64.050781 96.875 L 63.699219 96.429688 L 63.351562 96.875 L 63.351562 97.320312 L 63 97.320312 L 63 96.875 L 62.648438 96.875 L 62.300781 97.320312 L 62.300781 97.765625 L 61.949219 98.210938 L 61.601562 98.210938 L 61.601562 99.101562 L 61.949219 99.101562 L 61.949219 99.546875 L 62.648438 99.546875 L 62.648438 100.433594 L 61.949219 100.433594 L 61.949219 100.878906 L 61.601562 100.878906 L 61.25 101.324219 L 61.949219 101.324219 L 62.300781 101.765625 L 61.949219 101.765625 L 61.601562 102.210938 L 60.898438 102.210938 L 60.898438 105.757812 L 59.5 105.757812 L 59.851562 106.199219 L 60.898438 107.085938 L 60.550781 107.527344 L 59.851562 107.527344 L 60.550781 107.527344 L 60.898438 107.96875 L 60.898438 108.410156 L 60.550781 108.855469 L 60.199219 109.296875 L 59.148438 110.179688 L 59.148438 110.621094 L 58.800781 111.0625 L 58.800781 111.945312 L 59.148438 112.386719 L 59.148438 112.828125 L 59.851562 113.265625 L 60.199219 114.148438 L 59.851562 114.589844 L 59.5 115.027344 L 56.351562 115.910156 L 55.300781 116.347656 L 53.898438 116.347656 L 53.550781 116.789062 L 53.199219 116.789062 L 53.199219 117.230469 L 52.851562 118.109375 L 52.5 118.988281 L 52.851562 119.867188 L 53.199219 120.304688 L 53.550781 121.183594 L 53.898438 122.058594 L 53.898438 122.496094 L 53.550781 123.375 L 53.199219 123.8125 L 52.5 124.25 L 51.800781 123.8125 L 50.398438 122.933594 L 45.851562 120.742188 L 44.101562 120.742188 L 43.398438 121.183594 L 42.699219 121.621094 L 42 122.933594 L 41.300781 123.375 L 40.949219 124.25 L 40.949219 124.6875 L 41.300781 125.125 L 42 126 "/>
</svg>
