<?xml version="1.0" encoding="UTF-8"?>
<svg xmlns="http://www.w3.org/2000/svg" xmlns:xlink="http://www.w3.org/1999/xlink" width="58" height="90" viewBox="0 0 58 90">
<path fill-rule="nonzero" fill="rgb(63.921569%, 38.431373%, 89.019608%)" fill-opacity="1" d="M 57.652344 1.398438 L 57.652344 31.34375 L 57.304688 33.167969 L 57.304688 60.722656 L 56.957031 61.167969 L 56.261719 61.617188 L 56.261719 62.511719 L 56.957031 62.957031 L 57.304688 62.957031 L 57.304688 63.40625 L 56.957031 63.851562 L 56.609375 64.746094 L 56.261719 64.746094 L 56.609375 65.191406 L 58 65.191406 L 58 65.636719 L 57.652344 66.085938 L 57.304688 66.53125 L 57.304688 66.976562 L 57.652344 67.421875 L 57.304688 67.867188 L 55.917969 67.421875 L 55.222656 67.421875 L 54.179688 67.867188 L 51.75 69.652344 L 50.707031 69.652344 L 50.011719 68.757812 L 46.539062 68.757812 L 46.191406 69.207031 L 46.191406 69.652344 L 46.539062 70.09375 L 46.539062 71.429688 L 46.886719 72.320312 L 46.886719 73.207031 L 45.84375 74.097656 L 45.496094 74.097656 L 45.148438 74.539062 L 45.148438 74.984375 L 44.109375 74.984375 L 43.414062 75.425781 L 43.066406 77.644531 L 42.71875 78.53125 L 42.023438 78.972656 L 41.675781 78.972656 L 40.980469 79.414062 L 40.980469 78.972656 L 39.941406 78.972656 L 39.246094 79.855469 L 39.246094 80.300781 L 38.898438 80.300781 L 38.550781 80.742188 L 38.550781 81.625 L 38.203125 83.832031 L 38.203125 84.273438 L 37.507812 85.15625 L 36.121094 85.15625 L 36.121094 85.597656 L 35.773438 86.039062 L 34.730469 84.714844 L 33.6875 84.714844 L 33.339844 84.273438 L 32.992188 84.273438 L 32.300781 83.832031 L 31.953125 83.832031 L 31.953125 82.066406 L 31.605469 81.625 L 30.910156 81.183594 L 30.5625 80.742188 L 30.214844 80.742188 L 29.867188 81.183594 L 30.214844 81.625 L 30.910156 81.625 L 30.910156 82.066406 L 30.5625 82.066406 L 29.867188 82.507812 L 29.171875 82.507812 L 29.171875 82.066406 L 28.828125 82.066406 L 28.828125 82.507812 L 29.171875 82.949219 L 29.171875 83.832031 L 28.480469 83.832031 L 28.132812 84.273438 L 27.785156 84.273438 L 27.785156 86.480469 L 27.4375 86.917969 L 26.742188 86.917969 L 26.394531 87.359375 L 26.394531 88.242188 L 25.351562 88.242188 L 25.351562 87.800781 L 25.699219 87.359375 L 23.964844 87.359375 L 23.269531 86.917969 L 22.921875 86.039062 L 22.921875 85.597656 L 22.574219 85.15625 L 21.878906 85.597656 L 21.1875 86.039062 L 20.839844 86.480469 L 19.796875 86.480469 L 19.449219 86.917969 L 19.101562 86.917969 L 18.753906 87.359375 L 18.058594 89.121094 L 18.058594 89.558594 L 17.367188 90 L 17.367188 89.558594 L 17.019531 89.558594 L 16.671875 89.121094 L 16.671875 88.679688 L 16.324219 88.242188 L 15.628906 88.242188 L 14.933594 87.800781 L 13.890625 87.359375 L 13.542969 87.359375 L 13.199219 86.917969 L 12.851562 86.480469 L 11.460938 86.480469 L 10.765625 86.917969 L 10.070312 86.917969 L 9.378906 86.480469 L 9.378906 86.039062 L 9.03125 85.597656 L 8.683594 86.039062 L 8.683594 86.480469 L 9.03125 87.359375 L 9.03125 88.242188 L 8.683594 88.679688 L 7.988281 89.121094 L 7.640625 88.679688 L 7.640625 87.359375 L 6.597656 87.359375 L 5.902344 87.800781 L 4.863281 87.800781 L 4.515625 87.359375 L 4.515625 86.917969 L 4.167969 86.917969 L 3.820312 86.480469 L 3.472656 86.917969 L 3.125 87.359375 L 3.472656 87.800781 L 3.820312 89.121094 L 3.125 90 L 2.777344 90 L 2.082031 89.558594 L 1.390625 89.558594 L 1.042969 89.121094 L 0.347656 89.121094 L 1.042969 89.121094 L 1.390625 88.679688 L 0.347656 87.800781 L 0 87.359375 L 1.390625 87.359375 L 1.390625 83.832031 L 2.082031 83.832031 L 2.429688 83.390625 L 2.777344 83.390625 L 2.429688 82.949219 L 1.738281 82.949219 L 2.082031 82.507812 L 2.429688 82.507812 L 2.429688 82.066406 L 3.125 82.066406 L 3.125 81.183594 L 2.429688 81.183594 L 2.429688 80.742188 L 2.082031 80.742188 L 2.082031 79.855469 L 2.429688 79.855469 L 2.777344 79.414062 L 2.777344 78.972656 L 3.125 78.53125 L 3.472656 78.53125 L 3.472656 78.972656 L 3.820312 78.972656 L 3.820312 78.53125 L 4.167969 78.085938 L 4.515625 78.53125 L 4.515625 78.972656 L 4.863281 78.53125 L 4.863281 77.644531 L 5.210938 77.199219 L 5.210938 76.757812 L 5.902344 76.757812 L 6.25 76.316406 L 6.25 75.871094 L 6.597656 75.425781 L 6.25 74.984375 L 6.597656 74.984375 L 7.292969 74.539062 L 7.640625 74.097656 L 8.335938 74.097656 L 8.335938 73.652344 L 7.988281 73.207031 L 7.988281 72.320312 L 8.335938 71.875 L 8.683594 71.875 L 8.683594 70.539062 L 9.03125 70.539062 L 9.378906 70.09375 L 10.070312 70.09375 L 10.070312 69.652344 L 10.417969 68.3125 L 10.417969 67.421875 L 10.070312 66.53125 L 9.722656 65.636719 L 10.070312 65.191406 L 10.070312 63.40625 L 9.378906 62.957031 L 9.378906 62.511719 L 9.03125 61.617188 L 9.03125 61.167969 L 8.335938 60.722656 L 7.988281 60.722656 L 7.988281 59.378906 L 9.03125 58.480469 L 9.03125 57.585938 L 8.683594 56.6875 L 8.683594 55.789062 L 9.03125 55.339844 L 10.070312 54.890625 L 10.070312 44.066406 L 10.417969 40.898438 L 10.417969 0.929688 L 10.765625 1.398438 L 11.460938 1.863281 L 12.15625 1.863281 L 11.808594 2.328125 L 12.15625 2.328125 L 12.503906 2.792969 L 12.851562 2.792969 L 14.238281 3.257812 L 15.976562 2.792969 L 19.101562 1.863281 L 22.226562 0 L 57.652344 0 L 57.652344 1.398438 "/>
</svg>
