<?xml version="1.0" encoding="UTF-8"?>
<svg xmlns="http://www.w3.org/2000/svg" xmlns:xlink="http://www.w3.org/1999/xlink" width="130" height="67" viewBox="0 0 130 67">
<path fill-rule="nonzero" fill="rgb(63.921569%, 38.431373%, 89.019608%)" fill-opacity="1" d="M 0.347656 67 L 0.347656 8.644531 L 0 6.375 L 0 0 L 117.769531 0 L 118.816406 0.914062 L 119.167969 1.367188 L 119.515625 1.367188 L 119.867188 1.824219 L 119.867188 2.28125 L 120.914062 2.28125 L 121.261719 3.191406 L 122.3125 3.191406 L 122.660156 2.734375 L 123.011719 2.28125 L 124.410156 2.28125 L 124.410156 2.734375 L 124.058594 3.191406 L 124.410156 3.191406 L 125.109375 3.644531 L 125.457031 4.101562 L 125.457031 5.917969 L 125.109375 6.375 L 124.757812 5.917969 L 123.710938 5.917969 L 123.710938 7.28125 L 123.359375 7.28125 L 122.660156 7.734375 L 122.3125 8.191406 L 122.3125 9.550781 L 121.613281 9.550781 L 121.261719 10.003906 L 121.613281 10.457031 L 121.960938 10.910156 L 122.3125 11.363281 L 122.660156 12.269531 L 123.011719 12.269531 L 123.359375 12.722656 L 124.058594 13.175781 L 124.410156 13.625 L 125.109375 14.078125 L 125.109375 15.433594 L 125.457031 16.335938 L 126.15625 16.789062 L 126.15625 17.242188 L 126.503906 17.691406 L 126.503906 18.144531 L 126.855469 18.144531 L 127.902344 18.59375 L 129.300781 18.59375 L 129.300781 19.042969 L 130 19.042969 L 130 67 L 0.347656 67 "/>
</svg>
