<?xml version="1.0" encoding="UTF-8"?>
<svg xmlns="http://www.w3.org/2000/svg" xmlns:xlink="http://www.w3.org/1999/xlink" width="133" height="58" viewBox="0 0 133 58">
<path fill-rule="nonzero" fill="rgb(63.921569%, 38.431373%, 89.019608%)" fill-opacity="1" d="M 2.792969 58 L 2.792969 57.566406 L 3.140625 56.703125 L 3.140625 56.273438 L 3.492188 55.40625 L 3.492188 54.976562 L 3.839844 54.976562 L 4.1875 55.40625 L 4.539062 55.839844 L 5.234375 56.273438 L 5.585938 56.703125 L 6.285156 56.273438 L 6.632812 55.839844 L 6.980469 54.542969 L 7.679688 52.8125 L 7.679688 51.078125 L 7.332031 50.644531 L 7.679688 50.210938 L 7.679688 49.777344 L 8.027344 49.777344 L 8.027344 47.605469 L 7.332031 46.738281 L 6.980469 46.304688 L 6.980469 45.867188 L 7.332031 45 L 8.027344 44.5625 L 8.726562 43.257812 L 9.425781 42.820312 L 10.125 42.386719 L 11.867188 42.386719 L 16.40625 44.5625 L 17.804688 45.433594 L 18.5 45.867188 L 19.199219 45.433594 L 19.546875 45 L 19.898438 44.128906 L 19.898438 43.691406 L 19.546875 42.820312 L 19.199219 41.949219 L 18.851562 41.515625 L 18.5 40.640625 L 18.851562 39.769531 L 19.199219 38.894531 L 19.199219 38.457031 L 19.546875 38.457031 L 19.898438 38.023438 L 21.292969 38.023438 L 22.339844 37.585938 L 25.484375 36.710938 L 26.179688 35.835938 L 25.832031 34.960938 L 25.132812 34.523438 L 25.132812 34.085938 L 24.785156 33.648438 L 24.785156 32.769531 L 25.132812 32.332031 L 25.132812 31.894531 L 26.179688 31.015625 L 26.53125 30.578125 L 26.878906 30.136719 L 26.878906 29.699219 L 27.578125 29.699219 L 28.277344 30.136719 L 28.625 30.136719 L 29.324219 29.257812 L 28.972656 27.941406 L 28.625 27.5 L 28.972656 27.0625 L 29.324219 26.621094 L 29.671875 27.0625 L 30.019531 27.0625 L 30.019531 27.5 L 30.371094 27.941406 L 31.417969 27.941406 L 32.117188 27.5 L 33.164062 27.5 L 33.164062 28.820312 L 33.511719 29.257812 L 34.210938 28.820312 L 34.558594 28.378906 L 34.558594 27.5 L 34.210938 26.621094 L 34.210938 26.179688 L 34.558594 25.742188 L 34.90625 26.179688 L 34.90625 26.621094 L 35.605469 27.0625 L 36.304688 27.0625 L 37.003906 26.621094 L 38.398438 26.621094 L 38.746094 27.0625 L 39.097656 27.5 L 39.445312 27.5 L 40.492188 27.941406 L 41.191406 28.378906 L 41.890625 28.378906 L 42.238281 28.820312 L 42.238281 29.257812 L 42.589844 29.699219 L 42.9375 29.699219 L 42.9375 30.136719 L 43.636719 29.699219 L 43.636719 29.257812 L 44.332031 27.5 L 44.683594 27.0625 L 45.03125 27.0625 L 45.378906 26.621094 L 46.429688 26.621094 L 46.777344 26.179688 L 47.476562 25.742188 L 48.171875 25.300781 L 48.523438 25.742188 L 48.523438 26.179688 L 48.871094 27.0625 L 49.570312 27.5 L 51.316406 27.5 L 50.964844 27.941406 L 50.964844 28.378906 L 52.011719 28.378906 L 52.011719 27.5 L 52.363281 27.0625 L 53.058594 27.0625 L 53.410156 26.621094 L 53.410156 24.417969 L 53.757812 24.417969 L 54.109375 23.980469 L 54.804688 23.980469 L 54.804688 23.097656 L 54.457031 22.65625 L 54.457031 22.214844 L 54.804688 22.214844 L 54.804688 22.65625 L 55.503906 22.65625 L 56.203125 22.214844 L 56.550781 22.214844 L 56.550781 21.773438 L 55.851562 21.773438 L 55.503906 21.332031 L 55.851562 20.890625 L 56.203125 20.890625 L 56.550781 21.332031 L 57.25 21.773438 L 57.597656 22.214844 L 57.597656 23.980469 L 57.949219 23.980469 L 58.644531 24.417969 L 58.996094 24.417969 L 59.34375 24.859375 L 60.390625 24.859375 L 61.089844 25.742188 L 61.4375 26.179688 L 61.789062 25.742188 L 61.789062 25.300781 L 63.183594 25.300781 L 63.53125 24.859375 L 63.882812 24.417969 L 63.882812 23.980469 L 64.230469 21.773438 L 64.230469 20.890625 L 64.578125 20.449219 L 64.929688 20.449219 L 64.929688 20.007812 L 65.628906 19.125 L 66.675781 19.125 L 66.675781 19.566406 L 67.371094 19.125 L 67.722656 19.125 L 68.421875 18.679688 L 68.769531 17.796875 L 69.117188 15.582031 L 69.816406 15.140625 L 70.863281 15.140625 L 70.863281 14.695312 L 71.210938 14.253906 L 71.5625 14.253906 L 72.609375 13.367188 L 72.609375 12.480469 L 72.261719 11.589844 L 72.261719 10.257812 L 71.910156 9.8125 L 71.910156 9.367188 L 72.261719 8.921875 L 75.75 8.921875 L 76.449219 9.8125 L 77.496094 9.8125 L 79.941406 8.035156 L 80.988281 7.589844 L 81.683594 7.589844 L 83.082031 8.035156 L 83.429688 7.589844 L 83.082031 7.144531 L 83.082031 6.695312 L 83.429688 6.25 L 83.78125 5.804688 L 83.78125 5.359375 L 82.382812 5.359375 L 82.035156 4.914062 L 82.382812 4.914062 L 82.730469 4.023438 L 83.082031 3.574219 L 83.082031 3.128906 L 82.730469 3.128906 L 82.035156 2.683594 L 82.035156 1.789062 L 82.730469 1.339844 L 83.082031 0.894531 L 84.128906 0.449219 L 84.128906 0 L 84.828125 0 L 85.175781 0.449219 L 85.523438 0.449219 L 86.222656 1.339844 L 86.921875 1.339844 L 88.667969 0.894531 L 89.363281 0.449219 L 89.714844 0.894531 L 89.714844 1.339844 L 90.0625 1.789062 L 90.761719 1.789062 L 91.109375 2.234375 L 91.808594 2.683594 L 92.15625 2.683594 L 92.15625 3.574219 L 92.507812 4.023438 L 92.507812 4.46875 L 92.855469 4.914062 L 93.203125 4.914062 L 93.203125 5.804688 L 93.554688 6.25 L 93.554688 7.144531 L 93.902344 7.144531 L 95.996094 8.035156 L 99.140625 8.035156 L 99.835938 8.476562 L 99.835938 8.921875 L 100.1875 9.367188 L 100.535156 9.367188 L 101.582031 10.703125 L 102.28125 11.144531 L 103.675781 11.144531 L 104.027344 10.703125 L 104.027344 10.257812 L 104.375 10.257812 L 105.421875 9.8125 L 106.121094 9.8125 L 106.46875 10.257812 L 107.515625 10.257812 L 107.867188 10.703125 L 108.5625 10.703125 L 108.914062 11.144531 L 109.261719 11.589844 L 109.261719 12.035156 L 110.308594 12.035156 L 110.308594 11.589844 L 112.402344 11.589844 L 112.753906 11.144531 L 112.753906 10.703125 L 113.101562 10.703125 L 113.101562 10.257812 L 113.453125 10.257812 L 113.800781 9.8125 L 114.148438 9.8125 L 114.148438 9.367188 L 115.195312 9.367188 L 116.242188 8.921875 L 116.59375 8.476562 L 116.941406 8.921875 L 116.941406 9.8125 L 117.292969 11.589844 L 117.988281 12.480469 L 118.6875 12.921875 L 119.386719 12.921875 L 120.085938 13.367188 L 121.480469 14.695312 L 121.480469 15.140625 L 121.828125 15.582031 L 122.179688 16.027344 L 121.828125 16.46875 L 121.828125 17.355469 L 122.179688 17.796875 L 122.527344 18.238281 L 122.527344 18.679688 L 122.179688 18.679688 L 122.179688 20.007812 L 121.828125 20.007812 L 121.828125 20.890625 L 121.480469 21.332031 L 121.132812 21.332031 L 121.132812 21.773438 L 122.527344 23.980469 L 122.875 24.417969 L 122.875 24.859375 L 123.925781 25.300781 L 123.925781 25.742188 L 124.273438 25.742188 L 124.273438 26.179688 L 123.925781 26.621094 L 124.621094 27.5 L 124.972656 27.5 L 124.972656 27.941406 L 125.320312 28.820312 L 125.320312 29.257812 L 126.367188 30.136719 L 126.714844 30.578125 L 126.714844 31.015625 L 127.066406 31.894531 L 127.066406 32.332031 L 127.414062 32.332031 L 128.113281 32.769531 L 128.460938 32.769531 L 128.8125 33.207031 L 129.160156 33.207031 L 129.507812 34.085938 L 129.859375 34.085938 L 129.859375 34.523438 L 130.207031 34.960938 L 131.605469 35.398438 L 133 35.398438 L 131.953125 36.273438 L 130.554688 37.585938 L 129.507812 38.457031 L 127.765625 39.769531 L 126.019531 41.078125 L 125.667969 41.515625 L 124.621094 41.949219 L 123.226562 42.820312 L 121.132812 43.691406 L 120.433594 44.128906 L 120.085938 44.5625 L 120.085938 45.867188 L 119.734375 46.304688 L 117.988281 47.171875 L 117.640625 47.605469 L 117.292969 47.605469 L 117.292969 49.34375 L 116.941406 49.34375 L 114.847656 50.210938 L 113.800781 50.210938 L 113.453125 50.644531 L 113.101562 51.511719 L 112.753906 51.945312 L 112.753906 52.378906 L 112.402344 52.8125 L 110.660156 52.8125 L 108.914062 53.675781 L 108.214844 53.675781 L 107.867188 54.109375 L 107.515625 54.109375 L 106.121094 54.542969 L 104.375 54.976562 L 104.027344 54.976562 L 103.328125 55.839844 L 102.628906 55.839844 L 101.933594 56.273438 L 100.882812 56.273438 L 99.140625 55.839844 L 90.410156 55.839844 L 86.570312 55.40625 L 64.929688 55.40625 L 61.4375 54.976562 L 58.644531 54.976562 L 56.550781 54.542969 L 41.539062 54.542969 L 39.796875 54.976562 L 30.371094 54.976562 L 30.371094 54.542969 L 30.019531 54.542969 L 30.019531 54.109375 L 26.179688 54.109375 L 26.53125 55.40625 L 26.878906 56.273438 L 26.878906 58 L 2.792969 58 M 1.394531 58 L 0.347656 58 L 0 57.566406 L 0.347656 56.703125 L 1.394531 56.703125 L 1.746094 57.566406 L 1.394531 58 "/>
</svg>
