<?xml version="1.0" encoding="UTF-8"?>
<svg xmlns="http://www.w3.org/2000/svg" xmlns:xlink="http://www.w3.org/1999/xlink" width="91" height="83" viewBox="0 0 91 83">
<path fill-rule="nonzero" fill="rgb(63.921569%, 38.431373%, 89.019608%)" fill-opacity="1" d="M 78.796875 57.464844 L 78.101562 58.269531 L 77.402344 58.269531 L 77.402344 57.867188 L 74.960938 57.867188 L 74.960938 57.0625 L 74.613281 56.664062 L 74.265625 56.664062 L 73.914062 57.0625 L 73.566406 56.664062 L 72.871094 56.261719 L 71.125 56.261719 L 70.777344 55.859375 L 70.429688 55.054688 L 70.082031 55.054688 L 69.382812 54.25 L 68.6875 53.847656 L 67.988281 53.847656 L 67.292969 53.445312 L 66.59375 53.847656 L 66.246094 53.847656 L 65.898438 54.25 L 65.199219 55.457031 L 64.5 55.859375 L 63.457031 57.0625 L 63.105469 57.867188 L 62.757812 58.671875 L 63.105469 59.472656 L 63.804688 59.875 L 64.5 60.273438 L 65.898438 60.273438 L 66.246094 60.675781 L 67.640625 61.078125 L 67.988281 61.078125 L 68.6875 60.675781 L 70.082031 60.675781 L 70.429688 60.273438 L 71.824219 59.472656 L 72.171875 59.070312 L 72.519531 58.269531 L 72.871094 58.269531 L 73.21875 58.671875 L 73.21875 59.070312 L 73.566406 59.070312 L 73.566406 59.472656 L 74.265625 59.472656 L 74.265625 59.070312 L 74.613281 58.671875 L 74.960938 58.269531 L 74.960938 57.867188 L 75.308594 58.269531 L 74.960938 58.671875 L 74.613281 59.070312 L 74.613281 59.472656 L 74.960938 59.472656 L 75.308594 59.070312 L 75.660156 59.070312 L 76.007812 58.671875 L 76.007812 58.269531 L 75.660156 58.269531 L 75.660156 58.671875 L 75.660156 58.269531 L 76.355469 58.269531 L 76.355469 58.671875 L 76.703125 58.671875 L 76.355469 59.070312 L 76.007812 59.472656 L 76.007812 59.875 L 75.308594 60.273438 L 75.308594 61.078125 L 74.960938 60.675781 L 74.265625 60.273438 L 73.914062 60.273438 L 73.21875 61.078125 L 73.21875 61.878906 L 73.566406 62.277344 L 73.566406 62.679688 L 74.613281 62.679688 L 75.308594 62.277344 L 75.660156 62.277344 L 75.308594 62.679688 L 75.308594 63.078125 L 75.660156 63.480469 L 76.007812 63.878906 L 77.054688 63.878906 L 77.402344 63.480469 L 77.75 63.480469 L 77.75 61.878906 L 78.101562 61.476562 L 78.101562 61.078125 L 78.796875 61.078125 L 79.144531 60.675781 L 79.496094 60.273438 L 79.496094 59.875 L 79.84375 59.875 L 80.191406 60.273438 L 80.539062 60.273438 L 80.191406 60.273438 L 80.191406 60.675781 L 80.539062 60.675781 L 80.890625 60.273438 L 81.238281 60.273438 L 81.585938 60.675781 L 81.238281 60.675781 L 80.890625 61.078125 L 80.539062 60.675781 L 80.191406 61.078125 L 80.191406 61.878906 L 79.84375 61.878906 L 80.191406 62.277344 L 80.539062 62.277344 L 80.890625 61.878906 L 81.238281 62.277344 L 81.238281 62.679688 L 80.191406 62.679688 L 80.191406 63.078125 L 80.539062 63.078125 L 80.539062 63.480469 L 80.890625 63.480469 L 80.890625 63.078125 L 81.585938 63.078125 L 81.585938 63.480469 L 81.238281 63.480469 L 80.890625 63.878906 L 81.238281 63.878906 L 81.585938 63.480469 L 81.933594 63.878906 L 81.585938 64.28125 L 81.933594 64.28125 L 81.585938 64.28125 L 81.585938 64.679688 L 81.238281 64.679688 L 81.238281 65.082031 L 81.585938 65.480469 L 80.890625 65.480469 L 80.890625 65.878906 L 80.539062 66.28125 L 80.539062 65.878906 L 80.890625 65.878906 L 80.890625 65.480469 L 80.539062 65.480469 L 80.191406 65.082031 L 79.84375 65.082031 L 79.84375 64.679688 L 79.496094 64.679688 L 79.496094 65.480469 L 79.144531 65.480469 L 78.796875 65.878906 L 78.796875 66.28125 L 78.449219 66.28125 L 78.101562 66.679688 L 77.75 66.28125 L 77.402344 66.679688 L 77.402344 67.480469 L 77.75 67.878906 L 78.796875 67.878906 L 78.449219 67.878906 L 78.796875 68.277344 L 79.496094 68.675781 L 78.796875 68.675781 L 78.796875 68.277344 L 77.402344 68.277344 L 77.054688 67.878906 L 76.007812 67.480469 L 75.660156 67.480469 L 76.355469 67.878906 L 76.355469 68.277344 L 76.703125 68.277344 L 77.054688 69.074219 L 76.703125 69.074219 L 75.308594 68.675781 L 74.613281 68.675781 L 74.960938 69.074219 L 75.308594 69.074219 L 75.308594 69.476562 L 75.660156 69.875 L 76.007812 70.273438 L 76.007812 71.070312 L 76.703125 71.070312 L 77.054688 71.46875 L 77.75 71.46875 L 78.101562 71.867188 L 78.449219 71.867188 L 78.796875 72.265625 L 78.449219 72.664062 L 78.449219 73.0625 L 78.796875 72.664062 L 78.796875 73.0625 L 78.449219 73.460938 L 80.890625 73.460938 L 81.238281 73.859375 L 81.238281 73.460938 L 81.933594 73.460938 L 81.933594 73.859375 L 81.238281 73.859375 L 81.238281 74.257812 L 81.585938 74.257812 L 81.585938 74.65625 L 81.933594 74.65625 L 82.285156 74.257812 L 82.980469 74.257812 L 83.328125 74.65625 L 83.328125 75.054688 L 84.027344 75.054688 L 84.027344 74.65625 L 84.375 74.257812 L 84.375 74.65625 L 84.722656 74.65625 L 84.722656 75.054688 L 85.074219 75.054688 L 85.074219 75.453125 L 85.421875 75.453125 L 85.421875 75.851562 L 85.769531 75.851562 L 85.769531 76.648438 L 85.421875 76.648438 L 86.117188 77.042969 L 86.46875 77.441406 L 86.816406 77.441406 L 86.816406 77.042969 L 87.164062 77.042969 L 87.511719 77.441406 L 87.164062 77.441406 L 87.164062 77.839844 L 87.511719 77.839844 L 87.164062 77.839844 L 87.164062 78.238281 L 86.816406 78.238281 L 86.816406 77.839844 L 86.46875 77.839844 L 86.117188 78.238281 L 86.117188 78.632812 L 87.511719 78.632812 L 86.816406 79.429688 L 86.46875 79.03125 L 86.117188 79.03125 L 86.46875 79.429688 L 86.46875 79.824219 L 86.117188 79.824219 L 86.117188 79.429688 L 85.769531 79.824219 L 85.074219 80.621094 L 85.074219 81.015625 L 85.421875 81.414062 L 85.074219 81.414062 L 84.722656 80.621094 L 84.375 80.621094 L 84.375 80.222656 L 84.027344 79.429688 L 83.679688 79.429688 L 83.679688 80.222656 L 82.632812 80.222656 L 82.285156 80.621094 L 82.285156 81.414062 L 81.238281 82.601562 L 80.890625 82.601562 L 80.539062 83 L 80.539062 82.207031 L 80.890625 82.207031 L 80.890625 81.808594 L 81.238281 81.808594 L 81.238281 81.414062 L 81.585938 81.015625 L 81.585938 80.222656 L 82.285156 80.222656 L 82.285156 79.824219 L 82.632812 79.429688 L 82.980469 79.03125 L 82.980469 78.238281 L 82.632812 78.238281 L 82.632812 79.03125 L 82.285156 78.632812 L 82.285156 77.839844 L 81.933594 78.238281 L 82.285156 78.632812 L 82.285156 79.03125 L 81.933594 79.429688 L 81.585938 79.429688 L 81.238281 79.824219 L 80.890625 79.429688 L 80.890625 78.632812 L 80.539062 78.238281 L 79.496094 76.648438 L 79.84375 76.25 L 79.144531 76.25 L 79.144531 77.042969 L 78.101562 76.648438 L 77.75 76.25 L 77.054688 76.25 L 77.054688 75.851562 L 76.703125 75.453125 L 74.960938 75.453125 L 73.914062 75.054688 L 74.265625 74.65625 L 74.613281 74.65625 L 74.960938 74.257812 L 74.960938 73.859375 L 74.613281 73.460938 L 74.613281 73.859375 L 74.265625 73.859375 L 74.265625 73.0625 L 73.914062 73.460938 L 73.566406 73.0625 L 73.566406 72.664062 L 73.21875 72.664062 L 73.566406 72.664062 L 73.566406 71.867188 L 72.871094 71.867188 L 72.871094 72.664062 L 72.519531 72.664062 L 72.171875 71.867188 L 71.476562 72.265625 L 70.777344 71.867188 L 69.035156 70.671875 L 68.335938 70.671875 L 68.335938 71.070312 L 67.292969 69.875 L 67.292969 70.273438 L 66.941406 70.273438 L 66.941406 70.671875 L 67.292969 70.671875 L 66.941406 71.070312 L 66.59375 71.070312 L 67.292969 71.070312 L 68.335938 72.265625 L 69.382812 72.265625 L 69.730469 72.664062 L 70.082031 73.0625 L 69.730469 73.0625 L 69.382812 73.460938 L 69.730469 73.859375 L 69.730469 74.65625 L 69.730469 74.257812 L 69.382812 74.257812 L 69.382812 74.65625 L 69.730469 75.054688 L 70.082031 75.453125 L 69.382812 75.453125 L 69.382812 75.054688 L 69.035156 75.453125 L 69.382812 75.851562 L 68.6875 75.851562 L 68.6875 76.25 L 69.035156 77.042969 L 69.382812 77.042969 L 69.035156 77.839844 L 69.035156 78.238281 L 68.6875 78.238281 L 68.335938 78.632812 L 67.988281 78.632812 L 67.988281 79.03125 L 66.941406 79.429688 L 66.59375 79.824219 L 66.246094 79.429688 L 66.246094 78.632812 L 65.898438 78.238281 L 65.546875 78.238281 L 65.898438 77.839844 L 65.898438 76.25 L 65.546875 75.851562 L 65.546875 76.648438 L 65.199219 76.648438 L 65.199219 76.25 L 64.5 75.453125 L 64.5 75.054688 L 64.152344 75.453125 L 64.152344 75.851562 L 63.457031 76.648438 L 63.457031 75.054688 L 63.105469 74.65625 L 63.105469 74.257812 L 62.757812 74.257812 L 62.757812 74.65625 L 62.0625 75.453125 L 60.316406 75.453125 L 60.667969 75.054688 L 60.316406 75.054688 L 60.316406 75.453125 L 59.96875 75.453125 L 59.96875 75.851562 L 60.316406 75.851562 L 60.316406 76.25 L 59.96875 76.25 L 59.96875 76.648438 L 60.316406 77.042969 L 59.96875 77.042969 L 59.621094 76.648438 L 59.273438 77.042969 L 59.273438 78.238281 L 58.574219 78.238281 L 58.574219 78.632812 L 58.226562 78.632812 L 58.226562 79.03125 L 57.878906 79.03125 L 57.878906 78.632812 L 57.527344 78.632812 L 57.179688 79.03125 L 56.484375 79.03125 L 56.484375 78.632812 L 57.179688 78.632812 L 56.832031 78.238281 L 56.132812 78.238281 L 56.132812 77.839844 L 55.785156 77.839844 L 55.785156 78.238281 L 55.4375 78.632812 L 55.089844 78.632812 L 54.390625 77.839844 L 53.695312 77.839844 L 53.34375 77.441406 L 52.648438 77.839844 L 52.648438 77.441406 L 52.996094 77.441406 L 52.996094 77.042969 L 52.300781 77.042969 L 52.300781 77.441406 L 51.601562 77.441406 L 50.902344 77.042969 L 49.160156 76.648438 L 48.113281 76.25 L 47.417969 75.453125 L 47.070312 74.65625 L 47.417969 75.054688 L 47.765625 75.054688 L 48.113281 74.65625 L 48.464844 74.257812 L 48.8125 73.859375 L 49.160156 73.859375 L 49.160156 74.65625 L 50.207031 74.65625 L 50.207031 75.453125 L 49.859375 75.851562 L 50.207031 75.851562 L 50.207031 76.25 L 50.902344 76.25 L 50.902344 75.453125 L 51.253906 75.054688 L 50.902344 74.65625 L 49.859375 73.859375 L 49.507812 73.460938 L 49.160156 73.460938 L 49.160156 72.664062 L 48.8125 72.664062 L 48.464844 72.265625 L 48.464844 70.671875 L 48.8125 70.273438 L 49.160156 70.273438 L 49.160156 69.476562 L 48.8125 69.074219 L 48.464844 69.074219 L 48.8125 69.476562 L 48.464844 69.875 L 48.113281 70.273438 L 48.113281 71.070312 L 47.765625 71.46875 L 47.765625 71.867188 L 47.417969 71.46875 L 46.71875 71.070312 L 45.675781 71.070312 L 45.675781 70.273438 L 44.976562 70.273438 L 44.28125 70.671875 L 43.582031 70.671875 L 43.582031 69.476562 L 43.234375 69.476562 L 43.234375 68.675781 L 41.839844 68.675781 L 41.839844 66.679688 L 41.492188 66.28125 L 41.140625 66.28125 L 39.398438 66.679688 L 39.050781 66.679688 L 38.351562 67.078125 L 38.003906 67.078125 L 38.003906 66.679688 L 37.65625 66.28125 L 37.65625 65.878906 L 38.003906 65.480469 L 38.351562 65.480469 L 38.351562 65.878906 L 38.699219 65.878906 L 38.699219 65.082031 L 38.351562 65.082031 L 38.351562 64.679688 L 37.304688 64.679688 L 36.609375 65.082031 L 36.261719 65.082031 L 36.261719 64.679688 L 35.910156 64.679688 L 35.910156 65.082031 L 35.5625 65.480469 L 34.167969 65.878906 L 33.820312 66.28125 L 33.472656 66.679688 L 33.121094 66.679688 L 33.121094 66.28125 L 32.773438 65.878906 L 32.773438 66.28125 L 32.078125 66.28125 L 32.078125 67.078125 L 32.425781 67.480469 L 32.773438 67.480469 L 33.472656 67.078125 L 33.820312 67.078125 L 33.820312 67.480469 L 33.472656 67.480469 L 33.121094 67.878906 L 33.472656 68.675781 L 33.820312 69.074219 L 34.167969 68.675781 L 34.867188 68.675781 L 35.214844 69.074219 L 34.515625 69.074219 L 34.167969 69.476562 L 34.515625 69.476562 L 34.515625 69.875 L 32.425781 69.875 L 31.378906 70.671875 L 29.984375 70.671875 L 27.542969 70.273438 L 26.5 70.273438 L 26.148438 69.875 L 23.707031 69.476562 L 21.617188 68.675781 L 20.570312 68.277344 L 19.523438 67.480469 L 17.78125 66.679688 L 16.386719 66.28125 L 14.644531 65.878906 L 13.597656 65.878906 L 12.898438 66.28125 L 10.808594 66.28125 L 10.109375 65.878906 L 9.414062 66.28125 L 6.972656 66.28125 L 5.925781 66.679688 L 5.230469 66.679688 L 4.882812 67.078125 L 4.183594 67.078125 L 3.835938 67.480469 L 3.488281 67.480469 L 3.136719 67.078125 L 2.789062 66.679688 L 2.441406 65.480469 L 2.789062 65.480469 L 3.136719 65.082031 L 3.835938 65.082031 L 4.53125 64.28125 L 4.53125 63.480469 L 4.882812 62.277344 L 4.882812 61.878906 L 4.183594 61.878906 L 4.183594 61.476562 L 4.53125 61.078125 L 5.578125 59.875 L 5.578125 59.070312 L 5.925781 58.671875 L 5.925781 57.867188 L 5.578125 57.464844 L 5.578125 55.457031 L 5.230469 55.054688 L 4.882812 55.054688 L 4.882812 53.445312 L 5.925781 52.238281 L 5.925781 51.835938 L 5.578125 51.03125 L 5.578125 50.628906 L 5.230469 50.628906 L 5.230469 50.226562 L 5.578125 49.820312 L 5.925781 49.417969 L 6.277344 49.417969 L 6.277344 48.207031 L 6.625 47.804688 L 7.320312 47.402344 L 7.320312 46.191406 L 8.019531 44.980469 L 8.367188 44.574219 L 8.367188 44.171875 L 8.019531 43.765625 L 8.019531 43.363281 L 8.367188 43.363281 L 8.367188 42.957031 L 8.714844 42.957031 L 8.714844 42.148438 L 8.367188 42.148438 L 8.367188 41.742188 L 8.019531 41.339844 L 8.367188 40.933594 L 9.066406 40.933594 L 9.066406 40.527344 L 8.714844 40.125 L 8.367188 39.3125 L 8.714844 38.90625 L 8.714844 37.285156 L 7.671875 37.285156 L 7.671875 36.472656 L 7.320312 36.472656 L 7.320312 35.664062 L 6.972656 35.664062 L 6.972656 35.257812 L 6.625 35.257812 L 6.277344 34.851562 L 6.277344 34.039062 L 6.625 34.039062 L 6.625 33.628906 L 6.277344 33.628906 L 6.277344 33.222656 L 5.925781 32.816406 L 5.925781 32.410156 L 5.578125 32.003906 L 5.230469 32.003906 L 5.230469 31.191406 L 5.578125 31.191406 L 5.578125 30.785156 L 5.230469 30.785156 L 4.882812 30.375 L 4.53125 30.375 L 3.835938 29.96875 L 3.835938 29.152344 L 3.488281 29.152344 L 3.488281 28.746094 L 3.835938 28.746094 L 3.835938 26.300781 L 3.488281 26.300781 L 3.488281 25.074219 L 3.136719 24.667969 L 2.789062 24.257812 L 2.789062 23.851562 L 2.441406 23.851562 L 2.441406 23.441406 L 2.09375 23.03125 L 1.742188 23.03125 L 1.394531 22.625 L 1.046875 22.625 L 1.046875 22.214844 L 0.699219 21.804688 L 0.347656 21.398438 L 0 21.398438 L 0 0 L 50.207031 0 L 50.207031 0.828125 L 50.554688 1.242188 L 51.253906 1.242188 L 51.253906 1.65625 L 51.601562 2.066406 L 51.601562 2.480469 L 51.253906 2.894531 L 50.902344 2.894531 L 50.902344 3.308594 L 50.554688 3.308594 L 50.554688 4.132812 L 50.207031 4.960938 L 50.207031 5.371094 L 50.554688 5.785156 L 51.253906 5.785156 L 51.601562 6.199219 L 51.601562 7.023438 L 50.207031 7.023438 L 50.207031 8.671875 L 50.554688 8.671875 L 50.554688 9.082031 L 51.253906 9.082031 L 51.253906 11.550781 L 51.949219 11.964844 L 52.648438 12.375 L 52.996094 12.785156 L 52.996094 13.609375 L 53.34375 13.609375 L 54.042969 14.019531 L 54.390625 14.019531 L 54.738281 14.429688 L 54.390625 14.429688 L 54.390625 14.839844 L 53.695312 15.660156 L 52.996094 16.890625 L 52.300781 18.121094 L 51.253906 18.121094 L 51.253906 18.53125 L 51.949219 19.351562 L 51.949219 20.167969 L 51.253906 20.578125 L 50.902344 20.988281 L 50.207031 21.398438 L 49.859375 21.804688 L 49.859375 22.214844 L 49.507812 22.214844 L 48.8125 23.03125 L 48.464844 23.441406 L 48.113281 23.441406 L 47.417969 23.851562 L 47.070312 23.851562 L 46.71875 24.257812 L 46.71875 24.667969 L 46.023438 26.300781 L 46.023438 27.117188 L 45.675781 28.746094 L 45.675781 29.152344 L 45.324219 29.5625 L 44.28125 30.375 L 43.929688 31.191406 L 43.929688 32.410156 L 44.28125 32.410156 L 44.28125 33.628906 L 43.929688 35.257812 L 43.582031 35.664062 L 41.839844 35.664062 L 41.839844 36.472656 L 42.1875 36.878906 L 42.535156 36.878906 L 42.535156 37.285156 L 42.1875 37.691406 L 42.1875 38.90625 L 42.886719 39.71875 L 42.886719 40.125 L 41.492188 41.339844 L 74.960938 41.339844 L 74.960938 42.148438 L 74.265625 43.765625 L 73.914062 44.980469 L 73.566406 45.382812 L 73.566406 46.191406 L 73.21875 47 L 73.21875 48.207031 L 73.566406 48.207031 L 73.566406 49.015625 L 73.914062 50.226562 L 74.265625 50.226562 L 74.613281 50.628906 L 74.960938 50.628906 L 75.308594 51.433594 L 75.660156 51.835938 L 76.007812 52.238281 L 76.007812 53.042969 L 76.355469 53.445312 L 76.703125 54.25 L 76.703125 55.457031 L 77.054688 55.859375 L 77.75 57.0625 L 78.101562 57.867188 L 78.101562 57.464844 L 78.796875 57.464844 M 54.042969 80.222656 L 55.089844 80.222656 L 54.042969 80.222656 M 64.5 80.222656 L 64.851562 79.824219 L 65.546875 79.824219 L 64.5 80.222656 M 71.125 75.851562 L 71.125 76.25 L 70.777344 76.648438 L 70.082031 77.042969 L 69.730469 77.042969 L 70.082031 76.648438 L 70.429688 76.648438 L 71.125 75.851562 M 85.074219 71.46875 L 85.074219 71.867188 L 84.722656 71.867188 L 84.375 72.265625 L 84.027344 72.265625 L 84.722656 71.867188 L 85.074219 71.46875 M 39.050781 71.46875 L 38.351562 71.867188 L 37.304688 71.070312 L 36.957031 71.070312 L 35.214844 70.273438 L 34.867188 69.875 L 34.867188 69.476562 L 35.214844 69.074219 L 36.609375 69.074219 L 36.609375 68.675781 L 38.003906 68.675781 L 38.351562 69.074219 L 38.699219 69.476562 L 39.398438 69.476562 L 39.746094 69.875 L 40.445312 69.875 L 40.445312 70.273438 L 39.746094 70.671875 L 39.398438 70.671875 L 39.398438 71.46875 L 39.050781 71.46875 M 79.84375 65.480469 L 80.191406 65.878906 L 80.191406 66.28125 L 80.539062 66.679688 L 80.191406 66.679688 L 80.191406 66.28125 L 79.84375 66.28125 L 79.496094 66.679688 L 79.144531 65.878906 L 79.144531 65.480469 L 79.84375 65.480469 M 82.632812 65.480469 L 82.980469 65.082031 L 82.980469 65.480469 L 82.632812 65.878906 L 81.933594 65.480469 L 81.933594 65.082031 L 82.632812 65.480469 M 83.679688 62.679688 L 83.679688 63.078125 L 82.632812 63.078125 L 82.980469 62.679688 L 83.679688 62.679688 M 82.980469 61.878906 L 82.980469 62.277344 L 82.632812 62.679688 L 82.285156 63.078125 L 82.632812 62.679688 L 82.632812 62.277344 L 82.980469 61.878906 M 89.953125 60.273438 L 90.300781 60.675781 L 90.652344 61.078125 L 90.652344 61.476562 L 91 61.878906 L 91 65.082031 L 90.300781 66.28125 L 90.300781 65.480469 L 91 64.679688 L 91 62.679688 L 90.652344 62.277344 L 90.652344 60.675781 L 90.300781 60.675781 L 89.953125 60.273438 M 80.191406 58.671875 L 80.539062 58.671875 L 80.191406 58.671875 M 84.722656 59.875 L 84.722656 60.273438 L 84.375 60.675781 L 84.027344 60.675781 L 83.679688 60.273438 L 83.328125 59.875 L 82.980469 60.273438 L 82.285156 60.273438 L 81.933594 60.675781 L 81.933594 60.273438 L 82.285156 59.875 L 82.980469 59.875 L 82.980469 59.472656 L 83.328125 59.070312 L 84.027344 58.671875 L 84.375 58.269531 L 84.722656 58.269531 L 84.375 58.269531 L 84.375 58.671875 L 83.679688 59.070312 L 83.679688 59.472656 L 84.027344 59.875 L 84.027344 60.273438 L 84.375 60.273438 L 84.375 59.875 L 84.722656 59.875 M 58.921875 80.222656 L 59.273438 80.222656 L 59.273438 79.824219 L 58.921875 80.222656 L 58.574219 80.222656 L 57.527344 80.621094 L 57.179688 80.621094 L 57.527344 80.222656 L 58.921875 80.222656 M 63.105469 80.222656 L 63.105469 80.621094 L 62.410156 80.222656 L 61.363281 79.824219 L 62.410156 80.222656 L 63.105469 80.222656 M 62.410156 76.648438 L 62.757812 76.25 L 62.757812 76.648438 L 62.410156 76.648438 M 71.824219 75.851562 L 71.476562 75.851562 L 71.824219 75.851562 M 70.429688 72.265625 L 70.429688 72.664062 L 70.082031 72.664062 L 70.082031 72.265625 L 69.382812 72.265625 L 69.382812 71.867188 L 68.6875 71.867188 L 68.335938 71.46875 L 68.335938 71.070312 L 69.035156 71.070312 L 69.382812 71.46875 L 69.730469 71.46875 L 70.082031 71.867188 L 70.082031 72.265625 L 70.429688 72.265625 M 86.816406 70.273438 L 86.46875 71.070312 L 86.117188 71.070312 L 86.816406 70.273438 M 88.210938 68.675781 L 88.558594 68.675781 L 88.210938 68.675781 M 89.257812 67.878906 L 88.90625 67.878906 L 89.953125 66.679688 L 89.953125 67.078125 L 89.257812 67.878906 "/>
</svg>
