<?xml version="1.0" encoding="UTF-8"?>
<svg xmlns="http://www.w3.org/2000/svg" xmlns:xlink="http://www.w3.org/1999/xlink" width="62" height="39" viewBox="0 0 62 39">
<path fill-rule="nonzero" fill="rgb(63.921569%, 38.431373%, 89.019608%)" fill-opacity="1" d="M 39.832031 28.636719 L 40.871094 26.742188 L 41.21875 25.796875 L 40.871094 26.269531 L 40.523438 27.214844 L 40.179688 27.6875 L 39.832031 27.6875 L 39.484375 27.214844 L 39.484375 27.6875 L 39.140625 28.160156 L 38.792969 27.214844 L 38.445312 26.742188 L 38.101562 26.742188 L 37.753906 26.269531 L 37.40625 26.269531 L 37.40625 23.425781 L 36.714844 23.425781 L 36.714844 20.578125 L 19.742188 20.578125 L 17.320312 20.101562 L 16.28125 20.101562 L 15.933594 20.578125 L 15.585938 20.578125 L 15.238281 20.101562 L 12.816406 20.101562 L 12.816406 20.578125 L 12.121094 21.050781 L 12.121094 20.101562 L 4.503906 20.101562 L 2.425781 19.625 L 0.347656 19.625 L 0 19.148438 L 0 18.675781 L 0.347656 17.722656 L 0.691406 16.292969 L 1.039062 14.386719 L 1.730469 12.476562 L 2.078125 11.042969 L 2.425781 9.125 L 2.769531 7.691406 L 3.464844 5.769531 L 3.808594 3.851562 L 4.15625 3.367188 L 16.972656 3.367188 L 18.011719 3.851562 L 31.519531 3.851562 L 32.558594 4.332031 L 38.445312 4.332031 L 38.445312 3.851562 L 38.792969 3.851562 L 39.140625 3.367188 L 39.832031 3.367188 L 39.832031 2.886719 L 40.179688 2.886719 L 40.179688 2.40625 L 40.523438 1.925781 L 40.871094 1.445312 L 42.257812 1.445312 L 42.257812 0.964844 L 42.601562 0.964844 L 42.949219 0.480469 L 44.679688 0 L 46.414062 0 L 46.761719 0.964844 L 46.761719 1.445312 L 45.71875 1.445312 L 46.066406 1.445312 L 46.414062 1.925781 L 46.761719 1.925781 L 46.761719 2.40625 L 47.105469 3.851562 L 47.105469 4.332031 L 46.414062 3.367188 L 46.414062 3.851562 L 46.761719 4.332031 L 47.800781 4.8125 L 47.105469 4.8125 L 47.453125 5.289062 L 48.492188 5.289062 L 48.492188 5.769531 L 48.839844 5.769531 L 48.839844 4.8125 L 49.183594 4.8125 L 49.53125 4.332031 L 49.53125 4.8125 L 49.878906 4.8125 L 49.878906 5.289062 L 50.222656 5.289062 L 50.222656 5.769531 L 49.878906 5.769531 L 49.878906 6.25 L 49.53125 6.25 L 49.53125 6.730469 L 49.183594 6.730469 L 49.183594 6.25 L 48.839844 6.25 L 48.839844 6.730469 L 48.492188 6.730469 L 48.492188 7.210938 L 46.414062 7.691406 L 45.71875 8.167969 L 45.375 8.167969 L 45.375 8.648438 L 45.027344 9.125 L 45.375 9.125 L 45.71875 8.648438 L 46.066406 9.125 L 45.71875 9.125 L 45.71875 9.605469 L 45.375 9.605469 L 45.027344 10.085938 L 44.679688 10.085938 L 44.679688 10.5625 L 45.027344 10.5625 L 45.027344 11.042969 L 44.679688 11.042969 L 44.335938 10.5625 L 43.988281 10.5625 L 43.640625 11.042969 L 43.988281 11.519531 L 43.988281 12.476562 L 43.640625 11.996094 L 43.296875 11.996094 L 43.296875 12.476562 L 42.949219 12.476562 L 42.601562 11.996094 L 42.601562 12.476562 L 42.949219 12.476562 L 42.949219 12.953125 L 42.601562 12.953125 L 42.601562 13.910156 L 42.949219 13.910156 L 43.296875 13.429688 L 43.296875 14.386719 L 43.988281 14.386719 L 43.988281 15.339844 L 44.335938 15.339844 L 44.679688 14.863281 L 45.71875 14.863281 L 45.71875 14.386719 L 45.375 14.386719 L 45.027344 13.910156 L 45.027344 13.429688 L 45.71875 14.386719 L 46.066406 14.863281 L 47.105469 14.863281 L 47.453125 15.339844 L 47.800781 15.339844 L 48.144531 15.816406 L 48.144531 16.769531 L 48.492188 16.769531 L 48.492188 17.246094 L 48.839844 17.722656 L 49.183594 18.675781 L 49.53125 18.675781 L 49.53125 19.148438 L 49.878906 19.625 L 50.222656 20.578125 L 50.222656 21.050781 L 49.878906 21.050781 L 49.53125 20.578125 L 49.878906 20.578125 L 49.878906 20.101562 L 49.53125 19.625 L 49.183594 19.625 L 49.183594 20.578125 L 48.492188 20.578125 L 48.144531 21.050781 L 49.183594 22 L 50.917969 22 L 51.261719 22.476562 L 51.609375 23.425781 L 51.609375 24.375 L 51.261719 24.847656 L 51.261719 25.320312 L 51.957031 25.796875 L 52.996094 26.742188 L 53.6875 27.214844 L 55.765625 27.214844 L 55.074219 27.214844 L 54.726562 27.6875 L 56.457031 27.6875 L 57.152344 27.214844 L 58.882812 26.742188 L 59.230469 26.269531 L 59.921875 26.269531 L 60.269531 25.796875 L 60.613281 25.320312 L 60.613281 23.898438 L 60.269531 23.425781 L 60.613281 23.425781 L 60.960938 22.953125 L 60.613281 22.953125 L 60.269531 22.476562 L 59.574219 22.476562 L 59.574219 23.425781 L 59.230469 22.953125 L 59.230469 20.578125 L 58.882812 20.101562 L 58.191406 19.625 L 57.84375 19.625 L 57.496094 20.101562 L 57.496094 20.578125 L 57.152344 20.578125 L 56.804688 19.625 L 56.457031 19.625 L 56.457031 19.148438 L 58.535156 19.148438 L 59.230469 19.625 L 59.574219 20.101562 L 60.269531 21.050781 L 60.960938 22 L 61.652344 24.375 L 62 24.847656 L 60.960938 24.847656 L 60.960938 25.796875 L 61.652344 25.796875 L 61.652344 28.636719 L 60.960938 28.636719 L 58.191406 29.109375 L 57.496094 29.109375 L 56.804688 29.578125 L 56.457031 29.578125 L 56.113281 30.050781 L 55.765625 30.050781 L 56.113281 29.578125 L 54.378906 29.578125 L 54.035156 30.050781 L 53.6875 30.050781 L 53.6875 29.578125 L 53.339844 29.578125 L 52.648438 30.523438 L 52.300781 30.996094 L 51.957031 31.46875 L 50.222656 31.46875 L 49.183594 32.414062 L 48.839844 31.941406 L 49.183594 31.46875 L 49.183594 28.160156 L 49.53125 28.160156 L 49.53125 27.6875 L 49.878906 27.6875 L 49.53125 27.214844 L 49.183594 27.6875 L 48.839844 27.214844 L 48.144531 27.214844 L 48.144531 28.636719 L 47.800781 28.160156 L 47.800781 28.636719 L 47.453125 29.109375 L 47.105469 29.578125 L 47.105469 29.109375 L 46.761719 29.109375 L 46.761719 29.578125 L 46.414062 29.578125 L 46.066406 30.050781 L 45.71875 30.050781 L 46.066406 30.523438 L 45.71875 30.523438 L 45.71875 30.050781 L 45.375 30.050781 L 45.027344 29.578125 L 45.027344 30.050781 L 44.679688 30.523438 L 44.335938 30.996094 L 44.679688 31.46875 L 44.335938 31.941406 L 43.640625 31.941406 L 42.949219 32.414062 L 42.601562 32.882812 L 42.257812 32.414062 L 42.601562 32.414062 L 42.601562 31.46875 L 42.257812 31.46875 L 42.257812 31.941406 L 41.21875 31.941406 L 41.5625 32.414062 L 41.21875 32.414062 L 41.21875 30.996094 L 40.871094 30.523438 L 40.871094 29.109375 L 40.523438 29.109375 L 40.179688 28.636719 L 39.832031 28.636719 M 59.574219 35.238281 L 59.921875 35.238281 L 60.269531 35.710938 L 60.613281 36.652344 L 60.960938 37.589844 L 61.308594 38.0625 L 61.308594 39 L 58.191406 39 L 56.457031 38.0625 L 56.113281 37.589844 L 55.765625 37.589844 L 55.765625 37.121094 L 56.113281 37.589844 L 58.882812 37.589844 L 59.230469 38.0625 L 59.230469 37.589844 L 59.921875 37.589844 L 59.921875 37.121094 L 60.269531 36.652344 L 59.921875 36.652344 L 59.574219 37.121094 L 59.230469 37.121094 L 59.921875 36.179688 L 59.921875 35.710938 L 59.574219 35.238281 M 51.957031 35.238281 L 52.300781 35.238281 L 52.300781 34.769531 L 52.996094 34.769531 L 52.996094 36.179688 L 52.300781 36.179688 L 51.957031 35.710938 L 51.957031 35.238281 M 50.570312 34.769531 L 51.609375 34.769531 L 51.957031 36.179688 L 48.492188 36.179688 L 48.144531 36.652344 L 47.800781 36.652344 L 47.105469 37.589844 L 46.761719 37.121094 L 46.414062 37.121094 L 46.066406 36.652344 L 46.066406 36.179688 L 47.105469 36.179688 L 47.453125 35.710938 L 47.800781 35.710938 L 48.144531 34.769531 L 48.492188 34.769531 L 48.839844 34.296875 L 49.183594 33.828125 L 50.222656 33.355469 L 50.222656 34.296875 L 50.570312 33.828125 L 50.570312 33.355469 L 50.917969 33.828125 L 51.261719 33.828125 L 51.261719 34.296875 L 50.917969 34.296875 L 50.570312 34.769531 M 60.960938 29.109375 L 61.308594 29.109375 L 61.308594 29.578125 L 60.960938 30.050781 L 60.613281 31.46875 L 60.269531 31.46875 L 60.960938 30.050781 L 60.960938 29.109375 M 46.066406 38.53125 L 46.761719 38.53125 L 46.761719 39 L 46.414062 39 L 46.414062 38.53125 L 46.066406 38.53125 M 45.375 34.296875 L 46.066406 34.296875 L 45.71875 34.769531 L 44.335938 34.769531 L 44.679688 34.769531 L 45.027344 34.296875 L 45.375 34.296875 M 48.144531 32.414062 L 48.839844 32.414062 L 48.492188 32.882812 L 48.144531 32.882812 L 47.800781 33.355469 L 47.453125 33.355469 L 47.453125 33.828125 L 46.761719 34.296875 L 46.066406 34.296875 L 46.066406 33.828125 L 46.761719 33.828125 L 47.105469 33.355469 L 47.800781 32.882812 L 48.144531 32.414062 "/>
</svg>
