<?xml version="1.0" encoding="UTF-8"?>
<svg xmlns="http://www.w3.org/2000/svg" xmlns:xlink="http://www.w3.org/1999/xlink" width="77" height="40" viewBox="0 0 77 40">
<path fill-rule="nonzero" fill="rgb(63.921569%, 38.431373%, 89.019608%)" fill-opacity="1" d="M 66.59375 39.554688 L 66.246094 39.554688 L 65.902344 39.113281 L 64.167969 39.113281 L 63.820312 39.554688 L 63.125 40 L 62.433594 40 L 62.433594 39.554688 L 62.777344 39.554688 L 62.777344 39.113281 L 63.125 38.667969 L 62.777344 38.667969 L 62.777344 39.113281 L 62.433594 39.113281 L 62.433594 38.667969 L 62.777344 38.222656 L 62.777344 37.777344 L 63.472656 37.777344 L 63.820312 37.335938 L 64.511719 36.445312 L 64.859375 36 L 64.511719 36 L 64.511719 36.445312 L 63.472656 36.445312 L 63.125 36.890625 L 62.777344 36.445312 L 63.125 36.445312 L 63.472656 36 L 63.472656 35.554688 L 64.167969 35.554688 L 64.167969 35.109375 L 61.738281 35.109375 L 61.738281 36 L 61.390625 36 L 61.390625 35.109375 L 61.738281 34.21875 L 62.085938 33.773438 L 62.777344 33.773438 L 63.472656 33.328125 L 62.433594 33.328125 L 62.085938 32.882812 L 62.085938 31.542969 L 62.777344 30.652344 L 63.125 30.203125 L 63.125 29.757812 L 62.777344 29.757812 L 62.777344 30.203125 L 62.433594 30.203125 L 61.738281 31.542969 L 61.390625 31.542969 L 61.046875 32.882812 L 61.046875 32.4375 L 60.699219 32.4375 L 60.699219 31.988281 L 60.351562 31.988281 L 60.351562 31.542969 L 61.046875 31.097656 L 61.046875 30.203125 L 60.351562 30.652344 L 60.003906 31.097656 L 59.65625 31.988281 L 60.003906 31.988281 L 60.003906 33.328125 L 59.65625 33.328125 L 58.964844 32.4375 L 58.617188 31.988281 L 58.269531 31.988281 L 57.921875 31.542969 L 56.882812 30.203125 L 56.882812 29.757812 L 56.535156 30.203125 L 56.882812 31.097656 L 56.882812 31.542969 L 56.535156 31.542969 L 56.535156 31.097656 L 56.1875 30.652344 L 55.84375 29.757812 L 55.496094 29.3125 L 55.496094 28.863281 L 55.148438 28.417969 L 54.800781 28.417969 L 54.800781 27.523438 L 55.496094 27.523438 L 55.496094 28.417969 L 55.84375 28.417969 L 55.84375 27.523438 L 56.1875 27.074219 L 56.535156 27.074219 L 56.882812 26.628906 L 57.230469 26.628906 L 57.230469 25.734375 L 56.535156 25.734375 L 56.535156 26.179688 L 55.496094 26.179688 L 55.496094 25.734375 L 55.84375 25.285156 L 55.84375 24.835938 L 55.496094 24.835938 L 57.230469 24.835938 L 57.578125 25.285156 L 57.921875 25.285156 L 58.269531 25.734375 L 58.617188 25.285156 L 59.3125 26.179688 L 60.003906 26.179688 L 60.351562 25.734375 L 60.699219 25.285156 L 61.046875 24.386719 L 61.046875 23.941406 L 60.699219 24.835938 L 60.351562 25.285156 L 59.3125 25.285156 L 58.964844 24.835938 L 58.617188 24.835938 L 58.617188 23.941406 L 58.269531 24.386719 L 57.921875 24.386719 L 57.578125 23.941406 L 57.921875 23.941406 L 58.269531 23.492188 L 58.617188 23.492188 L 57.578125 23.492188 L 57.230469 23.042969 L 57.578125 23.042969 L 57.578125 22.59375 L 57.230469 22.59375 L 57.230469 23.042969 L 56.882812 23.492188 L 56.1875 22.59375 L 56.535156 22.144531 L 56.882812 22.144531 L 56.535156 21.695312 L 56.1875 21.695312 L 55.84375 22.144531 L 55.496094 22.59375 L 55.148438 22.59375 L 55.148438 21.695312 L 55.496094 21.695312 L 55.496094 21.25 L 55.148438 21.25 L 55.148438 21.695312 L 54.800781 22.144531 L 54.800781 23.492188 L 54.453125 23.492188 L 54.453125 22.144531 L 54.800781 20.800781 L 55.148438 20.351562 L 55.496094 19.898438 L 55.84375 19.449219 L 55.84375 19.898438 L 56.1875 20.351562 L 56.535156 20.351562 L 56.535156 21.25 L 56.882812 21.25 L 57.230469 21.695312 L 57.921875 21.695312 L 57.921875 21.25 L 58.269531 21.25 L 58.617188 20.800781 L 58.269531 20.351562 L 58.269531 20.800781 L 57.921875 20.800781 L 57.230469 21.25 L 56.882812 20.351562 L 57.230469 19.898438 L 57.578125 19.449219 L 58.269531 19.449219 L 58.617188 19 L 57.921875 18.550781 L 57.578125 18.550781 L 57.921875 18.101562 L 57.578125 18.101562 L 56.882812 19 L 56.882812 17.652344 L 56.535156 17.203125 L 56.1875 17.203125 L 55.84375 17.652344 L 55.496094 18.101562 L 54.800781 18.101562 L 54.453125 18.550781 L 54.800781 19 L 54.800781 19.449219 L 54.453125 19.449219 L 54.109375 19.898438 L 53.761719 19.898438 L 54.109375 18.550781 L 54.109375 17.652344 L 54.453125 16.75 L 54.800781 16.300781 L 54.800781 15.851562 L 55.148438 15.398438 L 55.148438 16.300781 L 55.496094 16.75 L 56.882812 16.75 L 57.578125 16.300781 L 57.921875 15.851562 L 57.578125 15.398438 L 57.578125 14.949219 L 57.921875 14.949219 L 58.269531 14.046875 L 58.964844 13.59375 L 59.3125 13.144531 L 58.964844 13.144531 L 58.617188 13.59375 L 57.578125 13.59375 L 57.921875 13.144531 L 57.230469 13.59375 L 57.230469 14.046875 L 56.882812 14.496094 L 56.535156 14.949219 L 56.882812 15.851562 L 56.1875 15.851562 L 56.1875 13.59375 L 55.84375 13.144531 L 55.496094 12.691406 L 55.84375 12.242188 L 56.1875 10.886719 L 56.535156 10.433594 L 57.230469 9.980469 L 57.230469 9.078125 L 57.921875 9.078125 L 57.921875 8.625 L 58.269531 8.625 L 58.269531 8.171875 L 58.617188 7.71875 L 59.3125 8.171875 L 62.777344 8.171875 L 63.125 7.71875 L 60.351562 7.71875 L 59.65625 7.265625 L 60.699219 5.90625 L 61.046875 5.90625 L 61.390625 5.453125 L 61.738281 5.453125 L 62.777344 5.90625 L 63.125 5.90625 L 62.777344 5.453125 L 62.433594 5 L 62.085938 5 L 62.777344 4.542969 L 62.777344 4.089844 L 63.125 3.636719 L 63.125 3.183594 L 62.777344 3.183594 L 62.433594 3.636719 L 62.433594 4.089844 L 62.085938 4.542969 L 61.046875 5.453125 L 60.351562 5.90625 L 60.351562 5 L 61.046875 4.089844 L 61.390625 3.636719 L 61.390625 2.726562 L 61.046875 2.726562 L 60.699219 3.636719 L 60.351562 4.089844 L 59.65625 3.636719 L 58.617188 3.636719 L 58.269531 5 L 58.617188 5.453125 L 59.3125 5.453125 L 59.3125 5.90625 L 58.964844 6.359375 L 58.269531 6.8125 L 57.230469 7.71875 L 56.882812 8.171875 L 56.535156 7.71875 L 56.535156 5.453125 L 56.1875 5.453125 L 56.1875 5.90625 L 55.84375 5.90625 L 55.84375 8.171875 L 56.1875 8.625 L 55.84375 8.625 L 55.496094 9.078125 L 54.800781 7.265625 L 53.414062 7.265625 L 53.761719 7.71875 L 54.109375 7.71875 L 54.453125 8.171875 L 54.453125 8.625 L 53.761719 8.625 L 54.109375 9.078125 L 52.722656 9.078125 L 53.066406 9.527344 L 53.414062 9.980469 L 53.414062 10.433594 L 53.066406 10.433594 L 53.066406 9.980469 L 52.722656 9.527344 L 52.375 9.527344 L 52.027344 9.078125 L 52.375 9.980469 L 52.722656 10.433594 L 53.066406 10.886719 L 53.414062 10.886719 L 53.414062 11.335938 L 52.722656 11.789062 L 52.722656 11.335938 L 52.375 11.335938 L 52.375 11.789062 L 51.679688 11.789062 L 51.679688 10.886719 L 50.988281 10.886719 L 50.292969 9.980469 L 50.292969 10.433594 L 49.597656 10.433594 L 49.945312 10.886719 L 50.640625 10.886719 L 50.640625 11.335938 L 50.988281 11.335938 L 50.988281 11.789062 L 51.332031 11.789062 L 51.332031 12.242188 L 51.679688 12.691406 L 52.375 12.691406 L 52.722656 13.144531 L 52.722656 14.046875 L 53.066406 14.496094 L 52.722656 14.949219 L 52.722656 14.496094 L 52.375 14.046875 L 52.375 14.496094 L 51.332031 14.496094 L 51.679688 14.949219 L 52.027344 14.949219 L 53.066406 15.398438 L 53.414062 15.398438 L 53.414062 15.851562 L 53.066406 16.300781 L 52.722656 16.300781 L 52.375 16.75 L 52.027344 16.300781 L 51.332031 15.851562 L 51.332031 15.398438 L 50.988281 14.949219 L 50.640625 14.496094 L 50.640625 14.949219 L 50.292969 15.398438 L 50.988281 15.398438 L 50.988281 15.851562 L 51.332031 16.300781 L 52.027344 16.75 L 52.375 17.203125 L 52.375 18.101562 L 51.679688 18.101562 L 51.332031 17.203125 L 50.640625 17.203125 L 50.988281 17.652344 L 51.332031 18.101562 L 51.679688 18.550781 L 51.679688 19 L 51.332031 19 L 50.988281 18.550781 L 50.988281 19 L 51.332031 19 L 51.332031 19.449219 L 50.988281 19.449219 L 50.988281 19.898438 L 51.679688 19.898438 L 51.679688 20.800781 L 50.988281 21.25 L 50.640625 21.25 L 50.640625 21.695312 L 50.988281 22.144531 L 51.332031 22.59375 L 51.332031 23.941406 L 51.679688 24.835938 L 51.332031 25.734375 L 51.332031 27.074219 L 51.679688 27.523438 L 52.722656 28.863281 L 53.066406 29.3125 L 53.761719 30.203125 L 53.414062 30.652344 L 53.066406 31.542969 L 52.375 31.542969 L 52.027344 31.097656 L 52.375 30.652344 L 52.027344 30.203125 L 52.027344 29.757812 L 50.988281 29.757812 L 50.640625 29.3125 L 49.945312 28.863281 L 49.253906 27.96875 L 49.253906 27.523438 L 48.558594 23.941406 L 48.558594 23.492188 L 48.558594 27.96875 L 48.90625 28.417969 L 49.597656 29.3125 L 50.292969 29.757812 L 51.332031 30.203125 L 51.332031 30.652344 L 51.679688 31.097656 L 51.679688 31.542969 L 52.027344 31.542969 L 52.375 31.988281 L 53.761719 31.988281 L 53.761719 32.4375 L 53.414062 32.882812 L 53.414062 33.328125 L 54.109375 34.21875 L 54.453125 35.109375 L 54.800781 35.554688 L 54.453125 36 L 54.453125 36.445312 L 54.800781 36.890625 L 54.800781 37.777344 L 54.453125 37.335938 L 54.109375 37.335938 L 53.414062 36.445312 L 53.066406 36.445312 L 52.722656 35.554688 L 53.066406 35.109375 L 52.722656 34.21875 L 52.375 34.21875 L 52.722656 34.664062 L 52.375 35.109375 L 52.375 35.554688 L 52.027344 35.554688 L 51.679688 35.109375 L 51.332031 35.554688 L 50.988281 35.554688 L 50.988281 34.664062 L 50.292969 33.773438 L 49.253906 33.773438 L 48.558594 33.328125 L 48.210938 33.328125 L 47.171875 33.773438 L 46.476562 32.882812 L 46.476562 32.4375 L 46.128906 31.988281 L 46.128906 30.652344 L 45.785156 30.203125 L 45.089844 29.757812 L 45.4375 30.652344 L 45.785156 31.097656 L 45.785156 32.882812 L 45.4375 32.4375 L 44.742188 32.4375 L 44.394531 31.988281 L 44.394531 31.542969 L 44.050781 31.097656 L 43.355469 31.097656 L 43.355469 30.203125 L 42.664062 28.863281 L 42.664062 28.417969 L 42.316406 27.96875 L 42.316406 28.863281 L 41.96875 29.3125 L 41.621094 29.3125 L 41.273438 29.757812 L 41.273438 28.417969 L 40.929688 28.417969 L 40.929688 28.863281 L 40.582031 29.757812 L 40.582031 30.203125 L 39.886719 30.203125 L 39.539062 30.652344 L 38.847656 30.203125 L 38.5 29.757812 L 38.5 27.074219 L 38.847656 27.074219 L 38.847656 26.628906 L 39.195312 26.179688 L 39.886719 26.179688 L 40.234375 25.734375 L 39.886719 25.734375 L 39.886719 26.179688 L 39.539062 26.179688 L 39.539062 25.285156 L 39.886719 25.285156 L 40.234375 24.835938 L 40.929688 24.835938 L 40.929688 24.386719 L 41.273438 23.941406 L 41.273438 23.492188 L 41.621094 23.492188 L 41.621094 23.042969 L 42.664062 23.042969 L 42.316406 23.042969 L 42.316406 22.59375 L 42.664062 22.144531 L 42.664062 20.800781 L 43.703125 19.898438 L 44.742188 18.550781 L 43.355469 17.652344 L 42.316406 16.300781 L 41.621094 17.203125 L 40.929688 17.652344 L 40.582031 17.203125 L 39.886719 17.203125 L 39.539062 16.75 L 38.847656 16.75 L 38.847656 15.851562 L 38.5 15.851562 L 38.152344 15.398438 L 37.804688 14.949219 L 37.113281 14.949219 L 35.726562 14.496094 L 35.378906 14.496094 L 34.683594 13.59375 L 34.335938 13.59375 L 34.335938 13.144531 L 33.992188 12.691406 L 34.335938 12.691406 L 34.683594 11.789062 L 35.03125 11.789062 L 35.03125 10.886719 L 34.683594 10.433594 L 33.992188 10.433594 L 33.644531 9.527344 L 32.605469 9.527344 L 31.910156 9.078125 L 30.523438 9.078125 L 29.828125 8.171875 L 30.175781 7.71875 L 30.175781 6.8125 L 29.136719 6.359375 L 29.480469 5.90625 L 29.136719 5.453125 L 29.480469 5 L 28.441406 5 L 28.441406 4.542969 L 28.789062 4.542969 L 28.789062 4.089844 L 28.441406 4.089844 L 28.09375 4.542969 L 27.746094 3.636719 L 28.09375 3.636719 L 28.441406 3.183594 L 28.441406 2.273438 L 27.746094 2.273438 L 27.746094 2.726562 L 27.402344 2.726562 L 27.054688 2.273438 L 26.707031 2.726562 L 25.667969 2.726562 L 25.320312 2.273438 L 24.277344 0.910156 L 23.238281 0.453125 L 21.851562 0.453125 L 21.503906 1.363281 L 21.15625 1.363281 L 20.8125 1.820312 L 19.421875 1.820312 L 19.078125 2.273438 L 18.035156 2.273438 L 18.730469 2.726562 L 18.382812 2.726562 L 18.035156 3.183594 L 17.6875 3.183594 L 18.035156 3.636719 L 17.6875 4.089844 L 15.609375 4.089844 L 15.609375 4.542969 L 14.222656 4.089844 L 13.875 4.089844 L 13.527344 3.636719 L 12.832031 3.183594 L 12.488281 3.183594 L 12.488281 2.726562 L 12.832031 2.726562 L 12.832031 2.273438 L 12.488281 2.273438 L 12.488281 1.820312 L 12.140625 1.820312 L 12.140625 2.273438 L 11.792969 2.273438 L 11.792969 2.726562 L 11.445312 2.726562 L 11.445312 3.183594 L 11.792969 3.183594 L 11.792969 3.636719 L 10.753906 3.636719 L 10.753906 4.089844 L 10.40625 4.542969 L 9.363281 5.453125 L 9.363281 5.90625 L 9.019531 5.90625 L 8.671875 6.359375 L 8.671875 5.90625 L 7.976562 5.90625 L 7.628906 5.453125 L 7.285156 5.453125 L 6.589844 5.90625 L 6.242188 5.90625 L 6.242188 6.8125 L 5.894531 6.8125 L 5.550781 7.265625 L 5.203125 7.265625 L 5.203125 7.71875 L 4.507812 8.171875 L 3.816406 8.171875 L 3.816406 8.625 L 3.46875 8.625 L 3.46875 9.527344 L 2.429688 9.527344 L 0.347656 11.335938 L 0 11.335938 L 0 11.789062 L 0 0 L 64.167969 0 L 64.167969 6.8125 L 64.511719 8.171875 L 64.511719 11.335938 L 64.859375 13.144531 L 64.859375 16.75 L 65.207031 18.101562 L 65.207031 23.042969 L 65.554688 24.835938 L 65.554688 28.417969 L 76.304688 28.417969 L 76.304688 28.863281 L 75.613281 28.863281 L 75.960938 29.757812 L 75.613281 29.757812 L 75.265625 29.3125 L 74.917969 29.3125 L 74.570312 29.757812 L 75.265625 29.757812 L 75.265625 30.203125 L 75.613281 30.203125 L 75.265625 30.652344 L 75.960938 30.652344 L 75.960938 31.542969 L 75.613281 31.988281 L 75.613281 32.4375 L 74.917969 33.328125 L 74.226562 33.328125 L 74.570312 32.882812 L 73.878906 33.328125 L 73.53125 33.328125 L 73.53125 33.773438 L 73.183594 35.109375 L 72.835938 35.109375 L 72.835938 36 L 71.796875 36 L 71.449219 36.445312 L 71.449219 36.890625 L 71.105469 37.777344 L 71.105469 38.222656 L 70.410156 38.222656 L 69.714844 38.667969 L 66.941406 38.667969 L 66.59375 39.113281 L 66.59375 39.554688 M 77 28.417969 L 77 29.3125 L 76.652344 30.203125 L 76.652344 30.652344 L 76.304688 31.097656 L 76.304688 30.652344 L 76.652344 29.3125 L 76.652344 28.417969 L 77 28.417969 M 60.351562 39.554688 L 59.65625 39.554688 L 59.65625 39.113281 L 59.3125 38.667969 L 60.351562 38.667969 L 60.003906 38.222656 L 59.65625 38.222656 L 60.003906 37.777344 L 60.351562 38.222656 L 60.699219 38.222656 L 60.699219 39.113281 L 60.351562 39.554688 M 59.65625 35.554688 L 59.3125 35.109375 L 58.964844 35.109375 L 58.964844 34.664062 L 59.3125 34.21875 L 59.65625 34.21875 L 59.65625 34.664062 L 60.003906 34.664062 L 60.003906 35.109375 L 59.65625 35.554688 M 73.183594 38.222656 L 73.183594 37.777344 L 73.878906 37.335938 L 74.226562 36.445312 L 74.226562 35.554688 L 74.570312 35.109375 L 75.613281 32.4375 L 75.960938 31.988281 L 75.960938 32.4375 L 75.265625 33.773438 L 74.570312 35.554688 L 74.570312 36.890625 L 73.878906 37.777344 L 73.53125 37.777344 L 73.53125 38.222656 L 73.183594 38.222656 "/>
</svg>
