<?xml version="1.0" encoding="UTF-8"?>
<svg xmlns="http://www.w3.org/2000/svg" xmlns:xlink="http://www.w3.org/1999/xlink" width="72" height="109" viewBox="0 0 72 109">
<path fill-rule="nonzero" fill="rgb(63.921569%, 38.431373%, 89.019608%)" fill-opacity="1" d="M 0 54.804688 L 0.351562 54.804688 L 0.351562 54.308594 L 0.703125 54.308594 L 1.054688 53.808594 L 2.105469 53.808594 L 3.160156 56.296875 L 3.511719 56.296875 L 3.511719 55.304688 L 3.863281 54.804688 L 4.214844 54.804688 L 4.214844 52.316406 L 4.917969 51.316406 L 5.269531 51.316406 L 5.621094 51.816406 L 6.320312 52.316406 L 6.671875 52.8125 L 7.023438 52.8125 L 7.375 52.316406 L 7.726562 52.316406 L 7.375 51.816406 L 7.375 51.316406 L 6.671875 50.820312 L 6.320312 50.320312 L 5.972656 49.820312 L 7.023438 47.820312 L 8.78125 45.820312 L 9.835938 45.320312 L 10.535156 44.816406 L 11.238281 44.816406 L 11.941406 43.816406 L 11.941406 42.8125 L 11.589844 42.8125 L 11.589844 42.308594 L 11.941406 41.808594 L 12.292969 41.808594 L 13.347656 40.804688 L 14.046875 39.796875 L 14.398438 39.292969 L 14.398438 38.289062 L 13.699219 38.289062 L 13.347656 37.785156 L 13.347656 37.28125 L 13.699219 36.273438 L 13.699219 35.769531 L 13.347656 35.261719 L 13.699219 35.261719 L 14.398438 34.757812 L 14.75 34.253906 L 14.75 33.242188 L 14.046875 32.234375 L 14.046875 31.726562 L 14.398438 30.714844 L 14.75 30.207031 L 15.101562 29.703125 L 15.453125 29.703125 L 15.453125 28.6875 L 15.804688 28.179688 L 16.15625 28.179688 L 16.15625 27.675781 L 17.5625 26.660156 L 17.914062 26.152344 L 17.914062 24.117188 L 18.261719 22.082031 L 18.613281 20.550781 L 18.964844 19.53125 L 19.316406 19.023438 L 20.722656 16.464844 L 22.476562 14.417969 L 23.882812 11.855469 L 25.640625 9.800781 L 27.042969 7.230469 L 28.800781 5.167969 L 30.203125 2.585938 L 31.960938 0.519531 L 31.960938 0 L 32.664062 0 L 35.472656 0.519531 L 35.472656 5.167969 L 35.824219 5.683594 L 38.28125 6.714844 L 38.632812 6.714844 L 40.742188 5.683594 L 42.847656 5.683594 L 43.199219 5.167969 L 43.550781 5.167969 L 43.902344 4.652344 L 44.605469 4.136719 L 47.414062 4.136719 L 47.414062 3.617188 L 48.117188 2.585938 L 49.875 2.585938 L 50.574219 3.101562 L 50.925781 3.101562 L 51.277344 4.136719 L 51.980469 4.136719 L 52.332031 4.652344 L 53.386719 5.683594 L 54.085938 6.199219 L 54.789062 6.714844 L 54.789062 7.230469 L 55.140625 7.230469 L 55.140625 7.742188 L 55.84375 8.257812 L 56.195312 9.285156 L 56.546875 9.285156 L 57.25 9.800781 L 57.601562 9.800781 L 57.601562 28.179688 L 57.953125 31.726562 L 57.953125 38.792969 L 58.300781 38.792969 L 58.300781 39.796875 L 57.953125 39.796875 L 57.601562 40.300781 L 57.601562 40.804688 L 57.953125 41.304688 L 57.953125 41.808594 L 57.601562 42.308594 L 57.601562 42.8125 L 57.25 43.3125 L 57.601562 44.316406 L 57.601562 44.816406 L 57.953125 44.816406 L 58.300781 45.320312 L 58.652344 45.320312 L 58.652344 44.816406 L 59.003906 44.816406 L 59.003906 45.320312 L 59.355469 45.820312 L 60.058594 46.320312 L 61.113281 46.820312 L 61.816406 46.820312 L 62.867188 47.320312 L 63.21875 46.820312 L 63.921875 46.820312 L 63.921875 47.320312 L 64.273438 48.320312 L 64.273438 48.820312 L 63.570312 49.820312 L 62.867188 49.820312 L 63.21875 50.820312 L 64.273438 52.8125 L 63.921875 53.3125 L 63.570312 54.308594 L 63.570312 54.804688 L 63.21875 55.304688 L 63.21875 55.800781 L 64.273438 56.296875 L 64.625 57.292969 L 65.328125 58.285156 L 66.730469 58.285156 L 66.730469 57.292969 L 67.785156 57.292969 L 68.136719 57.789062 L 67.785156 57.789062 L 68.136719 58.285156 L 68.488281 58.285156 L 68.839844 58.78125 L 68.839844 59.277344 L 69.191406 59.277344 L 69.542969 59.773438 L 69.542969 60.269531 L 69.894531 60.765625 L 69.542969 60.765625 L 69.894531 61.261719 L 69.894531 61.753906 L 70.242188 61.753906 L 70.59375 62.746094 L 70.945312 62.746094 L 70.59375 63.238281 L 70.59375 63.734375 L 70.242188 64.230469 L 69.894531 63.734375 L 69.542969 63.734375 L 69.542969 64.722656 L 68.839844 64.722656 L 68.488281 64.230469 L 68.136719 64.230469 L 68.136719 64.722656 L 68.488281 65.21875 L 68.839844 65.710938 L 69.191406 66.699219 L 69.191406 65.710938 L 69.542969 66.203125 L 69.894531 66.203125 L 69.894531 65.21875 L 70.242188 65.21875 L 70.59375 66.203125 L 70.59375 66.699219 L 70.945312 66.203125 L 70.945312 65.710938 L 70.59375 64.722656 L 70.945312 64.722656 L 70.945312 65.21875 L 71.296875 65.710938 L 71.648438 65.710938 L 71.648438 66.203125 L 72 66.699219 L 72 67.191406 L 71.296875 67.683594 L 70.945312 68.179688 L 70.242188 68.179688 L 70.242188 68.671875 L 69.894531 68.671875 L 69.894531 69.164062 L 69.542969 69.164062 L 68.488281 70.640625 L 68.136719 70.640625 L 68.136719 71.132812 L 67.433594 71.132812 L 67.433594 70.640625 L 67.082031 70.640625 L 67.082031 71.625 L 66.730469 71.132812 L 66.378906 71.132812 L 66.027344 70.640625 L 66.027344 69.65625 L 65.679688 69.65625 L 65.328125 70.148438 L 64.976562 70.148438 L 64.976562 69.65625 L 64.625 69.65625 L 64.976562 70.148438 L 64.976562 71.132812 L 65.328125 71.625 L 64.625 71.625 L 64.625 72.117188 L 64.273438 71.625 L 64.273438 71.132812 L 63.921875 70.640625 L 63.570312 70.640625 L 63.570312 71.625 L 63.921875 72.117188 L 62.867188 72.117188 L 62.867188 71.132812 L 62.515625 71.132812 L 62.515625 71.625 L 62.164062 71.625 L 62.164062 71.132812 L 61.816406 71.132812 L 61.113281 71.625 L 61.464844 71.625 L 61.816406 72.117188 L 61.816406 72.609375 L 61.464844 73.097656 L 61.464844 73.589844 L 61.113281 73.589844 L 61.113281 74.082031 L 60.761719 74.082031 L 60.410156 73.589844 L 60.410156 73.097656 L 60.058594 73.097656 L 59.707031 73.589844 L 59.003906 74.570312 L 58.652344 74.082031 L 58.300781 73.589844 L 58.652344 72.609375 L 58.652344 72.117188 L 58.300781 72.609375 L 57.953125 73.589844 L 57.953125 74.082031 L 57.601562 73.589844 L 57.601562 73.097656 L 57.953125 72.609375 L 57.953125 72.117188 L 57.601562 72.117188 L 57.601562 72.609375 L 56.898438 72.609375 L 56.898438 73.097656 L 56.546875 73.589844 L 56.195312 73.589844 L 56.546875 74.570312 L 56.898438 74.570312 L 56.546875 75.0625 L 56.195312 75.0625 L 56.195312 75.554688 L 55.84375 76.535156 L 55.84375 77.023438 L 55.492188 76.535156 L 55.492188 75.554688 L 55.84375 75.0625 L 55.492188 75.0625 L 55.492188 75.554688 L 55.140625 75.554688 L 55.140625 76.535156 L 54.789062 76.535156 L 54.789062 74.570312 L 54.4375 74.570312 L 54.4375 75.554688 L 54.085938 75.554688 L 53.738281 75.0625 L 53.738281 75.554688 L 54.4375 76.042969 L 54.4375 77.511719 L 54.085938 77.511719 L 54.085938 77.023438 L 53.738281 77.023438 L 53.738281 77.511719 L 53.035156 78.492188 L 53.035156 78.980469 L 52.683594 78.492188 L 52.683594 78.003906 L 53.035156 77.511719 L 52.683594 77.511719 L 52.683594 78.003906 L 52.332031 77.511719 L 52.332031 76.535156 L 51.980469 76.042969 L 52.332031 75.554688 L 51.980469 75.0625 L 51.628906 75.0625 L 51.628906 74.570312 L 51.277344 74.570312 L 51.277344 75.554688 L 50.925781 75.554688 L 50.574219 74.570312 L 50.574219 74.082031 L 50.222656 74.570312 L 50.222656 75.554688 L 49.523438 74.570312 L 49.523438 74.082031 L 48.46875 74.082031 L 49.171875 74.570312 L 49.523438 75.0625 L 49.171875 75.554688 L 47.765625 75.554688 L 47.765625 76.042969 L 47.414062 76.535156 L 47.0625 77.023438 L 46.710938 77.023438 L 46.710938 75.0625 L 46.359375 75.0625 L 46.359375 74.570312 L 45.660156 74.570312 L 46.007812 75.554688 L 46.007812 77.511719 L 45.660156 77.511719 L 45.660156 76.042969 L 45.308594 76.535156 L 44.957031 77.023438 L 44.605469 77.023438 L 43.902344 76.535156 L 44.253906 77.023438 L 44.253906 77.511719 L 44.605469 78.003906 L 44.253906 78.492188 L 44.253906 79.472656 L 44.957031 79.472656 L 44.957031 80.449219 L 44.605469 80.449219 L 44.957031 80.449219 L 44.957031 80.9375 L 44.605469 80.9375 L 42.847656 79.472656 L 41.796875 79.472656 L 41.09375 78.980469 L 40.742188 78.492188 L 40.039062 78.980469 L 39.6875 78.980469 L 39.6875 78.003906 L 40.039062 78.003906 L 40.390625 77.511719 L 40.390625 78.003906 L 40.742188 78.003906 L 40.742188 77.023438 L 41.09375 76.535156 L 41.445312 77.023438 L 41.796875 77.023438 L 41.445312 76.042969 L 40.742188 76.042969 L 40.742188 76.535156 L 40.390625 77.023438 L 39.6875 77.023438 L 39.6875 76.535156 L 40.039062 76.042969 L 40.390625 75.554688 L 40.390625 75.0625 L 41.09375 73.589844 L 41.09375 73.097656 L 40.039062 73.097656 L 40.039062 73.589844 L 39.6875 75.0625 L 40.039062 75.0625 L 39.6875 75.554688 L 38.984375 75.554688 L 39.335938 75.0625 L 38.984375 75.0625 L 38.632812 75.554688 L 38.28125 76.042969 L 37.230469 76.042969 L 36.878906 76.535156 L 36.878906 77.511719 L 37.582031 78.492188 L 37.582031 78.980469 L 37.230469 79.472656 L 36.527344 79.472656 L 36.175781 80.9375 L 35.824219 80.9375 L 35.472656 82.402344 L 35.472656 82.890625 L 35.121094 83.378906 L 35.121094 84.839844 L 35.472656 84.839844 L 35.472656 85.328125 L 35.121094 85.328125 L 34.769531 85.816406 L 34.417969 85.816406 L 34.066406 86.300781 L 34.066406 86.789062 L 33.015625 86.789062 L 33.015625 87.761719 L 32.664062 88.246094 L 32.3125 88.246094 L 31.960938 88.734375 L 31.960938 87.761719 L 32.664062 86.789062 L 32.3125 86.789062 L 31.257812 87.761719 L 30.90625 88.246094 L 30.90625 87.761719 L 31.257812 87.273438 L 30.203125 87.273438 L 30.203125 86.789062 L 30.554688 86.789062 L 30.203125 86.300781 L 29.855469 86.300781 L 30.203125 85.816406 L 30.554688 85.328125 L 30.203125 85.328125 L 30.203125 85.816406 L 29.503906 85.816406 L 29.503906 86.789062 L 28.800781 86.789062 L 28.800781 87.761719 L 28.097656 89.703125 L 27.746094 90.191406 L 27.394531 90.675781 L 27.394531 89.703125 L 27.042969 89.21875 L 27.042969 90.675781 L 26.691406 90.675781 L 26.691406 90.191406 L 26.339844 89.703125 L 26.691406 89.703125 L 26.691406 87.761719 L 27.394531 86.789062 L 27.042969 86.300781 L 26.691406 86.789062 L 26.691406 87.273438 L 26.339844 87.761719 L 26.339844 88.734375 L 25.992188 88.734375 L 26.339844 89.21875 L 26.339844 91.160156 L 25.992188 91.644531 L 25.992188 90.675781 L 25.289062 90.675781 L 24.9375 90.191406 L 24.585938 89.703125 L 25.289062 89.21875 L 24.9375 89.21875 L 24.9375 88.734375 L 25.640625 88.734375 L 25.289062 88.734375 L 25.289062 88.246094 L 24.9375 88.246094 L 24.9375 87.761719 L 25.289062 86.789062 L 25.640625 86.300781 L 25.289062 86.300781 L 24.9375 86.789062 L 23.53125 89.21875 L 23.179688 89.703125 L 23.53125 89.703125 L 23.53125 90.191406 L 23.882812 90.191406 L 23.53125 90.675781 L 23.53125 91.160156 L 23.882812 90.675781 L 24.234375 90.675781 L 24.234375 91.160156 L 23.53125 92.128906 L 23.53125 92.617188 L 23.179688 92.617188 L 23.179688 91.160156 L 22.828125 91.160156 L 22.828125 89.703125 L 22.476562 89.703125 L 22.476562 86.300781 L 22.828125 85.816406 L 23.179688 85.328125 L 22.828125 85.328125 L 22.828125 85.816406 L 22.125 85.816406 L 21.777344 86.300781 L 21.425781 86.789062 L 21.074219 87.273438 L 21.074219 87.761719 L 21.777344 87.761719 L 21.777344 87.273438 L 22.125 87.273438 L 22.125 88.246094 L 22.476562 90.191406 L 22.476562 91.644531 L 22.828125 92.128906 L 22.828125 93.101562 L 22.476562 93.101562 L 22.476562 93.585938 L 22.125 93.585938 L 22.125 94.070312 L 21.777344 94.070312 L 21.777344 93.101562 L 21.425781 93.101562 L 21.425781 91.644531 L 21.777344 91.644531 L 21.777344 91.160156 L 21.425781 90.675781 L 21.425781 90.191406 L 21.074219 89.703125 L 21.074219 90.191406 L 20.722656 90.191406 L 21.074219 90.675781 L 21.074219 91.644531 L 20.722656 92.128906 L 20.371094 91.644531 L 19.667969 92.617188 L 19.316406 92.617188 L 19.316406 93.585938 L 18.964844 93.585938 L 20.371094 91.160156 L 20.019531 90.675781 L 19.316406 91.644531 L 19.316406 92.617188 L 18.964844 92.617188 L 18.964844 93.101562 L 18.613281 93.101562 L 18.964844 92.617188 L 19.667969 91.160156 L 19.667969 90.675781 L 19.316406 90.675781 L 18.964844 91.160156 L 18.613281 91.160156 L 18.613281 90.675781 L 18.964844 90.675781 L 18.964844 90.191406 L 18.613281 90.191406 L 18.613281 90.675781 L 18.261719 90.675781 L 17.914062 91.160156 L 17.5625 91.160156 L 17.210938 91.644531 L 16.15625 92.617188 L 15.804688 92.617188 L 15.453125 93.585938 L 14.75 94.070312 L 14.75 95.035156 L 14.046875 95.035156 L 14.046875 95.519531 L 15.101562 95.519531 L 15.453125 96.488281 L 15.453125 97.453125 L 15.101562 97.453125 L 14.75 97.9375 L 14.398438 97.9375 L 14.398438 97.453125 L 14.046875 97.453125 L 13.699219 97.9375 L 13.699219 98.417969 L 13.347656 97.9375 L 12.996094 97.9375 L 12.644531 98.417969 L 12.644531 98.902344 L 12.292969 99.382812 L 12.644531 99.867188 L 12.644531 100.347656 L 12.996094 99.867188 L 13.347656 99.867188 L 12.996094 100.347656 L 12.644531 100.832031 L 12.292969 101.3125 L 11.941406 101.3125 L 11.941406 101.792969 L 11.589844 101.792969 L 11.238281 102.277344 L 10.886719 102.277344 L 10.535156 102.757812 L 9.484375 102.757812 L 9.132812 103.71875 L 8.78125 103.71875 L 8.78125 104.679688 L 9.132812 105.640625 L 8.78125 105.640625 L 8.429688 106.121094 L 8.78125 106.601562 L 8.078125 106.601562 L 7.726562 107.5625 L 7.375 108.519531 L 7.023438 109 L 7.023438 108.519531 L 6.671875 108.519531 L 6.320312 108.042969 L 5.972656 108.042969 L 5.972656 109 L 5.269531 108.519531 L 4.917969 107.5625 L 4.566406 107.082031 L 4.566406 104.679688 L 3.160156 103.71875 L 2.808594 102.757812 L 2.105469 102.277344 L 2.105469 101.792969 L 1.757812 101.792969 L 1.757812 100.832031 L 2.105469 100.347656 L 2.105469 94.070312 L 1.757812 92.617188 L 1.757812 87.761719 L 1.40625 86.300781 L 1.40625 80.9375 L 1.054688 79.960938 L 1.054688 74.570312 L 0.703125 73.097656 L 0.703125 66.699219 L 0.351562 65.21875 L 0.351562 59.773438 L 0 58.78125 L 0 54.804688 M 24.9375 92.128906 L 24.585938 91.160156 L 24.585938 90.191406 L 25.289062 90.675781 L 25.289062 91.160156 L 24.9375 91.644531 L 24.9375 92.128906 M 24.9375 87.761719 L 24.9375 88.246094 L 24.585938 88.246094 L 24.234375 89.21875 L 24.234375 90.191406 L 23.882812 90.191406 L 23.882812 89.703125 L 23.53125 89.21875 L 23.882812 89.21875 L 24.234375 88.734375 L 24.234375 88.246094 L 24.585938 87.761719 L 24.9375 87.761719 M 43.550781 84.839844 L 43.550781 86.300781 L 42.496094 86.300781 L 42.496094 85.328125 L 43.199219 84.351562 L 43.550781 84.839844 M 39.6875 83.378906 L 39.335938 83.378906 L 38.984375 83.867188 L 38.632812 83.378906 L 38.28125 83.378906 L 37.933594 83.867188 L 37.582031 84.351562 L 37.582031 83.867188 L 37.933594 83.378906 L 38.632812 82.890625 L 38.984375 82.402344 L 39.6875 82.402344 L 39.6875 83.378906 M 47.0625 82.890625 L 47.0625 83.378906 L 46.359375 83.867188 L 46.359375 83.378906 L 46.007812 82.890625 L 46.007812 83.378906 L 45.308594 83.378906 L 45.308594 82.890625 L 45.660156 82.890625 L 45.660156 82.402344 L 47.0625 82.402344 L 47.0625 82.890625 M 37.933594 80.9375 L 37.582031 80.9375 L 37.933594 80.449219 L 37.933594 79.960938 L 37.582031 79.960938 L 37.582031 79.472656 L 37.933594 79.472656 L 38.28125 78.980469 L 38.632812 79.472656 L 38.28125 79.960938 L 37.933594 80.9375 M 45.660156 78.492188 L 45.660156 78.980469 L 44.957031 78.980469 L 44.957031 77.511719 L 45.308594 77.511719 L 45.308594 78.003906 L 45.660156 78.492188 M 38.984375 77.511719 L 38.984375 78.492188 L 38.632812 78.492188 L 38.28125 78.980469 L 37.933594 78.492188 L 37.933594 78.003906 L 38.28125 77.511719 L 38.632812 77.023438 L 38.984375 77.511719 M 61.816406 75.554688 L 61.464844 76.042969 L 61.113281 75.554688 L 61.113281 75.0625 L 60.761719 74.570312 L 60.761719 74.082031 L 61.464844 74.082031 L 61.464844 74.570312 L 61.816406 75.0625 L 61.816406 75.554688 M 66.730469 71.625 L 66.730469 72.117188 L 66.027344 72.117188 L 66.027344 71.625 L 66.730469 71.625 M 70.945312 64.230469 L 70.945312 63.238281 L 71.648438 64.230469 L 72 64.722656 L 71.296875 64.722656 L 70.945312 64.230469 M 39.335938 84.351562 L 39.6875 84.839844 L 40.390625 84.839844 L 40.390625 85.328125 L 40.039062 85.816406 L 38.984375 85.816406 L 38.984375 84.839844 L 38.632812 84.839844 L 37.933594 84.351562 L 38.28125 83.867188 L 38.632812 83.867188 L 39.335938 84.351562 M 42.847656 80.449219 L 43.199219 80.9375 L 43.199219 81.425781 L 43.550781 81.425781 L 43.199219 81.914062 L 42.496094 81.914062 L 42.847656 82.402344 L 43.199219 82.402344 L 42.496094 82.890625 L 41.445312 82.890625 L 41.445312 81.425781 L 41.796875 81.425781 L 41.796875 80.449219 L 42.144531 80.449219 L 42.496094 79.960938 L 42.847656 80.449219 M 49.875 76.535156 L 49.875 77.023438 L 50.925781 78.003906 L 50.925781 78.980469 L 50.574219 79.472656 L 48.46875 79.472656 L 48.46875 79.960938 L 48.820312 79.960938 L 48.820312 80.9375 L 48.46875 81.425781 L 48.117188 81.425781 L 48.117188 80.9375 L 47.414062 80.9375 L 46.710938 80.449219 L 46.710938 79.960938 L 47.0625 79.960938 L 46.710938 79.472656 L 46.359375 79.472656 L 46.359375 78.980469 L 46.710938 78.980469 L 46.710938 78.003906 L 47.0625 77.511719 L 47.765625 77.511719 L 47.765625 77.023438 L 47.414062 77.023438 L 47.765625 76.535156 L 48.46875 76.042969 L 49.171875 76.042969 L 49.875 76.535156 "/>
</svg>
