<?xml version="1.0" encoding="UTF-8"?>
<svg xmlns="http://www.w3.org/2000/svg" xmlns:xlink="http://www.w3.org/1999/xlink" width="140" height="161" viewBox="0 0 140 161">
<path fill-rule="nonzero" fill="rgb(63.921569%, 38.431373%, 89.019608%)" fill-opacity="1" d="M 103.601562 44.9375 L 103.949219 44.9375 L 104.300781 44.429688 L 104.648438 44.429688 L 105 43.410156 L 106.050781 43.410156 L 107.101562 43.917969 L 108.148438 43.410156 L 108.851562 42.902344 L 109.898438 42.902344 L 110.25 43.410156 L 109.550781 45.445312 L 109.898438 46.460938 L 110.25 46.96875 L 110.601562 47.980469 L 109.199219 47.980469 L 109.199219 47.476562 L 108.5 47.476562 L 108.5 48.996094 L 109.199219 49.503906 L 109.199219 50.007812 L 108.851562 50.007812 L 108.148438 51.019531 L 107.800781 51.019531 L 108.148438 51.527344 L 108.5 52.03125 L 108.851562 52.03125 L 109.550781 51.527344 L 109.898438 52.03125 L 110.25 52.03125 L 110.601562 52.539062 L 111.300781 52.539062 L 111.648438 53.042969 L 111.648438 53.546875 L 111.300781 53.546875 L 111.300781 54.050781 L 111.648438 54.050781 L 112 55.0625 L 112.351562 55.566406 L 113.398438 55.566406 L 113.75 56.070312 L 114.101562 56.070312 L 114.101562 57.078125 L 112.699219 57.078125 L 112.699219 57.582031 L 112 57.582031 L 108.5 56.574219 L 105.351562 56.574219 L 104.300781 56.070312 L 104.300781 57.078125 L 103.601562 56.574219 L 102.898438 56.574219 L 102.898438 56.070312 L 102.550781 55.566406 L 101.851562 55.566406 L 101.5 55.0625 L 100.800781 55.0625 L 100.449219 55.566406 L 100.449219 56.574219 L 100.101562 57.078125 L 99.75 57.078125 L 99.75 58.589844 L 99.398438 59.089844 L 99.75 59.59375 L 100.101562 59.59375 L 99.398438 60.097656 L 98.699219 60.097656 L 98 59.59375 L 97.648438 59.089844 L 97.300781 58.589844 L 96.949219 58.589844 L 96.601562 58.085938 L 96.25 58.085938 L 95.898438 57.078125 L 95.550781 57.078125 L 94.851562 56.070312 L 94.5 56.070312 L 92.75 55.566406 L 91.699219 55.0625 L 91.351562 54.558594 L 89.949219 54.558594 L 89.25 54.050781 L 88.199219 54.050781 L 87.851562 53.546875 L 87.5 53.546875 L 87.148438 54.050781 L 85.398438 54.050781 L 84 55.566406 L 83.648438 56.574219 L 83.300781 57.078125 L 79.101562 57.078125 L 78.75 57.582031 L 78.75 58.589844 L 77.699219 57.582031 L 76.648438 57.078125 L 75.949219 57.078125 L 72.800781 57.582031 L 72.101562 58.589844 L 71.398438 59.59375 L 71.050781 61.101562 L 70.699219 61.605469 L 69.648438 61.605469 L 69.648438 62.105469 L 68.949219 62.609375 L 68.25 62.609375 L 68.25 63.109375 L 67.898438 63.109375 L 67.898438 63.609375 L 67.550781 63.609375 L 67.199219 64.113281 L 66.851562 65.113281 L 66.5 65.113281 L 66.5 66.617188 L 66.148438 66.117188 L 65.800781 66.117188 L 65.449219 65.613281 L 65.101562 65.113281 L 64.75 64.613281 L 65.101562 64.613281 L 65.449219 64.113281 L 65.800781 63.609375 L 65.800781 63.109375 L 66.148438 63.109375 L 66.148438 62.609375 L 66.5 62.105469 L 67.550781 62.105469 L 67.550781 61.605469 L 67.898438 60.097656 L 67.898438 59.59375 L 67.550781 59.089844 L 66.851562 59.59375 L 66.5 59.59375 L 66.148438 60.097656 L 65.800781 60.097656 L 65.449219 60.601562 L 65.101562 60.601562 L 64.398438 60.097656 L 63.351562 60.097656 L 63.699219 60.601562 L 63.699219 61.101562 L 63.351562 61.101562 L 63.351562 61.605469 L 63 61.605469 L 63 62.105469 L 62.648438 62.609375 L 62.300781 63.109375 L 61.949219 63.609375 L 61.25 63.609375 L 60.550781 64.113281 L 60.550781 64.613281 L 60.199219 64.113281 L 60.199219 61.605469 L 59.851562 61.605469 L 59.851562 60.097656 L 60.199219 59.59375 L 60.550781 59.59375 L 60.550781 58.589844 L 60.199219 58.589844 L 59.851562 59.089844 L 59.5 60.097656 L 59.5 60.601562 L 59.148438 60.601562 L 58.800781 61.101562 L 58.449219 62.105469 L 58.449219 63.109375 L 58.101562 64.113281 L 57.75 64.113281 L 57.050781 64.613281 L 56.699219 65.113281 L 56 66.117188 L 55.648438 66.617188 L 54.949219 67.617188 L 54.949219 68.117188 L 54.601562 69.113281 L 54.601562 69.613281 L 54.25 70.113281 L 53.898438 70.113281 L 53.898438 71.113281 L 50.050781 76.585938 L 49.351562 77.082031 L 49.351562 79.066406 L 48.300781 78.570312 L 47.949219 78.074219 L 47.949219 77.578125 L 47.25 77.578125 L 47.25 77.082031 L 46.898438 76.585938 L 46.898438 75.59375 L 47.25 75.59375 L 47.601562 74.597656 L 47.949219 73.601562 L 47.949219 73.105469 L 48.300781 73.105469 L 48.300781 72.109375 L 47.601562 72.109375 L 46.550781 72.605469 L 44.449219 72.605469 L 44.449219 72.109375 L 44.800781 71.609375 L 44.800781 70.613281 L 45.5 70.113281 L 45.5 69.613281 L 45.851562 69.113281 L 45.5 68.117188 L 45.5 67.117188 L 45.851562 67.117188 L 45.851562 66.117188 L 45.5 65.613281 L 45.5 65.113281 L 45.851562 64.613281 L 45.851562 64.113281 L 45.5 64.113281 L 45.148438 63.609375 L 44.800781 63.109375 L 44.449219 63.109375 L 44.449219 62.609375 L 42.699219 62.609375 L 42.699219 62.105469 L 42.351562 62.105469 L 42.351562 61.605469 L 42 61.605469 L 41.648438 62.105469 L 40.949219 62.105469 L 40.949219 61.605469 L 40.601562 61.605469 L 40.25 61.101562 L 40.25 60.601562 L 40.601562 60.097656 L 40.949219 60.097656 L 40.949219 59.59375 L 40.25 58.589844 L 40.25 58.085938 L 39.550781 58.085938 L 39.199219 57.582031 L 38.148438 57.582031 L 37.800781 57.078125 L 36.398438 57.078125 L 36.050781 56.574219 L 33.601562 56.574219 L 33.601562 56.070312 L 31.851562 56.070312 L 31.5 56.574219 L 31.148438 56.574219 L 30.449219 56.070312 L 30.101562 56.070312 L 29.75 55.566406 L 29.398438 55.566406 L 29.050781 56.070312 L 28.699219 56.070312 L 28.699219 55.566406 L 27.300781 55.566406 L 26.25 55.0625 L 25.199219 54.050781 L 24.148438 53.546875 L 23.101562 53.042969 L 22.75 53.042969 L 22.050781 52.539062 L 21.351562 52.539062 L 20.648438 52.03125 L 19.601562 52.03125 L 18.199219 51.527344 L 16.800781 51.019531 L 15.398438 51.019531 L 14 50.515625 L 12.601562 50.007812 L 10.851562 49.503906 L 9.449219 48.996094 L 8.398438 48.996094 L 7.351562 48.488281 L 6.300781 48.488281 L 5.949219 47.980469 L 5.25 47.980469 L 5.25 47.476562 L 4.898438 46.96875 L 4.550781 46.460938 L 4.199219 45.445312 L 3.851562 44.9375 L 3.851562 44.429688 L 3.5 43.917969 L 3.148438 43.917969 L 3.148438 43.410156 L 2.449219 43.410156 L 2.449219 42.902344 L 1.75 42.902344 L 1.398438 42.394531 L 1.050781 42.902344 L 0.351562 42.902344 L 0.351562 42.394531 L 0 41.882812 L 0.351562 41.882812 L 0.699219 41.375 L 1.050781 41.375 L 1.398438 40.867188 L 2.449219 40.867188 L 3.148438 40.355469 L 6.300781 39.335938 L 7 38.824219 L 10.148438 35.757812 L 10.851562 35.246094 L 17.851562 34.734375 L 19.601562 33.710938 L 21 32.6875 L 22.050781 31.148438 L 23.800781 31.148438 L 24.5 30.632812 L 25.550781 30.632812 L 25.550781 30.121094 L 26.25 29.09375 L 26.601562 29.09375 L 26.949219 28.066406 L 27.300781 28.066406 L 30.449219 25.492188 L 30.800781 24.976562 L 31.148438 24.976562 L 31.5 25.492188 L 31.148438 26.519531 L 31.148438 27.035156 L 31.5 27.550781 L 32.199219 28.066406 L 33.25 28.066406 L 33.601562 28.578125 L 33.601562 29.09375 L 33.25 29.609375 L 33.25 30.121094 L 33.949219 30.121094 L 34.300781 30.632812 L 34.648438 31.148438 L 34.648438 32.175781 L 34.300781 32.6875 L 34.300781 33.199219 L 33.949219 33.710938 L 34.300781 34.222656 L 33.949219 34.734375 L 33.949219 35.246094 L 34.300781 36.269531 L 33.949219 36.269531 L 33.949219 36.78125 L 34.648438 36.269531 L 35.699219 34.734375 L 35.351562 34.734375 L 35.699219 34.222656 L 36.398438 34.222656 L 37.101562 33.710938 L 37.449219 33.199219 L 38.148438 32.6875 L 39.199219 32.175781 L 39.199219 31.660156 L 39.898438 31.660156 L 39.550781 32.175781 L 39.199219 32.6875 L 38.148438 33.199219 L 37.800781 34.222656 L 37.449219 34.734375 L 37.101562 35.246094 L 37.449219 35.246094 L 38.148438 34.734375 L 38.5 34.222656 L 38.5 33.710938 L 38.851562 33.199219 L 40.25 33.199219 L 41.300781 32.6875 L 44.101562 33.199219 L 45.851562 33.710938 L 46.199219 33.710938 L 46.199219 34.222656 L 46.898438 34.222656 L 46.898438 34.734375 L 47.25 35.246094 L 47.601562 35.246094 L 47.949219 34.734375 L 48.300781 35.757812 L 49 35.757812 L 49 36.269531 L 49.351562 37.292969 L 49.699219 37.292969 L 50.398438 38.316406 L 50.75 38.824219 L 51.101562 39.335938 L 51.449219 39.84375 L 51.800781 40.355469 L 51.800781 40.867188 L 52.851562 41.375 L 53.199219 42.902344 L 53.199219 43.410156 L 53.898438 43.410156 L 56 43.917969 L 56.699219 43.410156 L 58.101562 43.410156 L 58.449219 42.902344 L 59.148438 42.902344 L 59.5 42.394531 L 59.851562 42.394531 L 60.199219 42.902344 L 60.550781 42.902344 L 60.550781 43.410156 L 60.898438 44.429688 L 61.601562 44.429688 L 61.949219 44.9375 L 62.648438 44.9375 L 63 44.429688 L 63.699219 43.917969 L 64.050781 43.917969 L 64.398438 44.429688 L 64.75 44.9375 L 65.800781 44.9375 L 65.800781 45.445312 L 66.5 45.445312 L 66.851562 44.9375 L 67.898438 43.410156 L 68.949219 42.394531 L 69.648438 42.394531 L 70.351562 41.882812 L 72.449219 40.867188 L 74.898438 38.824219 L 75.25 39.335938 L 75.601562 39.335938 L 78.75 38.824219 L 79.101562 38.316406 L 79.101562 38.824219 L 79.800781 38.824219 L 85.75 39.335938 L 86.449219 39.335938 L 89.601562 37.292969 L 91.351562 36.78125 L 95.550781 36.78125 L 95.550781 37.292969 L 94.851562 37.292969 L 94.851562 37.804688 L 94.5 38.316406 L 94.148438 41.375 L 94.5 41.882812 L 94.5 42.394531 L 93.800781 42.902344 L 94.148438 43.410156 L 94.148438 43.917969 L 95.898438 43.917969 L 96.25 44.429688 L 96.949219 44.429688 L 97.648438 44.9375 L 99.398438 44.9375 L 99.75 44.429688 L 100.449219 43.917969 L 100.800781 43.917969 L 101.5 44.429688 L 101.851562 44.9375 L 101.851562 45.445312 L 102.550781 45.953125 L 103.25 45.953125 L 103.601562 45.445312 L 103.601562 44.9375 M 140 129.734375 L 140 130.691406 L 139.648438 131.167969 L 139.300781 132.125 L 139.300781 133.558594 L 138.949219 134.035156 L 138.949219 136.898438 L 138.25 138.800781 L 138.25 139.277344 L 137.898438 139.753906 L 137.199219 140.230469 L 136.851562 140.703125 L 136.148438 140.703125 L 136.851562 140.230469 L 136.5 140.230469 L 136.148438 139.753906 L 136.5 139.277344 L 136.148438 138.800781 L 136.148438 137.851562 L 135.800781 137.851562 L 135.101562 137.375 L 134.75 137.851562 L 134.398438 137.851562 L 134.050781 138.328125 L 133 138.328125 L 133 138.800781 L 133.351562 139.277344 L 133.699219 139.753906 L 133.699219 140.230469 L 133.351562 140.230469 L 132.300781 140.703125 L 131.949219 141.179688 L 131.949219 142.605469 L 132.300781 143.078125 L 131.949219 143.554688 L 131.949219 144.5 L 131.601562 144.976562 L 131.25 144.976562 L 130.898438 145.449219 L 130.199219 145.449219 L 129.148438 145.921875 L 128.800781 146.394531 L 128.449219 146.871094 L 127.75 147.816406 L 127.398438 148.289062 L 126.699219 151.121094 L 126.351562 151.59375 L 126.699219 151.59375 L 126.351562 152.066406 L 126.351562 152.539062 L 126.699219 152.539062 L 126.699219 153.480469 L 126.351562 153.007812 L 126 153.953125 L 125.648438 154.421875 L 125.300781 154.421875 L 125.300781 155.363281 L 124.601562 155.363281 L 124.25 155.835938 L 123.898438 156.773438 L 123.199219 156.773438 L 122.5 158.183594 L 122.5 159.59375 L 121.800781 159.59375 L 121.800781 160.0625 L 120.050781 160.53125 L 108.5 160.53125 L 107.101562 161 L 98.351562 161 L 98.351562 159.59375 L 62.648438 159.59375 L 63.351562 159.125 L 63.699219 159.125 L 63.699219 158.652344 L 64.75 158.183594 L 66.851562 155.363281 L 68.601562 151.121094 L 70.699219 147.816406 L 72.101562 144.5 L 72.449219 142.605469 L 73.5 137.375 L 73.5 131.167969 L 73.148438 130.691406 L 73.148438 130.210938 L 73.5 130.210938 L 73.148438 129.734375 L 72.800781 129.253906 L 72.800781 128.777344 L 72.449219 127.816406 L 71.75 125.417969 L 71.75 124.9375 L 72.101562 124.457031 L 72.449219 124.457031 L 72.800781 123.976562 L 72.800781 123.496094 L 71.75 123.976562 L 71.398438 124.457031 L 71.050781 123.976562 L 68.601562 117.234375 L 68.25 116.265625 L 67.898438 115.785156 L 67.898438 114.332031 L 68.25 113.363281 L 69.300781 111.910156 L 69.648438 111.425781 L 69.648438 110.457031 L 69.300781 108.515625 L 69.300781 106.570312 L 68.949219 106.082031 L 68.25 105.597656 L 68.25 104.136719 L 68.949219 103.160156 L 70 102.1875 L 70.699219 101.210938 L 71.398438 99.253906 L 72.101562 97.789062 L 72.800781 96.808594 L 72.800781 93.375 L 73.148438 91.902344 L 73.148438 90.425781 L 72.800781 89.9375 L 72.800781 88.457031 L 73.5 87.964844 L 74.199219 87.964844 L 74.550781 87.472656 L 74.898438 87.964844 L 75.601562 87.964844 L 75.601562 87.472656 L 75.949219 87.472656 L 75.949219 83.523438 L 77.699219 83.523438 L 78.050781 82.535156 L 78.050781 82.039062 L 79.101562 82.039062 L 79.800781 82.535156 L 80.148438 83.03125 L 80.148438 82.535156 L 80.5 82.535156 L 81.550781 80.554688 L 81.550781 79.5625 L 82.601562 79.066406 L 82.601562 78.570312 L 83.648438 77.082031 L 84 76.585938 L 84.351562 76.585938 L 85.050781 76.089844 L 85.398438 76.089844 L 85.398438 76.585938 L 85.050781 77.082031 L 85.050781 77.578125 L 84.699219 77.578125 L 84.351562 78.074219 L 84.351562 78.570312 L 84.699219 79.5625 L 84.699219 80.058594 L 84.351562 80.554688 L 83.648438 81.546875 L 83.648438 82.039062 L 84 81.546875 L 84 82.039062 L 84.351562 82.039062 L 84.351562 83.03125 L 83.648438 84.511719 L 83.300781 85.007812 L 83.300781 85.5 L 83.648438 86.488281 L 84 86.488281 L 84 86.980469 L 84.351562 86.488281 L 84.351562 85.992188 L 84.699219 85.992188 L 84.699219 84.511719 L 85.050781 84.019531 L 85.398438 83.523438 L 85.398438 82.039062 L 85.75 82.039062 L 85.75 81.546875 L 86.449219 81.546875 L 86.449219 82.039062 L 86.101562 82.535156 L 86.101562 84.511719 L 85.75 85.007812 L 85.398438 85.5 L 85.050781 85.992188 L 85.050781 87.472656 L 85.398438 87.472656 L 85.398438 86.980469 L 86.800781 85.007812 L 87.5 83.03125 L 87.851562 81.546875 L 88.199219 79.066406 L 87.851562 76.089844 L 87.851562 75.09375 L 88.550781 74.101562 L 88.898438 73.601562 L 91.699219 72.109375 L 95.199219 72.109375 L 95.898438 71.609375 L 96.25 71.113281 L 95.898438 71.113281 L 94.5 70.613281 L 94.148438 70.613281 L 93.800781 69.613281 L 93.449219 69.113281 L 93.101562 68.617188 L 92.75 67.617188 L 93.101562 66.617188 L 93.449219 65.613281 L 93.800781 65.113281 L 94.851562 64.613281 L 95.550781 63.609375 L 95.898438 63.109375 L 95.199219 62.609375 L 94.851562 62.105469 L 95.550781 62.609375 L 98 62.609375 L 98.351562 62.105469 L 98.699219 61.605469 L 99.398438 61.605469 L 100.101562 62.105469 L 102.199219 63.109375 L 103.601562 64.613281 L 106.75 64.613281 L 107.800781 65.113281 L 108.5 65.613281 L 108.851562 66.117188 L 109.550781 66.617188 L 109.898438 67.117188 L 109.898438 68.617188 L 110.25 68.617188 L 110.601562 69.113281 L 113.398438 69.113281 L 114.101562 69.613281 L 114.800781 70.113281 L 115.148438 70.613281 L 115.851562 70.613281 L 116.199219 71.113281 L 117.601562 71.113281 L 117.949219 72.109375 L 118.648438 72.109375 L 119.351562 72.605469 L 120.75 72.605469 L 121.800781 73.105469 L 122.5 73.601562 L 123.199219 74.597656 L 122.851562 75.09375 L 122.5 75.59375 L 122.851562 75.59375 L 122.851562 76.089844 L 123.550781 77.082031 L 123.898438 77.578125 L 124.25 77.578125 L 124.601562 78.570312 L 124.601562 79.066406 L 124.25 79.066406 L 124.25 79.5625 L 124.949219 80.058594 L 125.300781 80.554688 L 123.898438 80.554688 L 123.898438 80.058594 L 123.199219 79.5625 L 122.5 79.5625 L 122.148438 80.058594 L 122.148438 81.050781 L 121.800781 81.050781 L 121.800781 81.546875 L 122.148438 81.546875 L 122.148438 82.535156 L 122.5 83.03125 L 122.851562 83.523438 L 123.199219 83.523438 L 123.550781 84.019531 L 123.898438 84.019531 L 123.898438 84.511719 L 124.25 85.007812 L 124.601562 85.5 L 124.601562 87.472656 L 124.949219 88.457031 L 124.949219 88.949219 L 124.601562 89.445312 L 124.25 90.425781 L 124.25 97.296875 L 123.898438 97.296875 L 123.898438 97.789062 L 123.550781 98.277344 L 122.851562 98.277344 L 121.800781 99.742188 L 121.800781 99.253906 L 121.101562 99.253906 L 120.398438 99.742188 L 120.050781 100.234375 L 120.050781 103.160156 L 119.699219 103.648438 L 119.351562 103.648438 L 119.351562 104.136719 L 119.699219 104.136719 L 119.351562 104.625 L 118.300781 104.625 L 117.949219 105.109375 L 117.601562 106.082031 L 117.25 106.082031 L 116.898438 105.597656 L 116.898438 106.082031 L 115.5 106.082031 L 114.800781 106.570312 L 114.449219 107.058594 L 113.75 109 L 114.101562 109.484375 L 113.75 109.484375 L 113.398438 109.972656 L 113.398438 112.878906 L 114.101562 113.847656 L 114.449219 113.847656 L 115.148438 114.332031 L 115.5 114.816406 L 116.550781 114.816406 L 117.949219 115.785156 L 118.648438 115.300781 L 119.351562 114.332031 L 120.398438 112.878906 L 120.75 112.394531 L 120.75 113.363281 L 121.101562 113.363281 L 121.449219 112.878906 L 121.800781 111.910156 L 122.851562 110.457031 L 122.851562 109.972656 L 123.199219 109.484375 L 123.199219 109 L 123.898438 108.515625 L 123.898438 108.027344 L 122.851562 108.027344 L 124.25 107.542969 L 124.601562 107.542969 L 125.300781 106.570312 L 125.648438 106.570312 L 127.050781 106.082031 L 127.398438 106.082031 L 127.75 105.597656 L 128.800781 105.597656 L 129.148438 104.625 L 129.5 104.625 L 130.550781 104.136719 L 130.898438 104.136719 L 131.25 104.625 L 133 105.597656 L 133.699219 106.082031 L 134.398438 106.570312 L 135.449219 108.027344 L 135.449219 109 L 136.148438 110.457031 L 137.199219 117.714844 L 137.898438 119.164062 L 138.25 123.496094 L 138.949219 127.816406 L 139.300781 127.816406 L 139.300781 128.296875 L 139.648438 129.253906 L 140 129.734375 M 31.148438 4.195312 L 30.449219 4.71875 L 25.898438 6.808594 L 25.550781 6.808594 L 25.199219 7.332031 L 24.851562 7.855469 L 26.25 7.855469 L 25.550781 7.855469 L 22.398438 9.417969 L 21.699219 9.417969 L 21.351562 8.898438 L 21 8.898438 L 21.351562 8.375 L 21.351562 7.855469 L 22.050781 7.332031 L 21.699219 7.855469 L 21.351562 7.855469 L 21 7.332031 L 22.75 6.289062 L 25.199219 4.71875 L 25.898438 4.195312 L 26.949219 4.195312 L 27.300781 3.671875 L 27.648438 3.671875 L 28.699219 3.148438 L 29.398438 2.625 L 30.101562 2.097656 L 30.101562 2.625 L 31.148438 1.574219 L 31.5 1.574219 L 32.199219 1.050781 L 32.199219 1.574219 L 32.550781 1.050781 L 33.949219 0 L 33.601562 0.523438 L 33.601562 1.050781 L 33.949219 1.050781 L 34.300781 0.523438 L 33.949219 1.050781 L 33.601562 1.574219 L 32.199219 2.097656 L 31.851562 2.625 L 31.851562 3.671875 L 31.148438 4.195312 M 66.851562 44.429688 L 66.5 44.9375 L 66.148438 44.429688 L 65.449219 44.429688 L 65.449219 43.917969 L 65.101562 43.410156 L 65.101562 42.394531 L 65.449219 42.394531 L 65.800781 41.882812 L 66.148438 42.394531 L 66.5 42.394531 L 66.5 42.902344 L 66.148438 43.410156 L 66.148438 43.917969 L 66.851562 43.917969 L 66.851562 44.429688 M 47.25 20.328125 L 46.898438 20.328125 L 46.199219 20.84375 L 44.800781 20.84375 L 44.449219 20.328125 L 44.101562 20.84375 L 42 20.84375 L 41.648438 21.363281 L 42.351562 21.363281 L 43.050781 21.878906 L 43.398438 21.878906 L 42 22.910156 L 41.648438 22.910156 L 41.300781 23.425781 L 40.949219 23.945312 L 40.25 24.460938 L 39.550781 25.492188 L 38.5 25.492188 L 38.5 26.007812 L 38.148438 26.519531 L 38.148438 27.550781 L 37.449219 27.550781 L 37.449219 28.066406 L 37.101562 28.066406 L 36.398438 28.578125 L 35.699219 30.121094 L 35.351562 30.632812 L 35.351562 31.148438 L 35 31.148438 L 33.949219 29.609375 L 33.949219 29.09375 L 34.300781 29.09375 L 34.648438 28.578125 L 35 28.066406 L 35.351562 27.550781 L 35.351562 26.007812 L 35 26.007812 L 34.648438 26.519531 L 34.300781 27.035156 L 34.300781 27.550781 L 34.648438 27.035156 L 35 27.550781 L 35 28.066406 L 34.648438 28.066406 L 33.949219 28.578125 L 33.949219 28.066406 L 33.601562 28.066406 L 33.25 27.550781 L 31.851562 27.550781 L 31.5 27.035156 L 31.5 25.492188 L 31.851562 24.976562 L 32.199219 24.460938 L 32.898438 23.945312 L 33.25 23.945312 L 34.648438 21.363281 L 35.351562 21.363281 L 36.75 20.328125 L 37.101562 19.808594 L 37.800781 19.808594 L 38.148438 20.328125 L 38.148438 19.808594 L 38.5 19.808594 L 38.851562 19.292969 L 39.898438 18.773438 L 45.851562 18.773438 L 46.550781 19.292969 L 46.898438 19.292969 L 47.25 19.808594 L 47.25 20.328125 M 86.449219 65.613281 L 86.101562 66.117188 L 85.398438 66.617188 L 84.351562 66.617188 L 84 66.117188 L 84 65.613281 L 84.351562 65.113281 L 84.351562 64.113281 L 84.699219 64.113281 L 84.699219 63.609375 L 85.050781 63.609375 L 85.050781 62.105469 L 86.101562 62.105469 L 86.449219 62.609375 L 86.101562 62.609375 L 86.101562 64.613281 L 86.449219 65.113281 L 86.449219 65.613281 M 87.148438 61.605469 L 86.101562 61.605469 L 85.75 61.101562 L 85.75 60.601562 L 86.101562 60.601562 L 86.449219 61.101562 L 87.148438 61.101562 L 87.148438 61.605469 M 80.148438 71.609375 L 79.449219 70.113281 L 79.800781 70.613281 L 80.148438 70.613281 L 80.5 71.113281 L 80.148438 71.609375 M 121.449219 56.574219 L 120.75 58.085938 L 120.398438 58.085938 L 120.050781 58.589844 L 119.351562 58.085938 L 119 58.085938 L 118.300781 57.582031 L 117.949219 57.582031 L 117.601562 58.085938 L 116.898438 58.085938 L 116.898438 57.582031 L 116.199219 57.582031 L 116.199219 58.085938 L 115.851562 58.085938 L 115.851562 57.582031 L 115.148438 57.582031 L 115.148438 57.078125 L 114.800781 56.574219 L 114.449219 57.078125 L 114.449219 56.574219 L 114.800781 56.070312 L 115.148438 56.070312 L 115.5 56.574219 L 115.851562 56.574219 L 116.199219 56.070312 L 116.898438 56.070312 L 117.25 55.566406 L 117.601562 55.566406 L 117.949219 55.0625 L 117.949219 54.558594 L 117.601562 54.558594 L 117.25 54.050781 L 117.949219 53.546875 L 119 54.050781 L 119.699219 54.050781 L 120.050781 54.558594 L 120.050781 55.0625 L 120.398438 56.070312 L 121.101562 56.070312 L 121.449219 56.574219 M 105.699219 57.582031 L 105.351562 57.582031 L 105 57.078125 L 104.648438 57.078125 L 104.648438 56.574219 L 105.699219 56.574219 L 105.699219 57.078125 L 106.050781 57.078125 L 106.398438 57.582031 L 105.699219 57.582031 M 106.050781 62.105469 L 105.699219 63.109375 L 103.949219 63.109375 L 103.25 62.105469 L 102.550781 61.605469 L 102.199219 61.101562 L 104.300781 61.101562 L 104.648438 61.605469 L 105 61.605469 L 105 61.101562 L 105.351562 61.101562 L 105.351562 61.605469 L 105.699219 61.605469 L 106.050781 62.105469 M 75.601562 80.554688 L 75.601562 81.050781 L 75.25 81.546875 L 74.898438 81.050781 L 74.550781 81.050781 L 74.898438 80.554688 L 75.25 80.058594 L 75.601562 80.058594 L 75.601562 80.554688 L 75.949219 80.554688 L 75.601562 80.554688 M 77.699219 79.5625 L 77 79.5625 L 76.300781 78.074219 L 76.648438 77.578125 L 77.351562 77.578125 L 77.699219 78.074219 L 77.699219 79.5625 M 110.25 50.515625 L 109.898438 50.515625 L 109.550781 50.007812 L 109.199219 49.503906 L 108.851562 48.996094 L 108.851562 48.488281 L 109.199219 47.980469 L 109.550781 47.980469 L 109.898438 48.488281 L 110.601562 49.503906 L 110.25 50.515625 M 127.398438 151.59375 L 127.050781 151.59375 L 127.050781 149.707031 L 127.398438 149.234375 L 127.398438 151.59375 "/>
</svg>
