<?xml version="1.0" encoding="UTF-8"?>
<svg xmlns="http://www.w3.org/2000/svg" xmlns:xlink="http://www.w3.org/1999/xlink" width="133" height="149" viewBox="0 0 133 149">
<path fill-rule="nonzero" fill="rgb(63.921569%, 38.431373%, 89.019608%)" fill-opacity="1" d="M 0 9.636719 L 35.957031 9.636719 L 35.957031 0 L 39.097656 0 L 40.144531 0.539062 L 41.191406 1.074219 L 41.539062 1.609375 L 41.890625 1.609375 L 41.890625 3.757812 L 42.238281 3.757812 L 41.890625 5.363281 L 42.238281 5.898438 L 42.238281 6.433594 L 42.9375 9.105469 L 43.636719 11.769531 L 43.636719 14.960938 L 43.984375 14.960938 L 44.332031 15.492188 L 45.730469 17.085938 L 47.125 17.617188 L 47.824219 17.617188 L 50.617188 17.085938 L 50.964844 17.085938 L 51.316406 17.617188 L 51.664062 17.617188 L 51.664062 18.675781 L 52.011719 18.675781 L 55.503906 19.207031 L 58.296875 19.207031 L 58.996094 19.734375 L 59.691406 21.851562 L 60.042969 22.382812 L 60.390625 22.382812 L 62.835938 21.851562 L 63.183594 22.382812 L 63.882812 21.851562 L 64.929688 21.851562 L 65.628906 21.324219 L 65.628906 20.265625 L 66.324219 20.265625 L 67.023438 19.734375 L 69.117188 19.207031 L 71.210938 19.734375 L 74.355469 19.734375 L 75.75 20.792969 L 78.542969 21.851562 L 79.941406 21.851562 L 79.941406 22.382812 L 80.289062 22.910156 L 79.941406 22.910156 L 78.890625 23.4375 L 78.542969 23.4375 L 78.542969 23.964844 L 78.890625 24.492188 L 82.382812 24.492188 L 82.730469 25.019531 L 83.082031 25.546875 L 83.082031 27.65625 L 83.78125 28.707031 L 84.476562 29.757812 L 84.476562 30.285156 L 85.523438 30.285156 L 85.875 29.757812 L 85.875 27.65625 L 86.222656 27.128906 L 86.570312 27.128906 L 88.316406 26.601562 L 89.714844 27.128906 L 90.410156 27.128906 L 90.410156 27.65625 L 90.761719 28.707031 L 91.109375 29.234375 L 91.109375 29.757812 L 91.460938 29.757812 L 91.808594 30.285156 L 93.554688 30.808594 L 95.300781 31.335938 L 95.648438 31.335938 L 95.996094 31.859375 L 96.347656 32.382812 L 95.996094 32.90625 L 96.347656 33.433594 L 97.742188 33.957031 L 98.09375 33.433594 L 98.441406 33.957031 L 98.441406 35.003906 L 100.1875 34.480469 L 100.535156 35.003906 L 101.234375 35.003906 L 102.28125 34.480469 L 103.675781 34.480469 L 105.074219 33.433594 L 107.167969 31.335938 L 108.214844 31.335938 L 108.5625 30.808594 L 109.960938 30.285156 L 110.660156 29.757812 L 111.355469 30.285156 L 111.355469 31.335938 L 111.707031 31.859375 L 112.054688 32.382812 L 112.054688 32.90625 L 112.402344 33.433594 L 112.753906 33.957031 L 113.800781 33.957031 L 115.195312 33.433594 L 115.894531 33.433594 L 116.242188 33.957031 L 116.59375 33.957031 L 117.292969 33.433594 L 117.640625 33.433594 L 117.640625 33.957031 L 122.875 32.90625 L 123.925781 32.90625 L 124.621094 33.433594 L 124.972656 33.433594 L 126.019531 35.527344 L 126.367188 35.527344 L 127.414062 36.574219 L 127.765625 36.574219 L 129.507812 35.527344 L 130.554688 35.527344 L 130.90625 36.050781 L 133 36.050781 L 132.300781 36.050781 L 131.953125 36.574219 L 131.253906 37.097656 L 130.90625 37.617188 L 130.554688 37.617188 L 124.621094 40.75 L 121.132812 42.3125 L 120.433594 42.3125 L 120.085938 42.832031 L 119.035156 42.832031 L 116.59375 43.355469 L 112.054688 45.953125 L 109.613281 48.546875 L 108.214844 49.066406 L 104.027344 54.234375 L 99.488281 58.871094 L 98.441406 59.386719 L 98.09375 59.902344 L 97.742188 60.414062 L 97.394531 60.414062 L 97.394531 60.929688 L 97.042969 60.929688 L 95.996094 61.957031 L 95.648438 61.957031 L 94.601562 62.980469 L 93.554688 64.007812 L 92.855469 64.007812 L 91.808594 65.03125 L 90.410156 66.054688 L 89.363281 67.078125 L 89.015625 67.589844 L 89.015625 68.101562 L 88.667969 68.101562 L 88.667969 68.609375 L 88.316406 69.121094 L 87.621094 69.121094 L 87.621094 70.652344 L 85.875 70.652344 L 85.875 85.363281 L 85.523438 85.363281 L 85.175781 85.867188 L 85.175781 86.371094 L 84.828125 86.371094 L 84.828125 86.875 L 84.476562 86.875 L 83.78125 86.371094 L 83.429688 86.875 L 83.082031 87.378906 L 82.035156 87.378906 L 81.683594 87.882812 L 81.335938 88.386719 L 80.636719 88.386719 L 79.589844 89.394531 L 78.890625 89.394531 L 78.195312 90.398438 L 77.496094 91.40625 L 77.84375 92.410156 L 77.148438 92.910156 L 75.75 94.417969 L 75.402344 94.917969 L 75.402344 96.921875 L 75.75 97.921875 L 76.449219 98.421875 L 77.84375 98.421875 L 78.195312 98.921875 L 78.542969 99.921875 L 78.890625 100.417969 L 79.242188 100.917969 L 79.589844 101.417969 L 79.589844 102.414062 L 78.890625 102.914062 L 78.890625 103.910156 L 78.542969 104.40625 L 78.195312 104.40625 L 77.84375 104.90625 L 77.84375 106.894531 L 77.496094 107.390625 L 77.496094 107.886719 L 77.84375 107.886719 L 77.84375 108.878906 L 78.195312 109.375 L 77.84375 109.871094 L 77.496094 110.367188 L 77.148438 110.367188 L 77.148438 110.863281 L 77.496094 111.855469 L 77.84375 113.339844 L 77.84375 114.328125 L 77.496094 114.820312 L 77.496094 116.796875 L 76.796875 118.277344 L 77.148438 118.769531 L 78.195312 119.261719 L 79.589844 120.738281 L 79.941406 120.738281 L 79.941406 121.230469 L 80.289062 121.722656 L 80.988281 122.214844 L 83.78125 122.707031 L 84.128906 122.707031 L 84.828125 123.199219 L 85.175781 123.6875 L 85.875 124.671875 L 85.875 125.160156 L 86.222656 125.160156 L 86.222656 125.652344 L 88.316406 125.652344 L 89.363281 126.140625 L 91.808594 128.589844 L 92.507812 130.058594 L 93.902344 132.5 L 94.253906 132.988281 L 94.949219 133.476562 L 97.042969 134.9375 L 97.042969 135.425781 L 99.140625 135.425781 L 100.1875 136.398438 L 101.582031 136.398438 L 101.582031 137.371094 L 102.28125 137.859375 L 102.28125 138.34375 L 102.980469 138.34375 L 103.328125 138.832031 L 103.675781 139.316406 L 103.675781 141.742188 L 104.027344 142.230469 L 104.375 142.714844 L 104.375 143.683594 L 104.027344 145.132812 L 104.375 145.617188 L 104.375 146.101562 L 104.027344 147.070312 L 104.375 147.550781 L 104.375 148.515625 L 104.027344 149 L 13.265625 149 L 13.265625 104.90625 L 12.566406 103.910156 L 12.566406 103.410156 L 12.21875 103.410156 L 11.867188 102.914062 L 11.519531 102.414062 L 9.425781 102.414062 L 9.074219 101.917969 L 8.378906 100.917969 L 8.027344 99.421875 L 7.679688 98.921875 L 6.632812 97.921875 L 6.285156 97.421875 L 6.285156 96.921875 L 6.632812 96.421875 L 6.980469 95.917969 L 7.332031 95.417969 L 8.027344 94.917969 L 9.425781 94.417969 L 9.773438 93.914062 L 10.125 93.414062 L 10.820312 91.90625 L 11.171875 91.40625 L 11.171875 89.394531 L 11.519531 89.394531 L 11.519531 88.890625 L 11.171875 86.875 L 11.171875 86.371094 L 11.519531 85.867188 L 11.519531 82.839844 L 11.171875 82.332031 L 10.820312 82.332031 L 10.820312 79.292969 L 10.472656 78.789062 L 9.773438 78.28125 L 9.074219 76.25 L 8.726562 76.25 L 8.726562 75.234375 L 8.378906 74.726562 L 8.378906 72.691406 L 8.027344 72.179688 L 7.332031 71.164062 L 7.332031 70.652344 L 7.679688 69.632812 L 7.679688 68.609375 L 7.332031 67.589844 L 7.332031 66.566406 L 7.679688 66.566406 L 7.679688 65.03125 L 8.027344 64.519531 L 8.027344 63.496094 L 7.332031 63.496094 L 7.332031 62.980469 L 6.980469 62.46875 L 6.980469 59.902344 L 6.632812 58.871094 L 6.632812 57.84375 L 6.980469 57.84375 L 6.632812 57.328125 L 6.632812 51.652344 L 6.285156 51.652344 L 6.285156 46.472656 L 5.933594 45.953125 L 5.933594 45.433594 L 5.585938 44.394531 L 5.585938 43.875 L 5.234375 43.355469 L 4.886719 42.832031 L 4.886719 42.3125 L 4.539062 41.792969 L 4.1875 41.269531 L 4.1875 40.75 L 3.492188 39.183594 L 3.492188 38.664062 L 3.839844 38.140625 L 3.140625 37.097656 L 2.792969 36.574219 L 2.792969 35.527344 L 2.09375 33.433594 L 1.746094 32.382812 L 1.746094 27.65625 L 1.394531 26.074219 L 1.746094 25.546875 L 1.746094 24.492188 L 1.394531 23.4375 L 1.046875 21.851562 L 1.394531 20.792969 L 1.746094 19.734375 L 2.09375 18.675781 L 2.09375 17.617188 L 1.394531 16.554688 L 1.394531 15.492188 L 0.699219 13.898438 L 0.699219 12.835938 L 0.347656 12.835938 L 0.347656 11.769531 L 0 11.238281 L 0 9.636719 "/>
</svg>
