<?xml version="1.0" encoding="UTF-8"?>
<svg xmlns="http://www.w3.org/2000/svg" xmlns:xlink="http://www.w3.org/1999/xlink" width="116" height="103" viewBox="0 0 116 103">
<path fill-rule="nonzero" fill="rgb(63.921569%, 38.431373%, 89.019608%)" fill-opacity="1" d="M 8.011719 14.15625 L 7.664062 13.699219 L 7.316406 13.699219 L 6.617188 13.246094 L 6.269531 13.246094 L 6.269531 12.335938 L 6.617188 11.882812 L 6.617188 11.425781 L 5.921875 10.96875 L 5.921875 10.515625 L 5.226562 9.601562 L 5.574219 9.148438 L 5.574219 8.691406 L 5.226562 8.691406 L 4.875 8.234375 L 4.179688 8.234375 L 3.484375 7.320312 L 3.136719 6.867188 L 2.785156 6.867188 L 2.4375 7.320312 L 2.4375 6.867188 L 2.089844 6.867188 L 2.4375 6.410156 L 2.4375 5.496094 L 2.089844 5.039062 L 2.089844 4.125 L 1.742188 3.664062 L 1.394531 3.207031 L 1.394531 2.292969 L 1.046875 2.292969 L 0.695312 1.832031 L 0.347656 1.832031 L 0 0.917969 L 0.347656 0.457031 L 6.96875 0.457031 L 9.058594 0.917969 L 50.164062 0.917969 L 53.296875 0.457031 L 66.882812 0.457031 L 68.625 0 L 70.367188 0 L 70.714844 0.457031 L 71.0625 0.457031 L 71.0625 1.375 L 71.410156 1.375 L 71.410156 1.832031 L 71.757812 1.832031 L 72.457031 2.292969 L 72.457031 2.75 L 73.152344 2.75 L 73.152344 3.207031 L 73.5 3.207031 L 73.851562 3.664062 L 73.851562 4.125 L 74.199219 4.125 L 74.546875 5.039062 L 74.894531 5.039062 L 75.242188 5.496094 L 75.589844 5.496094 L 74.894531 5.953125 L 74.546875 6.867188 L 74.199219 8.234375 L 74.199219 10.058594 L 74.546875 14.15625 L 74.894531 14.15625 L 74.894531 14.609375 L 75.242188 15.0625 L 75.589844 15.519531 L 75.589844 16.425781 L 75.242188 16.878906 L 75.589844 17.335938 L 75.589844 17.789062 L 75.941406 17.789062 L 76.289062 18.242188 L 76.289062 18.695312 L 76.636719 18.695312 L 76.636719 20.054688 L 76.984375 20.507812 L 81.511719 24.574219 L 81.863281 25.027344 L 81.863281 25.929688 L 82.210938 26.378906 L 86.390625 29.535156 L 87.085938 30.433594 L 87.785156 31.332031 L 87.785156 31.78125 L 88.132812 32.230469 L 88.132812 32.679688 L 87.785156 33.128906 L 88.480469 34.027344 L 88.480469 34.476562 L 88.132812 34.925781 L 88.132812 35.375 L 88.480469 35.824219 L 88.480469 36.71875 L 89.175781 38.511719 L 89.875 38.957031 L 90.570312 39.40625 L 91.265625 38.957031 L 92.3125 37.613281 L 93.707031 37.613281 L 94.054688 38.0625 L 94.75 38.0625 L 95.796875 38.511719 L 97.539062 39.40625 L 98.234375 39.851562 L 98.582031 40.300781 L 98.234375 40.746094 L 97.886719 41.640625 L 97.539062 42.085938 L 97.1875 42.53125 L 97.1875 44.761719 L 96.839844 45.65625 L 96.144531 46.992188 L 95.097656 49.214844 L 94.402344 50.992188 L 94.054688 51.4375 L 94.054688 53.210938 L 94.402344 53.65625 L 94.402344 54.097656 L 94.75 54.539062 L 95.449219 55.425781 L 95.796875 55.425781 L 96.144531 55.871094 L 96.144531 56.3125 L 96.492188 56.3125 L 96.839844 56.753906 L 97.539062 57.195312 L 97.886719 57.640625 L 98.582031 58.523438 L 99.277344 58.964844 L 100.324219 59.40625 L 100.671875 59.847656 L 102.066406 59.847656 L 102.761719 60.289062 L 103.460938 61.613281 L 104.15625 61.613281 L 105.203125 62.054688 L 105.550781 62.496094 L 105.898438 63.378906 L 106.59375 64.257812 L 106.941406 64.699219 L 108.683594 65.582031 L 109.03125 66.019531 L 108.683594 66.460938 L 109.03125 66.460938 L 109.03125 69.097656 L 109.382812 69.976562 L 109.730469 70.414062 L 110.078125 71.292969 L 110.425781 72.167969 L 110.078125 73.042969 L 109.382812 73.484375 L 109.03125 74.359375 L 109.03125 75.234375 L 109.730469 75.234375 L 109.730469 76.109375 L 110.078125 76.546875 L 110.425781 77.417969 L 111.125 78.292969 L 111.472656 78.730469 L 111.125 79.601562 L 111.472656 80.039062 L 112.515625 80.476562 L 113.214844 80.910156 L 113.214844 80.039062 L 112.863281 80.039062 L 112.863281 79.167969 L 113.5625 79.167969 L 113.910156 79.601562 L 113.910156 80.039062 L 114.257812 80.476562 L 114.605469 80.476562 L 114.605469 81.347656 L 116 81.347656 L 116 83.523438 L 115.652344 83.523438 L 115.652344 83.960938 L 115.304688 84.394531 L 115.652344 84.832031 L 115.652344 86.570312 L 114.953125 88.304688 L 114.605469 89.609375 L 114.257812 90.042969 L 113.5625 90.476562 L 113.214844 90.042969 L 112.515625 89.609375 L 111.820312 88.742188 L 111.472656 88.742188 L 111.472656 89.175781 L 111.125 90.042969 L 111.125 90.476562 L 110.773438 91.34375 L 110.773438 91.773438 L 110.078125 92.640625 L 109.382812 92.640625 L 109.382812 91.773438 L 109.730469 91.34375 L 109.382812 90.476562 L 108.335938 90.476562 L 107.988281 91.34375 L 108.335938 91.773438 L 108.683594 92.207031 L 108.335938 92.640625 L 108.335938 93.074219 L 108.683594 93.941406 L 108.683594 94.804688 L 108.335938 94.804688 L 107.988281 95.238281 L 107.292969 95.238281 L 107.292969 96.101562 L 107.640625 96.535156 L 108.335938 96.535156 L 108.335938 96.964844 L 106.246094 96.964844 L 105.898438 97.398438 L 106.941406 98.691406 L 107.292969 99.554688 L 107.292969 99.984375 L 106.59375 99.984375 L 106.246094 100.417969 L 106.246094 100.847656 L 105.550781 101.707031 L 105.550781 102.570312 L 97.886719 102.570312 L 95.449219 103 L 94.054688 103 L 94.054688 102.570312 L 94.75 101.277344 L 94.75 100.847656 L 95.097656 100.417969 L 95.449219 100.417969 L 95.449219 99.984375 L 96.144531 99.984375 L 96.492188 99.554688 L 96.492188 98.691406 L 97.1875 98.691406 L 97.539062 98.261719 L 98.234375 97.828125 L 98.582031 97.828125 L 98.582031 96.964844 L 99.277344 96.964844 L 99.277344 96.535156 L 99.628906 96.535156 L 99.628906 96.101562 L 99.277344 95.667969 L 99.277344 95.238281 L 99.628906 94.804688 L 99.628906 94.371094 L 99.277344 94.371094 L 99.277344 93.941406 L 98.582031 93.507812 L 98.582031 92.640625 L 98.234375 92.640625 L 97.886719 92.207031 L 97.886719 91.773438 L 20.203125 91.773438 L 20.203125 33.128906 L 19.507812 33.128906 L 19.507812 32.679688 L 18.113281 32.679688 L 17.070312 32.230469 L 16.722656 32.230469 L 16.722656 31.78125 L 16.371094 31.332031 L 16.371094 30.882812 L 15.675781 30.433594 L 15.328125 29.535156 L 15.328125 28.183594 L 14.628906 27.730469 L 14.28125 27.28125 L 13.585938 26.832031 L 13.238281 26.378906 L 12.890625 26.378906 L 12.539062 25.476562 L 12.191406 25.027344 L 11.84375 24.574219 L 11.496094 24.125 L 11.84375 23.671875 L 12.539062 23.671875 L 12.539062 22.316406 L 12.890625 21.863281 L 13.585938 21.410156 L 13.933594 21.410156 L 13.933594 20.054688 L 14.980469 20.054688 L 15.328125 20.507812 L 15.675781 20.054688 L 15.675781 18.242188 L 15.328125 17.789062 L 14.628906 17.335938 L 14.28125 17.335938 L 14.628906 16.878906 L 14.628906 16.425781 L 13.238281 16.425781 L 12.890625 16.878906 L 12.539062 17.335938 L 11.496094 17.335938 L 11.148438 16.425781 L 10.101562 16.425781 L 10.101562 15.972656 L 9.753906 15.519531 L 9.40625 15.519531 L 9.058594 15.0625 L 8.011719 14.15625 "/>
</svg>
