<?xml version="1.0" encoding="UTF-8"?>
<svg xmlns="http://www.w3.org/2000/svg" xmlns:xlink="http://www.w3.org/1999/xlink" width="62" height="100" viewBox="0 0 62 100">
<path fill-rule="nonzero" fill="rgb(63.921569%, 38.431373%, 89.019608%)" fill-opacity="1" d="M 56.457031 95.953125 L 56.457031 96.359375 L 55.765625 96.359375 L 55.765625 96.765625 L 55.074219 97.167969 L 54.726562 96.765625 L 53.6875 96.765625 L 53.6875 96.359375 L 53.339844 95.953125 L 52.996094 95.546875 L 52.648438 95.953125 L 51.957031 96.359375 L 50.570312 96.359375 L 48.839844 95.144531 L 47.453125 94.738281 L 46.761719 94.738281 L 46.761719 95.144531 L 46.414062 95.144531 L 48.492188 95.546875 L 46.414062 95.546875 L 45.71875 95.953125 L 45.375 95.953125 L 43.988281 96.359375 L 42.949219 96.765625 L 41.910156 97.167969 L 41.21875 97.167969 L 41.21875 96.765625 L 41.910156 96.765625 L 41.5625 96.359375 L 40.871094 95.953125 L 40.179688 95.953125 L 40.179688 96.359375 L 39.832031 96.359375 L 40.179688 96.765625 L 40.523438 96.765625 L 40.523438 97.167969 L 40.179688 97.574219 L 38.792969 98.382812 L 38.792969 98.785156 L 38.445312 99.191406 L 38.445312 100 L 38.101562 100 L 38.101562 99.597656 L 37.753906 99.597656 L 37.40625 100 L 37.0625 99.597656 L 36.367188 99.597656 L 36.367188 100 L 36.023438 99.191406 L 35.328125 97.976562 L 34.984375 97.574219 L 34.984375 96.359375 L 34.636719 95.546875 L 34.289062 95.144531 L 34.289062 94.332031 L 33.945312 93.925781 L 33.597656 93.523438 L 33.25 92.710938 L 32.90625 92.710938 L 32.558594 92.304688 L 32.210938 92.304688 L 31.867188 91.085938 L 31.867188 90.273438 L 31.519531 90.273438 L 31.519531 89.054688 L 31.867188 88.242188 L 31.867188 87.429688 L 32.210938 87.023438 L 32.558594 85.800781 L 32.90625 84.988281 L 33.25 84.171875 L 33.25 83.359375 L 0 83.359375 L 1.386719 82.132812 L 1.386719 81.726562 L 0.691406 80.910156 L 0.691406 79.683594 L 1.039062 79.277344 L 1.039062 78.867188 L 0.691406 78.867188 L 0.347656 78.460938 L 0.347656 77.640625 L 2.078125 77.640625 L 2.425781 77.234375 L 2.769531 75.597656 L 2.769531 74.367188 L 2.425781 74.367188 L 2.425781 73.140625 L 2.769531 72.320312 L 3.808594 71.5 L 4.15625 71.089844 L 4.15625 70.679688 L 4.503906 69.039062 L 4.503906 68.214844 L 4.847656 67.394531 L 5.195312 66.570312 L 5.195312 66.160156 L 5.542969 65.75 L 5.886719 65.75 L 6.582031 65.335938 L 6.925781 65.335938 L 7.273438 64.925781 L 7.964844 64.101562 L 8.3125 64.101562 L 8.3125 63.691406 L 8.660156 63.277344 L 9.351562 62.867188 L 9.699219 62.453125 L 10.390625 62.042969 L 10.390625 61.21875 L 9.699219 60.394531 L 9.699219 59.980469 L 10.738281 59.980469 L 12.121094 57.503906 L 12.816406 56.675781 L 12.816406 56.261719 L 13.160156 56.261719 L 12.816406 55.847656 L 12.46875 55.847656 L 11.777344 55.4375 L 11.429688 55.4375 L 11.429688 54.609375 L 11.082031 54.195312 L 9.699219 53.367188 L 9.699219 50.878906 L 9.003906 50.878906 L 9.003906 50.464844 L 8.660156 50.464844 L 8.660156 48.804688 L 10.042969 48.804688 L 10.042969 47.976562 L 9.699219 47.558594 L 9.003906 47.558594 L 8.660156 47.144531 L 8.660156 46.730469 L 9.003906 45.898438 L 9.003906 45.066406 L 9.351562 45.066406 L 9.351562 44.648438 L 9.699219 44.648438 L 10.042969 44.234375 L 10.042969 43.816406 L 9.699219 43.402344 L 9.699219 42.984375 L 9.003906 42.984375 L 8.660156 42.566406 L 8.660156 39.234375 L 9.699219 39.234375 L 9.699219 36.726562 L 9.351562 36.308594 L 8.660156 35.890625 L 8.3125 35.472656 L 8.3125 35.054688 L 9.003906 34.21875 L 9.351562 33.800781 L 9.351562 32.125 L 8.660156 31.707031 L 8.3125 31.285156 L 7.964844 31.285156 L 7.621094 30.867188 L 7.273438 30.449219 L 7.621094 30.027344 L 8.660156 30.027344 L 9.003906 29.609375 L 8.660156 28.769531 L 7.964844 28.351562 L 7.621094 27.929688 L 7.621094 27.511719 L 7.964844 27.511719 L 8.660156 26.25 L 9.003906 26.25 L 9.351562 25.828125 L 10.390625 25.828125 L 10.390625 25.410156 L 10.738281 24.988281 L 10.390625 24.570312 L 10.390625 23.304688 L 10.738281 22.464844 L 10.390625 22.042969 L 10.042969 22.042969 L 10.042969 21.621094 L 9.699219 21.621094 L 10.042969 21.199219 L 10.738281 21.199219 L 11.082031 20.777344 L 11.777344 20.355469 L 13.160156 20.355469 L 13.507812 19.933594 L 13.507812 19.089844 L 12.121094 18.667969 L 12.121094 17.824219 L 12.46875 17.824219 L 13.160156 16.980469 L 13.855469 16.980469 L 14.546875 15.289062 L 15.238281 15.289062 L 15.585938 14.867188 L 15.585938 13.171875 L 15.933594 13.171875 L 15.933594 13.597656 L 16.28125 13.597656 L 16.972656 13.171875 L 17.320312 13.171875 L 18.011719 12.75 L 18.359375 12.328125 L 18.703125 11.480469 L 18.703125 8.933594 L 18.359375 7.660156 L 18.703125 6.8125 L 19.050781 5.960938 L 19.050781 5.535156 L 20.78125 5.535156 L 20.78125 4.6875 L 20.4375 4.261719 L 20.4375 3.835938 L 20.78125 3.835938 L 22.515625 2.984375 L 23.554688 2.558594 L 23.898438 1.707031 L 23.898438 0.851562 L 23.554688 0 L 60.269531 0 L 60.613281 0.851562 L 60.960938 1.707031 L 61.652344 1.707031 L 62 2.132812 L 61.652344 2.984375 L 61.652344 4.6875 L 61.308594 5.960938 L 61.308594 7.238281 L 60.960938 8.933594 L 60.960938 10.632812 L 60.613281 12.75 L 60.613281 15.289062 L 60.269531 17.824219 L 59.574219 22.886719 L 59.230469 25.828125 L 58.882812 28.769531 L 58.535156 31.285156 L 58.191406 34.21875 L 58.191406 37.144531 L 57.84375 40.066406 L 57.496094 42.984375 L 57.152344 45.898438 L 56.804688 48.390625 L 56.457031 50.878906 L 56.113281 53.367188 L 56.113281 55.4375 L 55.765625 57.503906 L 55.765625 59.566406 L 55.417969 61.21875 L 55.417969 62.453125 L 55.074219 63.691406 L 55.074219 71.089844 L 55.417969 72.730469 L 55.417969 76.824219 L 55.765625 78.460938 L 55.765625 84.171875 L 56.113281 86.210938 L 56.113281 91.898438 L 56.457031 93.925781 L 56.457031 95.953125 M 47.105469 99.191406 L 46.761719 99.191406 L 47.105469 99.191406 M 54.726562 99.191406 L 56.113281 99.191406 L 55.765625 99.597656 L 55.417969 99.191406 L 54.726562 99.191406 M 45.027344 98.382812 L 45.027344 99.191406 L 44.679688 99.597656 L 44.335938 99.597656 L 44.679688 99.191406 L 44.335938 99.191406 L 43.988281 98.785156 L 43.296875 99.191406 L 43.296875 98.785156 L 44.679688 98.785156 L 45.027344 98.382812 M 52.300781 98.785156 L 53.6875 98.785156 L 54.035156 99.191406 L 53.6875 99.191406 L 50.222656 98.785156 L 50.222656 98.382812 L 51.957031 98.382812 L 52.300781 98.785156 "/>
</svg>
