<?xml version="1.0" encoding="UTF-8"?>
<svg xmlns="http://www.w3.org/2000/svg" xmlns:xlink="http://www.w3.org/1999/xlink" width="209" height="118" viewBox="0 0 209 118">
<path fill-rule="nonzero" fill="rgb(63.921569%, 38.431373%, 89.019608%)" fill-opacity="1" d="M 0 0 L 209 0 L 209 102.734375 L 86.734375 102.734375 L 86.734375 115.058594 L 86.039062 115.058594 L 85.691406 114.566406 L 85.339844 114.074219 L 84.992188 113.585938 L 84.644531 113.09375 L 84.296875 113.09375 L 84.296875 112.601562 L 83.949219 112.601562 L 83.949219 111.617188 L 83.601562 111.617188 L 83.601562 111.125 L 83.25 111.125 L 82.554688 109.648438 L 82.554688 109.15625 L 82.207031 109.15625 L 81.511719 108.664062 L 81.160156 108.664062 L 80.8125 109.15625 L 80.117188 109.648438 L 79.769531 109.648438 L 79.769531 110.632812 L 80.117188 110.632812 L 79.769531 111.125 L 79.421875 111.125 L 79.070312 111.617188 L 79.070312 113.09375 L 79.421875 113.585938 L 79.769531 113.585938 L 79.769531 114.074219 L 79.070312 114.074219 L 78.722656 113.585938 L 75.9375 113.585938 L 75.238281 114.074219 L 74.195312 114.074219 L 73.847656 114.566406 L 73.5 114.566406 L 73.5 114.074219 L 73.148438 114.074219 L 73.148438 113.585938 L 71.058594 113.585938 L 70.710938 114.074219 L 70.710938 113.585938 L 68.96875 114.074219 L 68.273438 114.074219 L 67.925781 113.585938 L 65.136719 113.585938 L 64.789062 114.074219 L 64.441406 114.074219 L 64.441406 115.058594 L 64.09375 115.546875 L 64.09375 116.039062 L 63.046875 116.039062 L 62.699219 115.546875 L 61.308594 115.546875 L 59.214844 115.058594 L 57.824219 115.058594 L 57.125 115.546875 L 56.082031 116.53125 L 56.082031 117.019531 L 56.429688 117.511719 L 56.429688 118 L 55.734375 118 L 55.386719 117.511719 L 55.035156 117.511719 L 54.339844 117.019531 L 53.992188 117.019531 L 53.644531 116.53125 L 53.644531 116.039062 L 52.945312 116.039062 L 52.945312 114.074219 L 52.597656 114.074219 L 52.597656 113.585938 L 52.25 113.585938 L 52.25 113.09375 L 51.902344 112.601562 L 51.902344 112.109375 L 52.25 111.617188 L 52.25 111.125 L 51.902344 111.125 L 51.902344 110.632812 L 51.554688 110.140625 L 51.203125 109.648438 L 51.203125 109.15625 L 50.855469 108.664062 L 50.507812 108.167969 L 50.160156 107.675781 L 49.8125 107.675781 L 49.464844 107.183594 L 48.417969 107.183594 L 48.070312 107.675781 L 47.023438 107.675781 L 47.023438 107.183594 L 46.675781 107.183594 L 46.675781 106.6875 L 45.632812 106.6875 L 45.632812 106.195312 L 45.285156 106.195312 L 45.285156 105.703125 L 44.933594 105.207031 L 44.933594 104.714844 L 44.585938 104.714844 L 44.585938 104.21875 L 44.933594 103.722656 L 45.285156 103.722656 L 45.285156 102.238281 L 44.933594 101.246094 L 44.585938 100.257812 L 44.238281 100.257812 L 44.238281 99.761719 L 43.191406 99.761719 L 43.191406 98.769531 L 42.84375 98.769531 L 42.84375 97.773438 L 42.496094 97.773438 L 42.496094 97.277344 L 42.148438 97.277344 L 41.800781 96.78125 L 41.453125 96.28125 L 41.453125 95.785156 L 41.101562 95.785156 L 40.753906 95.289062 L 40.40625 95.289062 L 40.40625 92.796875 L 39.710938 92.296875 L 39.710938 89.800781 L 39.011719 89.800781 L 38.664062 89.304688 L 39.011719 88.804688 L 39.011719 88.304688 L 39.363281 88.304688 L 39.011719 87.800781 L 38.664062 87.300781 L 37.621094 87.300781 L 37.621094 86.800781 L 37.273438 86.800781 L 37.273438 86.300781 L 36.921875 85.800781 L 36.226562 85.296875 L 35.53125 85.296875 L 35.53125 86.300781 L 34.832031 86.800781 L 34.484375 86.800781 L 34.484375 87.800781 L 33.789062 87.800781 L 33.789062 88.304688 L 33.441406 88.304688 L 32.742188 88.804688 L 32.394531 89.304688 L 31.351562 89.304688 L 31.351562 89.800781 L 31 90.300781 L 30.652344 90.800781 L 29.609375 90.800781 L 29.261719 90.300781 L 28.5625 89.800781 L 28.214844 89.304688 L 27.519531 88.804688 L 26.125 88.804688 L 26.125 86.800781 L 26.472656 86.800781 L 26.820312 86.300781 L 26.820312 84.796875 L 26.472656 84.296875 L 26.125 84.296875 L 26.125 82.789062 L 26.472656 82.789062 L 26.472656 82.289062 L 26.820312 82.289062 L 26.820312 81.785156 L 27.171875 81.28125 L 28.214844 81.28125 L 28.5625 80.78125 L 28.910156 80.78125 L 28.910156 80.277344 L 28.214844 79.773438 L 28.214844 78.765625 L 28.5625 78.765625 L 28.5625 78.261719 L 28.214844 78.261719 L 27.867188 77.757812 L 27.171875 77.757812 L 27.171875 76.246094 L 27.519531 75.742188 L 27.519531 74.730469 L 26.820312 74.226562 L 26.820312 73.214844 L 27.867188 73.214844 L 27.867188 71.191406 L 27.519531 71.191406 L 27.519531 70.6875 L 27.867188 70.6875 L 27.867188 69.671875 L 28.214844 69.671875 L 28.5625 69.164062 L 28.5625 67.644531 L 28.910156 66.628906 L 28.910156 65.609375 L 28.5625 65.101562 L 28.910156 64.59375 L 29.609375 64.59375 L 29.609375 62.046875 L 29.957031 62.046875 L 29.957031 60.519531 L 29.261719 60.519531 L 28.214844 61.027344 L 27.519531 61.027344 L 27.171875 61.539062 L 26.820312 61.027344 L 26.472656 61.027344 L 26.125 61.539062 L 25.429688 61.539062 L 25.078125 61.027344 L 24.730469 61.027344 L 24.382812 60.519531 L 24.382812 60.007812 L 24.730469 60.007812 L 24.730469 59.496094 L 24.382812 58.984375 L 24.035156 58.984375 L 23.6875 58.476562 L 23.339844 58.984375 L 22.988281 58.984375 L 22.640625 59.496094 L 22.292969 59.496094 L 22.292969 57.964844 L 21.597656 57.964844 L 21.25 57.453125 L 20.898438 57.453125 L 20.898438 56.941406 L 20.550781 56.941406 L 20.203125 56.429688 L 19.855469 56.429688 L 19.507812 55.917969 L 19.507812 54.378906 L 19.160156 53.867188 L 18.808594 53.867188 L 18.113281 52.84375 L 17.417969 52.84375 L 17.417969 52.328125 L 17.066406 52.328125 L 17.066406 51.816406 L 15.328125 49.761719 L 15.328125 49.246094 L 14.628906 48.730469 L 14.628906 48.214844 L 13.933594 48.214844 L 13.933594 47.703125 L 13.585938 47.703125 L 13.238281 47.1875 L 13.238281 46.671875 L 12.886719 46.671875 L 12.886719 46.15625 L 12.539062 46.15625 L 12.539062 45.640625 L 12.191406 45.640625 L 10.449219 44.605469 L 9.40625 44.605469 L 9.058594 44.089844 L 9.058594 43.574219 L 8.707031 43.058594 L 8.011719 42.539062 L 6.617188 41.507812 L 5.921875 40.988281 L 5.574219 40.988281 L 5.574219 40.472656 L 6.617188 40.472656 L 6.964844 39.953125 L 6.617188 39.433594 L 6.269531 39.433594 L 6.269531 38.917969 L 5.574219 37.878906 L 5.226562 37.878906 L 5.574219 37.878906 L 5.921875 37.359375 L 6.269531 37.359375 L 6.269531 36.324219 L 5.574219 35.285156 L 5.574219 34.242188 L 5.226562 33.722656 L 4.875 33.722656 L 4.875 33.203125 L 4.527344 33.203125 L 4.527344 32.683594 L 3.832031 32.160156 L 3.484375 31.117188 L 3.484375 30.597656 L 3.136719 30.597656 L 2.785156 30.074219 L 2.4375 30.074219 L 2.4375 29.554688 L 1.742188 29.554688 L 1.742188 28.507812 L 1.046875 27.988281 L 0.347656 26.941406 L 0 26.941406 L 0 0 "/>
</svg>
