<?xml version="1.0" encoding="UTF-8"?>
<svg xmlns="http://www.w3.org/2000/svg" xmlns:xlink="http://www.w3.org/1999/xlink" width="155" height="59" viewBox="0 0 155 59">
<path fill-rule="nonzero" fill="rgb(63.921569%, 38.431373%, 89.019608%)" fill-opacity="1" d="M 144.851562 0.871094 L 144.851562 2.171875 L 145.203125 2.609375 L 145.203125 3.042969 L 145.902344 3.476562 L 146.253906 3.476562 L 145.902344 3.910156 L 145.902344 4.34375 L 146.601562 4.777344 L 146.601562 3.910156 L 146.953125 3.910156 L 146.953125 5.644531 L 147.652344 6.511719 L 147.652344 6.945312 L 148.003906 6.945312 L 148.703125 9.542969 L 148.703125 9.976562 L 149.050781 10.40625 L 149.050781 10.839844 L 149.402344 11.273438 L 148.703125 11.273438 L 148.351562 10.839844 L 148.003906 10.40625 L 148.003906 9.109375 L 147.652344 8.675781 L 147.300781 8.246094 L 146.953125 8.246094 L 146.953125 7.378906 L 146.601562 7.378906 L 146.601562 6.945312 L 146.253906 6.511719 L 145.902344 6.078125 L 145.554688 6.078125 L 145.902344 6.511719 L 146.253906 6.945312 L 146.253906 8.246094 L 146.601562 8.246094 L 146.253906 8.675781 L 146.601562 9.109375 L 147.300781 9.109375 L 147.300781 9.542969 L 145.902344 9.109375 L 145.554688 9.109375 L 145.203125 8.675781 L 144.851562 8.675781 L 144.503906 7.8125 L 144.152344 7.8125 L 143.804688 7.378906 L 143.453125 7.378906 L 143.105469 6.945312 L 142.054688 6.511719 L 142.402344 6.078125 L 142.054688 6.078125 L 141.703125 6.511719 L 141.703125 6.945312 L 142.402344 6.945312 L 143.105469 7.8125 L 143.453125 8.246094 L 143.804688 8.675781 L 144.152344 9.109375 L 144.503906 9.109375 L 144.503906 9.542969 L 144.152344 9.542969 L 143.804688 9.976562 L 143.105469 9.976562 L 143.453125 9.976562 L 142.753906 10.40625 L 142.753906 9.976562 L 142.054688 9.976562 L 141.703125 9.109375 L 141.355469 9.109375 L 141.003906 8.675781 L 140.65625 8.246094 L 140.304688 8.246094 L 140.304688 8.675781 L 140.65625 8.675781 L 140.65625 9.109375 L 141.003906 9.109375 L 141.355469 9.542969 L 141.703125 10.40625 L 142.054688 10.839844 L 141.355469 10.839844 L 139.605469 9.976562 L 138.90625 9.542969 L 138.554688 9.109375 L 138.207031 9.109375 L 137.855469 8.675781 L 137.503906 8.675781 L 137.855469 9.109375 L 137.855469 9.542969 L 138.554688 9.976562 L 138.90625 9.976562 L 139.253906 10.40625 L 139.605469 10.839844 L 139.953125 10.839844 L 138.207031 11.273438 L 138.207031 11.703125 L 137.855469 12.136719 L 137.503906 12.136719 L 136.804688 12.566406 L 135.40625 12.566406 L 134.707031 11.703125 L 134.355469 12.136719 L 134.007812 12.136719 L 133.65625 11.703125 L 133.308594 10.40625 L 132.957031 9.542969 L 132.957031 7.8125 L 133.308594 7.378906 L 133.65625 7.378906 L 133.65625 6.511719 L 133.308594 6.078125 L 132.957031 6.078125 L 133.308594 6.511719 L 133.308594 6.945312 L 132.605469 7.8125 L 132.257812 8.246094 L 132.257812 10.40625 L 132.605469 10.839844 L 132.605469 11.703125 L 132.957031 11.703125 L 132.957031 12.136719 L 133.308594 12.136719 L 133.308594 13 L 132.957031 13.863281 L 132.957031 14.292969 L 135.757812 14.292969 L 136.457031 13.863281 L 137.15625 13.429688 L 138.90625 13.429688 L 138.90625 14.292969 L 139.605469 14.292969 L 140.65625 14.726562 L 141.003906 14.726562 L 140.65625 14.292969 L 140.304688 14.292969 L 140.304688 13.863281 L 140.65625 13.429688 L 142.054688 13 L 144.152344 13 L 144.851562 13.429688 L 145.203125 13.863281 L 144.503906 13.863281 L 144.152344 14.726562 L 144.851562 14.726562 L 145.203125 14.292969 L 144.851562 15.15625 L 144.851562 15.585938 L 144.152344 15.585938 L 144.152344 16.019531 L 144.503906 16.449219 L 144.503906 17.308594 L 144.152344 17.742188 L 143.453125 17.308594 L 143.453125 17.742188 L 144.152344 17.742188 L 144.152344 18.171875 L 144.503906 18.171875 L 144.851562 18.601562 L 144.503906 19.03125 L 144.851562 19.460938 L 144.503906 19.890625 L 144.152344 19.890625 L 143.453125 19.460938 L 143.105469 19.460938 L 143.453125 19.890625 L 143.804688 20.320312 L 144.152344 20.320312 L 144.851562 19.890625 L 144.851562 20.320312 L 145.554688 18.601562 L 145.902344 18.171875 L 145.902344 15.15625 L 146.601562 14.726562 L 146.953125 14.726562 L 147.300781 15.15625 L 147.652344 15.585938 L 148.003906 15.585938 L 148.003906 15.15625 L 147.652344 15.15625 L 147.300781 14.726562 L 147.300781 14.292969 L 147.652344 14.292969 L 148.003906 14.726562 L 148.351562 14.726562 L 148.703125 14.292969 L 148.003906 14.292969 L 148.003906 13.429688 L 148.703125 13.863281 L 149.050781 14.292969 L 150.101562 15.585938 L 150.101562 16.019531 L 150.453125 16.449219 L 150.453125 17.308594 L 150.101562 17.742188 L 150.101562 18.171875 L 150.453125 18.601562 L 150.453125 19.460938 L 149.402344 19.460938 L 149.402344 19.890625 L 149.75 19.890625 L 150.101562 20.75 L 149.75 21.179688 L 149.75 21.609375 L 149.402344 21.609375 L 149.402344 22.039062 L 149.050781 22.039062 L 149.050781 22.46875 L 148.351562 22.46875 L 148.351562 22.039062 L 148.703125 22.039062 L 148.703125 21.609375 L 148.351562 22.039062 L 148.003906 21.609375 L 147.652344 21.179688 L 147.652344 20.75 L 147.300781 21.179688 L 147.300781 22.039062 L 146.253906 22.898438 L 146.253906 23.328125 L 145.902344 23.328125 L 145.902344 24.183594 L 145.203125 24.183594 L 145.554688 24.613281 L 145.203125 25.042969 L 145.203125 25.472656 L 144.851562 25.472656 L 144.851562 25.042969 L 144.503906 25.042969 L 144.152344 25.472656 L 144.152344 25.898438 L 144.503906 25.898438 L 144.503906 26.328125 L 143.453125 26.328125 L 143.453125 26.757812 L 143.105469 26.757812 L 142.753906 27.183594 L 141.703125 27.183594 L 141.355469 26.757812 L 141.355469 26.328125 L 141.003906 26.328125 L 141.003906 27.183594 L 140.65625 26.757812 L 139.953125 26.757812 L 139.953125 25.898438 L 139.605469 25.898438 L 139.253906 25.472656 L 139.253906 27.183594 L 138.90625 27.183594 L 138.90625 26.757812 L 138.207031 26.757812 L 138.207031 26.328125 L 138.90625 26.328125 L 138.90625 25.898438 L 138.554688 25.898438 L 138.554688 24.613281 L 138.207031 24.613281 L 138.207031 25.042969 L 137.855469 25.898438 L 137.503906 25.472656 L 137.15625 25.898438 L 137.15625 26.328125 L 137.503906 26.328125 L 136.804688 25.898438 L 136.457031 25.898438 L 136.457031 25.472656 L 136.804688 25.472656 L 136.804688 25.042969 L 136.105469 25.042969 L 135.757812 24.613281 L 136.105469 24.613281 L 136.105469 24.183594 L 135.757812 24.183594 L 135.40625 23.757812 L 136.105469 23.328125 L 136.804688 23.757812 L 137.15625 23.328125 L 137.503906 22.898438 L 135.054688 22.898438 L 134.355469 23.328125 L 134.707031 23.328125 L 134.707031 23.757812 L 135.054688 23.757812 L 134.707031 24.183594 L 134.707031 24.613281 L 135.054688 24.613281 L 135.054688 25.472656 L 135.40625 25.472656 L 135.40625 25.898438 L 134.707031 25.898438 L 134.007812 25.472656 L 134.355469 25.042969 L 133.65625 25.042969 L 133.65625 25.472656 L 133.308594 25.042969 L 132.257812 25.472656 L 131.90625 25.472656 L 131.558594 25.042969 L 131.207031 24.613281 L 129.808594 24.613281 L 129.109375 24.183594 L 128.058594 23.757812 L 127.707031 23.757812 L 127.007812 22.898438 L 127.359375 23.757812 L 127.707031 23.757812 L 127.707031 24.183594 L 128.058594 24.183594 L 128.410156 24.613281 L 128.410156 25.042969 L 129.109375 24.613281 L 130.507812 25.472656 L 130.859375 25.898438 L 131.207031 25.898438 L 133.308594 26.757812 L 134.707031 27.183594 L 136.457031 27.613281 L 136.804688 27.613281 L 136.804688 28.039062 L 137.15625 28.039062 L 137.15625 29.324219 L 135.757812 29.324219 L 136.105469 29.75 L 136.457031 29.75 L 136.457031 30.179688 L 136.105469 30.179688 L 135.40625 29.75 L 135.40625 30.179688 L 134.355469 30.179688 L 134.355469 30.605469 L 133.65625 30.605469 L 134.007812 31.03125 L 135.054688 31.03125 L 135.40625 31.460938 L 135.40625 30.605469 L 135.757812 31.460938 L 135.757812 31.886719 L 135.40625 32.3125 L 134.707031 32.3125 L 135.054688 32.742188 L 133.65625 33.59375 L 133.308594 34.019531 L 132.957031 34.445312 L 132.257812 34.871094 L 131.558594 34.871094 L 130.859375 34.445312 L 130.15625 34.445312 L 129.808594 34.019531 L 129.109375 33.167969 L 128.757812 32.742188 L 128.058594 32.742188 L 127.359375 31.460938 L 126.660156 31.03125 L 127.359375 32.3125 L 127.359375 32.742188 L 127.707031 32.742188 L 128.058594 33.167969 L 128.410156 34.019531 L 129.109375 34.871094 L 129.808594 35.300781 L 130.507812 35.300781 L 131.558594 35.726562 L 131.90625 36.152344 L 132.257812 36.152344 L 132.257812 36.578125 L 132.605469 36.152344 L 132.957031 36.152344 L 133.308594 35.726562 L 133.65625 35.300781 L 134.007812 34.871094 L 135.054688 34.871094 L 135.054688 35.300781 L 135.40625 35.300781 L 135.757812 35.726562 L 136.105469 35.726562 L 136.105469 35.300781 L 135.757812 34.871094 L 135.757812 34.445312 L 136.457031 34.445312 L 136.804688 34.871094 L 137.15625 34.871094 L 137.15625 33.59375 L 137.503906 33.167969 L 137.503906 32.742188 L 137.855469 32.742188 L 137.855469 34.019531 L 138.207031 34.445312 L 138.207031 34.871094 L 137.503906 35.300781 L 137.503906 35.726562 L 137.855469 35.726562 L 138.554688 35.300781 L 138.90625 35.726562 L 138.90625 35.300781 L 139.253906 34.871094 L 139.953125 34.871094 L 139.953125 34.445312 L 139.605469 34.019531 L 139.253906 34.019531 L 139.953125 34.019531 L 140.304688 34.445312 L 140.304688 34.871094 L 141.003906 34.871094 L 141.003906 35.300781 L 140.65625 35.300781 L 140.304688 35.726562 L 139.605469 35.726562 L 139.605469 37.003906 L 139.253906 37.003906 L 138.554688 37.429688 L 138.554688 37.003906 L 138.207031 37.003906 L 138.207031 37.855469 L 137.855469 38.277344 L 137.15625 39.128906 L 136.804688 39.128906 L 136.804688 39.980469 L 135.757812 39.980469 L 135.40625 39.554688 L 135.40625 39.128906 L 135.054688 38.703125 L 135.054688 38.277344 L 134.707031 38.277344 L 134.707031 39.980469 L 134.355469 40.828125 L 134.007812 40.40625 L 134.007812 39.554688 L 133.65625 38.703125 L 133.308594 38.703125 L 132.605469 39.128906 L 132.257812 39.128906 L 131.90625 39.554688 L 132.957031 39.554688 L 133.308594 39.980469 L 133.308594 40.40625 L 129.808594 39.980469 L 129.457031 40.40625 L 126.660156 41.253906 L 126.308594 41.253906 L 126.308594 40.828125 L 126.660156 40.828125 L 126.308594 39.980469 L 125.960938 39.554688 L 125.609375 39.554688 L 125.609375 39.980469 L 125.960938 39.980469 L 125.960938 40.828125 L 125.609375 41.253906 L 125.257812 41.253906 L 125.257812 40.828125 L 124.910156 40.828125 L 124.910156 41.253906 L 125.257812 41.679688 L 124.558594 41.679688 L 123.511719 42.953125 L 123.160156 43.375 L 122.808594 43.375 L 122.460938 43.800781 L 122.109375 43.800781 L 121.761719 43.375 L 121.0625 43.375 L 121.410156 42.953125 L 122.109375 42.101562 L 122.109375 41.679688 L 121.410156 40.828125 L 121.0625 40.40625 L 121.410156 40.40625 L 121.410156 39.980469 L 120.710938 39.980469 L 120.359375 39.554688 L 120.710938 40.828125 L 120.710938 41.253906 L 121.0625 40.828125 L 121.0625 41.253906 L 121.410156 41.253906 L 121.410156 42.101562 L 121.0625 42.527344 L 120.359375 42.527344 L 120.359375 43.375 L 121.0625 43.375 L 121.410156 43.800781 L 121.410156 44.648438 L 121.0625 44.648438 L 120.011719 45.070312 L 118.613281 45.917969 L 116.511719 47.613281 L 115.113281 48.882812 L 114.414062 50.570312 L 113.714844 50.992188 L 113.363281 51.417969 L 113.363281 51.839844 L 113.011719 52.683594 L 112.664062 53.105469 L 112.3125 55.210938 L 111.964844 56.476562 L 111.613281 56.898438 L 111.613281 56.054688 L 111.964844 55.632812 L 111.964844 53.527344 L 111.613281 52.683594 L 111.265625 51.417969 L 111.265625 53.527344 L 111.613281 54.371094 L 111.265625 54.789062 L 111.613281 55.632812 L 111.265625 56.054688 L 110.914062 56.476562 L 110.5625 57.738281 L 109.863281 57.738281 L 108.113281 57.316406 L 104.265625 57.316406 L 104.265625 56.476562 L 103.917969 56.476562 L 103.917969 57.316406 L 103.566406 57.316406 L 102.167969 57.738281 L 100.765625 58.578125 L 100.765625 58.160156 L 101.117188 58.160156 L 100.417969 58.160156 L 99.367188 56.898438 L 98.316406 55.632812 L 97.269531 54.789062 L 95.867188 53.527344 L 94.820312 52.261719 L 93.769531 50.992188 L 92.371094 49.726562 L 91.320312 48.882812 L 90.269531 47.613281 L 89.222656 46.34375 L 87.820312 45.070312 L 86.773438 44.222656 L 85.722656 42.953125 L 84.324219 41.679688 L 83.273438 40.40625 L 82.222656 39.554688 L 81.523438 38.703125 L 77.324219 38.703125 L 75.925781 38.277344 L 61.929688 38.277344 L 61.582031 37.855469 L 61.929688 35.726562 L 61.929688 35.300781 L 61.582031 35.300781 L 60.878906 34.445312 L 59.832031 33.167969 L 59.480469 32.3125 L 59.132812 31.886719 L 59.132812 32.3125 L 57.730469 33.167969 L 57.382812 33.167969 L 57.03125 32.742188 L 57.03125 32.3125 L 57.382812 31.886719 L 57.382812 31.460938 L 57.03125 31.460938 L 57.03125 31.03125 L 51.082031 31.03125 L 49.335938 30.605469 L 43.035156 30.605469 L 41.636719 30.179688 L 33.9375 30.179688 L 33.9375 29.75 L 33.589844 29.75 L 33.238281 30.179688 L 33.238281 30.605469 L 32.191406 30.605469 L 31.839844 31.03125 L 30.789062 31.03125 L 30.089844 31.460938 L 29.390625 31.460938 L 29.390625 31.886719 L 28.691406 31.886719 L 28.691406 32.3125 L 28.339844 32.3125 L 27.640625 32.742188 L 26.589844 32.742188 L 21.34375 34.445312 L 5.25 34.445312 L 3.847656 34.871094 L 0 34.871094 L 0 32.742188 L 0.351562 31.460938 L 0.351562 29.75 L 0.699219 29.324219 L 1.050781 28.894531 L 4.199219 28.894531 L 4.546875 28.46875 L 4.546875 28.039062 L 4.898438 28.039062 L 4.898438 26.757812 L 5.25 26.328125 L 5.25 25.472656 L 5.949219 25.042969 L 5.949219 24.613281 L 6.996094 24.613281 L 6.996094 24.183594 L 7.347656 23.757812 L 7.699219 23.328125 L 8.746094 23.328125 L 8.746094 22.898438 L 9.097656 22.898438 L 9.445312 22.46875 L 12.246094 22.46875 L 12.246094 22.039062 L 12.597656 22.039062 L 12.945312 22.46875 L 14.34375 22.46875 L 14.34375 22.039062 L 14.695312 22.039062 L 15.046875 21.609375 L 15.394531 21.609375 L 15.394531 21.179688 L 16.445312 20.75 L 16.792969 20.320312 L 17.84375 20.320312 L 18.195312 19.460938 L 18.542969 19.460938 L 18.542969 19.03125 L 19.242188 19.03125 L 19.945312 18.171875 L 20.992188 18.171875 L 21.691406 17.742188 L 22.042969 17.308594 L 22.042969 17.742188 L 23.441406 17.742188 L 23.792969 16.878906 L 24.140625 16.449219 L 24.492188 16.019531 L 24.492188 15.585938 L 24.84375 15.585938 L 24.84375 15.15625 L 24.492188 14.726562 L 24.492188 14.292969 L 24.84375 14.292969 L 24.84375 13.863281 L 25.542969 13.863281 L 25.890625 14.292969 L 26.589844 14.292969 L 26.589844 13.863281 L 26.941406 13.863281 L 26.941406 13 L 28.339844 12.136719 L 28.691406 12.136719 L 29.742188 11.703125 L 30.089844 11.703125 L 30.089844 13.429688 L 30.441406 13.429688 L 30.441406 13.863281 L 31.140625 13.863281 L 31.839844 13.429688 L 31.839844 13 L 32.191406 13 L 32.539062 12.566406 L 32.539062 12.136719 L 32.890625 11.703125 L 33.238281 11.703125 L 33.589844 10.839844 L 33.9375 10.839844 L 34.289062 10.40625 L 34.988281 10.40625 L 35.339844 9.976562 L 36.039062 9.976562 L 36.738281 9.542969 L 37.4375 9.542969 L 37.4375 9.976562 L 38.136719 9.976562 L 38.136719 10.40625 L 38.488281 10.40625 L 38.488281 10.839844 L 39.539062 10.839844 L 39.539062 10.40625 L 39.886719 10.40625 L 39.886719 9.976562 L 40.238281 9.976562 L 41.988281 6.511719 L 42.335938 6.078125 L 43.734375 5.210938 L 44.085938 5.210938 L 44.785156 5.644531 L 45.484375 5.644531 L 45.484375 5.210938 L 45.136719 4.777344 L 45.136719 4.34375 L 45.484375 3.042969 L 45.835938 2.609375 L 45.835938 2.171875 L 45.484375 1.738281 L 45.835938 1.304688 L 46.535156 0 L 47.933594 0 L 48.984375 0.433594 L 53.183594 0.433594 L 54.234375 0.871094 L 68.929688 0.871094 L 70.328125 1.304688 L 129.457031 1.304688 L 130.859375 0.871094 L 144.851562 0.871094 M 147.300781 1.304688 L 147.300781 2.171875 L 145.902344 2.171875 L 145.902344 1.738281 L 145.554688 1.304688 L 145.203125 0.871094 L 146.253906 1.304688 L 147.300781 1.304688 M 148.003906 1.304688 L 148.703125 4.777344 L 149.050781 5.644531 L 149.050781 6.511719 L 149.402344 6.945312 L 149.75 7.8125 L 150.453125 10.40625 L 153.25 15.15625 L 153.25 16.019531 L 153.949219 17.308594 L 153.25 17.308594 L 153.25 16.449219 L 152.902344 16.449219 L 152.902344 16.019531 L 152.550781 15.15625 L 152.550781 14.726562 L 151.152344 13 L 150.453125 13 L 150.453125 12.566406 L 151.152344 12.566406 L 151.152344 11.703125 L 150.800781 11.703125 L 150.800781 12.136719 L 150.453125 11.703125 L 150.101562 11.273438 L 150.101562 9.109375 L 149.75 8.675781 L 149.402344 7.8125 L 149.050781 6.945312 L 148.703125 6.511719 L 148.703125 4.34375 L 148.351562 3.476562 L 148.003906 2.609375 L 148.003906 2.171875 L 147.652344 1.304688 L 148.003906 1.304688 M 111.265625 58.160156 L 111.265625 57.738281 L 111.613281 57.316406 L 111.265625 58.578125 L 111.265625 59 L 110.914062 58.578125 L 110.214844 58.578125 L 110.214844 57.738281 L 110.914062 57.738281 L 111.265625 58.160156 M 112.664062 53.949219 L 113.011719 53.105469 L 113.011719 52.683594 L 113.714844 51.839844 L 113.363281 53.105469 L 113.011719 53.527344 L 112.664062 53.949219 M 120.359375 45.070312 L 120.710938 45.070312 L 121.410156 44.648438 L 121.761719 44.648438 L 121.410156 45.070312 L 120.011719 45.917969 L 118.960938 45.917969 L 117.210938 47.613281 L 116.863281 48.035156 L 117.210938 47.1875 L 117.910156 46.765625 L 120.359375 45.070312 M 135.757812 41.253906 L 135.757812 41.679688 L 136.105469 41.679688 L 136.105469 42.101562 L 135.757812 42.101562 L 135.054688 41.679688 L 134.355469 41.253906 L 134.007812 41.253906 L 134.007812 40.828125 L 134.355469 40.828125 L 135.757812 41.253906 M 129.808594 40.828125 L 132.605469 40.40625 L 133.65625 40.828125 L 131.207031 40.828125 L 126.308594 42.101562 L 126.660156 41.679688 L 127.007812 41.253906 L 129.808594 40.828125 M 141.003906 36.152344 L 141.355469 36.152344 L 141.355469 35.726562 L 142.054688 35.726562 L 141.703125 36.152344 L 141.355469 36.578125 L 140.304688 37.429688 L 139.953125 37.855469 L 139.605469 37.855469 L 138.554688 39.128906 L 136.457031 42.527344 L 136.105469 43.375 L 136.105469 42.953125 L 136.457031 42.101562 L 138.554688 38.703125 L 140.304688 37.003906 L 141.003906 36.578125 L 141.003906 36.152344 M 144.152344 32.742188 L 144.503906 32.742188 L 144.851562 33.167969 L 144.503906 33.167969 L 143.453125 34.019531 L 143.105469 34.445312 L 143.804688 33.59375 L 144.152344 33.167969 L 144.152344 32.742188 M 145.902344 31.886719 L 146.601562 31.886719 L 147.652344 31.03125 L 149.050781 30.605469 L 149.402344 30.179688 L 149.402344 30.605469 L 149.050781 30.605469 L 148.703125 31.03125 L 147.300781 31.460938 L 145.203125 32.742188 L 145.554688 32.742188 L 145.554688 32.3125 L 145.902344 31.886719 M 154.648438 19.460938 L 154.648438 19.890625 L 155 21.179688 L 155 22.039062 L 154.648438 23.757812 L 154.300781 27.183594 L 153.949219 28.894531 L 153.949219 29.324219 L 152.902344 29.324219 L 152.199219 29.75 L 151.851562 29.75 L 151.152344 30.179688 L 150.800781 30.179688 L 150.453125 30.605469 L 150.101562 30.605469 L 150.101562 30.179688 L 150.800781 30.179688 L 150.800781 29.324219 L 151.152344 29.324219 L 151.152344 29.75 L 152.199219 28.894531 L 153.601562 28.46875 L 153.949219 28.039062 L 153.949219 27.183594 L 154.300781 26.328125 L 154.300781 25.472656 L 154.648438 24.613281 L 154.648438 22.46875 L 155 22.46875 L 155 22.039062 L 154.648438 20.75 L 154.300781 19.460938 L 154.300781 19.03125 L 153.949219 18.171875 L 153.949219 17.742188 L 154.300781 18.171875 L 154.648438 18.601562 L 154.648438 19.460938 M 150.453125 14.726562 L 150.453125 14.292969 L 151.152344 14.292969 L 151.5 14.726562 L 151.851562 15.15625 L 152.199219 16.019531 L 152.199219 16.449219 L 151.851562 16.878906 L 151.5 16.449219 L 151.5 16.019531 L 151.152344 15.585938 L 150.800781 14.726562 L 150.453125 14.726562 "/>
</svg>
