<?xml version="1.0" encoding="UTF-8"?>
<svg xmlns="http://www.w3.org/2000/svg" xmlns:xlink="http://www.w3.org/1999/xlink" width="131" height="79" viewBox="0 0 131 79">
<path fill-rule="nonzero" fill="rgb(63.921569%, 38.431373%, 89.019608%)" fill-opacity="1" d="M 0 0 L 119.441406 0 L 119.441406 1.59375 L 119.792969 2.125 L 119.792969 3.1875 L 120.140625 3.1875 L 120.140625 4.246094 L 120.84375 5.835938 L 120.84375 6.894531 L 121.542969 7.953125 L 121.542969 9.011719 L 121.191406 10.066406 L 120.84375 11.121094 L 120.492188 12.175781 L 120.84375 13.753906 L 121.191406 14.808594 L 121.191406 15.859375 L 120.84375 16.382812 L 121.191406 17.960938 L 121.191406 22.671875 L 121.542969 23.71875 L 122.242188 25.804688 L 122.242188 26.847656 L 122.59375 27.371094 L 123.292969 28.410156 L 122.945312 28.933594 L 122.945312 29.453125 L 123.644531 31.011719 L 123.644531 31.53125 L 123.996094 32.050781 L 124.34375 32.570312 L 124.34375 33.089844 L 124.695312 33.609375 L 125.046875 34.125 L 125.046875 34.644531 L 125.394531 35.679688 L 125.394531 36.199219 L 125.746094 36.714844 L 125.746094 41.878906 L 126.097656 41.878906 L 126.097656 47.539062 L 126.445312 48.050781 L 126.097656 48.050781 L 126.097656 49.078125 L 126.445312 50.101562 L 126.445312 52.660156 L 126.796875 53.171875 L 126.796875 53.683594 L 127.496094 53.683594 L 127.496094 54.707031 L 127.148438 55.214844 L 127.148438 56.746094 L 126.796875 56.746094 L 126.796875 57.765625 L 127.148438 58.785156 L 127.148438 59.800781 L 126.796875 60.820312 L 126.796875 61.328125 L 127.148438 61.835938 L 127.496094 62.34375 L 127.847656 62.851562 L 127.847656 64.878906 L 128.199219 65.386719 L 128.199219 66.398438 L 128.546875 66.398438 L 129.25 68.425781 L 129.949219 68.929688 L 130.300781 69.433594 L 130.300781 72.460938 L 130.648438 72.460938 L 131 72.964844 L 131 75.988281 L 130.648438 76.488281 L 130.648438 76.992188 L 131 79 L 0 79 L 0 0 "/>
</svg>
