<?xml version="1.0" encoding="UTF-8"?>
<svg xmlns="http://www.w3.org/2000/svg" xmlns:xlink="http://www.w3.org/1999/xlink" width="153" height="70" viewBox="0 0 153 70">
<path fill-rule="nonzero" fill="rgb(63.921569%, 38.431373%, 89.019608%)" fill-opacity="1" d="M 0 47.023438 L 0 0 L 97.683594 0 L 98.03125 0.476562 L 100.132812 1.910156 L 100.484375 1.910156 L 101.882812 2.863281 L 104.335938 4.292969 L 104.335938 4.769531 L 104.683594 4.769531 L 106.085938 5.246094 L 107.136719 5.246094 L 107.484375 4.769531 L 107.835938 3.816406 L 108.183594 3.339844 L 108.535156 3.339844 L 108.886719 2.863281 L 109.9375 3.339844 L 112.738281 3.339844 L 113.085938 2.863281 L 114.488281 3.339844 L 114.835938 3.339844 L 118.339844 2.863281 L 119.039062 2.863281 L 119.390625 3.339844 L 120.089844 3.816406 L 120.4375 4.769531 L 120.789062 4.769531 L 121.488281 5.246094 L 123.242188 5.246094 L 123.589844 5.722656 L 123.941406 5.722656 L 124.289062 6.199219 L 126.390625 6.199219 L 126.742188 6.671875 L 126.742188 7.148438 L 127.089844 7.148438 L 127.089844 7.625 L 128.84375 7.625 L 128.84375 9.050781 L 129.542969 9.523438 L 129.890625 10 L 129.890625 10.472656 L 130.242188 10.949219 L 132.695312 11.421875 L 133.394531 11.421875 L 133.742188 11.894531 L 134.09375 11.894531 L 134.445312 12.84375 L 134.09375 13.789062 L 134.09375 15.210938 L 134.792969 15.683594 L 134.792969 16.15625 L 135.144531 16.628906 L 135.144531 18.515625 L 134.792969 18.988281 L 135.144531 19.460938 L 135.496094 19.929688 L 135.84375 20.402344 L 136.195312 20.402344 L 136.542969 20.875 L 136.542969 22.285156 L 136.894531 23.226562 L 137.59375 23.226562 L 138.296875 24.167969 L 138.644531 25.105469 L 138.296875 25.578125 L 138.296875 26.046875 L 138.644531 26.515625 L 138.644531 26.984375 L 139.695312 27.921875 L 140.046875 28.390625 L 140.046875 28.859375 L 139.695312 29.328125 L 139.695312 30.265625 L 139.34375 30.734375 L 139.34375 33.070312 L 139.695312 33.070312 L 139.695312 34.472656 L 140.746094 34.472656 L 140.746094 34.003906 L 141.097656 34.472656 L 141.445312 34.472656 L 141.097656 34.9375 L 141.097656 35.871094 L 141.445312 35.871094 L 142.144531 36.339844 L 142.496094 36.339844 L 142.144531 37.269531 L 142.144531 37.734375 L 141.796875 39.132812 L 142.144531 39.132812 L 142.847656 39.597656 L 143.195312 39.597656 L 143.546875 40.0625 L 143.195312 40.527344 L 142.847656 40.527344 L 142.496094 40.992188 L 142.496094 42.386719 L 143.546875 42.851562 L 143.195312 43.316406 L 143.546875 44.242188 L 143.546875 44.707031 L 143.195312 45.171875 L 143.195312 45.632812 L 143.546875 45.632812 L 143.546875 46.097656 L 143.195312 46.097656 L 143.195312 46.5625 L 143.546875 47.023438 L 143.898438 47.023438 L 143.898438 48.414062 L 144.246094 48.875 L 144.246094 49.800781 L 143.898438 50.261719 L 143.898438 51.183594 L 144.246094 51.648438 L 143.898438 52.570312 L 143.546875 52.570312 L 143.546875 53.953125 L 143.898438 54.414062 L 144.597656 54.414062 L 144.949219 54.875 L 145.296875 55.335938 L 145.296875 56.253906 L 144.949219 56.714844 L 145.296875 57.636719 L 145.648438 57.636719 L 145.996094 58.09375 L 146.347656 58.09375 L 146.347656 59.015625 L 146.699219 59.472656 L 147.046875 59.933594 L 147.046875 60.851562 L 147.398438 61.308594 L 147.398438 62.226562 L 147.046875 62.683594 L 147.398438 62.683594 L 147.398438 63.144531 L 147.75 62.683594 L 148.097656 62.683594 L 148.449219 63.144531 L 148.796875 63.601562 L 149.148438 64.058594 L 149.847656 64.058594 L 150.199219 64.515625 L 150.550781 64.515625 L 150.550781 64.972656 L 150.199219 65.433594 L 150.550781 65.890625 L 150.898438 66.347656 L 150.898438 66.804688 L 151.597656 67.261719 L 151.597656 67.71875 L 151.25 68.175781 L 151.25 69.085938 L 151.597656 69.085938 L 152.300781 69.542969 L 152.648438 69.542969 L 153 70 L 35.011719 70 L 35.011719 47.023438 L 0 47.023438 "/>
</svg>
