<?xml version="1.0" encoding="UTF-8"?>
<svg xmlns="http://www.w3.org/2000/svg" xmlns:xlink="http://www.w3.org/1999/xlink" width="32" height="63" viewBox="0 0 32 63">
<path fill-rule="nonzero" fill="rgb(63.921569%, 38.431373%, 89.019608%)" fill-opacity="1" d="M 18.238281 6.917969 L 18.238281 5.933594 L 18.925781 4.453125 L 19.269531 3.957031 L 19.269531 3.464844 L 19.613281 2.96875 L 19.957031 2.476562 L 19.613281 1.980469 L 19.269531 1.980469 L 19.269531 1.484375 L 19.957031 1.484375 L 20.300781 0.992188 L 20.644531 0.496094 L 20.988281 0.496094 L 21.332031 0 L 21.675781 0 L 23.398438 0.992188 L 23.742188 1.484375 L 24.085938 1.484375 L 24.429688 0.992188 L 25.117188 0 L 25.460938 0 L 25.460938 3.957031 L 25.804688 4.945312 L 25.804688 10.367188 L 26.152344 11.839844 L 26.152344 18.214844 L 26.496094 19.679688 L 26.496094 25.046875 L 26.839844 26.019531 L 26.839844 31.359375 L 27.183594 32.8125 L 27.183594 37.648438 L 27.527344 39.09375 L 27.527344 45.347656 L 27.183594 45.828125 L 27.183594 46.785156 L 27.527344 46.785156 L 27.527344 47.265625 L 28.214844 47.746094 L 28.558594 48.703125 L 29.246094 49.183594 L 29.933594 49.660156 L 29.933594 52.050781 L 30.28125 52.53125 L 30.625 53.484375 L 31.3125 53.960938 L 30.96875 54.4375 L 32 54.4375 L 32 54.914062 L 31.65625 54.914062 L 31.65625 55.394531 L 30.625 57.296875 L 30.28125 57.773438 L 29.933594 58.25 L 29.933594 58.726562 L 28.214844 58.726562 L 26.496094 59.203125 L 26.152344 59.675781 L 25.804688 59.675781 L 25.804688 60.152344 L 24.429688 60.152344 L 24.085938 60.625 L 23.742188 61.101562 L 23.742188 61.578125 L 23.398438 61.578125 L 23.398438 62.050781 L 22.710938 62.050781 L 22.367188 62.527344 L 22.023438 62.527344 L 22.023438 63 L 16.171875 63 L 15.140625 62.527344 L 1.71875 62.527344 L 1.375 61.578125 L 1.03125 61.101562 L 0.34375 60.152344 L 0 59.675781 L 0 58.726562 L 0.34375 58.25 L 0.34375 57.773438 L 0.6875 56.820312 L 0.6875 56.347656 L 1.375 56.347656 L 1.375 55.871094 L 1.71875 54.4375 L 2.066406 53.484375 L 2.066406 52.53125 L 1.71875 52.050781 L 2.066406 51.097656 L 2.066406 49.660156 L 2.410156 49.183594 L 2.753906 48.703125 L 2.753906 42.464844 L 3.097656 41.984375 L 3.785156 41.503906 L 3.785156 41.019531 L 4.128906 40.539062 L 4.128906 39.09375 L 4.472656 38.613281 L 4.816406 38.128906 L 5.160156 38.128906 L 5.847656 37.164062 L 6.195312 36.683594 L 6.195312 36.199219 L 6.539062 35.714844 L 6.539062 34.75 L 6.882812 34.265625 L 7.914062 32.328125 L 7.570312 31.84375 L 7.570312 31.359375 L 8.601562 29.90625 L 8.601562 29.421875 L 8.945312 28.449219 L 8.945312 25.046875 L 9.289062 24.070312 L 9.976562 23.585938 L 12.042969 23.585938 L 12.386719 23.097656 L 13.074219 22.609375 L 13.074219 22.121094 L 14.796875 21.144531 L 15.140625 21.144531 L 15.484375 20.660156 L 15.484375 20.167969 L 16.171875 19.679688 L 16.515625 19.191406 L 16.515625 18.214844 L 16.859375 17.726562 L 17.546875 17.726562 L 17.546875 17.234375 L 17.203125 17.234375 L 17.203125 16.746094 L 16.515625 15.277344 L 16.515625 14.785156 L 16.171875 14.296875 L 15.828125 13.804688 L 15.828125 13.316406 L 16.515625 12.332031 L 17.203125 11.351562 L 17.890625 9.875 L 18.238281 9.382812 L 17.890625 8.890625 L 17.890625 8.398438 L 17.546875 7.90625 L 17.546875 7.414062 L 17.890625 7.414062 L 18.238281 6.917969 "/>
</svg>
