<?xml version="1.0" encoding="UTF-8"?>
<svg xmlns="http://www.w3.org/2000/svg" xmlns:xlink="http://www.w3.org/1999/xlink" width="29" height="56" viewBox="0 0 29 56">
<path fill-rule="nonzero" fill="rgb(63.921569%, 38.431373%, 89.019608%)" fill-opacity="1" d="M 0.347656 42.867188 L 0.699219 42.867188 L 0.699219 41.050781 L 0.347656 40.59375 L 0 40.136719 L 0.347656 39.683594 L 0.699219 39.683594 L 0.699219 39.226562 L 1.046875 39.226562 L 1.046875 38.769531 L 1.398438 38.316406 L 1.398438 37.859375 L 1.746094 37.859375 L 1.746094 37.402344 L 2.097656 36.492188 L 2.796875 36.035156 L 3.492188 35.578125 L 4.191406 35.121094 L 5.242188 34.664062 L 6.289062 34.664062 L 6.988281 34.207031 L 7.6875 34.207031 L 7.6875 33.75 L 8.035156 33.75 L 7.6875 33.292969 L 7.6875 32.375 L 8.035156 32.835938 L 8.386719 32.375 L 9.085938 31.460938 L 9.433594 31.003906 L 10.132812 31.003906 L 10.132812 30.542969 L 10.832031 29.628906 L 11.878906 29.628906 L 11.878906 29.167969 L 12.578125 28.710938 L 13.976562 28.710938 L 14.324219 28.25 L 14.675781 27.792969 L 14.324219 27.332031 L 13.976562 26.875 L 12.925781 25.953125 L 12.578125 25.035156 L 11.878906 24.574219 L 11.878906 24.117188 L 11.53125 24.117188 L 10.832031 23.195312 L 10.480469 22.273438 L 10.132812 21.8125 L 9.433594 22.273438 L 9.085938 21.8125 L 8.734375 21.351562 L 8.734375 20.890625 L 8.386719 19.046875 L 8.386719 18.582031 L 7.335938 18.121094 L 6.988281 18.582031 L 6.636719 18.121094 L 6.636719 17.660156 L 6.289062 17.660156 L 6.289062 14.886719 L 6.636719 14.421875 L 6.636719 13.957031 L 6.988281 13.496094 L 6.988281 13.03125 L 7.335938 13.496094 L 7.6875 13.496094 L 8.035156 13.03125 L 8.035156 12.105469 L 8.386719 12.105469 L 8.734375 11.640625 L 8.734375 10.714844 L 8.386719 10.714844 L 8.035156 10.25 L 8.035156 9.785156 L 7.6875 9.785156 L 7.6875 9.320312 L 7.335938 9.320312 L 7.335938 8.855469 L 7.6875 8.390625 L 8.035156 7.925781 L 8.386719 7.925781 L 8.734375 7.460938 L 9.433594 7.460938 L 10.132812 6.53125 L 10.132812 6.066406 L 10.480469 5.597656 L 10.832031 5.597656 L 11.878906 4.199219 L 12.230469 3.269531 L 12.230469 2.335938 L 12.578125 1.867188 L 13.277344 0.933594 L 13.625 0.933594 L 13.625 0.46875 L 14.675781 0.46875 L 15.023438 0 L 16.769531 0.933594 L 18.519531 2.335938 L 20.265625 3.269531 L 22.011719 4.199219 L 23.757812 5.597656 L 25.507812 6.53125 L 29 8.390625 L 29 8.855469 L 28.652344 9.785156 L 27.953125 11.640625 L 27.253906 13.03125 L 27.253906 13.496094 L 26.902344 13.957031 L 26.902344 14.886719 L 26.554688 14.886719 L 26.554688 15.347656 L 25.855469 15.8125 L 25.855469 16.273438 L 25.15625 16.273438 L 24.808594 16.734375 L 24.808594 16.273438 L 25.507812 15.347656 L 25.15625 14.886719 L 25.15625 15.347656 L 24.808594 15.347656 L 24.808594 15.8125 L 24.457031 16.273438 L 24.109375 16.273438 L 23.757812 16.734375 L 23.410156 17.660156 L 23.410156 18.121094 L 23.058594 18.582031 L 22.710938 18.582031 L 22.710938 19.96875 L 22.363281 19.96875 L 22.710938 20.429688 L 22.710938 20.890625 L 23.410156 20.890625 L 23.757812 21.351562 L 25.15625 21.351562 L 26.554688 21.8125 L 27.253906 22.273438 L 27.601562 22.273438 L 27.253906 21.8125 L 27.253906 21.351562 L 26.902344 20.429688 L 27.601562 20.890625 L 27.601562 25.035156 L 27.253906 26.414062 L 26.902344 27.792969 L 26.902344 28.710938 L 26.554688 29.628906 L 26.554688 31.460938 L 26.203125 32.375 L 26.203125 33.75 L 25.855469 34.207031 L 25.507812 36.492188 L 25.855469 33.292969 L 25.855469 31.917969 L 26.203125 31.460938 L 26.203125 30.085938 L 25.855469 30.085938 L 25.855469 30.542969 L 26.203125 30.542969 L 25.855469 31.003906 L 25.507812 31.003906 L 25.507812 31.460938 L 25.15625 31.460938 L 25.15625 31.917969 L 25.507812 31.917969 L 25.15625 32.835938 L 25.507812 33.292969 L 25.15625 33.75 L 24.808594 33.75 L 24.808594 34.207031 L 25.15625 34.664062 L 25.15625 35.121094 L 24.808594 35.121094 L 24.457031 36.035156 L 24.109375 36.492188 L 23.757812 37.402344 L 24.457031 37.402344 L 24.457031 38.316406 L 24.109375 38.316406 L 23.757812 38.769531 L 23.410156 39.226562 L 23.058594 39.683594 L 22.710938 39.683594 L 23.058594 40.136719 L 22.710938 40.136719 L 22.363281 40.59375 L 22.011719 40.59375 L 21.664062 41.050781 L 21.664062 41.503906 L 22.011719 41.960938 L 22.011719 42.867188 L 21.664062 42.867188 L 21.664062 42.414062 L 20.964844 41.503906 L 20.613281 41.960938 L 20.265625 41.503906 L 20.265625 42.867188 L 20.613281 42.867188 L 20.613281 43.324219 L 20.265625 44.230469 L 19.914062 43.777344 L 19.566406 43.777344 L 19.566406 44.230469 L 19.21875 44.230469 L 19.21875 45.140625 L 19.566406 45.140625 L 19.914062 45.59375 L 19.914062 46.046875 L 19.566406 46.503906 L 18.519531 46.957031 L 17.820312 46.957031 L 18.167969 46.503906 L 18.519531 46.503906 L 18.867188 46.046875 L 18.519531 45.59375 L 17.820312 46.503906 L 17.46875 46.957031 L 16.421875 46.957031 L 16.074219 47.410156 L 15.722656 47.863281 L 17.46875 47.863281 L 17.121094 48.316406 L 16.421875 49.222656 L 16.074219 49.222656 L 15.722656 49.675781 L 15.023438 51.484375 L 14.675781 51.03125 L 14.324219 51.484375 L 14.675781 51.484375 L 14.675781 51.9375 L 14.324219 52.386719 L 14.324219 52.839844 L 13.976562 53.292969 L 13.625 53.292969 L 13.625 53.742188 L 13.277344 54.648438 L 12.578125 55.097656 L 11.878906 55.550781 L 10.832031 56 L 10.480469 56 L 10.480469 54.195312 L 10.832031 53.742188 L 11.53125 51.9375 L 11.878906 51.03125 L 11.53125 50.128906 L 11.179688 50.128906 L 10.832031 49.675781 L 10.132812 49.675781 L 9.78125 50.128906 L 9.433594 50.128906 L 9.433594 49.222656 L 8.734375 49.222656 L 8.035156 49.675781 L 7.6875 49.675781 L 7.6875 50.128906 L 7.335938 50.128906 L 7.335938 49.675781 L 6.988281 49.675781 L 6.988281 48.769531 L 6.636719 48.769531 L 5.941406 48.316406 L 5.589844 47.863281 L 5.589844 47.410156 L 4.542969 47.410156 L 4.191406 46.957031 L 4.191406 46.503906 L 3.144531 46.503906 L 3.144531 46.046875 L 1.398438 44.230469 L 1.046875 43.777344 L 0.347656 43.324219 L 0.347656 42.867188 M 20.964844 44.230469 L 20.964844 43.324219 L 22.011719 43.777344 L 21.664062 43.777344 L 21.3125 44.6875 L 20.964844 45.140625 L 20.265625 45.59375 L 19.914062 45.140625 L 19.566406 44.6875 L 19.914062 44.6875 L 19.914062 45.140625 L 20.613281 45.140625 L 20.613281 44.230469 L 20.964844 44.230469 M 24.808594 37.859375 L 25.15625 37.402344 L 25.507812 37.402344 L 25.507812 36.945312 L 25.507812 37.859375 L 25.15625 38.316406 L 24.808594 39.226562 L 24.109375 40.136719 L 23.058594 41.503906 L 22.710938 42.414062 L 22.710938 41.960938 L 23.058594 41.050781 L 24.457031 38.769531 L 24.808594 37.859375 "/>
</svg>
