<?xml version="1.0" encoding="UTF-8"?>
<svg xmlns="http://www.w3.org/2000/svg" xmlns:xlink="http://www.w3.org/1999/xlink" width="104" height="156" viewBox="0 0 104 156">
<path fill-rule="nonzero" fill="rgb(63.921569%, 38.431373%, 89.019608%)" fill-opacity="1" d="M 104 0 L 104 130.296875 L 103.652344 130.726562 L 103.300781 131.160156 L 102.953125 132.019531 L 102.953125 132.882812 L 102.605469 133.746094 L 101.90625 134.175781 L 100.511719 134.175781 L 100.160156 133.746094 L 99.8125 133.746094 L 99.8125 133.3125 L 99.464844 132.882812 L 99.113281 132.019531 L 98.765625 131.589844 L 97.367188 131.589844 L 97.367188 132.019531 L 96.671875 132.019531 L 96.671875 131.589844 L 95.972656 131.589844 L 95.273438 131.160156 L 94.578125 131.160156 L 93.53125 131.589844 L 93.179688 132.019531 L 92.484375 132.019531 L 92.484375 132.453125 L 92.132812 132.453125 L 92.132812 134.175781 L 91.785156 134.175781 L 91.785156 135.035156 L 92.132812 135.46875 L 92.132812 135.898438 L 92.832031 136.757812 L 93.179688 137.1875 L 92.832031 137.617188 L 92.832031 138.046875 L 92.484375 138.476562 L 92.484375 140.195312 L 92.832031 140.625 L 93.179688 142.339844 L 93.53125 142.339844 L 93.179688 143.195312 L 93.53125 144.050781 L 93.179688 144.910156 L 93.179688 145.765625 L 93.53125 147.046875 L 94.226562 147.902344 L 94.226562 149.183594 L 94.578125 149.609375 L 94.578125 153.019531 L 93.53125 153.019531 L 93.53125 153.445312 L 93.878906 153.871094 L 93.878906 154.296875 L 93.53125 155.148438 L 93.878906 155.574219 L 93.878906 156 L 90.390625 153.019531 L 87.25 150.035156 L 83.757812 146.621094 L 80.617188 143.625 L 77.824219 141.050781 L 75.035156 138.046875 L 72.242188 135.46875 L 69.449219 132.882812 L 66.65625 129.863281 L 63.867188 127.269531 L 61.074219 124.675781 L 58.28125 122.074219 L 55.140625 119.035156 L 48.859375 112.941406 L 45.367188 109.882812 L 42.226562 106.824219 L 35.945312 100.683594 L 32.804688 97.601562 L 28.617188 94.078125 L 24.429688 90.542969 L 20.589844 87.003906 L 16.402344 83.453125 L 12.214844 79.898438 L 8.027344 75.886719 L 4.1875 72.3125 L 0 68.730469 L 0 0 L 104 0 "/>
</svg>
