<?xml version="1.0" encoding="UTF-8"?>
<svg xmlns="http://www.w3.org/2000/svg" xmlns:xlink="http://www.w3.org/1999/xlink" width="138" height="108" viewBox="0 0 138 108">
<path fill-rule="nonzero" fill="rgb(63.921569%, 38.431373%, 89.019608%)" fill-opacity="1" d="M 12.226562 46.84375 L 12.226562 45.882812 L 12.578125 45.402344 L 12.578125 44.921875 L 12.226562 43 L 12.226562 42.515625 L 13.277344 42.515625 L 15.722656 41.554688 L 17.46875 41.070312 L 18.867188 40.589844 L 24.105469 39.625 L 26.902344 40.105469 L 28.996094 39.625 L 35.285156 41.070312 L 35.636719 41.070312 L 35.636719 41.554688 L 35.984375 41.554688 L 37.382812 42.515625 L 38.082031 43 L 38.78125 43 L 40.875 42.035156 L 41.925781 42.035156 L 48.5625 42.515625 L 48.210938 42.515625 L 48.5625 43 L 49.261719 43 L 49.261719 42.035156 L 51.355469 41.554688 L 52.40625 41.070312 L 52.40625 40.589844 L 52.753906 40.589844 L 53.105469 41.070312 L 54.152344 39.625 L 54.5 39.140625 L 55.199219 38.660156 L 56.945312 37.691406 L 57.296875 37.210938 L 58.34375 36.242188 L 58.695312 36.242188 L 59.390625 36.726562 L 59.742188 36.726562 L 61.140625 36.242188 L 61.488281 36.242188 L 62.1875 35.273438 L 62.535156 35.273438 L 61.839844 34.789062 L 61.839844 34.304688 L 62.886719 33.335938 L 62.535156 32.851562 L 62.1875 32.851562 L 62.1875 33.820312 L 61.839844 32.851562 L 61.839844 31.882812 L 62.1875 31.398438 L 61.839844 31.398438 L 61.839844 30.425781 L 61.488281 29.941406 L 61.488281 29.457031 L 61.140625 28.96875 L 60.789062 28.96875 L 60.441406 28.484375 L 60.441406 27.996094 L 60.789062 27.996094 L 61.839844 27.511719 L 61.488281 27.996094 L 61.839844 28.484375 L 62.1875 27.996094 L 62.886719 27.511719 L 63.234375 27.023438 L 63.234375 26.050781 L 63.585938 26.050781 L 64.285156 25.5625 L 64.632812 25.5625 L 64.632812 25.074219 L 64.285156 24.585938 L 63.933594 25.074219 L 63.585938 25.5625 L 61.839844 25.5625 L 62.535156 24.585938 L 62.886719 24.585938 L 63.234375 24.101562 L 63.585938 23.613281 L 62.886719 23.613281 L 63.234375 23.613281 L 62.886719 23.125 L 62.1875 23.125 L 60.789062 23.613281 L 60.789062 24.101562 L 60.089844 24.101562 L 60.441406 23.613281 L 60.089844 23.125 L 59.742188 23.125 L 59.390625 22.636719 L 59.390625 21.660156 L 62.535156 19.703125 L 64.632812 18.726562 L 67.078125 16.765625 L 67.078125 16.273438 L 67.429688 16.273438 L 68.125 15.785156 L 68.476562 15.785156 L 68.476562 15.292969 L 69.523438 14.3125 L 69.523438 13.328125 L 69.175781 12.839844 L 69.875 12.347656 L 70.921875 10.871094 L 73.019531 8.898438 L 75.113281 6.925781 L 77.210938 4.953125 L 78.257812 3.960938 L 81.054688 2.476562 L 81.75 1.984375 L 82.101562 1.984375 L 82.800781 1.488281 L 83.148438 0.992188 L 84.199219 0.992188 L 84.894531 0.496094 L 85.246094 0.496094 L 85.59375 0 L 87.691406 0.496094 L 112.148438 0.496094 L 112.148438 2.476562 L 111.796875 2.972656 L 111.796875 3.46875 L 111.449219 3.46875 L 111.449219 4.457031 L 111.796875 4.953125 L 112.148438 4.953125 L 112.148438 6.433594 L 111.796875 6.925781 L 111.796875 7.914062 L 111.449219 8.898438 L 111.449219 9.886719 L 111.796875 10.871094 L 111.796875 11.363281 L 112.496094 12.839844 L 112.84375 13.328125 L 112.84375 15.292969 L 112.496094 15.785156 L 112.148438 16.273438 L 112.148438 16.765625 L 112.496094 17.746094 L 112.496094 19.214844 L 112.148438 19.703125 L 111.449219 19.703125 L 111.449219 21.171875 L 110.75 23.125 L 110.398438 23.613281 L 110.398438 24.101562 L 110.75 24.101562 L 110.75 24.585938 L 111.097656 25.074219 L 110.75 25.5625 L 110.75 26.050781 L 111.097656 27.023438 L 111.097656 27.511719 L 111.449219 27.511719 L 111.449219 29.457031 L 111.796875 29.941406 L 111.796875 31.398438 L 110.75 33.820312 L 110.75 35.273438 L 111.449219 35.273438 L 111.796875 34.789062 L 111.796875 34.304688 L 112.84375 34.304688 L 113.195312 35.273438 L 113.542969 35.757812 L 113.894531 35.757812 L 113.894531 38.175781 L 113.542969 39.140625 L 113.542969 53.074219 L 113.195312 53.550781 L 113.195312 55.460938 L 113.542969 55.460938 L 113.195312 55.941406 L 112.84375 57.847656 L 112.148438 59.753906 L 111.796875 61.179688 L 111.449219 63.082031 L 111.097656 64.503906 L 110.398438 66.402344 L 110.050781 68.296875 L 109.703125 69.714844 L 109.351562 70.660156 L 109.351562 71.132812 L 109.703125 71.605469 L 109.703125 73.964844 L 109.351562 74.90625 L 109.351562 79.144531 L 109.003906 80.550781 L 109.003906 84.769531 L 108.652344 85.707031 L 108.652344 89.445312 L 109.003906 89.910156 L 109.003906 90.378906 L 109.351562 90.84375 L 109.703125 91.3125 L 109.351562 91.777344 L 108.652344 92.242188 L 107.605469 92.707031 L 106.558594 93.175781 L 105.859375 93.640625 L 105.507812 94.105469 L 105.859375 95.035156 L 106.558594 95.5 L 106.558594 95.964844 L 106.90625 95.964844 L 106.90625 96.429688 L 106.558594 96.894531 L 106.207031 97.359375 L 105.507812 97.359375 L 105.507812 97.824219 L 104.808594 98.285156 L 104.460938 98.75 L 104.460938 99.214844 L 103.761719 99.214844 L 103.761719 100.140625 L 104.113281 100.605469 L 103.0625 100.605469 L 102.363281 101.066406 L 102.015625 101.066406 L 101.664062 100.605469 L 102.015625 100.140625 L 102.015625 99.679688 L 102.363281 99.679688 L 102.015625 99.214844 L 102.363281 97.824219 L 102.714844 96.894531 L 102.714844 92.242188 L 102.363281 91.777344 L 102.363281 91.3125 L 101.664062 90.84375 L 101.316406 90.378906 L 101.316406 89.910156 L 101.664062 89.445312 L 101.664062 88.976562 L 101.316406 89.445312 L 100.96875 89.445312 L 100.96875 91.3125 L 101.316406 91.777344 L 101.316406 92.242188 L 101.664062 92.242188 L 102.015625 92.707031 L 102.015625 94.105469 L 102.363281 95.964844 L 102.363281 96.429688 L 97.125 93.640625 L 95.378906 92.242188 L 93.628906 91.3125 L 91.882812 90.378906 L 90.136719 88.976562 L 88.390625 88.042969 L 88.390625 87.578125 L 88.039062 87.109375 L 87.691406 86.640625 L 87.691406 86.175781 L 87.339844 86.175781 L 86.992188 86.640625 L 86.644531 86.175781 L 85.246094 86.175781 L 84.894531 85.707031 L 84.546875 85.707031 L 84.546875 85.238281 L 83.847656 85.238281 L 83.5 84.769531 L 83.148438 84.304688 L 82.449219 82.429688 L 82.101562 82.429688 L 82.101562 80.550781 L 81.75 79.613281 L 82.101562 79.144531 L 82.101562 78.203125 L 81.75 78.203125 L 81.402344 77.734375 L 81.75 77.261719 L 81.402344 76.792969 L 81.054688 76.320312 L 80.703125 76.320312 L 80.355469 75.851562 L 78.957031 75.851562 L 78.609375 75.378906 L 78.609375 74.4375 L 78.257812 73.964844 L 77.558594 73.492188 L 77.210938 73.492188 L 77.210938 73.023438 L 0 73.023438 L 0 66.402344 L 0.347656 66.402344 L 1.046875 65.929688 L 2.445312 64.980469 L 3.492188 64.503906 L 3.84375 64.03125 L 4.191406 64.03125 L 4.890625 63.554688 L 5.9375 62.132812 L 6.289062 62.132812 L 6.636719 61.65625 L 6.988281 61.65625 L 6.988281 61.179688 L 8.035156 61.179688 L 8.734375 60.230469 L 9.082031 59.753906 L 10.480469 59.277344 L 10.832031 58.800781 L 11.527344 57.847656 L 11.878906 57.371094 L 12.226562 56.894531 L 12.578125 55.941406 L 13.277344 55.460938 L 14.671875 54.984375 L 15.023438 54.984375 L 15.371094 54.507812 L 15.371094 54.03125 L 15.722656 53.550781 L 15.722656 52.597656 L 15.371094 52.597656 L 15.023438 51.640625 L 15.023438 50.203125 L 14.671875 50.203125 L 14.324219 49.722656 L 14.671875 49.242188 L 15.023438 48.765625 L 15.371094 47.804688 L 14.671875 47.324219 L 12.925781 47.324219 L 12.226562 46.84375 M 101.664062 101.066406 L 101.664062 101.53125 L 100.96875 102.457031 L 100.96875 102.917969 L 100.617188 103.382812 L 100.269531 103.382812 L 100.269531 102.457031 L 100.617188 101.996094 L 100.96875 101.53125 L 101.664062 99.679688 L 102.015625 99.214844 L 102.015625 100.140625 L 101.664062 100.605469 L 101.664062 101.066406 M 113.542969 104.769531 L 112.496094 104.769531 L 111.449219 105.230469 L 107.953125 106.15625 L 108.304688 105.691406 L 110.398438 105.230469 L 111.097656 105.230469 L 111.449219 104.769531 L 113.542969 104.769531 M 98.523438 104.769531 L 99.21875 104.769531 L 99.21875 105.230469 L 99.570312 105.230469 L 99.570312 105.691406 L 98.871094 106.617188 L 98.171875 107.078125 L 97.824219 107.539062 L 97.125 107.539062 L 97.125 108 L 96.074219 108 L 96.425781 107.539062 L 96.425781 107.078125 L 96.773438 106.617188 L 97.125 106.617188 L 97.125 105.230469 L 97.472656 104.769531 L 98.523438 104.769531 M 120.183594 102.457031 L 120.882812 102.457031 L 121.929688 101.996094 L 122.277344 101.996094 L 121.578125 101.996094 L 120.882812 102.457031 L 119.484375 102.917969 L 118.085938 103.84375 L 117.386719 103.84375 L 115.640625 104.769531 L 113.894531 105.230469 L 112.84375 105.230469 L 113.542969 105.230469 L 114.941406 104.308594 L 116.339844 104.308594 L 117.386719 103.84375 L 117.738281 103.382812 L 119.132812 102.917969 L 119.484375 102.917969 L 120.183594 102.457031 M 136.953125 95.035156 L 136.601562 94.570312 L 138 94.570312 L 138 95.035156 L 137.652344 95.5 L 136.953125 95.5 L 135.554688 96.429688 L 132.757812 97.359375 L 131.710938 97.824219 L 129.964844 98.75 L 128.917969 99.214844 L 128.566406 99.679688 L 127.867188 99.679688 L 127.867188 99.214844 L 126.820312 99.214844 L 126.820312 100.140625 L 126.121094 100.605469 L 125.074219 101.066406 L 123.328125 101.53125 L 122.976562 101.53125 L 122.628906 101.996094 L 122.628906 101.53125 L 122.976562 101.53125 L 123.675781 101.066406 L 124.023438 101.066406 L 122.628906 101.066406 L 122.277344 101.53125 L 121.230469 101.53125 L 121.230469 101.996094 L 120.882812 101.996094 L 120.53125 102.457031 L 120.183594 102.457031 L 120.183594 101.996094 L 119.484375 101.996094 L 119.132812 102.457031 L 117.386719 102.457031 L 117.039062 102.917969 L 115.988281 102.917969 L 115.988281 102.457031 L 115.640625 102.917969 L 115.640625 103.382812 L 114.242188 103.382812 L 113.894531 102.917969 L 113.894531 103.382812 L 113.542969 103.382812 L 113.195312 103.84375 L 112.496094 103.84375 L 111.449219 104.308594 L 111.097656 104.308594 L 109.351562 104.769531 L 108.304688 104.769531 L 107.253906 105.230469 L 106.90625 105.691406 L 106.558594 105.691406 L 106.558594 105.230469 L 105.507812 105.230469 L 105.507812 105.691406 L 107.953125 105.691406 L 107.953125 106.15625 L 103.761719 106.15625 L 102.363281 106.617188 L 101.664062 107.078125 L 101.664062 106.617188 L 103.0625 106.15625 L 104.460938 105.691406 L 104.460938 105.230469 L 104.113281 104.769531 L 102.714844 104.769531 L 102.363281 105.230469 L 102.714844 105.691406 L 102.714844 106.15625 L 101.664062 106.15625 L 100.96875 106.617188 L 100.617188 106.15625 L 100.617188 105.691406 L 99.917969 105.691406 L 99.917969 104.769531 L 100.269531 104.769531 L 100.269531 103.84375 L 100.617188 103.382812 L 101.316406 103.382812 L 101.316406 102.457031 L 101.664062 101.53125 L 103.0625 101.53125 L 103.761719 101.066406 L 104.460938 101.066406 L 104.808594 101.53125 L 104.808594 100.140625 L 105.160156 100.140625 L 105.507812 100.605469 L 105.507812 101.066406 L 105.859375 100.605469 L 105.859375 100.140625 L 105.160156 100.140625 L 105.160156 99.679688 L 106.207031 99.679688 L 106.558594 100.140625 L 106.558594 100.605469 L 106.90625 100.140625 L 106.558594 99.679688 L 106.90625 98.75 L 108.304688 98.285156 L 109.003906 98.285156 L 109.003906 98.75 L 108.652344 98.75 L 108.652344 99.214844 L 109.351562 99.214844 L 109.351562 98.75 L 109.351562 99.214844 L 109.703125 99.214844 L 109.703125 98.75 L 110.050781 98.75 L 109.703125 98.285156 L 109.351562 98.285156 L 109.703125 97.824219 L 110.398438 97.824219 L 110.398438 98.75 L 111.796875 98.75 L 111.796875 98.285156 L 111.097656 98.285156 L 110.75 97.824219 L 111.097656 97.824219 L 111.097656 97.359375 L 111.449219 97.824219 L 111.796875 97.824219 L 112.496094 98.285156 L 113.894531 98.285156 L 113.894531 98.75 L 114.242188 98.75 L 114.941406 98.285156 L 115.292969 97.824219 L 115.640625 97.824219 L 115.292969 97.359375 L 115.640625 97.359375 L 115.988281 96.894531 L 116.339844 97.359375 L 116.339844 97.824219 L 116.6875 97.359375 L 116.6875 96.894531 L 117.386719 97.359375 L 121.929688 97.359375 L 123.328125 96.894531 L 125.074219 96.894531 L 127.167969 95.035156 L 127.519531 94.570312 L 128.21875 94.570312 L 128.917969 94.105469 L 129.265625 93.175781 L 129.613281 93.175781 L 130.664062 92.707031 L 131.363281 92.707031 L 131.363281 93.175781 L 131.011719 93.640625 L 130.664062 93.640625 L 130.3125 93.175781 L 129.613281 93.640625 L 128.21875 95.035156 L 128.566406 95.035156 L 128.566406 95.5 L 127.867188 95.5 L 127.867188 96.429688 L 127.167969 96.429688 L 126.820312 96.894531 L 126.121094 96.894531 L 126.121094 97.359375 L 125.773438 97.824219 L 125.074219 97.824219 L 124.722656 98.285156 L 124.722656 98.75 L 125.421875 98.75 L 125.773438 98.285156 L 126.121094 98.285156 L 126.472656 98.75 L 127.167969 98.75 L 127.519531 98.285156 L 127.867188 98.285156 L 127.867188 97.824219 L 128.21875 97.824219 L 128.566406 97.359375 L 128.917969 96.894531 L 129.265625 96.429688 L 129.964844 96.429688 L 129.613281 95.5 L 130.3125 95.5 L 130.3125 96.429688 L 130.664062 96.429688 L 131.011719 95.964844 L 131.363281 95.964844 L 131.363281 95.5 L 131.710938 95.5 L 132.410156 96.429688 L 132.410156 95.5 L 132.757812 95.035156 L 133.457031 95.964844 L 133.457031 96.429688 L 134.15625 96.429688 L 134.855469 95.964844 L 135.203125 95.5 L 136.253906 95.5 L 136.253906 95.035156 L 136.601562 94.570312 L 136.601562 95.035156 L 136.953125 95.035156 M 135.554688 90.378906 L 135.203125 90.378906 L 134.855469 90.84375 L 134.855469 90.378906 L 135.203125 90.378906 L 135.203125 89.910156 L 135.554688 90.378906 L 135.554688 89.910156 L 136.253906 89.910156 L 136.601562 89.445312 L 136.953125 89.445312 L 136.953125 89.910156 L 135.902344 89.910156 L 135.902344 90.378906 L 135.554688 90.378906 M 129.613281 94.105469 L 129.964844 94.105469 L 130.3125 94.570312 L 130.664062 94.570312 L 130.664062 95.5 L 129.265625 95.5 L 128.917969 95.035156 L 129.613281 94.105469 M 133.109375 93.640625 L 133.808594 94.105469 L 134.15625 94.105469 L 134.15625 95.035156 L 133.808594 95.035156 L 133.808594 94.105469 L 133.109375 94.105469 L 133.457031 94.105469 L 133.109375 93.640625 M 13.625 49.722656 L 13.277344 49.242188 L 12.925781 49.242188 L 12.925781 48.765625 L 13.277344 47.804688 L 13.625 47.804688 L 13.976562 47.324219 L 14.324219 47.804688 L 14.671875 47.804688 L 15.023438 48.285156 L 14.671875 48.285156 L 13.976562 49.722656 L 13.625 49.722656 M 64.632812 16.765625 L 65.332031 16.765625 L 65.332031 16.273438 L 65.679688 16.273438 L 65.679688 16.765625 L 66.03125 16.273438 L 66.378906 15.785156 L 66.378906 16.273438 L 66.730469 15.785156 L 67.078125 15.785156 L 66.730469 16.273438 L 66.378906 16.765625 L 66.03125 17.253906 L 65.679688 17.253906 L 65.332031 17.746094 L 64.980469 17.746094 L 64.980469 17.253906 L 64.632812 16.765625 M 62.886719 18.234375 L 62.886719 17.746094 L 63.585938 17.746094 L 63.933594 17.253906 L 63.933594 17.746094 L 64.285156 17.746094 L 64.285156 17.253906 L 64.632812 17.746094 L 64.285156 17.746094 L 63.585938 18.726562 L 62.886719 18.726562 L 62.886719 18.234375 M 61.839844 24.101562 L 61.839844 25.074219 L 61.488281 25.074219 L 60.789062 25.5625 L 60.789062 24.585938 L 61.140625 24.101562 L 61.839844 24.101562 "/>
</svg>
