<?xml version="1.0" encoding="UTF-8"?>
<svg xmlns="http://www.w3.org/2000/svg" xmlns:xlink="http://www.w3.org/1999/xlink" width="75" height="82" viewBox="0 0 75 82">
<path fill-rule="nonzero" fill="rgb(63.921569%, 38.431373%, 89.019608%)" fill-opacity="1" d="M 75 0 L 75 31.203125 L 74.652344 31.203125 L 73.953125 31.664062 L 72.90625 31.664062 L 72.210938 32.585938 L 72.558594 32.585938 L 72.90625 33.507812 L 73.253906 34.425781 L 73.605469 34.886719 L 73.605469 35.804688 L 73.253906 36.726562 L 73.253906 37.183594 L 73.605469 37.183594 L 73.605469 38.5625 L 73.253906 39.480469 L 72.90625 39.9375 L 72.558594 39.9375 L 72.210938 40.855469 L 72.210938 41.3125 L 71.859375 42.226562 L 71.859375 42.6875 L 71.511719 43.601562 L 71.164062 44.058594 L 71.164062 46.34375 L 70.8125 46.34375 L 70.8125 47.710938 L 70.117188 47.710938 L 70.117188 49.078125 L 69.765625 49.078125 L 69.765625 49.535156 L 69.417969 49.988281 L 69.417969 50.445312 L 69.070312 50.902344 L 68.722656 50.902344 L 69.417969 51.808594 L 69.417969 52.71875 L 69.070312 52.71875 L 69.070312 53.628906 L 68.722656 54.082031 L 68.722656 54.539062 L 67.675781 54.992188 L 65.582031 56.351562 L 65.234375 57.261719 L 64.535156 58.167969 L 63.835938 58.621094 L 63.488281 58.621094 L 62.789062 59.523438 L 62.441406 59.523438 L 62.09375 59.976562 L 61.046875 59.976562 L 60.699219 60.429688 L 60 60.429688 L 59.652344 59.976562 L 59.300781 59.523438 L 58.253906 59.523438 L 56.859375 60.882812 L 56.859375 62.238281 L 54.765625 62.238281 L 54.417969 63.140625 L 53.722656 64.046875 L 53.371094 64.496094 L 53.371094 66.300781 L 52.324219 66.75 L 52.324219 67.203125 L 52.675781 67.203125 L 52.675781 67.652344 L 53.023438 67.652344 L 53.023438 69.453125 L 53.371094 69.902344 L 52.675781 69.902344 L 52.324219 69.453125 L 51.976562 69.902344 L 51.976562 70.351562 L 51.628906 70.800781 L 51.277344 71.25 L 50.582031 71.25 L 50.582031 70.351562 L 50.929688 70.351562 L 50.929688 69.902344 L 50.582031 69.453125 L 50.582031 69.003906 L 50.234375 68.554688 L 49.882812 68.554688 L 49.535156 68.101562 L 48.835938 68.101562 L 48.140625 68.554688 L 47.441406 69.453125 L 47.09375 70.351562 L 46.746094 70.800781 L 46.746094 72.148438 L 46.394531 72.148438 L 46.046875 73.046875 L 45.699219 73.046875 L 45.699219 73.496094 L 45.347656 73.945312 L 45.699219 74.394531 L 46.046875 74.84375 L 46.046875 75.289062 L 45.699219 75.738281 L 45.699219 76.1875 L 46.046875 76.632812 L 46.046875 77.082031 L 45.699219 77.53125 L 44.652344 77.53125 L 44.300781 77.976562 L 44.300781 78.425781 L 43.953125 80.214844 L 43.605469 80.660156 L 43.253906 81.105469 L 41.859375 81.105469 L 40.464844 82 L 39.417969 82 L 39.070312 81.554688 L 38.722656 81.105469 L 38.371094 80.660156 L 38.371094 80.214844 L 36.976562 78.871094 L 36.277344 78.425781 L 35.582031 78.425781 L 34.882812 77.976562 L 34.1875 77.082031 L 33.835938 75.289062 L 33.835938 74.394531 L 33.488281 73.945312 L 33.140625 74.394531 L 32.09375 74.84375 L 31.046875 74.84375 L 31.046875 75.289062 L 30.699219 75.289062 L 30.347656 75.738281 L 30 75.738281 L 30 76.1875 L 29.652344 76.1875 L 29.652344 76.632812 L 29.300781 77.082031 L 27.210938 77.082031 L 27.210938 77.53125 L 26.164062 77.53125 L 26.164062 77.082031 L 25.8125 76.632812 L 25.464844 76.1875 L 24.765625 76.1875 L 24.417969 75.738281 L 23.371094 75.738281 L 23.023438 75.289062 L 22.324219 75.289062 L 21.277344 75.738281 L 20.929688 75.738281 L 20.929688 76.1875 L 20.582031 76.632812 L 19.1875 76.632812 L 18.488281 76.1875 L 17.441406 74.84375 L 17.09375 74.84375 L 16.746094 74.394531 L 16.746094 73.945312 L 16.046875 73.496094 L 12.90625 73.496094 L 10.8125 72.597656 L 10.464844 72.597656 L 10.464844 71.699219 L 10.117188 71.25 L 10.117188 70.351562 L 9.765625 70.351562 L 9.417969 69.902344 L 9.417969 69.453125 L 9.070312 69.003906 L 9.070312 68.101562 L 8.722656 68.101562 L 8.023438 67.652344 L 7.675781 67.203125 L 6.976562 67.203125 L 6.628906 66.75 L 6.628906 66.300781 L 6.277344 65.851562 L 5.582031 66.300781 L 3.835938 66.75 L 3.140625 66.75 L 2.441406 65.851562 L 2.09375 65.851562 L 1.746094 65.398438 L 1.046875 65.398438 L 1.046875 65.851562 L 0 66.300781 L 0 38.5625 L 0.347656 36.726562 L 0.347656 6.574219 L 9.070312 6.574219 L 10.464844 6.105469 L 21.976562 6.105469 L 23.722656 5.636719 L 23.722656 6.105469 L 25.117188 6.574219 L 26.511719 6.574219 L 27.558594 7.511719 L 27.90625 7.976562 L 28.953125 8.445312 L 30 8.445312 L 30.699219 8.914062 L 31.394531 9.847656 L 32.09375 10.316406 L 34.1875 10.316406 L 34.1875 9.847656 L 34.535156 9.382812 L 34.535156 8.914062 L 34.882812 9.382812 L 35.234375 9.847656 L 35.234375 10.316406 L 35.582031 10.316406 L 35.929688 9.847656 L 36.628906 10.316406 L 36.976562 10.316406 L 36.976562 10.785156 L 35.929688 10.785156 L 35.234375 11.25 L 32.789062 11.25 L 32.441406 11.71875 L 32.09375 11.71875 L 32.09375 12.183594 L 31.746094 11.71875 L 31.746094 12.183594 L 30.699219 12.183594 L 31.746094 12.183594 L 32.09375 12.652344 L 32.441406 12.652344 L 32.441406 12.183594 L 33.140625 12.652344 L 33.835938 12.652344 L 34.882812 11.71875 L 35.582031 11.71875 L 35.929688 12.183594 L 37.675781 12.183594 L 38.722656 13.117188 L 38.371094 12.652344 L 37.324219 11.71875 L 37.324219 11.25 L 37.675781 11.71875 L 37.675781 12.183594 L 38.371094 12.183594 L 39.765625 13.117188 L 40.464844 13.585938 L 41.511719 13.585938 L 42.210938 13.117188 L 42.558594 12.652344 L 43.953125 12.652344 L 44.652344 12.183594 L 46.046875 11.71875 L 48.488281 10.785156 L 49.1875 10.785156 L 51.277344 11.25 L 51.628906 11.71875 L 51.976562 11.25 L 53.722656 11.25 L 54.417969 10.785156 L 54.765625 10.785156 L 60.699219 6.105469 L 66.277344 3.289062 L 67.324219 2.820312 L 67.675781 2.820312 L 68.371094 2.351562 L 68.722656 2.351562 L 69.070312 1.882812 L 69.765625 1.882812 L 70.464844 1.410156 L 75 0 "/>
</svg>
