<?xml version="1.0" encoding="UTF-8"?>
<svg xmlns="http://www.w3.org/2000/svg" xmlns:xlink="http://www.w3.org/1999/xlink" width="149" height="72" viewBox="0 0 149 72">
<path fill-rule="nonzero" fill="rgb(63.921569%, 38.431373%, 89.019608%)" fill-opacity="1" d="M 0 10.90625 L 0 0 L 145.867188 0 L 145.867188 10.90625 L 146.214844 13.949219 L 146.5625 16.984375 L 146.910156 20.015625 L 147.609375 23.039062 L 147.957031 26.0625 L 148.652344 32.085938 L 149 35.089844 L 149 39.796875 L 148.652344 44.070312 L 148.652344 58.089844 L 148.304688 62.738281 L 148.304688 72 L 147.609375 72 L 147.257812 71.578125 L 146.214844 71.578125 L 146.214844 71.160156 L 145.519531 71.160156 L 145.171875 70.738281 L 143.777344 70.738281 L 143.429688 69.898438 L 142.734375 69.898438 L 141.339844 69.480469 L 140.644531 69.058594 L 140.644531 68.636719 L 140.296875 68.21875 L 139.949219 68.21875 L 139.949219 67.375 L 138.554688 67.375 L 138.554688 66.953125 L 137.859375 66.53125 L 137.511719 66.113281 L 136.816406 66.113281 L 136.816406 65.691406 L 136.46875 65.691406 L 135.421875 65.269531 L 135.074219 65.269531 L 134.726562 65.691406 L 134.726562 66.53125 L 134.378906 66.113281 L 134.378906 66.53125 L 134.03125 66.53125 L 133.683594 66.953125 L 133.683594 66.53125 L 133.335938 66.53125 L 133.335938 67.375 L 132.984375 67.375 L 131.59375 66.953125 L 131.246094 67.375 L 131.246094 66.953125 L 129.851562 66.953125 L 129.851562 66.113281 L 129.503906 65.691406 L 129.15625 65.691406 L 128.808594 65.269531 L 128.808594 65.691406 L 128.460938 66.113281 L 127.414062 66.113281 L 127.066406 66.53125 L 125.675781 66.53125 L 125.675781 67.375 L 124.28125 67.375 L 123.238281 66.953125 L 123.238281 66.53125 L 122.890625 66.53125 L 122.542969 66.953125 L 122.195312 66.953125 L 122.195312 67.375 L 121.847656 67.375 L 121.148438 67.796875 L 119.410156 67.796875 L 119.410156 68.21875 L 119.0625 68.21875 L 118.710938 69.058594 L 118.363281 69.480469 L 116.625 69.480469 L 116.625 70.320312 L 116.277344 70.738281 L 115.578125 70.320312 L 115.230469 69.480469 L 114.535156 69.058594 L 113.140625 69.058594 L 113.140625 68.636719 L 112.792969 68.636719 L 112.792969 68.21875 L 112.445312 68.21875 L 111.75 67.796875 L 111.402344 67.796875 L 111.402344 66.953125 L 111.75 66.53125 L 111.402344 66.53125 L 111.054688 66.113281 L 110.359375 66.113281 L 110.359375 66.53125 L 110.007812 66.953125 L 110.007812 67.375 L 109.660156 67.375 L 109.660156 67.796875 L 108.964844 67.796875 L 108.617188 67.375 L 108.269531 67.375 L 107.921875 66.953125 L 107.222656 67.375 L 106.527344 66.53125 L 106.527344 65.691406 L 106.179688 65.691406 L 106.179688 65.269531 L 104.789062 65.269531 L 104.789062 66.53125 L 104.4375 66.953125 L 104.089844 67.375 L 103.046875 67.375 L 103.046875 67.796875 L 103.394531 67.796875 L 103.394531 68.21875 L 103.046875 68.636719 L 103.046875 69.480469 L 102.699219 69.898438 L 102.351562 70.320312 L 102.003906 70.320312 L 101.652344 69.898438 L 101.304688 69.480469 L 100.957031 69.058594 L 100.957031 68.21875 L 101.304688 67.375 L 101.304688 66.53125 L 100.957031 66.53125 L 100.609375 66.113281 L 100.609375 66.53125 L 100.261719 66.53125 L 100.261719 66.953125 L 99.914062 67.375 L 99.21875 66.953125 L 98.871094 67.375 L 98.519531 67.375 L 98.519531 67.796875 L 97.824219 67.796875 L 96.78125 68.21875 L 96.433594 67.796875 L 96.433594 66.53125 L 94.34375 66.53125 L 93.996094 66.113281 L 93.996094 64.847656 L 93.300781 64.425781 L 92.601562 64.847656 L 91.90625 65.269531 L 90.515625 66.953125 L 89.816406 67.375 L 89.121094 67.375 L 88.425781 66.953125 L 88.078125 66.953125 L 87.730469 66.53125 L 87.730469 66.113281 L 88.078125 65.691406 L 88.078125 65.269531 L 87.730469 65.269531 L 88.078125 64.847656 L 87.730469 64.425781 L 87.03125 64.425781 L 85.988281 64.003906 L 85.640625 64.003906 L 85.292969 63.160156 L 85.292969 61.472656 L 83.898438 61.472656 L 83.550781 61.894531 L 81.113281 61.472656 L 80.765625 61.472656 L 79.722656 62.738281 L 78.328125 62.738281 L 77.632812 61.894531 L 77.285156 61.894531 L 76.9375 61.050781 L 75.542969 61.050781 L 74.5 61.472656 L 74.152344 61.472656 L 72.0625 61.050781 L 71.714844 60.625 L 70.324219 59.78125 L 69.625 59.78125 L 69.625 60.203125 L 68.929688 60.203125 L 68.234375 59.78125 L 66.492188 59.78125 L 66.144531 59.359375 L 66.144531 57.242188 L 65.449219 56.820312 L 65.449219 56.394531 L 65.101562 55.972656 L 65.101562 55.546875 L 64.054688 55.546875 L 63.707031 55.125 L 63.707031 54.699219 L 63.011719 54.699219 L 62.664062 55.972656 L 62.664062 56.394531 L 61.621094 56.394531 L 60.921875 55.972656 L 60.226562 55.546875 L 59.878906 55.546875 L 59.878906 55.972656 L 59.53125 55.972656 L 59.53125 56.394531 L 58.136719 56.394531 L 57.789062 55.972656 L 57.441406 55.972656 L 57.09375 55.125 L 54.308594 52.578125 L 53.960938 52.15625 L 52.21875 52.15625 L 52.21875 10.90625 L 0 10.90625 "/>
</svg>
