<?xml version="1.0" encoding="UTF-8"?>
<svg xmlns="http://www.w3.org/2000/svg" xmlns:xlink="http://www.w3.org/1999/xlink" width="141" height="104" viewBox="0 0 141 104">
<path fill-rule="nonzero" fill="rgb(63.921569%, 38.431373%, 89.019608%)" fill-opacity="1" d="M 1.042969 82.164062 L 1.742188 80.246094 L 1.742188 79.769531 L 2.089844 79.769531 L 2.089844 78.332031 L 2.4375 77.371094 L 2.4375 76.890625 L 3.132812 74.007812 L 2.785156 73.046875 L 2.785156 72.566406 L 3.132812 72.085938 L 3.480469 72.085938 L 3.828125 71.601562 L 4.179688 72.085938 L 4.179688 73.046875 L 4.527344 72.566406 L 4.179688 72.085938 L 4.527344 71.601562 L 4.875 71.121094 L 4.875 70.640625 L 5.222656 70.15625 L 5.917969 70.15625 L 5.917969 71.121094 L 6.265625 71.121094 L 6.613281 71.601562 L 6.964844 71.601562 L 7.3125 71.121094 L 6.964844 71.121094 L 6.613281 70.640625 L 6.265625 70.640625 L 6.265625 69.191406 L 5.570312 69.675781 L 5.222656 70.15625 L 4.875 70.15625 L 4.875 70.640625 L 4.179688 71.601562 L 3.828125 71.601562 L 4.527344 70.15625 L 5.570312 67.261719 L 5.917969 66.292969 L 5.917969 65.328125 L 6.265625 64.359375 L 6.613281 63.875 L 6.964844 63.875 L 6.964844 63.390625 L 7.3125 62.90625 L 7.3125 62.421875 L 8.007812 63.390625 L 8.355469 63.390625 L 8.355469 62.90625 L 8.007812 62.90625 L 7.660156 62.421875 L 6.964844 62.421875 L 6.964844 62.90625 L 6.613281 63.390625 L 6.265625 63.875 L 6.265625 62.90625 L 6.613281 61.9375 L 6.964844 59.023438 L 7.3125 57.566406 L 7.3125 56.105469 L 7.660156 56.105469 L 7.3125 55.132812 L 7.660156 53.667969 L 7.660156 50.253906 L 8.007812 49.273438 L 8.007812 48.785156 L 7.660156 48.785156 L 7.660156 48.296875 L 8.007812 48.296875 L 8.355469 46.824219 L 8.355469 45.84375 L 8.703125 45.84375 L 8.703125 45.355469 L 9.050781 45.84375 L 9.398438 46.335938 L 9.398438 45.355469 L 8.355469 45.355469 L 8.355469 43.882812 L 8.703125 41.425781 L 8.703125 40.933594 L 9.398438 40.933594 L 9.398438 41.425781 L 9.75 41.425781 L 9.75 40.933594 L 9.050781 40.933594 L 9.050781 40.441406 L 8.703125 40.933594 L 8.355469 40.933594 L 8.703125 40.441406 L 8.703125 39.457031 L 8.355469 39.457031 L 8.703125 39.457031 L 8.703125 37.484375 L 8.355469 36.992188 L 8.703125 36.5 L 8.703125 35.511719 L 9.050781 35.015625 L 9.050781 34.027344 L 9.398438 34.027344 L 9.398438 31.554688 L 9.75 30.5625 L 9.398438 30.066406 L 9.75 29.570312 L 10.097656 29.074219 L 10.097656 27.585938 L 10.445312 27.089844 L 10.445312 26.59375 L 10.097656 26.09375 L 10.445312 25.101562 L 10.445312 24.105469 L 10.097656 23.109375 L 9.75 23.109375 L 10.097656 23.109375 L 10.097656 22.113281 L 10.445312 21.613281 L 10.445312 21.113281 L 10.445312 22.113281 L 10.792969 22.113281 L 10.792969 21.613281 L 11.140625 21.113281 L 10.445312 20.617188 L 10.097656 20.117188 L 10.097656 19.117188 L 10.445312 18.617188 L 10.445312 18.117188 L 10.792969 17.617188 L 10.792969 19.117188 L 11.140625 19.117188 L 11.140625 19.617188 L 11.488281 19.617188 L 11.835938 19.117188 L 11.835938 18.617188 L 11.488281 18.617188 L 11.488281 17.617188 L 10.792969 17.617188 L 10.445312 17.117188 L 10.445312 16.617188 L 10.792969 16.117188 L 10.792969 15.617188 L 11.140625 15.113281 L 11.140625 14.113281 L 11.488281 14.613281 L 11.835938 14.613281 L 11.835938 14.113281 L 10.792969 14.113281 L 10.792969 15.113281 L 10.792969 13.109375 L 10.445312 13.109375 L 10.445312 12.605469 L 10.097656 12.605469 L 10.445312 12.105469 L 10.445312 8.585938 L 9.75 8.082031 L 10.097656 8.082031 L 10.097656 7.578125 L 10.445312 7.578125 L 10.445312 7.074219 L 10.792969 7.074219 L 11.140625 6.570312 L 11.140625 5.5625 L 10.792969 4.550781 L 10.445312 3.542969 L 9.75 1.519531 L 9.398438 0.507812 L 9.75 0.507812 L 10.097656 1.011719 L 10.445312 1.011719 L 10.445312 1.519531 L 11.140625 1.519531 L 11.140625 2.023438 L 11.488281 2.023438 L 11.488281 2.53125 L 12.882812 2.53125 L 12.882812 3.542969 L 13.230469 4.046875 L 13.230469 3.035156 L 13.578125 3.035156 L 13.230469 2.53125 L 12.882812 2.023438 L 12.183594 2.023438 L 12.535156 1.519531 L 12.882812 2.023438 L 13.230469 1.519531 L 13.925781 1.519531 L 14.273438 2.023438 L 16.363281 2.023438 L 16.710938 1.519531 L 16.363281 1.519531 L 17.058594 1.519531 L 17.40625 1.011719 L 17.753906 1.011719 L 17.753906 0.507812 L 18.800781 0.507812 L 18.800781 1.011719 L 19.148438 1.519531 L 19.496094 1.519531 L 19.496094 2.023438 L 19.84375 2.53125 L 20.191406 2.53125 L 20.539062 3.035156 L 23.324219 3.035156 L 23.675781 2.53125 L 23.675781 2.023438 L 25.761719 2.023438 L 26.460938 2.53125 L 26.808594 3.035156 L 27.851562 3.035156 L 28.199219 3.542969 L 28.546875 4.046875 L 28.894531 4.046875 L 29.246094 4.550781 L 29.59375 5.5625 L 29.59375 6.066406 L 29.941406 6.570312 L 30.289062 6.570312 L 30.636719 7.074219 L 30.636719 8.585938 L 30.984375 9.589844 L 30.984375 11.101562 L 31.332031 11.601562 L 31.332031 14.113281 L 31.679688 14.613281 L 31.679688 15.113281 L 32.03125 15.617188 L 32.378906 15.617188 L 32.726562 16.117188 L 35.164062 16.117188 L 35.859375 16.617188 L 36.554688 16.617188 L 37.25 17.117188 L 38.644531 17.117188 L 40.035156 17.617188 L 40.386719 17.117188 L 40.734375 17.117188 L 42.125 16.617188 L 44.910156 15.617188 L 45.605469 15.113281 L 47 14.113281 L 47.695312 13.609375 L 51.875 13.609375 L 57.097656 14.113281 L 58.140625 14.113281 L 58.835938 15.113281 L 58.835938 15.617188 L 59.183594 16.117188 L 59.535156 16.117188 L 61.273438 15.113281 L 62.667969 15.113281 L 63.015625 15.617188 L 63.710938 15.617188 L 64.40625 15.113281 L 64.753906 15.113281 L 65.453125 14.613281 L 66.84375 14.613281 L 67.890625 14.113281 L 67.890625 13.609375 L 68.238281 13.609375 L 68.585938 13.109375 L 71.023438 13.609375 L 73.460938 13.609375 L 74.15625 13.109375 L 75.894531 13.109375 L 76.246094 12.605469 L 76.941406 12.105469 L 77.289062 12.105469 L 77.984375 11.601562 L 80.421875 10.597656 L 85.296875 9.589844 L 85.992188 9.089844 L 86.339844 8.585938 L 88.429688 8.585938 L 89.472656 8.082031 L 95.042969 8.082031 L 96.089844 7.578125 L 96.785156 6.570312 L 133.6875 6.570312 L 134.035156 7.578125 L 134.386719 9.089844 L 135.429688 10.09375 L 135.777344 10.09375 L 135.777344 10.597656 L 137.171875 11.101562 L 137.519531 11.601562 L 138.5625 12.105469 L 139.257812 12.105469 L 139.605469 12.605469 L 139.957031 13.109375 L 140.304688 14.113281 L 141 15.617188 L 141 17.117188 L 140.304688 18.117188 L 139.957031 18.117188 L 139.605469 19.117188 L 139.605469 19.617188 L 138.910156 21.113281 L 138.5625 21.613281 L 137.867188 22.609375 L 137.867188 23.109375 L 137.519531 23.605469 L 137.519531 25.101562 L 137.171875 25.101562 L 136.820312 27.089844 L 136.472656 27.585938 L 134.734375 30.5625 L 134.386719 31.058594 L 134.386719 31.554688 L 134.734375 31.554688 L 134.734375 32.542969 L 134.386719 33.535156 L 134.386719 34.027344 L 134.035156 35.015625 L 132.992188 36.5 L 132.644531 36.5 L 132.296875 36.992188 L 131.25 37.976562 L 130.902344 38.472656 L 130.554688 39.949219 L 129.859375 40.441406 L 129.859375 40.933594 L 129.511719 41.917969 L 129.511719 42.410156 L 129.164062 42.902344 L 129.164062 43.390625 L 128.464844 43.390625 L 128.464844 43.882812 L 128.117188 44.375 L 128.117188 45.355469 L 127.769531 45.84375 L 127.769531 46.824219 L 128.117188 47.316406 L 128.117188 48.785156 L 128.464844 49.273438 L 129.164062 49.761719 L 129.164062 49.273438 L 129.511719 49.273438 L 129.859375 48.785156 L 130.554688 49.761719 L 131.601562 49.761719 L 131.949219 49.273438 L 131.949219 50.253906 L 132.296875 50.253906 L 132.296875 50.742188 L 132.644531 51.230469 L 132.992188 51.230469 L 133.339844 51.71875 L 133.339844 52.695312 L 132.992188 53.183594 L 132.644531 53.183594 L 132.296875 53.667969 L 132.296875 54.15625 L 132.644531 55.132812 L 132.644531 56.105469 L 132.296875 57.566406 L 132.296875 58.050781 L 131.949219 58.539062 L 131.949219 59.023438 L 131.601562 59.511719 L 131.25 59.996094 L 130.902344 60.480469 L 131.25 60.96875 L 131.25 104 L 5.917969 104 L 5.570312 103.527344 L 5.222656 103.058594 L 4.527344 103.058594 L 3.828125 101.640625 L 3.480469 101.640625 L 3.480469 99.753906 L 3.132812 99.28125 L 3.132812 98.808594 L 2.785156 98.335938 L 2.4375 98.335938 L 2.4375 97.859375 L 2.785156 96.914062 L 2.4375 96.441406 L 2.089844 96.441406 L 2.089844 95.96875 L 2.4375 95.492188 L 2.4375 94.070312 L 2.089844 93.597656 L 2.4375 93.121094 L 2.4375 92.171875 L 2.785156 91.695312 L 2.785156 88.84375 L 2.4375 88.367188 L 2.4375 87.890625 L 1.742188 87.890625 L 1.742188 87.414062 L 1.394531 86.460938 L 0.695312 86.460938 L 0.347656 85.027344 L 0.347656 84.550781 L 0 84.074219 L 0.347656 84.074219 L 1.042969 82.164062 M 18.800781 0 L 19.148438 0.507812 L 19.496094 0.507812 L 19.496094 1.011719 L 19.148438 1.011719 L 18.800781 0.507812 L 18.800781 0 "/>
</svg>
