<?xml version="1.0" encoding="UTF-8"?>
<svg xmlns="http://www.w3.org/2000/svg" xmlns:xlink="http://www.w3.org/1999/xlink" width="102" height="59" viewBox="0 0 102 59">
<path fill-rule="nonzero" fill="rgb(63.921569%, 38.431373%, 89.019608%)" fill-opacity="1" d="M 13.320312 0 L 13.320312 6.144531 L 90.785156 6.144531 L 90.785156 6.617188 L 91.132812 6.617188 L 91.835938 7.089844 L 92.1875 7.558594 L 92.1875 8.503906 L 92.535156 8.972656 L 93.9375 8.972656 L 94.289062 9.445312 L 94.640625 9.445312 L 94.988281 9.914062 L 95.339844 10.386719 L 94.988281 10.855469 L 95.339844 11.324219 L 95.691406 11.324219 L 95.691406 12.265625 L 95.339844 12.734375 L 95.691406 13.675781 L 95.691406 15.550781 L 96.042969 15.550781 L 96.742188 17.425781 L 97.09375 17.894531 L 97.441406 18.363281 L 98.144531 18.363281 L 98.144531 18.828125 L 98.496094 18.828125 L 98.84375 19.296875 L 100.246094 19.296875 L 100.597656 19.765625 L 100.949219 19.296875 L 101.300781 19.296875 L 101.300781 19.765625 L 101.648438 20.234375 L 102 20.699219 L 102 21.167969 L 101.648438 21.632812 L 100.597656 21.632812 L 100.597656 22.101562 L 100.246094 22.101562 L 99.546875 23.035156 L 99.195312 23.5 L 99.195312 24.433594 L 98.84375 25.367188 L 97.792969 26.761719 L 97.441406 26.761719 L 97.09375 27.226562 L 97.09375 27.691406 L 96.390625 28.621094 L 95.691406 28.621094 L 95.339844 29.085938 L 94.988281 29.085938 L 94.640625 29.550781 L 94.289062 30.015625 L 94.289062 30.480469 L 94.640625 30.480469 L 94.640625 30.945312 L 94.988281 30.945312 L 94.988281 31.410156 L 95.339844 31.871094 L 95.691406 31.871094 L 95.691406 32.800781 L 95.339844 33.265625 L 94.988281 33.265625 L 94.988281 34.191406 L 94.640625 34.652344 L 94.289062 34.652344 L 93.9375 34.191406 L 93.9375 34.652344 L 93.585938 35.117188 L 93.585938 35.578125 L 93.238281 36.042969 L 93.238281 38.816406 L 93.585938 38.816406 L 93.585938 39.277344 L 93.9375 39.738281 L 94.289062 39.277344 L 95.339844 39.738281 L 95.339844 40.199219 L 95.691406 42.042969 L 95.691406 42.503906 L 96.042969 42.964844 L 96.390625 43.425781 L 97.09375 42.964844 L 97.441406 43.425781 L 97.792969 44.347656 L 98.496094 45.265625 L 98.84375 45.265625 L 98.84375 45.726562 L 99.546875 46.183594 L 99.898438 47.105469 L 100.949219 48.023438 L 101.300781 48.480469 L 101.648438 48.941406 L 101.300781 49.398438 L 100.949219 49.855469 L 99.546875 49.855469 L 98.84375 50.316406 L 98.84375 50.773438 L 97.792969 50.773438 L 97.09375 51.691406 L 97.09375 52.148438 L 96.390625 52.148438 L 96.042969 52.605469 L 95.339844 53.0625 L 94.640625 53.0625 L 94.289062 53.519531 L 94.289062 54.890625 L 93.238281 55.347656 L 92.535156 55.804688 L 91.835938 55.804688 L 91.484375 55.347656 L 90.433594 56.261719 L 89.730469 56.261719 L 89.382812 57.175781 L 89.03125 56.71875 L 88.679688 56.71875 L 87.980469 56.261719 L 85.527344 56.261719 L 85.175781 56.71875 L 84.824219 56.71875 L 84.472656 57.175781 L 83.773438 57.632812 L 83.421875 58.089844 L 83.070312 59 L 0 59 L 0 6.617188 L 0.699219 6.144531 L 1.050781 6.144531 L 1.402344 5.671875 L 2.453125 5.671875 L 5.257812 3.785156 L 5.957031 3.3125 L 6.308594 3.3125 L 7.011719 2.367188 L 7.359375 2.367188 L 7.710938 1.894531 L 8.0625 2.367188 L 7.011719 2.367188 L 7.011719 2.839844 L 6.660156 2.839844 L 6.660156 3.3125 L 7.011719 2.839844 L 8.0625 2.367188 L 8.761719 2.367188 L 9.464844 1.421875 L 10.164062 1.421875 L 11.214844 0.945312 L 13.320312 0 "/>
</svg>
