<svg width="147" height="40" viewBox="0 0 147 40" fill="none" xmlns="http://www.w3.org/2000/svg">
<path d="M3.11096 8.29797L9.33289 5.18701L11.4119 0L15.561 1.03802L19.7069 4.14899L37.344 6.22504L54.9809 5.18701H62.244L68.4659 7.26004L72.618 4.14899H77.805L90.252 5.18701L102.699 8.29797L106.851 12.45H114.111L115.146 18.675L114.111 22.824L105.816 23.862L100.626 25.935L98.5499 31.122L95.439 36.309L89.2139 39.42H76.764H66.3929L61.2059 37.347H50.8319L45.6449 35.271L37.344 37.347H26.97L21.7859 33.198L15.561 35.271L7.25995 36.309L6.22192 31.122L8.29797 28.008L10.3709 22.824L8.29797 16.599L0 10.374L3.11096 8.29797Z" fill="#A362E3"/>
<path d="M122.451 33.228L117.951 34.728L126.951 37.728L138.951 34.728L141.951 30.228L134.451 31.728L122.451 33.228Z" fill="#A362E3"/>
<path d="M143.451 22.728L139.701 20.478L144.951 16.728L146.451 20.478L143.451 22.728Z" fill="#A362E3"/>
</svg>
