<?xml version="1.0" encoding="UTF-8"?>
<svg xmlns="http://www.w3.org/2000/svg" xmlns:xlink="http://www.w3.org/1999/xlink" width="13" height="21" viewBox="0 0 13 21">
<path fill-rule="nonzero" fill="rgb(63.921569%, 38.431373%, 89.019608%)" fill-opacity="1" d="M 10.949219 7.667969 L 10.949219 8.148438 L 10.605469 8.625 L 9.921875 8.625 L 9.921875 7.191406 L 10.261719 6.714844 L 10.261719 6.234375 L 9.921875 6.234375 L 9.921875 7.191406 L 9.578125 7.191406 L 9.238281 6.714844 L 8.894531 6.714844 L 8.894531 5.753906 L 8.550781 5.277344 L 8.210938 4.796875 L 8.210938 6.714844 L 8.550781 6.714844 L 8.894531 7.191406 L 8.894531 7.667969 L 8.550781 8.148438 L 8.210938 8.148438 L 8.210938 7.667969 L 7.527344 7.667969 L 7.527344 8.148438 L 7.867188 8.625 L 7.867188 10.058594 L 7.527344 10.535156 L 7.867188 11.011719 L 7.867188 13.398438 L 7.183594 14.824219 L 6.84375 15.300781 L 6.5 15.777344 L 5.816406 15.300781 L 5.472656 15.300781 L 4.789062 15.777344 L 2.050781 16.253906 L 1.027344 16.726562 L 0 17.203125 L 0 16.726562 L 0.683594 16.726562 L 0.683594 16.253906 L 1.027344 14.824219 L 1.027344 14.347656 L 1.367188 14.347656 L 1.367188 0 L 8.550781 0 L 8.550781 2.878906 L 9.238281 2.878906 L 9.238281 5.753906 L 9.578125 5.753906 L 9.921875 6.234375 L 10.261719 6.234375 L 10.605469 6.714844 L 10.949219 7.667969 M 13 11.96875 L 11.972656 13.398438 L 11.632812 12.445312 L 11.632812 11.011719 L 11.289062 10.058594 L 11.632812 9.582031 L 11.632812 8.148438 L 11.972656 8.148438 L 12.316406 8.625 L 12.65625 8.625 L 12.65625 10.058594 L 13 10.535156 L 13 11.96875 M 9.578125 10.535156 L 9.238281 10.535156 L 9.238281 9.582031 L 8.894531 9.101562 L 8.894531 8.625 L 9.238281 8.148438 L 9.238281 9.101562 L 9.578125 9.101562 L 9.921875 9.582031 L 9.921875 10.058594 L 9.578125 10.535156 M 5.472656 19.578125 L 5.472656 20.050781 L 5.816406 20.527344 L 5.132812 21 L 4.789062 21 L 4.449219 20.527344 L 4.789062 20.050781 L 4.789062 19.578125 L 5.132812 19.578125 L 5.132812 19.101562 L 5.472656 19.101562 L 5.472656 19.578125 M 8.894531 11.011719 L 8.894531 12.445312 L 8.550781 12.921875 L 8.550781 13.398438 L 8.210938 13.398438 L 8.210938 12.445312 L 8.550781 12.445312 L 8.550781 11.96875 L 8.210938 11.96875 L 8.210938 11.488281 L 8.550781 10.535156 L 8.894531 10.535156 L 8.894531 11.011719 M 10.261719 10.535156 L 10.261719 9.582031 L 10.605469 9.101562 L 10.949219 8.625 L 11.289062 8.625 L 11.289062 9.101562 L 10.949219 10.058594 L 10.949219 12.921875 L 10.605469 12.445312 L 10.261719 12.921875 L 9.921875 13.398438 L 8.894531 13.398438 L 8.894531 12.921875 L 9.578125 12.921875 L 9.921875 12.445312 L 9.578125 12.445312 L 9.578125 11.488281 L 9.921875 11.488281 L 9.921875 10.535156 L 10.261719 10.535156 "/>
</svg>
