<?xml version="1.0" encoding="UTF-8"?>
<svg xmlns="http://www.w3.org/2000/svg" xmlns:xlink="http://www.w3.org/1999/xlink" width="83" height="67" viewBox="0 0 83 67">
<path fill-rule="nonzero" fill="rgb(63.921569%, 38.431373%, 89.019608%)" fill-opacity="1" d="M 83 28.535156 L 82.652344 28.535156 L 82.652344 28.957031 L 83 28.957031 L 83 29.378906 L 81.609375 29.378906 L 79.875 30.648438 L 78.136719 32.335938 L 76.75 33.597656 L 75.011719 35.703125 L 73.277344 38.226562 L 72.929688 39.066406 L 73.277344 39.488281 L 72.929688 39.488281 L 72.582031 42.003906 L 72.582031 42.425781 L 72.234375 42.003906 L 72.234375 41.167969 L 71.886719 40.746094 L 71.191406 40.746094 L 70.84375 40.328125 L 71.191406 39.90625 L 71.539062 39.066406 L 72.234375 38.226562 L 72.582031 37.808594 L 71.886719 38.226562 L 71.539062 38.226562 L 70.84375 39.488281 L 70.84375 39.90625 L 70.496094 40.328125 L 70.496094 41.167969 L 70.84375 41.585938 L 71.539062 41.585938 L 71.886719 42.003906 L 71.886719 42.425781 L 72.234375 42.84375 L 72.234375 43.261719 L 71.886719 43.683594 L 71.539062 44.101562 L 71.539062 43.683594 L 71.191406 43.261719 L 71.191406 43.683594 L 70.84375 43.683594 L 71.191406 44.101562 L 71.191406 44.519531 L 70.84375 44.519531 L 70.84375 44.101562 L 70.496094 44.101562 L 70.152344 43.683594 L 69.804688 43.683594 L 70.152344 44.101562 L 70.84375 44.101562 L 70.496094 44.9375 L 69.457031 45.359375 L 69.109375 45.777344 L 69.109375 46.613281 L 68.066406 46.613281 L 67.71875 47.03125 L 67.023438 47.03125 L 67.023438 46.613281 L 66.679688 46.613281 L 66.679688 46.195312 L 66.332031 46.195312 L 65.636719 46.613281 L 65.289062 47.03125 L 64.941406 47.867188 L 64.941406 48.285156 L 65.289062 48.703125 L 65.289062 48.285156 L 65.636719 48.285156 L 65.636719 48.703125 L 64.59375 49.121094 L 64.59375 49.539062 L 64.246094 49.539062 L 64.246094 49.957031 L 63.550781 49.957031 L 63.203125 50.375 L 63.203125 50.792969 L 62.859375 51.210938 L 61.816406 51.625 L 61.46875 52.042969 L 60.773438 52.042969 L 60.425781 51.625 L 60.078125 51.210938 L 60.078125 50.792969 L 60.425781 50.375 L 60.078125 49.957031 L 60.078125 50.375 L 59.386719 49.957031 L 59.386719 51.625 L 59.039062 51.625 L 59.386719 52.042969 L 60.078125 52.042969 L 60.078125 52.460938 L 60.773438 52.460938 L 60.425781 53.292969 L 60.425781 53.710938 L 59.386719 54.128906 L 59.039062 54.542969 L 58.691406 54.542969 L 58.34375 54.128906 L 57.996094 54.128906 L 57.996094 54.542969 L 58.34375 54.960938 L 57.300781 55.378906 L 56.605469 55.378906 L 56.257812 55.792969 L 55.566406 55.792969 L 55.21875 56.210938 L 54.871094 55.792969 L 54.175781 54.960938 L 53.828125 54.960938 L 53.828125 55.378906 L 54.871094 55.792969 L 54.871094 56.210938 L 54.523438 56.210938 L 54.523438 56.625 L 54.175781 56.625 L 53.132812 57.457031 L 52.785156 57.457031 L 52.785156 57.875 L 52.4375 57.875 L 52.4375 57.457031 L 52.09375 57.042969 L 52.09375 57.457031 L 51.746094 57.875 L 51.050781 57.875 L 51.050781 57.457031 L 50.007812 57.457031 L 50.007812 57.042969 L 49.3125 56.625 L 48.964844 56.625 L 48.964844 56.210938 L 48.964844 57.042969 L 46.535156 57.042969 L 46.535156 57.457031 L 49.3125 57.457031 L 49.660156 57.875 L 50.007812 57.875 L 48.964844 57.875 L 48.621094 58.289062 L 48.273438 58.289062 L 49.660156 58.289062 L 50.355469 58.707031 L 50.355469 59.535156 L 49.660156 59.953125 L 48.964844 59.953125 L 48.964844 60.78125 L 49.3125 60.78125 L 50.007812 59.953125 L 50.355469 59.953125 L 50.703125 59.535156 L 50.703125 60.367188 L 50.007812 60.367188 L 50.007812 60.78125 L 50.355469 60.78125 L 50.007812 61.199219 L 48.621094 62.027344 L 48.273438 62.027344 L 47.578125 62.441406 L 47.230469 62.441406 L 47.230469 61.199219 L 47.578125 59.953125 L 46.882812 60.367188 L 46.882812 58.289062 L 46.535156 58.289062 L 46.882812 58.289062 L 46.535156 58.707031 L 46.535156 60.78125 L 46.882812 60.78125 L 46.882812 61.613281 L 46.1875 61.613281 L 45.144531 60.367188 L 44.800781 59.121094 L 44.453125 58.289062 L 44.453125 57.875 L 44.800781 57.457031 L 44.105469 57.457031 L 44.105469 56.625 L 43.410156 56.625 L 43.757812 57.042969 L 44.105469 57.457031 L 44.105469 59.121094 L 44.453125 59.953125 L 44.800781 60.367188 L 44.453125 60.78125 L 44.453125 61.199219 L 44.800781 61.199219 L 44.800781 61.613281 L 45.492188 62.441406 L 46.1875 62.441406 L 46.1875 62.859375 L 46.535156 63.273438 L 45.492188 64.515625 L 44.105469 65.757812 L 44.105469 64.929688 L 44.800781 63.6875 L 44.800781 62.859375 L 44.453125 63.273438 L 44.453125 64.101562 L 43.757812 64.929688 L 43.757812 65.34375 L 43.0625 66.585938 L 42.714844 66.585938 L 42.714844 67 L 42.019531 67 L 41.671875 66.585938 L 41.671875 66.171875 L 40.980469 66.171875 L 40.632812 65.757812 L 39.589844 66.171875 L 39.589844 65.757812 L 38.894531 65.34375 L 38.546875 64.929688 L 38.546875 64.515625 L 38.199219 64.101562 L 38.199219 63.6875 L 38.546875 63.273438 L 38.546875 62.027344 L 38.894531 61.613281 L 38.546875 61.199219 L 38.546875 60.78125 L 38.199219 60.367188 L 37.507812 58.707031 L 37.507812 57.875 L 37.160156 57.457031 L 36.8125 57.457031 L 36.8125 57.042969 L 36.464844 56.625 L 36.117188 56.625 L 35.769531 56.210938 L 35.421875 55.792969 L 34.726562 55.792969 L 34.378906 55.378906 L 34.035156 55.378906 L 34.035156 53.292969 L 33.6875 53.292969 L 33.6875 52.878906 L 34.035156 52.878906 L 34.035156 52.042969 L 33.6875 51.625 L 33.6875 50.792969 L 33.339844 50.375 L 32.644531 48.703125 L 32.296875 48.285156 L 32.296875 46.613281 L 31.949219 46.195312 L 31.253906 46.195312 L 31.253906 45.777344 L 30.5625 45.359375 L 29.867188 44.9375 L 27.78125 43.683594 L 27.433594 42.84375 L 27.433594 42.425781 L 26.742188 42.425781 L 26.394531 42.003906 L 26.394531 41.167969 L 26.046875 40.746094 L 26.394531 40.746094 L 26.394531 40.328125 L 25.699219 40.328125 L 24.65625 39.488281 L 24.65625 39.066406 L 25.003906 39.066406 L 24.65625 38.648438 L 24.65625 38.226562 L 25.003906 38.226562 L 25.003906 37.808594 L 24.65625 37.808594 L 25.003906 37.386719 L 24.65625 36.964844 L 23.960938 36.546875 L 23.613281 36.125 L 22.921875 35.28125 L 22.574219 34.863281 L 22.226562 34.863281 L 21.53125 34.441406 L 20.835938 34.441406 L 20.140625 33.597656 L 20.140625 33.175781 L 19.796875 32.753906 L 19.449219 32.335938 L 19.449219 31.070312 L 18.753906 30.648438 L 18.058594 29.800781 L 16.667969 28.957031 L 15.976562 28.535156 L 14.933594 27.269531 L 14.585938 26.84375 L 13.542969 26.84375 L 13.542969 25.574219 L 13.195312 25.152344 L 13.195312 24.730469 L 12.503906 24.730469 L 12.503906 24.304688 L 12.15625 23.882812 L 12.15625 23.035156 L 11.460938 23.035156 L 11.113281 22.609375 L 11.113281 22.1875 L 10.765625 22.1875 L 10.417969 20.066406 L 10.417969 19.640625 L 9.375 18.367188 L 9.375 17.941406 L 9.027344 17.515625 L 9.027344 16.667969 L 8.683594 16.242188 L 7.988281 15.816406 L 5.902344 15.816406 L 5.554688 15.390625 L 5.210938 14.964844 L 4.863281 14.539062 L 4.515625 14.539062 L 4.167969 14.113281 L 3.472656 13.6875 L 3.472656 12.835938 L 3.125 12.835938 L 2.777344 13.261719 L 2.082031 12.835938 L 0.695312 11.554688 L 0 11.128906 L 0.347656 9.847656 L 0.695312 9.847656 L 0.695312 8.992188 L 1.390625 8.140625 L 1.738281 8.140625 L 1.738281 7.710938 L 2.082031 7.285156 L 2.429688 7.285156 L 2.777344 6.855469 L 3.125 6.429688 L 3.472656 6 L 3.820312 6 L 4.167969 5.574219 L 4.167969 4.714844 L 4.515625 4.714844 L 9.722656 3.003906 L 10.765625 3.003906 L 11.460938 2.574219 L 11.808594 2.574219 L 11.808594 2.144531 L 12.503906 2.144531 L 12.503906 1.714844 L 13.195312 1.714844 L 13.890625 1.289062 L 14.933594 1.289062 L 15.28125 0.859375 L 16.320312 0.859375 L 16.320312 0.429688 L 16.667969 0 L 17.015625 0 L 17.015625 0.429688 L 24.65625 0.429688 L 26.046875 0.859375 L 32.296875 0.859375 L 34.035156 1.289062 L 39.9375 1.289062 L 39.9375 1.714844 L 40.285156 1.714844 L 40.285156 2.144531 L 39.9375 2.574219 L 39.9375 3.003906 L 40.285156 3.429688 L 40.632812 3.429688 L 42.019531 2.574219 L 42.019531 2.144531 L 42.367188 2.574219 L 42.714844 3.429688 L 43.757812 4.714844 L 44.453125 5.574219 L 44.800781 5.574219 L 44.800781 6 L 44.453125 8.140625 L 44.800781 8.566406 L 58.691406 8.566406 L 60.078125 8.992188 L 64.246094 8.992188 L 64.941406 9.847656 L 65.984375 10.703125 L 67.023438 11.980469 L 68.414062 13.261719 L 69.457031 14.539062 L 70.496094 15.390625 L 71.886719 16.667969 L 73.972656 19.214844 L 75.011719 20.066406 L 76.402344 21.339844 L 77.445312 22.609375 L 78.484375 23.882812 L 79.875 25.152344 L 80.917969 26 L 81.957031 27.269531 L 83 28.535156 M 69.804688 45.777344 L 69.804688 46.195312 L 69.457031 47.03125 L 69.457031 45.777344 L 69.804688 45.777344 "/>
</svg>
