<?xml version="1.0" encoding="UTF-8"?>
<svg xmlns="http://www.w3.org/2000/svg" xmlns:xlink="http://www.w3.org/1999/xlink" width="133" height="83" viewBox="0 0 133 83">
<path fill-rule="nonzero" fill="rgb(63.921569%, 38.431373%, 89.019608%)" fill-opacity="1" d="M 0 23.300781 L 0.351562 23.300781 L 0.351562 0 L 131.25 0 L 131.25 0.5 L 130.898438 0.5 L 130.898438 2.496094 L 130.550781 2.996094 L 129.851562 4.492188 L 129.5 4.988281 L 129.148438 5.488281 L 127.75 5.984375 L 127.050781 6.484375 L 126.699219 6.980469 L 126.351562 7.480469 L 126 7.976562 L 126 8.472656 L 126.351562 8.96875 L 127.398438 9.960938 L 127.75 10.457031 L 128.101562 11.945312 L 128.800781 12.9375 L 129.148438 13.433594 L 131.25 13.433594 L 131.601562 13.925781 L 131.949219 14.421875 L 132.300781 14.421875 L 132.300781 14.917969 L 133 15.90625 L 133 59.703125 L 130.550781 59.703125 L 130.550781 61.140625 L 130.898438 61.140625 L 130.898438 61.621094 L 131.25 61.621094 L 131.25 62.097656 L 131.601562 62.574219 L 131.601562 64.964844 L 130.898438 64.964844 L 130.898438 65.441406 L 131.25 65.441406 L 131.25 65.921875 L 130.898438 65.921875 L 130.898438 66.398438 L 132.648438 66.398438 L 132.648438 66.875 L 133 67.828125 L 133 69.734375 L 132.648438 70.210938 L 132.300781 70.683594 L 132.300781 71.636719 L 131.949219 71.636719 L 131.949219 73.0625 L 131.601562 73.0625 L 131.601562 74.484375 L 131.25 74.484375 L 131.25 75.433594 L 130.550781 75.433594 L 130.550781 76.382812 L 130.199219 76.855469 L 129.851562 76.855469 L 129.851562 77.800781 L 130.199219 78.277344 L 130.550781 78.75 L 131.601562 79.222656 L 131.601562 79.695312 L 131.949219 79.695312 L 131.949219 80.167969 L 131.601562 80.167969 L 131.601562 80.640625 L 131.949219 80.640625 L 131.949219 81.113281 L 132.300781 81.113281 L 132.300781 82.054688 L 132.648438 82.054688 L 132.648438 83 L 130.199219 82.527344 L 129.851562 82.054688 L 129.851562 81.585938 L 129.5 81.113281 L 128.800781 80.640625 L 128.800781 79.222656 L 127.050781 79.222656 L 127.050781 78.75 L 126.699219 78.75 L 126.699219 78.277344 L 126.351562 77.800781 L 124.25 77.800781 L 123.898438 77.328125 L 123.550781 77.328125 L 123.199219 76.855469 L 121.449219 76.855469 L 120.75 76.382812 L 120.398438 76.382812 L 120.050781 75.433594 L 119.351562 74.960938 L 119 74.484375 L 118.300781 74.484375 L 114.800781 74.960938 L 114.449219 74.960938 L 113.050781 74.484375 L 112.699219 74.960938 L 109.898438 74.960938 L 108.851562 74.484375 L 108.5 74.960938 L 108.148438 74.960938 L 107.800781 75.433594 L 107.449219 76.382812 L 107.101562 76.855469 L 106.050781 76.855469 L 104.648438 76.382812 L 104.300781 76.382812 L 104.300781 75.90625 L 101.851562 74.484375 L 101.148438 74.011719 L 100.449219 73.535156 L 100.101562 73.535156 L 98 72.109375 L 97.648438 71.636719 L 0 71.636719 L 0 23.300781 "/>
</svg>
