<?xml version="1.0" encoding="UTF-8"?>
<svg xmlns="http://www.w3.org/2000/svg" xmlns:xlink="http://www.w3.org/1999/xlink" width="151" height="37" viewBox="0 0 151 37">
<path fill-rule="nonzero" fill="rgb(63.921569%, 38.431373%, 89.019608%)" fill-opacity="1" d="M 0.347656 36.570312 L 0 36.136719 L 0.699219 36.136719 L 1.046875 35.707031 L 1.742188 35.707031 L 2.09375 35.277344 L 2.09375 34.414062 L 2.441406 33.984375 L 2.789062 33.550781 L 3.488281 33.984375 L 3.835938 33.984375 L 4.183594 33.550781 L 4.183594 32.6875 L 3.835938 31.390625 L 3.488281 30.527344 L 3.488281 28.796875 L 3.835938 28.363281 L 4.882812 27.5 L 4.882812 27.066406 L 5.230469 26.632812 L 5.230469 25.332031 L 5.929688 25.332031 L 6.277344 24.898438 L 6.972656 24.898438 L 6.625 24.03125 L 6.625 23.597656 L 6.277344 23.597656 L 6.625 23.164062 L 6.972656 23.164062 L 6.972656 22.730469 L 7.324219 22.292969 L 6.625 21.859375 L 6.277344 21.425781 L 6.277344 20.992188 L 6.625 20.558594 L 9.414062 19.25 L 10.460938 18.382812 L 10.113281 17.945312 L 9.765625 17.945312 L 9.414062 17.511719 L 9.414062 17.074219 L 9.765625 17.074219 L 10.113281 16.640625 L 10.460938 16.640625 L 11.160156 17.074219 L 11.507812 16.640625 L 10.8125 15.765625 L 10.460938 14.894531 L 10.460938 14.023438 L 11.160156 13.148438 L 11.160156 12.714844 L 11.507812 12.277344 L 12.207031 12.277344 L 12.207031 11.839844 L 11.855469 10.964844 L 10.8125 9.652344 L 11.160156 9.214844 L 13.25 9.214844 L 13.25 8.777344 L 12.554688 8.777344 L 12.207031 8.339844 L 12.207031 7.464844 L 12.902344 7.464844 L 13.25 7.027344 L 13.601562 7.027344 L 13.601562 6.148438 L 13.25 5.273438 L 13.25 4.832031 L 13.601562 4.394531 L 13.25 3.957031 L 14.296875 3.957031 L 14.296875 4.832031 L 14.996094 4.832031 L 15.691406 3.957031 L 39.753906 3.957031 L 39.753906 2.199219 L 39.40625 1.320312 L 39.058594 0 L 42.894531 0 L 42.894531 0.441406 L 43.242188 0.441406 L 43.242188 0.878906 L 52.65625 0.878906 L 54.402344 0.441406 L 69.398438 0.441406 L 71.488281 0.878906 L 74.28125 0.878906 L 77.765625 1.320312 L 99.386719 1.320312 L 103.222656 1.757812 L 111.941406 1.757812 L 113.6875 2.199219 L 114.730469 2.199219 L 115.429688 1.757812 L 146.117188 1.757812 L 146.464844 1.320312 L 149.257812 1.320312 L 151 1.757812 L 150.300781 3.078125 L 149.953125 3.515625 L 150.300781 3.957031 L 150.300781 4.394531 L 149.953125 4.832031 L 149.605469 6.148438 L 149.605469 6.585938 L 149.953125 7.027344 L 149.953125 7.464844 L 149.257812 7.464844 L 148.558594 7.027344 L 148.210938 7.027344 L 146.816406 7.902344 L 146.464844 8.339844 L 144.722656 11.839844 L 144.375 11.839844 L 144.375 12.277344 L 144.027344 12.277344 L 144.027344 12.714844 L 142.980469 12.714844 L 142.980469 12.277344 L 142.628906 12.277344 L 142.628906 11.839844 L 141.933594 11.839844 L 141.933594 11.402344 L 141.234375 11.402344 L 140.539062 11.839844 L 139.839844 11.839844 L 139.492188 12.277344 L 138.792969 12.277344 L 138.445312 12.714844 L 138.097656 12.714844 L 137.75 13.585938 L 137.398438 13.585938 L 137.050781 14.023438 L 137.050781 14.460938 L 136.703125 14.894531 L 136.351562 14.894531 L 136.351562 15.332031 L 135.65625 15.765625 L 134.957031 15.765625 L 134.957031 15.332031 L 134.609375 15.332031 L 134.609375 13.585938 L 134.261719 13.585938 L 133.214844 14.023438 L 132.867188 14.023438 L 131.472656 14.894531 L 131.472656 15.765625 L 131.121094 15.765625 L 131.121094 16.203125 L 130.425781 16.203125 L 130.078125 15.765625 L 129.378906 15.765625 L 129.378906 16.203125 L 129.03125 16.203125 L 129.03125 16.640625 L 129.378906 17.074219 L 129.378906 17.511719 L 129.03125 17.511719 L 129.03125 17.945312 L 128.679688 18.382812 L 128.332031 18.816406 L 127.984375 19.6875 L 126.589844 19.6875 L 126.589844 19.25 L 126.238281 19.6875 L 125.542969 20.121094 L 124.496094 20.121094 L 124.148438 20.558594 L 123.800781 20.992188 L 123.101562 20.992188 L 123.101562 21.425781 L 122.753906 21.425781 L 122.402344 22.292969 L 121.359375 22.292969 L 121.007812 22.730469 L 119.964844 23.164062 L 119.964844 23.597656 L 119.613281 23.597656 L 119.265625 24.03125 L 118.917969 24.03125 L 118.917969 24.464844 L 117.523438 24.464844 L 117.171875 24.03125 L 116.824219 24.03125 L 116.824219 24.464844 L 114.035156 24.464844 L 113.6875 24.898438 L 113.335938 24.898438 L 113.335938 25.332031 L 112.289062 25.332031 L 111.59375 26.199219 L 111.59375 26.632812 L 110.546875 26.632812 L 110.546875 27.066406 L 109.851562 27.5 L 109.851562 28.363281 L 109.5 28.796875 L 109.5 30.09375 L 109.152344 30.09375 L 109.152344 30.527344 L 108.804688 30.960938 L 105.664062 30.960938 L 105.316406 31.390625 L 104.96875 31.824219 L 104.96875 33.550781 L 104.617188 34.84375 L 104.617188 37 L 62.769531 37 L 59.980469 36.570312 L 0.347656 36.570312 "/>
</svg>
