<?xml version="1.0" encoding="UTF-8"?>
<svg xmlns="http://www.w3.org/2000/svg" xmlns:xlink="http://www.w3.org/1999/xlink" width="229" height="218" viewBox="0 0 229 218">
<path fill-rule="nonzero" fill="rgb(63.921569%, 38.431373%, 89.019608%)" fill-opacity="1" d="M 58.207031 155.453125 L 57.859375 155.453125 L 57.859375 155.054688 L 57.511719 155.054688 L 57.511719 155.453125 L 57.164062 155.453125 L 56.464844 154.652344 L 56.117188 154.652344 L 55.421875 154.253906 L 54.722656 153.457031 L 54.375 153.054688 L 54.027344 152.65625 L 53.675781 152.65625 L 51.933594 152.257812 L 51.585938 152.257812 L 50.890625 151.457031 L 50.191406 151.457031 L 50.191406 151.058594 L 50.539062 150.65625 L 50.191406 150.65625 L 50.191406 150.257812 L 48.796875 150.257812 L 47.75 149.855469 L 46.007812 149.457031 L 45.3125 149.054688 L 44.613281 148.253906 L 43.917969 147.855469 L 43.570312 147.453125 L 42.871094 147.050781 L 42.523438 146.25 L 42.523438 145.847656 L 41.828125 145.847656 L 41.828125 145.449219 L 41.128906 145.046875 L 40.78125 145.046875 L 40.433594 145.449219 L 40.433594 145.046875 L 38.691406 144.246094 L 38.691406 143.84375 L 38.339844 143.84375 L 38.339844 143.441406 L 37.296875 142.636719 L 36.945312 142.636719 L 36.945312 141.433594 L 36.597656 141.03125 L 36.25 140.226562 L 36.25 139.824219 L 35.902344 139.421875 L 35.550781 139.019531 L 35.203125 138.214844 L 34.855469 137.8125 L 34.855469 137.410156 L 34.507812 137.007812 L 34.507812 136.199219 L 34.160156 134.992188 L 34.160156 134.183594 L 34.507812 133.378906 L 34.507812 131.761719 L 34.160156 131.761719 L 33.808594 130.953125 L 33.808594 130.550781 L 33.460938 130.550781 L 33.113281 130.144531 L 32.765625 129.335938 L 32.765625 128.933594 L 32.414062 128.933594 L 32.066406 128.527344 L 32.066406 128.125 L 31.71875 127.71875 L 31.371094 127.316406 L 31.371094 125.695312 L 31.019531 125.289062 L 31.019531 124.480469 L 30.671875 124.480469 L 30.324219 123.667969 L 29.976562 123.261719 L 29.277344 123.261719 L 28.929688 122.855469 L 28.929688 122.046875 L 28.582031 121.640625 L 27.535156 121.640625 L 26.488281 120.421875 L 26.140625 120.421875 L 26.140625 120.015625 L 25.445312 120.015625 L 25.445312 119.609375 L 25.097656 119.609375 L 25.097656 119.203125 L 24.746094 119.609375 L 24.398438 119.609375 L 24.050781 119.203125 L 23.003906 118.796875 L 22.65625 118.386719 L 22.308594 118.386719 L 21.609375 117.574219 L 20.214844 116.355469 L 19.519531 115.539062 L 19.171875 115.539062 L 19.171875 115.132812 L 18.820312 114.316406 L 18.125 113.503906 L 17.777344 113.503906 L 17.425781 113.09375 L 17.078125 112.6875 L 16.730469 112.6875 L 15.683594 111.871094 L 15.335938 111.464844 L 15.335938 111.054688 L 13.941406 109.828125 L 13.59375 109.421875 L 13.246094 109.421875 L 13.246094 109.011719 L 12.898438 109.011719 L 12.546875 108.605469 L 12.546875 108.195312 L 12.199219 107.785156 L 11.503906 107.378906 L 10.804688 107.378906 L 10.457031 106.96875 L 9.757812 106.96875 L 9.0625 106.558594 L 8.714844 106.558594 L 8.367188 106.148438 L 8.015625 105.742188 L 7.667969 105.742188 L 7.667969 105.332031 L 7.320312 104.921875 L 6.621094 104.101562 L 6.621094 103.691406 L 5.925781 102.464844 L 5.578125 101.644531 L 5.226562 100.824219 L 4.53125 100.414062 L 4.183594 100 L 2.789062 100 L 2.789062 99.589844 L 1.742188 98.769531 L 1.046875 98.769531 L 1.046875 97.949219 L 0.695312 97.535156 L 0.347656 97.125 L 0.347656 96.304688 L 0 95.480469 L 0 95.070312 L 62.738281 95.070312 L 62.738281 36.941406 L 63.089844 33.964844 L 63.089844 0 L 116.070312 0 L 116.070312 41.1875 L 117.8125 41.1875 L 118.160156 41.613281 L 120.949219 44.152344 L 121.296875 45 L 121.644531 45 L 121.992188 45.421875 L 123.386719 45.421875 L 123.386719 45 L 123.738281 45 L 123.738281 44.578125 L 124.085938 44.578125 L 124.78125 45 L 125.480469 45.421875 L 126.523438 45.421875 L 126.523438 45 L 126.875 43.730469 L 127.570312 43.730469 L 127.570312 44.152344 L 127.917969 44.578125 L 128.964844 44.578125 L 128.964844 45 L 129.3125 45.421875 L 129.3125 45.847656 L 130.011719 46.269531 L 130.011719 48.382812 L 130.359375 48.804688 L 132.101562 48.804688 L 132.800781 49.226562 L 133.496094 49.226562 L 133.496094 48.804688 L 134.191406 48.804688 L 135.585938 49.648438 L 135.9375 50.070312 L 138.027344 50.492188 L 138.375 50.492188 L 139.421875 50.070312 L 140.816406 50.070312 L 141.164062 50.914062 L 141.511719 50.914062 L 142.210938 51.757812 L 143.605469 51.757812 L 144.648438 50.492188 L 145 50.492188 L 147.4375 50.914062 L 147.785156 50.492188 L 149.179688 50.492188 L 149.179688 52.175781 L 149.53125 53.019531 L 149.878906 53.019531 L 150.925781 53.441406 L 151.621094 53.441406 L 151.96875 53.863281 L 151.621094 54.285156 L 151.96875 54.285156 L 151.96875 54.703125 L 151.621094 55.125 L 151.621094 55.546875 L 151.96875 55.964844 L 152.316406 55.964844 L 153.015625 56.386719 L 153.710938 56.386719 L 154.410156 55.964844 L 155.804688 54.285156 L 156.5 53.863281 L 157.199219 53.441406 L 157.894531 53.863281 L 157.894531 55.125 L 158.242188 55.546875 L 160.335938 55.546875 L 160.335938 56.808594 L 160.683594 57.226562 L 161.730469 56.808594 L 162.425781 56.808594 L 162.425781 56.386719 L 162.773438 56.386719 L 163.125 55.964844 L 163.820312 56.386719 L 164.167969 55.964844 L 164.167969 55.546875 L 164.515625 55.546875 L 164.515625 55.125 L 164.867188 55.546875 L 165.214844 55.546875 L 165.214844 56.386719 L 164.867188 57.226562 L 164.867188 58.066406 L 165.214844 58.488281 L 165.5625 58.90625 L 165.910156 59.328125 L 166.261719 59.328125 L 166.609375 58.90625 L 166.957031 58.488281 L 166.957031 57.648438 L 167.304688 57.226562 L 167.304688 56.808594 L 166.957031 56.808594 L 166.957031 56.386719 L 168.003906 56.386719 L 168.351562 55.964844 L 168.699219 55.546875 L 168.699219 54.285156 L 170.09375 54.285156 L 170.09375 54.703125 L 170.441406 54.703125 L 170.441406 55.546875 L 170.792969 55.964844 L 171.140625 56.386719 L 171.835938 55.964844 L 172.1875 56.386719 L 172.535156 56.386719 L 172.882812 56.808594 L 173.578125 56.808594 L 173.578125 56.386719 L 173.929688 56.386719 L 173.929688 55.964844 L 174.277344 55.546875 L 174.277344 55.125 L 174.972656 55.125 L 175.324219 55.546875 L 175.671875 55.546875 L 175.324219 55.964844 L 175.324219 56.808594 L 175.671875 56.808594 L 176.367188 57.226562 L 176.71875 57.226562 L 176.71875 57.648438 L 177.066406 57.648438 L 177.066406 58.066406 L 178.460938 58.066406 L 179.15625 58.488281 L 179.503906 59.328125 L 180.203125 59.746094 L 180.550781 59.328125 L 180.550781 58.488281 L 182.292969 58.488281 L 182.640625 58.066406 L 182.992188 57.226562 L 183.339844 57.226562 L 183.339844 56.808594 L 185.082031 56.808594 L 185.78125 56.386719 L 186.128906 56.386719 L 186.128906 55.964844 L 186.476562 55.964844 L 186.824219 55.546875 L 187.171875 55.546875 L 187.171875 55.964844 L 188.21875 56.386719 L 189.613281 56.386719 L 189.613281 55.546875 L 191.007812 55.546875 L 191.355469 55.125 L 192.402344 55.125 L 192.75 54.703125 L 192.75 54.285156 L 193.097656 54.703125 L 193.449219 54.703125 L 193.796875 55.125 L 193.796875 55.964844 L 195.191406 55.964844 L 195.191406 56.386719 L 195.539062 55.964844 L 196.933594 56.386719 L 197.28125 56.386719 L 197.28125 55.546875 L 197.628906 55.546875 L 197.628906 55.964844 L 197.980469 55.546875 L 198.328125 55.546875 L 198.328125 55.125 L 198.675781 55.546875 L 198.675781 54.703125 L 199.023438 54.285156 L 199.371094 54.285156 L 200.417969 54.703125 L 200.765625 54.703125 L 200.765625 55.125 L 201.464844 55.125 L 201.8125 55.546875 L 202.511719 55.964844 L 202.511719 56.386719 L 203.902344 56.386719 L 203.902344 57.226562 L 204.253906 57.226562 L 204.601562 57.648438 L 204.601562 58.066406 L 205.296875 58.488281 L 206.691406 58.90625 L 207.390625 58.90625 L 207.738281 59.746094 L 209.132812 59.746094 L 209.480469 60.164062 L 210.179688 60.164062 L 210.179688 60.585938 L 211.222656 60.585938 L 211.574219 61.003906 L 212.617188 61.003906 L 212.617188 61.425781 L 212.964844 61.84375 L 213.664062 62.261719 L 214.011719 62.261719 L 213.664062 62.261719 L 214.011719 62.679688 L 215.058594 62.679688 L 215.058594 62.261719 L 215.40625 61.84375 L 215.753906 61.84375 L 216.453125 62.261719 L 217.148438 62.261719 L 217.148438 61.84375 L 217.847656 62.261719 L 218.890625 62.261719 L 219.242188 62.679688 L 219.9375 62.679688 L 219.9375 95.480469 L 220.285156 95.480469 L 220.632812 95.890625 L 220.984375 96.304688 L 220.984375 96.714844 L 221.332031 96.714844 L 221.679688 97.125 L 222.027344 97.125 L 222.378906 97.535156 L 222.378906 97.949219 L 222.726562 97.949219 L 222.726562 98.359375 L 223.421875 99.179688 L 223.421875 100.414062 L 223.773438 100.414062 L 223.773438 102.875 L 223.421875 102.875 L 223.421875 103.285156 L 223.773438 103.285156 L 223.773438 104.101562 L 224.46875 104.511719 L 224.816406 104.511719 L 225.164062 104.921875 L 225.515625 104.921875 L 225.515625 105.332031 L 225.164062 105.332031 L 225.164062 106.148438 L 225.515625 106.148438 L 225.863281 106.558594 L 225.863281 106.96875 L 226.210938 107.378906 L 226.210938 107.785156 L 226.558594 107.785156 L 226.558594 108.195312 L 226.210938 108.195312 L 226.210938 109.011719 L 226.558594 109.421875 L 226.910156 109.421875 L 226.910156 109.828125 L 227.257812 109.828125 L 227.257812 110.648438 L 227.605469 110.648438 L 227.605469 111.464844 L 228.652344 111.464844 L 228.652344 113.09375 L 228.304688 113.503906 L 228.652344 114.316406 L 229 114.726562 L 229 115.132812 L 228.304688 115.132812 L 227.953125 115.539062 L 228.304688 115.945312 L 228.304688 116.355469 L 228.652344 116.355469 L 228.652344 117.167969 L 228.304688 117.167969 L 228.304688 117.574219 L 227.953125 117.574219 L 227.953125 117.980469 L 228.304688 118.386719 L 228.304688 118.796875 L 227.953125 119.203125 L 227.257812 120.421875 L 227.257812 121.640625 L 226.558594 122.046875 L 226.210938 122.449219 L 226.210938 123.667969 L 225.863281 123.667969 L 225.515625 124.074219 L 225.164062 124.480469 L 225.164062 124.882812 L 225.515625 124.882812 L 225.515625 125.289062 L 225.863281 126.101562 L 225.863281 126.503906 L 225.515625 126.910156 L 225.164062 127.316406 L 224.816406 127.71875 L 224.816406 129.335938 L 225.164062 129.335938 L 225.515625 129.742188 L 225.515625 131.761719 L 225.863281 132.167969 L 225.863281 132.972656 L 225.515625 133.378906 L 225.515625 134.183594 L 224.46875 135.394531 L 224.121094 135.796875 L 224.121094 136.199219 L 223.074219 136.199219 L 223.074219 136.601562 L 222.027344 138.617188 L 221.679688 139.824219 L 221.679688 140.226562 L 222.726562 141.433594 L 223.074219 141.835938 L 222.726562 142.238281 L 218.890625 142.238281 L 218.195312 142.636719 L 216.800781 143.441406 L 214.710938 144.246094 L 209.132812 146.652344 L 208.433594 147.453125 L 207.738281 148.253906 L 207.390625 148.65625 L 207.042969 148.253906 L 206.691406 148.253906 L 207.042969 147.855469 L 208.433594 146.652344 L 208.785156 146.25 L 209.480469 146.25 L 209.828125 145.847656 L 210.179688 145.449219 L 211.921875 145.449219 L 211.921875 145.046875 L 212.269531 144.644531 L 211.921875 144.644531 L 211.574219 145.046875 L 211.574219 144.644531 L 211.222656 144.644531 L 210.875 144.246094 L 210.179688 144.644531 L 208.433594 145.046875 L 207.738281 145.449219 L 207.042969 145.449219 L 207.042969 145.046875 L 207.390625 145.046875 L 207.738281 144.644531 L 207.738281 144.246094 L 208.433594 142.636719 L 208.433594 140.628906 L 208.085938 140.628906 L 208.085938 140.226562 L 206.691406 140.226562 L 206.34375 140.628906 L 206.34375 141.03125 L 205.996094 141.433594 L 205.648438 142.238281 L 205.296875 142.636719 L 204.253906 142.636719 L 204.253906 141.835938 L 203.902344 141.835938 L 203.207031 141.433594 L 202.859375 141.433594 L 202.859375 141.03125 L 202.160156 141.03125 L 202.160156 141.835938 L 203.207031 141.835938 L 203.207031 142.238281 L 203.554688 142.238281 L 203.207031 142.636719 L 202.859375 143.039062 L 202.859375 143.441406 L 203.554688 143.84375 L 203.207031 144.246094 L 202.859375 144.644531 L 202.859375 145.046875 L 203.554688 145.449219 L 204.949219 145.847656 L 204.601562 146.25 L 203.902344 146.25 L 203.902344 146.652344 L 204.253906 146.652344 L 204.253906 147.453125 L 204.601562 147.453125 L 204.601562 147.050781 L 205.296875 147.855469 L 205.648438 147.855469 L 206.34375 148.253906 L 205.296875 148.253906 L 204.949219 148.65625 L 204.949219 149.054688 L 204.601562 149.457031 L 204.601562 149.855469 L 204.253906 149.457031 L 203.902344 149.457031 L 203.902344 149.855469 L 203.554688 150.257812 L 203.207031 150.257812 L 202.160156 151.855469 L 201.8125 152.257812 L 201.117188 152.257812 L 201.117188 151.855469 L 200.417969 151.855469 L 200.417969 154.253906 L 200.765625 154.253906 L 200.417969 154.652344 L 200.417969 155.054688 L 199.023438 155.851562 L 198.675781 156.25 L 197.628906 157.449219 L 196.933594 158.246094 L 195.886719 158.246094 L 194.839844 159.441406 L 192.75 160.636719 L 192.054688 161.035156 L 188.917969 161.035156 L 186.476562 162.226562 L 186.824219 162.226562 L 186.824219 162.625 L 186.476562 162.625 L 186.476562 163.421875 L 186.824219 163.421875 L 186.824219 163.023438 L 189.265625 161.832031 L 189.960938 161.433594 L 190.660156 161.433594 L 188.566406 163.023438 L 187.523438 163.421875 L 185.78125 163.820312 L 184.734375 164.613281 L 183.6875 165.011719 L 182.640625 165.804688 L 181.945312 166.203125 L 182.292969 165.410156 L 182.992188 165.011719 L 185.429688 163.820312 L 185.78125 163.820312 L 186.128906 163.421875 L 186.128906 163.023438 L 185.78125 162.625 L 185.429688 162.625 L 184.734375 163.023438 L 184.386719 163.421875 L 184.035156 163.421875 L 182.992188 163.820312 L 182.292969 164.214844 L 181.945312 164.214844 L 181.945312 163.820312 L 182.292969 163.421875 L 183.339844 163.421875 L 183.339844 163.023438 L 182.992188 163.023438 L 182.640625 163.421875 L 181.945312 163.421875 L 181.945312 163.023438 L 182.292969 162.226562 L 182.640625 161.832031 L 181.597656 161.832031 L 181.597656 162.226562 L 180.898438 162.226562 L 180.203125 163.023438 L 179.503906 163.023438 L 179.503906 162.625 L 179.15625 162.226562 L 178.808594 162.226562 L 179.15625 161.832031 L 179.15625 161.035156 L 178.460938 161.035156 L 178.460938 161.433594 L 178.109375 160.636719 L 178.109375 161.433594 L 178.460938 161.832031 L 178.460938 161.433594 L 178.808594 161.433594 L 178.808594 161.832031 L 178.460938 161.832031 L 178.460938 163.023438 L 178.808594 163.023438 L 179.503906 163.421875 L 178.460938 163.820312 L 177.761719 164.214844 L 177.066406 164.214844 L 177.414062 163.820312 L 178.109375 163.820312 L 178.109375 163.023438 L 177.414062 163.421875 L 177.066406 163.023438 L 176.019531 163.023438 L 176.019531 161.832031 L 175.671875 161.832031 L 175.671875 161.433594 L 174.277344 161.433594 L 174.625 161.832031 L 174.625 162.226562 L 175.324219 163.023438 L 175.324219 164.613281 L 175.671875 164.214844 L 176.367188 164.613281 L 176.71875 165.011719 L 177.066406 165.011719 L 177.066406 165.410156 L 176.367188 166.203125 L 176.019531 166.203125 L 176.367188 166.601562 L 176.71875 166.203125 L 177.066406 166.203125 L 177.414062 165.804688 L 178.109375 166.203125 L 178.808594 166.601562 L 178.808594 166.996094 L 177.414062 167.792969 L 177.066406 167.792969 L 176.71875 168.1875 L 176.367188 168.1875 L 174.277344 169.378906 L 173.929688 168.980469 L 173.929688 169.378906 L 173.578125 168.980469 L 173.578125 167.792969 L 172.882812 167.792969 L 172.882812 166.996094 L 172.535156 166.996094 L 172.1875 166.203125 L 171.835938 166.203125 L 171.488281 166.601562 L 171.835938 166.601562 L 172.1875 166.996094 L 172.535156 167.394531 L 172.1875 167.792969 L 171.835938 167.792969 L 171.488281 167.394531 L 171.140625 167.394531 L 171.488281 168.1875 L 171.835938 168.585938 L 172.1875 168.980469 L 172.1875 169.378906 L 171.835938 169.773438 L 171.835938 170.171875 L 172.1875 170.964844 L 171.835938 171.359375 L 171.488281 171.757812 L 171.140625 171.757812 L 170.441406 172.546875 L 170.09375 172.945312 L 169.746094 172.945312 L 169.398438 173.339844 L 169.398438 172.546875 L 169.746094 172.152344 L 169.746094 170.964844 L 170.09375 170.964844 L 169.746094 170.566406 L 169.398438 170.964844 L 169.046875 171.359375 L 169.398438 171.757812 L 169.398438 172.152344 L 169.046875 172.546875 L 168.699219 172.945312 L 168.699219 173.339844 L 168.003906 172.945312 L 168.351562 172.945312 L 168.351562 172.546875 L 168.003906 172.546875 L 168.351562 171.757812 L 168.003906 171.757812 L 167.65625 172.152344 L 166.957031 172.546875 L 166.261719 172.546875 L 165.910156 172.945312 L 165.910156 172.546875 L 165.214844 172.546875 L 165.214844 172.945312 L 165.5625 172.945312 L 164.867188 173.734375 L 164.515625 174.132812 L 164.867188 174.527344 L 165.5625 174.527344 L 165.5625 174.921875 L 165.910156 174.921875 L 165.910156 175.714844 L 166.261719 175.316406 L 166.261719 174.527344 L 166.609375 174.132812 L 167.304688 174.132812 L 167.65625 173.734375 L 167.65625 173.339844 L 168.003906 173.339844 L 168.003906 174.921875 L 167.65625 175.316406 L 167.304688 176.109375 L 167.304688 175.714844 L 166.609375 176.898438 L 165.214844 178.875 L 164.867188 179.269531 L 164.167969 179.269531 L 164.167969 178.875 L 164.515625 178.875 L 163.820312 178.085938 L 163.125 178.085938 L 162.425781 178.480469 L 162.425781 178.085938 L 160.335938 178.085938 L 160.335938 178.480469 L 159.984375 178.480469 L 159.984375 178.085938 L 159.289062 178.085938 L 159.636719 178.875 L 161.730469 178.875 L 161.378906 179.664062 L 161.730469 180.453125 L 162.078125 180.847656 L 163.820312 181.636719 L 163.820312 182.03125 L 163.472656 182.425781 L 163.472656 182.816406 L 163.125 182.816406 L 163.125 183.605469 L 162.773438 184.789062 L 162.425781 185.574219 L 162.425781 185.96875 L 162.078125 185.96875 L 162.078125 186.363281 L 161.378906 188.328125 L 161.03125 188.722656 L 161.03125 189.113281 L 159.984375 189.507812 L 159.636719 189.898438 L 159.289062 189.898438 L 158.941406 189.507812 L 159.636719 189.507812 L 159.636719 188.722656 L 160.335938 188.722656 L 159.984375 188.328125 L 159.984375 188.722656 L 159.984375 188.328125 L 159.636719 188.328125 L 159.636719 187.933594 L 159.984375 187.542969 L 159.636719 187.542969 L 159.289062 187.933594 L 158.941406 188.328125 L 158.941406 188.722656 L 158.242188 188.722656 L 157.894531 189.113281 L 157.894531 189.507812 L 157.199219 189.507812 L 157.199219 189.113281 L 155.804688 187.148438 L 155.457031 186.753906 L 154.757812 186.363281 L 154.757812 186.753906 L 155.457031 187.148438 L 155.804688 187.542969 L 155.457031 187.542969 L 156.152344 188.328125 L 156.152344 188.722656 L 155.804688 188.722656 L 155.804688 189.113281 L 156.847656 189.113281 L 156.5 189.507812 L 156.152344 189.898438 L 155.804688 189.898438 L 155.457031 189.507812 L 154.757812 189.507812 L 155.105469 189.898438 L 155.804688 190.292969 L 156.5 189.898438 L 156.847656 189.898438 L 157.199219 190.292969 L 157.546875 190.683594 L 159.636719 190.683594 L 159.984375 190.292969 L 160.683594 189.898438 L 161.03125 190.292969 L 161.03125 190.683594 L 160.683594 190.683594 L 160.683594 191.863281 L 160.335938 191.863281 L 160.335938 192.253906 L 160.683594 192.648438 L 160.335938 193.039062 L 159.984375 193.429688 L 159.636719 193.429688 L 159.984375 193.824219 L 159.636719 194.214844 L 159.984375 194.609375 L 159.984375 195 L 159.636719 195 L 158.59375 195.390625 L 158.59375 196.566406 L 158.941406 196.957031 L 158.941406 197.347656 L 159.636719 197.347656 L 159.984375 197.742188 L 159.636719 198.132812 L 158.941406 197.347656 L 158.59375 197.347656 L 158.59375 198.914062 L 159.289062 198.914062 L 159.984375 199.695312 L 159.984375 200.480469 L 160.335938 202.042969 L 160.683594 203.214844 L 161.03125 204.382812 L 161.03125 205.164062 L 161.03125 204.773438 L 160.683594 204.773438 L 160.683594 205.164062 L 159.984375 205.164062 L 160.683594 205.554688 L 160.683594 206.335938 L 160.335938 206.722656 L 161.03125 206.722656 L 161.03125 207.113281 L 161.378906 207.503906 L 161.730469 207.503906 L 162.078125 207.894531 L 161.730469 208.28125 L 162.078125 208.28125 L 162.078125 207.894531 L 162.425781 208.28125 L 162.078125 208.671875 L 162.078125 209.449219 L 162.773438 209.449219 L 162.773438 210.617188 L 163.125 211.007812 L 162.773438 211.398438 L 162.773438 212.5625 L 163.125 212.5625 L 163.125 212.953125 L 164.515625 212.953125 L 164.515625 213.730469 L 164.167969 213.730469 L 163.820312 214.507812 L 163.820312 214.894531 L 164.167969 215.285156 L 164.515625 214.894531 L 164.867188 214.894531 L 164.867188 214.507812 L 165.214844 214.507812 L 165.214844 213.339844 L 165.5625 213.339844 L 165.910156 214.117188 L 165.910156 215.671875 L 163.820312 215.671875 L 163.820312 216.058594 L 163.472656 216.449219 L 162.773438 216.449219 L 162.773438 216.058594 L 162.078125 216.449219 L 162.078125 216.835938 L 162.425781 217.222656 L 162.425781 217.613281 L 162.078125 218 L 161.730469 218 L 161.730469 217.613281 L 160.683594 217.613281 L 160.683594 216.835938 L 159.636719 216.835938 L 159.289062 216.449219 L 158.59375 215.671875 L 157.894531 215.671875 L 157.894531 215.285156 L 157.546875 214.894531 L 157.199219 214.507812 L 156.847656 214.117188 L 154.757812 214.117188 L 154.757812 213.730469 L 150.574219 213.730469 L 150.226562 214.117188 L 149.53125 214.117188 L 149.53125 213.339844 L 149.179688 213.339844 L 148.136719 213.730469 L 147.785156 213.730469 L 147.089844 213.339844 L 145.695312 212.5625 L 145 211.785156 L 144.300781 211.785156 L 144.300781 211.398438 L 144.648438 211.007812 L 143.953125 211.007812 L 143.605469 210.617188 L 142.90625 210.617188 L 142.558594 211.007812 L 142.210938 210.230469 L 141.164062 210.230469 L 140.816406 209.839844 L 139.769531 210.230469 L 139.421875 210.230469 L 139.421875 209.839844 L 139.074219 209.839844 L 138.722656 209.449219 L 138.722656 209.0625 L 138.027344 209.0625 L 138.027344 208.28125 L 137.332031 207.894531 L 136.980469 207.894531 L 136.980469 207.503906 L 136.632812 207.503906 L 136.632812 207.894531 L 136.285156 207.503906 L 136.285156 207.894531 L 135.9375 207.894531 L 135.585938 207.503906 L 135.238281 207.894531 L 134.890625 207.113281 L 134.542969 207.503906 L 134.191406 207.113281 L 132.101562 207.113281 L 131.753906 206.722656 L 131.753906 205.945312 L 132.101562 205.554688 L 131.753906 205.554688 L 131.753906 204.773438 L 131.40625 204.773438 L 131.054688 204.382812 L 130.707031 204.382812 L 130.359375 203.992188 L 130.359375 202.824219 L 129.660156 200.480469 L 129.3125 199.695312 L 129.3125 198.914062 L 128.269531 197.742188 L 127.917969 196.957031 L 127.570312 196.957031 L 126.875 196.175781 L 126.523438 195.78125 L 126.523438 195 L 125.828125 195 L 125.828125 194.609375 L 125.480469 194.214844 L 125.828125 193.824219 L 125.828125 193.039062 L 125.480469 193.039062 L 125.480469 192.648438 L 125.828125 191.863281 L 125.828125 190.683594 L 125.480469 190.292969 L 125.480469 189.898438 L 125.132812 189.898438 L 125.132812 189.507812 L 124.78125 189.507812 L 124.433594 189.113281 L 124.78125 188.722656 L 124.78125 188.328125 L 125.132812 187.933594 L 125.132812 185.574219 L 124.78125 185.574219 L 124.433594 185.179688 L 124.78125 184.789062 L 124.78125 184 L 124.433594 184 L 123.738281 183.210938 L 123.386719 183.210938 L 123.039062 182.816406 L 122.34375 182.816406 L 121.992188 182.425781 L 121.296875 182.425781 L 120.601562 181.636719 L 120.601562 181.242188 L 120.25 180.847656 L 119.902344 180.847656 L 119.554688 180.453125 L 119.554688 180.058594 L 118.855469 180.058594 L 118.855469 179.664062 L 118.507812 179.664062 L 118.507812 178.875 L 117.8125 178.085938 L 118.160156 177.6875 L 117.8125 177.292969 L 117.460938 177.292969 L 117.460938 176.898438 L 117.113281 176.503906 L 117.460938 176.109375 L 116.765625 176.109375 L 116.417969 175.714844 L 116.070312 175.714844 L 116.070312 174.921875 L 115.71875 174.527344 L 115.71875 174.132812 L 115.371094 174.132812 L 115.371094 173.339844 L 115.023438 172.945312 L 114.675781 172.546875 L 112.929688 171.757812 L 112.582031 171.757812 L 112.582031 170.964844 L 111.886719 170.964844 L 111.539062 170.566406 L 111.1875 170.171875 L 111.1875 168.980469 L 110.839844 168.585938 L 110.492188 168.1875 L 110.144531 167.394531 L 110.144531 166.203125 L 109.792969 166.203125 L 109.792969 165.804688 L 110.492188 165.410156 L 109.792969 165.410156 L 109.097656 164.613281 L 109.097656 163.820312 L 108.75 163.820312 L 108.398438 163.421875 L 108.398438 163.023438 L 107.703125 162.226562 L 107.355469 161.832031 L 107.007812 159.839844 L 107.007812 159.441406 L 106.65625 159.042969 L 106.308594 159.042969 L 106.308594 158.644531 L 105.613281 157.847656 L 105.613281 157.449219 L 105.261719 157.449219 L 105.261719 157.050781 L 104.914062 156.648438 L 105.261719 156.25 L 104.914062 155.851562 L 104.566406 155.054688 L 104.566406 153.457031 L 103.867188 153.457031 L 103.867188 153.054688 L 102.824219 152.257812 L 102.476562 152.257812 L 102.824219 151.855469 L 102.476562 151.058594 L 102.125 150.65625 L 101.777344 150.257812 L 101.082031 149.855469 L 100.730469 149.855469 L 100.382812 149.457031 L 100.035156 149.054688 L 98.988281 148.65625 L 98.640625 148.253906 L 98.292969 147.855469 L 98.292969 147.050781 L 97.945312 146.652344 L 97.59375 146.652344 L 96.199219 146.25 L 95.851562 145.847656 L 95.503906 145.449219 L 95.15625 145.449219 L 95.15625 145.046875 L 94.808594 145.046875 L 94.808594 143.441406 L 94.109375 143.441406 L 93.761719 143.84375 L 93.0625 143.84375 L 93.0625 143.441406 L 93.414062 143.039062 L 93.414062 142.636719 L 92.367188 142.636719 L 92.367188 142.238281 L 92.019531 141.835938 L 92.019531 141.433594 L 91.667969 141.03125 L 91.667969 140.226562 L 90.625 140.226562 L 90.277344 139.824219 L 89.925781 140.226562 L 89.578125 140.628906 L 89.230469 140.226562 L 89.230469 139.824219 L 89.578125 139.824219 L 89.230469 139.421875 L 88.882812 139.824219 L 88.882812 140.226562 L 87.488281 140.226562 L 84.699219 139.824219 L 84.699219 139.421875 L 84.351562 139.421875 L 84.351562 139.824219 L 83.652344 139.824219 L 83.304688 139.421875 L 82.957031 139.824219 L 82.257812 139.824219 L 81.910156 139.421875 L 81.5625 139.421875 L 81.5625 139.824219 L 80.863281 139.421875 L 79.46875 139.824219 L 78.773438 139.421875 L 78.425781 139.421875 L 77.726562 139.019531 L 77.03125 139.019531 L 76.683594 138.617188 L 76.683594 138.214844 L 76.332031 138.617188 L 76.332031 138.214844 L 75.984375 138.214844 L 75.636719 137.8125 L 75.289062 138.214844 L 74.9375 138.617188 L 74.589844 138.617188 L 74.589844 139.421875 L 74.242188 140.226562 L 72.152344 140.226562 L 71.800781 140.628906 L 71.453125 140.628906 L 71.453125 140.226562 L 71.105469 140.628906 L 70.40625 141.03125 L 69.015625 141.03125 L 69.015625 141.835938 L 68.664062 142.636719 L 68.316406 142.636719 L 68.316406 143.039062 L 67.96875 143.441406 L 67.96875 143.84375 L 67.621094 143.84375 L 67.621094 144.644531 L 67.269531 145.046875 L 66.921875 146.25 L 66.574219 146.652344 L 66.574219 148.65625 L 65.875 148.65625 L 65.875 149.457031 L 65.527344 150.257812 L 65.527344 150.65625 L 66.226562 151.058594 L 66.226562 151.457031 L 65.527344 151.457031 L 64.832031 151.855469 L 64.832031 152.257812 L 64.484375 151.855469 L 64.132812 152.257812 L 63.4375 153.457031 L 63.089844 153.457031 L 62.390625 153.855469 L 62.390625 154.253906 L 62.042969 154.652344 L 62.042969 155.453125 L 61.695312 155.851562 L 61.34375 156.25 L 60.648438 155.851562 L 58.558594 155.851562 L 58.207031 155.453125 M 164.867188 209.449219 L 165.214844 210.230469 L 165.214844 211.398438 L 165.5625 212.175781 L 165.5625 212.953125 L 165.214844 212.5625 L 165.214844 212.175781 L 164.515625 209.0625 L 164.515625 208.28125 L 164.167969 207.894531 L 164.167969 207.113281 L 163.820312 205.945312 L 163.820312 205.164062 L 163.125 204.773438 L 163.125 203.992188 L 162.773438 203.214844 L 162.773438 202.433594 L 162.425781 202.042969 L 162.078125 201.261719 L 162.078125 200.480469 L 161.730469 200.085938 L 162.078125 200.085938 L 162.078125 199.304688 L 161.378906 198.523438 L 161.730469 198.132812 L 161.730469 197.347656 L 161.378906 195.390625 L 161.378906 191.46875 L 161.730469 191.46875 L 161.730469 196.566406 L 162.425781 200.085938 L 164.167969 206.335938 L 164.167969 206.722656 L 164.515625 207.113281 L 164.515625 208.28125 L 164.867188 209.0625 L 164.867188 209.449219 M 166.957031 179.269531 L 167.304688 178.875 L 167.65625 178.875 L 167.304688 179.269531 L 165.214844 182.425781 L 163.820312 185.574219 L 162.773438 188.328125 L 162.425781 189.898438 L 162.078125 190.683594 L 162.078125 191.078125 L 161.378906 191.078125 L 161.730469 190.683594 L 161.730469 188.722656 L 162.425781 187.542969 L 162.773438 186.363281 L 162.773438 185.96875 L 163.125 185.574219 L 163.472656 184.789062 L 163.472656 184.394531 L 163.820312 183.605469 L 164.167969 183.210938 L 164.167969 182.816406 L 163.820312 182.425781 L 164.167969 182.425781 L 164.515625 182.816406 L 164.867188 182.816406 L 165.5625 180.847656 L 166.261719 180.453125 L 166.957031 179.664062 L 166.957031 179.269531 M 170.441406 172.945312 L 170.792969 172.945312 L 171.140625 173.339844 L 171.140625 174.132812 L 170.792969 174.132812 L 169.398438 176.109375 L 168.699219 177.292969 L 168.003906 177.6875 L 168.003906 178.085938 L 167.65625 178.480469 L 167.65625 178.085938 L 168.003906 177.6875 L 168.351562 176.898438 L 169.046875 176.109375 L 169.046875 175.714844 L 168.699219 175.714844 L 169.746094 173.734375 L 170.09375 173.734375 L 170.441406 173.339844 L 170.441406 172.945312 M 178.460938 167.792969 L 178.808594 167.792969 L 178.808594 168.980469 L 178.460938 168.980469 L 178.460938 169.378906 L 177.414062 169.773438 L 176.71875 170.171875 L 176.019531 170.171875 L 175.324219 171.359375 L 173.578125 172.152344 L 173.230469 172.546875 L 172.1875 173.339844 L 171.835938 173.734375 L 171.488281 174.132812 L 171.140625 174.132812 L 171.488281 173.734375 L 171.488281 173.339844 L 171.835938 172.945312 L 171.835938 172.546875 L 171.488281 172.152344 L 171.835938 172.152344 L 171.835938 171.757812 L 173.230469 171.757812 L 173.230469 171.359375 L 173.929688 170.964844 L 174.277344 170.964844 L 174.277344 170.566406 L 174.972656 170.171875 L 175.324219 170.171875 L 175.324219 169.773438 L 176.367188 169.378906 L 176.71875 168.980469 L 178.109375 168.980469 L 178.109375 168.1875 L 178.460938 167.792969 M 179.503906 167.792969 L 179.503906 167.394531 L 180.203125 166.601562 L 180.898438 166.203125 L 181.597656 166.203125 L 181.25 166.203125 L 180.898438 166.601562 L 180.898438 166.996094 L 180.550781 166.996094 L 179.855469 167.394531 L 179.503906 167.792969 M 206.34375 148.65625 L 208.085938 149.054688 L 204.949219 151.457031 L 204.253906 151.855469 L 201.8125 153.457031 L 201.464844 154.253906 L 201.117188 154.253906 L 201.464844 153.457031 L 201.8125 153.054688 L 202.511719 152.65625 L 203.902344 151.855469 L 204.253906 151.457031 L 204.601562 151.058594 L 204.601562 150.65625 L 205.296875 150.257812 L 205.648438 149.855469 L 205.996094 149.457031 L 206.34375 149.457031 L 206.34375 149.054688 L 205.996094 149.054688 L 205.996094 148.65625 L 206.34375 148.65625 "/>
</svg>
