<?xml version="1.0" encoding="UTF-8"?>
<svg xmlns="http://www.w3.org/2000/svg" xmlns:xlink="http://www.w3.org/1999/xlink" width="147" height="65" viewBox="0 0 147 65">
<path fill-rule="nonzero" fill="rgb(63.921569%, 38.431373%, 89.019608%)" fill-opacity="1" d="M 133.382812 64.5625 L 133.035156 64.125 L 133.035156 64.5625 L 119.066406 64.5625 L 117.667969 65 L 58.660156 65 L 57.261719 64.5625 L 42.597656 64.5625 L 41.550781 64.125 L 37.359375 64.125 L 36.3125 63.691406 L 34.917969 63.691406 L 33.171875 63.253906 L 30.378906 63.253906 L 30.027344 63.691406 L 0 63.691406 L 0.699219 62.816406 L 1.046875 62.816406 L 2.792969 62.378906 L 4.191406 61.941406 L 4.539062 61.941406 L 4.886719 61.503906 L 5.585938 61.503906 L 7.332031 60.628906 L 9.078125 60.628906 L 9.425781 60.191406 L 9.425781 59.753906 L 9.777344 59.316406 L 10.125 58.4375 L 10.476562 58 L 11.523438 58 L 13.617188 57.125 L 13.964844 57.125 L 13.964844 55.367188 L 14.316406 55.367188 L 14.664062 54.929688 L 16.410156 54.050781 L 16.761719 53.609375 L 16.761719 52.292969 L 17.109375 51.851562 L 17.808594 51.414062 L 19.902344 50.53125 L 21.300781 49.652344 L 22.347656 49.210938 L 22.695312 48.769531 L 26.1875 46.121094 L 27.234375 45.238281 L 28.632812 43.914062 L 29.679688 43.027344 L 29.679688 43.472656 L 30.027344 43.472656 L 29.332031 44.355469 L 29.332031 44.796875 L 30.027344 45.238281 L 30.378906 45.679688 L 30.027344 46.121094 L 30.027344 46.5625 L 30.378906 46.5625 L 30.378906 47.003906 L 31.074219 47.445312 L 31.425781 47.445312 L 31.425781 48.328125 L 31.773438 48.328125 L 32.125 48.769531 L 33.519531 48.769531 L 33.519531 49.210938 L 33.871094 49.652344 L 34.566406 50.089844 L 34.917969 50.089844 L 35.265625 50.53125 L 36.664062 50.53125 L 37.011719 50.089844 L 37.710938 49.210938 L 38.410156 49.210938 L 39.105469 48.769531 L 39.457031 48.769531 L 39.457031 48.328125 L 39.804688 48.328125 L 39.804688 47.445312 L 40.503906 47.445312 L 40.503906 47.886719 L 40.851562 48.328125 L 41.203125 48.328125 L 42.25 49.210938 L 42.597656 49.652344 L 43.996094 48.769531 L 46.089844 48.328125 L 47.488281 48.328125 L 48.535156 47.886719 L 48.535156 47.445312 L 48.882812 47.445312 L 48.882812 47.003906 L 48.535156 46.5625 L 48.535156 45.679688 L 49.929688 45.679688 L 49.929688 46.121094 L 50.628906 46.121094 L 50.628906 46.5625 L 50.980469 46.5625 L 52.027344 46.121094 L 52.722656 45.679688 L 54.121094 44.796875 L 54.820312 44.796875 L 55.167969 44.355469 L 55.167969 44.796875 L 55.519531 44.796875 L 55.519531 45.238281 L 55.867188 45.679688 L 56.214844 45.238281 L 56.566406 44.796875 L 58.660156 43.914062 L 59.007812 43.472656 L 59.007812 43.027344 L 58.660156 43.027344 L 58.660156 42.144531 L 59.007812 42.144531 L 59.359375 41.703125 L 59.707031 41.703125 L 59.707031 41.257812 L 60.058594 41.257812 L 60.058594 40.816406 L 59.707031 40.816406 L 59.359375 40.371094 L 59.007812 40.371094 L 59.007812 39.929688 L 59.707031 38.601562 L 60.058594 37.710938 L 60.40625 36.824219 L 61.105469 35.9375 L 61.804688 35.492188 L 62.5 34.601562 L 63.199219 33.269531 L 63.898438 32.824219 L 64.597656 31.488281 L 64.945312 31.042969 L 65.292969 29.703125 L 65.292969 28.8125 L 65.992188 27.921875 L 66.691406 27.472656 L 67.039062 27.027344 L 67.390625 27.027344 L 67.390625 25.6875 L 67.738281 25.238281 L 68.085938 24.792969 L 68.4375 24.792969 L 68.4375 24.34375 L 68.785156 23.898438 L 68.785156 23.449219 L 69.136719 23 L 69.136719 22.105469 L 69.484375 21.65625 L 69.832031 21.210938 L 69.832031 19.863281 L 70.183594 19.863281 L 70.183594 19.414062 L 71.578125 20.3125 L 71.929688 20.3125 L 72.628906 21.65625 L 72.628906 22.105469 L 73.324219 22.554688 L 74.023438 22.554688 L 75.070312 23 L 76.117188 23.449219 L 76.46875 23.449219 L 76.46875 23 L 77.167969 22.554688 L 77.515625 21.65625 L 77.863281 21.210938 L 77.863281 20.761719 L 78.214844 20.3125 L 78.214844 19.863281 L 78.5625 18.964844 L 78.914062 18.519531 L 79.261719 18.070312 L 79.609375 18.070312 L 79.609375 17.621094 L 79.960938 16.71875 L 79.960938 16.269531 L 80.308594 15.820312 L 80.308594 15.371094 L 80.65625 15.371094 L 80.65625 14.921875 L 81.355469 14.019531 L 81.707031 14.019531 L 82.054688 14.472656 L 83.453125 15.371094 L 83.800781 15.371094 L 83.800781 14.921875 L 84.148438 14.472656 L 85.546875 12.667969 L 85.894531 11.769531 L 86.246094 11.769531 L 86.246094 12.21875 L 87.292969 12.21875 L 87.292969 11.769531 L 87.640625 11.316406 L 87.640625 10.867188 L 88.6875 10.867188 L 89.039062 9.964844 L 89.386719 9.964844 L 89.039062 9.511719 L 89.386719 9.511719 L 89.386719 9.058594 L 90.085938 8.15625 L 90.785156 7.703125 L 91.480469 6.800781 L 91.480469 5.441406 L 91.832031 5.441406 L 91.832031 4.535156 L 91.480469 4.535156 L 91.832031 4.535156 L 91.832031 4.082031 L 92.179688 3.175781 L 92.53125 2.722656 L 92.53125 0.910156 L 92.878906 0.453125 L 93.226562 0 L 93.578125 0.453125 L 94.625 1.363281 L 95.324219 2.269531 L 96.371094 2.722656 L 99.511719 5.441406 L 100.210938 5.894531 L 101.257812 6.800781 L 101.609375 6.800781 L 101.609375 7.253906 L 101.957031 6.800781 L 102.304688 5.894531 L 102.65625 4.988281 L 103.003906 4.082031 L 103.355469 3.175781 L 103.355469 2.722656 L 103.703125 3.175781 L 105.101562 3.175781 L 105.796875 3.628906 L 106.84375 3.628906 L 107.195312 4.535156 L 107.894531 4.535156 L 108.242188 4.988281 L 108.242188 5.894531 L 107.894531 5.894531 L 107.542969 6.800781 L 107.195312 6.800781 L 107.542969 7.253906 L 107.542969 7.703125 L 107.894531 7.703125 L 108.589844 8.609375 L 108.941406 8.609375 L 110.335938 9.058594 L 111.035156 9.058594 L 111.386719 9.511719 L 111.734375 9.964844 L 112.082031 9.964844 L 112.082031 10.867188 L 112.78125 10.867188 L 113.128906 11.316406 L 113.828125 11.316406 L 114.179688 11.769531 L 114.527344 12.667969 L 115.226562 12.667969 L 115.226562 13.121094 L 115.574219 13.121094 L 115.574219 16.71875 L 114.875 16.71875 L 114.527344 17.171875 L 114.179688 17.171875 L 114.179688 17.621094 L 113.828125 17.621094 L 113.480469 17.171875 L 113.480469 18.070312 L 113.828125 18.070312 L 113.828125 18.519531 L 113.480469 18.519531 L 113.128906 18.964844 L 112.78125 18.964844 L 112.78125 18.070312 L 112.433594 18.070312 L 112.082031 18.519531 L 112.082031 19.414062 L 111.734375 19.414062 L 111.386719 19.863281 L 111.734375 19.863281 L 111.734375 20.3125 L 111.386719 20.3125 L 111.386719 20.761719 L 111.035156 21.65625 L 110.6875 22.554688 L 110.6875 23.898438 L 110.335938 23.449219 L 109.988281 23 L 109.988281 23.898438 L 110.6875 23.898438 L 111.035156 24.34375 L 111.035156 24.792969 L 110.6875 24.792969 L 110.335938 25.238281 L 111.386719 25.238281 L 112.082031 25.6875 L 113.128906 25.238281 L 113.480469 25.238281 L 113.828125 24.792969 L 114.875 24.792969 L 115.226562 23.898438 L 115.574219 23.898438 L 115.925781 24.34375 L 115.925781 25.6875 L 115.226562 25.6875 L 115.574219 25.6875 L 115.574219 26.132812 L 115.925781 26.132812 L 116.273438 26.582031 L 116.621094 26.582031 L 116.972656 27.027344 L 116.972656 27.921875 L 117.667969 28.367188 L 119.066406 29.257812 L 120.464844 29.257812 L 120.464844 29.703125 L 121.160156 29.703125 L 121.511719 29.257812 L 122.210938 29.257812 L 122.210938 29.703125 L 122.558594 29.703125 L 122.90625 29.257812 L 123.257812 29.703125 L 123.257812 30.597656 L 123.605469 30.597656 L 123.953125 31.042969 L 124.304688 31.042969 L 124.652344 31.488281 L 124.304688 31.933594 L 124.304688 32.378906 L 125.699219 32.378906 L 125.699219 32.824219 L 126.75 33.714844 L 127.097656 33.714844 L 128.492188 34.601562 L 129.191406 34.601562 L 129.542969 35.046875 L 129.542969 36.378906 L 129.191406 36.824219 L 128.492188 35.9375 L 128.144531 35.9375 L 128.144531 36.824219 L 128.492188 37.269531 L 128.492188 38.601562 L 128.144531 38.601562 L 128.84375 39.042969 L 128.84375 39.488281 L 128.144531 39.488281 L 128.144531 39.929688 L 127.796875 39.929688 L 127.796875 40.371094 L 128.144531 40.816406 L 128.492188 40.816406 L 128.144531 41.257812 L 127.796875 41.257812 L 126.75 40.816406 L 126.398438 40.371094 L 126.050781 40.371094 L 126.050781 39.929688 L 125.699219 39.929688 L 125.699219 39.488281 L 125.351562 39.488281 L 125.351562 40.371094 L 124.652344 40.371094 L 124.652344 39.488281 L 124.304688 39.042969 L 123.605469 38.15625 L 123.605469 37.710938 L 122.90625 37.269531 L 122.90625 36.824219 L 122.558594 37.269531 L 122.558594 36.824219 L 122.210938 36.824219 L 122.210938 36.378906 L 121.160156 36.378906 L 120.464844 35.046875 L 120.464844 34.601562 L 119.066406 34.160156 L 118.71875 33.269531 L 118.367188 32.824219 L 118.019531 32.824219 L 117.667969 31.488281 L 117.320312 30.597656 L 116.972656 30.152344 L 115.925781 30.152344 L 115.574219 29.703125 L 115.574219 29.257812 L 115.226562 29.257812 L 114.527344 28.8125 L 114.179688 28.8125 L 113.828125 29.257812 L 114.179688 29.257812 L 114.527344 29.703125 L 115.226562 29.703125 L 115.226562 30.152344 L 115.574219 30.152344 L 115.574219 30.597656 L 116.972656 31.042969 L 117.320312 31.042969 L 117.667969 31.488281 L 117.667969 33.269531 L 118.019531 33.269531 L 118.367188 33.714844 L 118.71875 34.160156 L 119.066406 34.601562 L 119.414062 35.046875 L 119.765625 35.046875 L 120.113281 35.492188 L 120.113281 35.9375 L 120.464844 36.378906 L 120.464844 36.824219 L 120.8125 37.269531 L 121.160156 37.269531 L 121.160156 37.710938 L 121.859375 37.710938 L 121.859375 38.15625 L 122.558594 38.15625 L 122.90625 38.601562 L 123.257812 39.042969 L 123.605469 39.488281 L 123.605469 40.371094 L 123.953125 41.257812 L 126.398438 41.257812 L 126.75 41.703125 L 127.445312 42.144531 L 128.144531 42.144531 L 128.84375 42.585938 L 128.144531 42.585938 L 127.445312 43.027344 L 126.75 43.027344 L 127.097656 43.472656 L 127.445312 43.472656 L 128.144531 43.914062 L 128.492188 43.914062 L 128.84375 43.472656 L 129.191406 43.914062 L 129.191406 44.355469 L 128.84375 44.355469 L 128.84375 44.796875 L 129.191406 44.796875 L 129.542969 45.238281 L 129.542969 47.003906 L 129.191406 47.445312 L 128.84375 47.886719 L 128.492188 47.445312 L 128.144531 46.5625 L 127.445312 46.5625 L 126.75 45.679688 L 126.398438 45.238281 L 126.398438 45.679688 L 126.75 46.121094 L 126.050781 46.121094 L 126.050781 46.5625 L 126.398438 47.003906 L 126.75 47.003906 L 126.75 47.445312 L 126.050781 47.886719 L 127.097656 47.886719 L 127.097656 48.769531 L 125.699219 49.210938 L 125.003906 49.652344 L 125.003906 49.210938 L 124.304688 48.328125 L 123.953125 48.328125 L 123.953125 47.886719 L 123.605469 47.886719 L 123.605469 47.445312 L 122.558594 46.121094 L 122.210938 45.679688 L 121.859375 45.679688 L 121.511719 45.238281 L 121.160156 43.914062 L 120.113281 43.027344 L 119.765625 43.027344 L 119.765625 43.914062 L 120.113281 43.914062 L 120.464844 44.355469 L 121.160156 45.679688 L 121.511719 45.679688 L 121.859375 46.121094 L 122.210938 47.003906 L 123.257812 48.328125 L 124.304688 49.210938 L 125.003906 49.652344 L 125.699219 50.089844 L 126.050781 50.089844 L 126.75 49.652344 L 127.097656 49.652344 L 127.097656 50.972656 L 127.445312 51.414062 L 127.796875 50.972656 L 128.144531 51.414062 L 128.492188 51.851562 L 128.492188 52.292969 L 128.144531 52.292969 L 127.796875 52.730469 L 128.84375 52.730469 L 129.191406 53.609375 L 128.84375 54.050781 L 128.84375 54.488281 L 128.492188 54.488281 L 128.144531 54.929688 L 127.097656 54.929688 L 126.75 55.367188 L 126.398438 55.367188 L 126.050781 54.488281 L 125.699219 54.050781 L 124.652344 53.609375 L 124.304688 53.171875 L 123.953125 53.171875 L 122.90625 52.292969 L 122.90625 50.53125 L 122.558594 50.089844 L 122.210938 49.652344 L 122.210938 50.089844 L 120.8125 50.089844 L 120.8125 50.53125 L 120.464844 50.53125 L 120.464844 49.652344 L 119.765625 49.652344 L 119.414062 49.210938 L 118.71875 49.210938 L 118.71875 47.886719 L 118.367188 48.328125 L 118.367188 49.210938 L 118.019531 49.652344 L 117.320312 49.652344 L 117.320312 49.210938 L 116.972656 48.769531 L 116.621094 47.886719 L 115.925781 47.886719 L 115.574219 48.328125 L 115.226562 48.328125 L 114.875 47.886719 L 112.433594 47.886719 L 112.082031 47.445312 L 111.734375 47.445312 L 111.386719 47.886719 L 111.734375 47.886719 L 111.734375 48.328125 L 112.082031 48.328125 L 113.128906 48.769531 L 114.875 48.769531 L 115.226562 49.210938 L 115.226562 48.769531 L 115.925781 48.328125 L 116.621094 49.210938 L 116.621094 49.652344 L 116.972656 49.652344 L 117.667969 50.089844 L 118.019531 50.53125 L 120.113281 50.53125 L 120.464844 51.414062 L 121.160156 51.414062 L 121.859375 50.972656 L 122.210938 50.972656 L 122.210938 52.730469 L 121.859375 53.609375 L 122.210938 54.050781 L 122.558594 54.050781 L 123.605469 54.488281 L 123.605469 54.929688 L 123.953125 54.929688 L 124.304688 55.367188 L 124.652344 55.808594 L 125.003906 55.808594 L 125.003906 56.246094 L 125.351562 56.683594 L 125.351562 57.125 L 125.003906 57.5625 L 124.652344 57.5625 L 124.652344 58 L 125.003906 58 L 125.351562 57.5625 L 125.699219 57.5625 L 126.050781 57.125 L 127.445312 57.125 L 127.796875 57.5625 L 128.144531 58 L 128.492188 58 L 128.492188 58.4375 L 128.492188 57.5625 L 128.144531 57.5625 L 128.144531 57.125 L 128.492188 56.683594 L 128.144531 56.683594 L 127.796875 56.246094 L 128.144531 55.808594 L 129.191406 55.808594 L 130.9375 56.683594 L 132.683594 56.683594 L 133.035156 56.246094 L 133.730469 56.246094 L 134.082031 56.683594 L 134.429688 59.316406 L 136.175781 63.691406 L 136.175781 65 L 135.828125 65 L 135.828125 63.691406 L 135.476562 63.253906 L 135.128906 61.941406 L 135.128906 61.503906 L 134.777344 61.066406 L 134.429688 61.066406 L 134.429688 61.503906 L 134.082031 63.691406 L 134.429688 64.5625 L 134.429688 65 L 133.382812 64.5625 M 134.777344 65 L 134.777344 64.125 L 135.128906 64.125 L 135.476562 65 L 134.777344 65 M 144.554688 32.378906 L 143.859375 33.269531 L 143.507812 33.714844 L 143.859375 34.160156 L 143.507812 34.160156 L 143.507812 34.601562 L 143.859375 34.601562 L 143.507812 35.046875 L 143.507812 35.492188 L 143.859375 35.046875 L 143.859375 35.492188 L 143.507812 35.9375 L 142.808594 35.9375 L 142.460938 36.378906 L 142.113281 37.269531 L 141.761719 37.710938 L 141.414062 38.601562 L 140.714844 39.488281 L 140.367188 39.929688 L 139.667969 40.816406 L 138.96875 42.144531 L 138.621094 42.585938 L 138.269531 43.027344 L 138.269531 43.472656 L 137.921875 43.914062 L 137.574219 43.914062 L 137.574219 44.355469 L 136.875 44.796875 L 136.875 45.679688 L 137.222656 45.679688 L 137.222656 46.121094 L 136.175781 46.121094 L 135.828125 47.003906 L 135.476562 47.886719 L 135.128906 48.328125 L 135.128906 50.089844 L 134.777344 50.972656 L 134.777344 52.292969 L 134.429688 51.851562 L 134.082031 51.414062 L 133.730469 50.53125 L 133.730469 49.652344 L 133.382812 49.210938 L 133.382812 48.769531 L 133.730469 48.328125 L 134.082031 47.886719 L 133.382812 47.886719 L 133.730469 47.003906 L 134.082031 46.5625 L 134.082031 46.121094 L 134.429688 46.121094 L 134.429688 45.679688 L 134.082031 45.679688 L 134.082031 45.238281 L 134.429688 44.796875 L 135.128906 44.355469 L 134.777344 43.914062 L 134.429688 44.355469 L 134.429688 43.472656 L 134.777344 43.027344 L 135.128906 42.585938 L 135.476562 42.585938 L 134.777344 42.144531 L 135.128906 42.144531 L 135.128906 41.703125 L 135.476562 41.703125 L 135.128906 41.257812 L 135.828125 41.257812 L 135.828125 40.371094 L 136.175781 40.371094 L 136.523438 39.929688 L 136.875 39.929688 L 136.875 39.488281 L 137.574219 39.042969 L 137.222656 38.601562 L 136.875 38.601562 L 137.222656 38.15625 L 137.574219 38.15625 L 137.574219 37.710938 L 137.222656 37.269531 L 138.96875 37.269531 L 138.96875 36.378906 L 139.667969 36.378906 L 139.667969 35.9375 L 139.316406 35.9375 L 139.316406 35.492188 L 139.667969 35.492188 L 139.316406 35.046875 L 138.269531 35.046875 L 138.269531 34.601562 L 138.621094 34.601562 L 138.96875 34.160156 L 140.015625 34.160156 L 140.015625 33.269531 L 140.367188 32.824219 L 143.160156 32.824219 L 143.859375 32.378906 L 144.554688 32.378906 M 139.667969 44.796875 L 139.667969 45.238281 L 139.316406 45.679688 L 138.621094 47.003906 L 138.621094 46.5625 L 138.96875 46.121094 L 139.316406 45.238281 L 139.316406 44.796875 L 139.667969 44.796875 M 140.367188 42.144531 L 140.714844 42.144531 L 140.714844 42.585938 L 140.015625 43.472656 L 139.667969 44.355469 L 139.316406 44.355469 L 139.667969 43.914062 L 140.015625 43.027344 L 140.015625 42.585938 L 140.367188 42.144531 M 133.382812 33.714844 L 133.382812 34.601562 L 133.035156 34.601562 L 133.382812 34.160156 L 133.382812 33.714844 M 133.730469 33.714844 L 133.730469 33.714844 M 133.035156 33.714844 L 133.035156 33.714844 M 147 32.378906 L 145.601562 34.601562 L 145.601562 35.046875 L 144.90625 35.9375 L 144.207031 35.9375 L 144.207031 35.492188 L 144.554688 35.492188 L 144.90625 35.9375 L 144.90625 35.492188 L 145.253906 35.492188 L 144.90625 35.046875 L 144.90625 34.601562 L 145.253906 34.601562 L 145.601562 34.160156 L 145.953125 33.269531 L 146.300781 32.824219 L 146.652344 32.378906 L 147 32.378906 M 135.476562 52.292969 L 135.476562 49.210938 L 135.828125 48.769531 L 135.828125 48.328125 L 136.175781 48.769531 L 136.175781 49.210938 L 135.828125 49.652344 L 135.828125 50.53125 L 136.875 50.53125 L 136.875 50.972656 L 136.523438 51.414062 L 135.828125 51.851562 L 135.828125 52.292969 L 135.128906 52.292969 L 135.476562 52.292969 "/>
</svg>
