<svg width="71" height="70" viewBox="0 0 71 70" fill="none" xmlns="http://www.w3.org/2000/svg">
<path d="M14.127 16.14H18.5429L21.1919 13.491L30.906 11.721L35.3159 10.839L38.853 8.18698L37.086 4.66202H31.791L19.4249 2.01001H7.94696L4.41595 4.66202L0 7.30798L0.882019 10.839L5.29797 12.603L11.4809 11.721L14.127 16.14Z" fill="#A362E3"/>
<path d="M60.1769 1.80002L57.4169 0.597015L53.2798 1.80002L48.4499 0L46.3859 1.80002L45.6929 4.203L42.939 5.40903L42.252 7.81201L44.313 9.01501L49.1429 8.41498L52.5899 10.221L55.3469 9.61505L56.04 6.60599L59.484 4.203L60.1769 1.80002Z" fill="#A362E3"/>
<path d="M30.087 54.8702L36.399 53.2922L40.344 54.0842L45.8639 50.9282L48.234 51.7172L49.806 54.0842L52.173 58.0292L56.9039 55.6622L59.2709 57.2372L69.6119 55.8122L70.7878 61.6922L66.3719 63.5432H58.485L45.072 67.4882L39.5519 66.7022L30.0839 68.2742L26.931 66.7022L24.564 68.2742L18.252 69.0692C18.252 69.0692 14.529 67.8662 17.463 65.9072C22.194 62.7542 19.83 57.2312 19.83 57.2312L30.087 54.8702Z" fill="#A362E3"/>
</svg>
