<?xml version="1.0" encoding="UTF-8"?>
<svg xmlns="http://www.w3.org/2000/svg" xmlns:xlink="http://www.w3.org/1999/xlink" width="34" height="56" viewBox="0 0 34 56">
<path fill-rule="nonzero" fill="rgb(63.921569%, 38.431373%, 89.019608%)" fill-opacity="1" d="M 1.402344 0.496094 L 19.980469 0.496094 L 21.730469 0 L 34 0 L 33.648438 0.496094 L 33.300781 0.496094 L 33.300781 0.992188 L 33.648438 1.488281 L 33.648438 1.984375 L 34 2.480469 L 33.648438 2.976562 L 32.949219 4.460938 L 32.246094 5.453125 L 31.546875 6.441406 L 31.546875 6.933594 L 31.898438 7.429688 L 32.246094 7.921875 L 32.246094 8.417969 L 32.949219 9.894531 L 32.949219 10.390625 L 33.300781 10.390625 L 33.300781 10.882812 L 32.597656 10.882812 L 32.246094 11.375 L 32.246094 12.359375 L 31.898438 12.851562 L 31.195312 13.34375 L 31.195312 13.835938 L 30.84375 14.328125 L 30.496094 14.328125 L 28.742188 15.308594 L 28.742188 15.800781 L 28.042969 16.292969 L 27.691406 16.785156 L 25.585938 16.785156 L 24.886719 17.273438 L 24.535156 18.253906 L 24.535156 21.683594 L 24.1875 22.660156 L 24.1875 23.148438 L 23.132812 24.613281 L 23.132812 25.101562 L 23.484375 25.589844 L 22.433594 27.539062 L 22.082031 28.027344 L 22.082031 29 L 21.730469 29.488281 L 21.730469 29.972656 L 21.382812 30.460938 L 20.679688 31.429688 L 20.328125 31.429688 L 19.980469 31.917969 L 19.628906 32.402344 L 19.628906 33.859375 L 19.277344 34.34375 L 19.277344 34.828125 L 18.578125 35.3125 L 18.226562 35.796875 L 18.226562 42.078125 L 17.875 42.5625 L 17.527344 43.042969 L 17.527344 44.488281 L 17.175781 45.453125 L 17.527344 45.933594 L 17.527344 46.894531 L 17.175781 47.855469 L 16.824219 49.296875 L 16.824219 49.777344 L 16.125 49.777344 L 16.125 50.257812 L 15.773438 51.214844 L 15.773438 51.695312 L 15.421875 52.171875 L 15.421875 53.128906 L 15.773438 53.609375 L 16.472656 54.566406 L 16.824219 55.042969 L 17.175781 56 L 16.125 55.523438 L 2.804688 55.523438 L 2.804688 53.609375 L 3.15625 53.128906 L 3.15625 39.183594 L 3.503906 38.214844 L 3.503906 35.796875 L 3.15625 35.796875 L 2.804688 35.3125 L 2.453125 34.34375 L 1.402344 34.34375 L 1.402344 34.828125 L 1.050781 35.3125 L 0.351562 35.3125 L 0.351562 33.859375 L 1.402344 31.429688 L 1.402344 29.972656 L 1.050781 29.488281 L 1.050781 27.539062 L 0.699219 27.539062 L 0.699219 27.050781 L 0.351562 26.078125 L 0.351562 25.589844 L 0.699219 25.101562 L 0.351562 24.613281 L 0.351562 24.125 L 0 24.125 L 0 23.636719 L 0.351562 23.148438 L 1.050781 21.195312 L 1.050781 19.726562 L 1.753906 19.726562 L 2.101562 19.234375 L 2.101562 17.765625 L 1.753906 16.785156 L 1.753906 16.292969 L 2.101562 15.800781 L 2.453125 15.308594 L 2.453125 13.34375 L 2.101562 12.851562 L 1.402344 11.375 L 1.402344 10.882812 L 1.050781 9.894531 L 1.050781 8.910156 L 1.402344 7.921875 L 1.402344 6.933594 L 1.753906 6.441406 L 1.753906 4.957031 L 1.402344 4.957031 L 1.050781 4.460938 L 1.050781 3.472656 L 1.402344 3.472656 L 1.402344 2.976562 L 1.753906 2.480469 L 1.753906 0.496094 L 1.402344 0.496094 "/>
</svg>
