<?xml version="1.0" encoding="UTF-8"?>
<svg xmlns="http://www.w3.org/2000/svg" xmlns:xlink="http://www.w3.org/1999/xlink" width="137" height="89" viewBox="0 0 137 89">
<path fill-rule="nonzero" fill="rgb(63.921569%, 38.431373%, 89.019608%)" fill-opacity="1" d="M 34.511719 0 L 134.210938 0 L 134.210938 68.808594 L 135.257812 69.828125 L 135.605469 70.84375 L 135.953125 71.351562 L 135.953125 72.363281 L 136.652344 73.378906 L 136.652344 73.886719 L 136.304688 74.390625 L 135.953125 74.898438 L 135.605469 75.402344 L 136.652344 76.921875 L 137 77.933594 L 100.046875 77.933594 L 99.351562 78.941406 L 98.304688 79.445312 L 92.726562 79.445312 L 91.683594 79.949219 L 89.589844 79.949219 L 89.242188 80.453125 L 88.542969 80.960938 L 83.664062 81.964844 L 81.222656 82.972656 L 80.527344 83.476562 L 80.179688 83.476562 L 79.480469 83.980469 L 79.132812 84.484375 L 77.390625 84.484375 L 76.691406 84.984375 L 74.25 84.984375 L 71.8125 84.484375 L 71.464844 84.984375 L 71.113281 84.984375 L 71.113281 85.488281 L 70.070312 85.988281 L 68.675781 85.988281 L 67.976562 86.492188 L 67.628906 86.492188 L 66.929688 86.992188 L 66.234375 86.992188 L 65.886719 86.492188 L 64.492188 86.492188 L 62.75 87.496094 L 62.398438 87.496094 L 62.050781 86.992188 L 62.050781 86.492188 L 61.703125 85.988281 L 61.355469 85.488281 L 60.308594 85.488281 L 55.078125 84.984375 L 50.894531 84.984375 L 50.199219 85.488281 L 48.804688 86.492188 L 48.105469 86.992188 L 45.316406 87.996094 L 43.921875 88.5 L 43.574219 88.5 L 43.226562 89 L 41.832031 88.5 L 40.4375 88.5 L 39.742188 87.996094 L 39.042969 87.996094 L 38.347656 87.496094 L 35.90625 87.496094 L 35.558594 86.992188 L 35.207031 86.992188 L 34.859375 86.492188 L 34.859375 85.988281 L 34.511719 85.488281 L 34.511719 82.972656 L 34.164062 82.46875 L 34.164062 80.960938 L 33.8125 79.949219 L 33.8125 78.4375 L 33.464844 77.933594 L 33.117188 77.933594 L 32.769531 77.425781 L 32.769531 76.921875 L 32.417969 75.910156 L 32.070312 75.402344 L 31.722656 75.402344 L 31.375 74.898438 L 31.027344 74.390625 L 29.980469 74.390625 L 29.632812 73.886719 L 28.933594 73.378906 L 26.84375 73.378906 L 26.144531 73.886719 L 24.75 73.886719 L 23.355469 72.871094 L 23.007812 72.363281 L 23.007812 71.859375 L 22.660156 71.351562 L 22.308594 71.351562 L 21.960938 70.84375 L 19.871094 71.351562 L 18.824219 70.84375 L 18.476562 70.335938 L 17.777344 70.335938 L 17.429688 70.84375 L 17.429688 70.335938 L 17.082031 70.84375 L 16.035156 70.84375 L 16.035156 71.351562 L 15.339844 71.351562 L 15.339844 71.859375 L 14.640625 71.859375 L 14.292969 71.351562 L 13.945312 71.351562 L 13.59375 70.335938 L 13.246094 70.335938 L 12.898438 69.828125 L 12.550781 69.828125 L 12.199219 70.335938 L 11.851562 70.84375 L 12.199219 70.84375 L 11.503906 70.84375 L 11.503906 70.335938 L 11.851562 69.828125 L 11.851562 62.695312 L 11.503906 61.675781 L 11.851562 61.164062 L 11.851562 61.675781 L 12.199219 61.675781 L 12.199219 62.695312 L 12.550781 62.695312 L 12.550781 68.300781 L 13.59375 68.300781 L 13.945312 67.792969 L 13.945312 67.285156 L 14.292969 66.773438 L 14.292969 67.285156 L 14.988281 67.285156 L 15.6875 67.792969 L 15.6875 67.285156 L 15.339844 67.285156 L 14.988281 66.773438 L 14.640625 66.773438 L 14.640625 66.265625 L 14.292969 66.265625 L 13.945312 65.757812 L 13.945312 65.246094 L 14.640625 65.246094 L 14.640625 63.71875 L 13.945312 62.695312 L 13.59375 62.183594 L 13.945312 62.183594 L 14.292969 62.695312 L 14.640625 62.695312 L 14.292969 62.183594 L 14.292969 60.652344 L 14.988281 60.140625 L 16.035156 60.140625 L 16.035156 61.164062 L 16.734375 61.164062 L 17.082031 60.652344 L 16.382812 60.652344 L 15.339844 59.117188 L 14.292969 59.117188 L 14.292969 59.628906 L 13.59375 59.628906 L 13.246094 59.117188 L 13.246094 59.628906 L 13.59375 60.140625 L 12.898438 60.140625 L 12.550781 59.628906 L 11.503906 59.117188 L 11.15625 59.117188 L 11.15625 57.582031 L 10.804688 56.554688 L 10.457031 55.527344 L 10.804688 55.015625 L 10.804688 54.5 L 11.15625 55.015625 L 11.15625 55.527344 L 11.503906 56.042969 L 11.503906 56.554688 L 12.550781 56.554688 L 12.550781 56.042969 L 12.199219 55.527344 L 11.851562 56.042969 L 11.851562 55.527344 L 12.199219 55.015625 L 12.898438 55.015625 L 13.59375 54.5 L 14.988281 53.988281 L 16.035156 53.472656 L 13.59375 53.472656 L 13.59375 52.960938 L 14.292969 52.960938 L 12.550781 52.960938 L 12.550781 51.929688 L 12.199219 51.414062 L 10.457031 51.414062 L 10.457031 53.472656 L 10.804688 53.988281 L 11.15625 53.988281 L 10.109375 53.988281 L 10.109375 54.5 L 9.761719 54.5 L 9.761719 49.871094 L 9.414062 47.808594 L 9.0625 46.773438 L 9.0625 45.742188 L 8.714844 44.707031 L 8.019531 44.707031 L 8.019531 44.1875 L 7.667969 43.671875 L 8.019531 43.671875 L 8.019531 43.152344 L 7.320312 43.152344 L 6.972656 39.523438 L 6.625 38.484375 L 6.273438 36.921875 L 6.273438 35.882812 L 5.578125 34.839844 L 5.578125 33.277344 L 5.230469 33.277344 L 5.230469 32.753906 L 4.878906 32.753906 L 4.53125 32.234375 L 4.53125 31.1875 L 3.484375 30.664062 L 3.136719 30.140625 L 2.441406 29.621094 L 1.742188 29.097656 L 1.394531 27.523438 L 1.046875 26.476562 L 1.046875 25.953125 L 0.695312 24.378906 L 1.046875 23.851562 L 0.347656 22.273438 L 0 21.75 L 0.347656 21.75 L 0.695312 21.222656 L 1.046875 20.695312 L 0.695312 20.695312 L 0.695312 20.167969 L 1.046875 19.644531 L 1.046875 18.589844 L 1.394531 18.589844 L 1.394531 18.0625 L 1.046875 18.0625 L 1.394531 17.53125 L 0.695312 17.53125 L 0 16.476562 L 0.347656 16.476562 L 0.695312 15.949219 L 1.394531 16.476562 L 1.742188 16.476562 L 2.089844 17.003906 L 2.441406 17.003906 L 2.441406 16.476562 L 2.789062 16.476562 L 3.484375 17.53125 L 4.878906 18.0625 L 6.972656 19.117188 L 7.667969 19.644531 L 9.0625 19.644531 L 10.109375 20.167969 L 10.804688 20.695312 L 11.15625 21.222656 L 11.851562 21.75 L 12.898438 21.75 L 13.246094 22.273438 L 19.171875 22.273438 L 19.171875 22.800781 L 20.566406 22.800781 L 20.566406 22.273438 L 20.917969 22.800781 L 23.007812 22.800781 L 22.308594 22.800781 L 22.660156 23.328125 L 26.492188 23.328125 L 27.191406 22.273438 L 27.539062 21.75 L 28.585938 21.75 L 27.886719 21.75 L 27.886719 22.273438 L 28.238281 22.800781 L 28.933594 23.328125 L 29.28125 23.328125 L 29.632812 24.378906 L 29.632812 24.902344 L 29.980469 25.425781 L 30.328125 25.425781 L 30.328125 23.851562 L 31.722656 23.851562 L 31.722656 24.902344 L 32.417969 24.902344 L 32.417969 25.425781 L 32.769531 25.953125 L 32.417969 26.476562 L 33.117188 26.476562 L 33.464844 25.425781 L 33.117188 25.425781 L 32.417969 24.378906 L 32.417969 23.851562 L 32.769531 23.328125 L 33.464844 22.800781 L 34.164062 22.800781 L 34.511719 23.328125 L 34.164062 23.851562 L 33.8125 23.851562 L 33.8125 24.378906 L 34.164062 24.378906 L 34.164062 24.902344 L 34.511719 25.425781 L 35.207031 26.476562 L 35.207031 27 L 35.90625 27 L 35.90625 28.050781 L 36.953125 29.621094 L 36.253906 29.621094 L 35.90625 30.140625 L 35.90625 30.664062 L 35.558594 30.664062 L 34.859375 31.710938 L 34.511719 32.234375 L 34.511719 33.277344 L 34.164062 33.796875 L 34.164062 34.839844 L 33.464844 34.839844 L 33.464844 33.796875 L 33.8125 32.234375 L 33.8125 30.664062 L 33.464844 30.664062 L 33.464844 31.710938 L 33.117188 32.234375 L 33.117188 31.1875 L 32.769531 31.1875 L 32.769531 32.234375 L 33.117188 33.277344 L 32.769531 33.277344 L 32.417969 33.796875 L 32.417969 34.839844 L 32.070312 34.839844 L 31.722656 35.363281 L 31.722656 35.882812 L 31.375 35.882812 L 29.980469 37.964844 L 29.632812 38.484375 L 29.28125 39.523438 L 28.585938 40.5625 L 28.238281 41.078125 L 27.886719 41.597656 L 27.539062 42.636719 L 27.539062 43.152344 L 27.886719 43.671875 L 28.933594 43.671875 L 32.070312 42.117188 L 32.417969 42.117188 L 33.117188 41.078125 L 32.769531 41.078125 L 32.070312 41.597656 L 30.675781 42.117188 L 29.28125 43.152344 L 28.585938 43.152344 L 28.238281 42.117188 L 28.933594 41.078125 L 29.28125 40.5625 L 29.980469 39.003906 L 31.375 36.921875 L 32.417969 35.882812 L 33.8125 35.363281 L 34.511719 35.363281 L 34.511719 34.839844 L 34.859375 33.796875 L 34.859375 33.277344 L 36.601562 30.664062 L 36.953125 30.664062 L 36.953125 30.140625 L 37.300781 30.664062 L 37.300781 31.1875 L 37.648438 31.1875 L 37.996094 30.664062 L 37.648438 30.140625 L 37.648438 29.097656 L 36.953125 28.050781 L 37.996094 28.574219 L 38.695312 29.097656 L 38.695312 30.664062 L 39.042969 31.1875 L 39.042969 32.234375 L 39.390625 32.234375 L 39.742188 32.753906 L 39.390625 33.277344 L 37.996094 33.277344 L 37.996094 33.796875 L 37.648438 34.320312 L 37.300781 34.320312 L 36.253906 33.277344 L 36.253906 33.796875 L 36.601562 34.320312 L 36.953125 34.320312 L 37.300781 36.921875 L 37.300781 37.445312 L 36.953125 37.445312 L 36.601562 36.921875 L 35.90625 35.363281 L 35.90625 35.882812 L 35.558594 35.882812 L 35.558594 36.921875 L 35.90625 36.921875 L 36.601562 37.445312 L 36.601562 37.964844 L 36.253906 37.964844 L 35.90625 38.484375 L 35.90625 39.003906 L 36.601562 38.484375 L 37.300781 37.964844 L 37.648438 37.964844 L 37.996094 37.445312 L 38.347656 37.964844 L 38.347656 39.003906 L 39.042969 39.003906 L 39.042969 39.523438 L 38.347656 40.5625 L 38.347656 41.078125 L 37.996094 41.597656 L 37.996094 42.117188 L 38.347656 42.636719 L 38.347656 43.152344 L 37.996094 43.671875 L 37.648438 43.671875 L 37.996094 44.707031 L 37.996094 45.742188 L 37.648438 45.742188 L 36.253906 45.222656 L 35.90625 44.707031 L 35.90625 44.1875 L 36.253906 44.1875 L 36.253906 43.671875 L 36.601562 43.152344 L 36.953125 42.636719 L 36.601562 42.117188 L 36.601562 42.636719 L 36.253906 42.636719 L 35.90625 43.152344 L 35.558594 43.152344 L 35.207031 43.671875 L 35.207031 44.1875 L 34.859375 44.1875 L 34.859375 44.707031 L 34.511719 45.222656 L 34.859375 45.742188 L 35.207031 46.257812 L 34.859375 46.773438 L 34.859375 47.289062 L 34.164062 47.808594 L 33.8125 47.289062 L 33.464844 45.742188 L 33.464844 45.222656 L 33.8125 45.222656 L 34.164062 44.707031 L 34.164062 43.152344 L 33.8125 43.152344 L 33.8125 42.636719 L 33.464844 42.636719 L 33.117188 43.671875 L 33.117188 44.1875 L 32.417969 44.707031 L 32.070312 45.222656 L 31.722656 45.222656 L 31.375 47.289062 L 31.027344 47.808594 L 30.328125 48.324219 L 29.632812 48.324219 L 29.28125 48.839844 L 29.980469 48.839844 L 29.980469 49.355469 L 29.28125 49.355469 L 28.933594 49.871094 L 29.28125 49.871094 L 30.675781 48.839844 L 31.027344 48.839844 L 31.027344 48.324219 L 31.375 47.808594 L 31.375 48.324219 L 30.675781 49.871094 L 30.328125 49.871094 L 29.980469 50.386719 L 31.027344 50.386719 L 31.375 49.871094 L 31.375 48.839844 L 31.722656 49.355469 L 31.722656 49.871094 L 31.375 50.386719 L 31.722656 50.386719 L 31.722656 50.902344 L 32.070312 51.414062 L 32.070312 48.839844 L 32.769531 48.324219 L 33.117188 48.324219 L 33.117188 48.839844 L 32.769531 48.839844 L 33.464844 48.839844 L 33.464844 48.324219 L 33.8125 48.324219 L 33.8125 48.839844 L 34.164062 48.839844 L 34.164062 49.355469 L 34.859375 49.355469 L 35.207031 49.871094 L 35.207031 50.386719 L 35.90625 49.871094 L 36.253906 49.355469 L 37.648438 47.289062 L 37.996094 46.257812 L 38.347656 45.222656 L 38.347656 44.1875 L 38.695312 44.707031 L 39.390625 44.707031 L 40.089844 45.742188 L 40.4375 45.742188 L 40.785156 45.222656 L 40.4375 45.222656 L 40.4375 44.1875 L 40.785156 44.1875 L 40.785156 43.671875 L 41.832031 43.671875 L 42.179688 43.152344 L 42.179688 42.117188 L 41.832031 42.117188 L 41.484375 41.597656 L 41.484375 40.042969 L 41.136719 39.523438 L 41.136719 39.003906 L 40.785156 37.964844 L 40.785156 36.921875 L 41.136719 36.921875 L 41.484375 37.445312 L 41.832031 37.964844 L 41.832031 36.402344 L 41.484375 36.402344 L 40.785156 35.882812 L 40.4375 35.882812 L 40.4375 35.363281 L 40.785156 34.839844 L 40.785156 34.320312 L 41.136719 34.320312 L 41.136719 32.753906 L 40.785156 32.753906 L 40.785156 31.1875 L 41.136719 30.664062 L 41.484375 30.140625 L 41.832031 29.621094 L 41.832031 28.574219 L 42.179688 28.574219 L 42.179688 28.050781 L 42.527344 27.523438 L 42.878906 27.523438 L 43.574219 27 L 43.921875 27 L 44.273438 26.476562 L 44.273438 25.425781 L 43.921875 25.425781 L 43.574219 25.953125 L 42.527344 24.902344 L 41.832031 23.851562 L 41.484375 23.328125 L 41.484375 21.222656 L 41.136719 20.695312 L 40.4375 20.695312 L 40.4375 20.167969 L 40.089844 20.167969 L 40.089844 21.222656 L 39.742188 21.222656 L 39.742188 22.800781 L 40.089844 22.800781 L 40.089844 23.328125 L 40.4375 23.328125 L 40.785156 23.851562 L 41.136719 23.851562 L 41.484375 24.378906 L 41.832031 24.902344 L 41.136719 24.902344 L 40.785156 24.378906 L 39.390625 22.800781 L 38.695312 22.800781 L 38.695312 21.75 L 38.347656 21.222656 L 38.347656 20.167969 L 39.042969 19.644531 L 40.4375 19.644531 L 40.785156 20.167969 L 40.785156 19.644531 L 41.136719 19.117188 L 41.136719 18.589844 L 40.785156 18.589844 L 40.4375 17.53125 L 39.742188 17.53125 L 39.390625 17.003906 L 38.695312 17.003906 L 38.347656 16.476562 L 37.996094 15.949219 L 37.996094 14.890625 L 37.300781 14.890625 L 37.300781 15.421875 L 36.953125 15.949219 L 36.253906 15.949219 L 35.90625 15.421875 L 35.90625 14.890625 L 36.253906 14.890625 L 36.253906 13.832031 L 35.558594 13.832031 L 35.558594 13.304688 L 36.253906 13.304688 L 36.601562 12.773438 L 36.953125 13.304688 L 37.300781 13.832031 L 37.648438 14.363281 L 37.648438 13.832031 L 37.996094 13.832031 L 38.695312 14.363281 L 39.390625 14.363281 L 39.390625 12.773438 L 39.042969 12.773438 L 39.042969 12.246094 L 38.695312 11.714844 L 37.996094 11.183594 L 38.695312 11.183594 L 39.390625 11.714844 L 40.089844 11.714844 L 40.089844 10.652344 L 39.742188 10.121094 L 39.390625 9.59375 L 39.042969 9.59375 L 39.042969 8.53125 L 38.695312 8 L 39.042969 6.933594 L 39.042969 6.402344 L 38.695312 6.402344 L 37.996094 5.871094 L 37.300781 5.871094 L 37.300781 6.402344 L 36.601562 7.464844 L 36.253906 7.464844 L 36.253906 6.402344 L 36.601562 6.402344 L 36.253906 5.871094 L 35.90625 5.335938 L 35.558594 5.335938 L 35.558594 5.871094 L 35.558594 4.804688 L 35.207031 4.273438 L 34.511719 3.738281 L 34.511719 3.203125 L 34.164062 3.203125 L 34.511719 2.671875 L 34.859375 2.136719 L 34.511719 1.601562 L 33.8125 1.601562 L 33.464844 1.070312 L 34.859375 1.070312 L 34.859375 0.535156 L 34.511719 0 M 28.585938 0 L 29.632812 0 L 29.632812 0.535156 L 28.933594 0.535156 L 28.585938 0 M 13.246094 65.246094 L 13.246094 65.757812 L 13.59375 65.757812 L 13.945312 66.265625 L 13.945312 67.285156 L 13.59375 67.792969 L 13.246094 66.773438 L 12.898438 66.265625 L 12.898438 65.757812 L 13.246094 65.246094 M 40.089844 41.597656 L 40.4375 42.117188 L 41.136719 42.117188 L 41.484375 42.636719 L 40.4375 42.636719 L 40.089844 43.671875 L 39.390625 43.671875 L 39.390625 43.152344 L 39.742188 42.636719 L 40.089844 42.636719 L 40.089844 42.117188 L 39.742188 42.117188 L 39.390625 42.636719 L 39.042969 43.152344 L 39.042969 43.671875 L 38.695312 43.671875 L 38.347656 43.152344 L 38.695312 43.152344 L 38.695312 40.5625 L 39.042969 40.5625 L 39.390625 40.042969 L 39.390625 39.523438 L 39.742188 39.523438 L 39.742188 40.042969 L 40.089844 40.042969 L 40.089844 41.597656 M 39.042969 36.921875 L 39.390625 37.445312 L 38.695312 37.445312 L 38.347656 36.921875 L 37.648438 36.921875 L 37.996094 36.402344 L 37.648438 35.882812 L 37.648438 35.363281 L 37.996094 34.839844 L 37.996094 33.796875 L 38.347656 33.796875 L 38.695312 34.320312 L 39.042969 35.363281 L 39.042969 35.882812 L 38.695312 36.402344 L 39.042969 36.402344 L 39.042969 36.921875 M 35.207031 23.851562 L 35.558594 23.851562 L 35.90625 24.378906 L 35.90625 26.476562 L 35.558594 26.476562 L 35.207031 25.953125 L 34.859375 25.425781 L 34.859375 24.378906 L 35.207031 24.378906 L 35.207031 25.425781 L 35.558594 25.425781 L 35.558594 24.902344 L 35.207031 24.378906 L 35.207031 23.851562 M 41.484375 27 L 41.484375 27.523438 L 41.832031 27.523438 L 41.832031 28.050781 L 41.484375 28.050781 L 41.136719 28.574219 L 41.136719 29.097656 L 40.785156 29.097656 L 40.785156 28.574219 L 40.089844 28.574219 L 40.089844 27.523438 L 39.742188 27 L 39.042969 27 L 38.695312 27.523438 L 38.347656 27.523438 L 38.347656 27 L 37.996094 27 L 37.300781 25.953125 L 37.300781 24.902344 L 36.953125 24.378906 L 37.300781 22.800781 L 37.300781 22.273438 L 36.253906 22.273438 L 35.558594 21.75 L 35.207031 21.75 L 35.207031 21.222656 L 34.859375 21.222656 L 34.511719 20.695312 L 34.511719 20.167969 L 36.253906 17.003906 L 36.253906 16.476562 L 36.953125 16.476562 L 37.300781 15.949219 L 37.648438 15.949219 L 37.648438 17.003906 L 38.695312 18.0625 L 38.695312 18.589844 L 38.347656 19.117188 L 37.996094 19.117188 L 37.648438 18.589844 L 37.300781 18.589844 L 36.953125 19.117188 L 36.953125 19.644531 L 36.601562 19.117188 L 36.601562 19.644531 L 36.253906 20.167969 L 35.207031 20.167969 L 35.207031 20.695312 L 36.953125 20.695312 L 37.648438 21.75 L 37.648438 22.273438 L 37.996094 23.328125 L 37.996094 24.902344 L 38.347656 25.953125 L 38.347656 26.476562 L 38.695312 25.953125 L 38.695312 23.851562 L 39.042969 24.378906 L 39.390625 24.902344 L 39.742188 24.902344 L 41.136719 25.953125 L 41.484375 26.476562 L 41.484375 27 M 32.769531 13.832031 L 33.117188 14.363281 L 33.464844 13.832031 L 33.8125 14.363281 L 33.8125 14.890625 L 33.464844 15.421875 L 32.417969 15.421875 L 32.417969 14.890625 L 32.070312 14.890625 L 31.722656 14.363281 L 31.375 14.363281 L 31.375 13.304688 L 31.722656 13.304688 L 31.722656 12.246094 L 32.417969 11.714844 L 32.769531 12.246094 L 32.769531 13.832031 M 35.558594 11.183594 L 35.90625 11.183594 L 35.90625 12.246094 L 35.207031 12.246094 L 34.859375 11.183594 L 34.859375 10.652344 L 35.558594 10.652344 L 35.558594 11.183594 M 29.980469 13.304688 L 30.328125 13.832031 L 30.328125 14.363281 L 31.027344 14.363281 L 29.632812 14.363281 L 29.28125 13.832031 L 28.238281 13.832031 L 27.886719 13.304688 L 27.539062 12.773438 L 27.539062 12.246094 L 27.191406 11.183594 L 27.191406 10.652344 L 27.539062 10.121094 L 28.238281 10.121094 L 28.933594 11.183594 L 29.28125 11.183594 L 29.980469 11.714844 L 30.328125 12.246094 L 30.675781 12.246094 L 30.675781 12.773438 L 30.328125 12.773438 L 30.328125 13.304688 L 29.980469 12.773438 L 29.980469 13.304688 M 34.859375 9.0625 L 34.511719 9.0625 L 33.8125 10.121094 L 33.464844 10.652344 L 33.117188 10.121094 L 32.769531 9.59375 L 32.417969 8.53125 L 32.417969 8 L 32.070312 8 L 31.722656 8.53125 L 32.070312 8.53125 L 32.070312 9.0625 L 31.722656 9.0625 L 32.769531 10.652344 L 32.417969 10.652344 L 32.417969 11.183594 L 31.722656 11.183594 L 31.375 10.652344 L 31.375 10.121094 L 31.027344 10.121094 L 31.027344 9.59375 L 30.675781 9.59375 L 30.675781 10.652344 L 30.328125 10.652344 L 29.980469 10.121094 L 29.980469 9.59375 L 30.328125 9.0625 L 30.675781 9.0625 L 31.722656 8 L 31.722656 7.464844 L 32.070312 7.464844 L 32.769531 8 L 34.859375 9.0625 M 36.953125 9.0625 L 36.953125 9.59375 L 36.601562 9.0625 L 36.253906 9.0625 L 36.253906 8.53125 L 35.90625 8.53125 L 35.558594 8 L 35.207031 7.464844 L 35.207031 6.933594 L 35.558594 6.933594 L 35.90625 8 L 36.601562 8 L 36.601562 8.53125 L 36.953125 8.53125 L 36.953125 9.0625 M 35.558594 47.808594 L 35.90625 47.808594 L 35.90625 49.355469 L 35.207031 49.355469 L 35.207031 48.839844 L 34.859375 48.839844 L 34.859375 48.324219 L 35.207031 48.324219 L 35.207031 47.808594 L 35.558594 47.808594 M 32.769531 45.742188 L 32.769531 46.257812 L 33.117188 46.773438 L 33.117188 47.289062 L 32.769531 47.808594 L 32.417969 48.324219 L 32.417969 47.289062 L 32.070312 47.289062 L 31.722656 46.773438 L 31.722656 45.742188 L 32.070312 45.222656 L 32.769531 45.222656 L 32.769531 44.707031 L 33.117188 44.707031 L 32.769531 45.222656 L 32.769531 45.742188 M 23.007812 72.871094 L 23.703125 72.871094 L 24.054688 73.378906 L 24.402344 73.886719 L 24.75 73.886719 L 24.75 74.390625 L 24.402344 74.390625 L 24.054688 73.886719 L 23.355469 73.886719 L 23.007812 73.378906 L 23.007812 72.871094 "/>
</svg>
