<?xml version="1.0" encoding="UTF-8"?>
<svg xmlns="http://www.w3.org/2000/svg" xmlns:xlink="http://www.w3.org/1999/xlink" width="105" height="113" viewBox="0 0 105 113">
<path fill-rule="nonzero" fill="rgb(63.921569%, 38.431373%, 89.019608%)" fill-opacity="1" d="M 88.660156 113 L 45.546875 113 L 42.417969 112.523438 L 39.289062 112.523438 L 39.636719 112.050781 L 39.289062 111.574219 L 38.941406 111.101562 L 38.941406 110.625 L 38.59375 109.675781 L 38.246094 109.199219 L 37.203125 109.199219 L 36.507812 108.722656 L 33.726562 108.246094 L 32.683594 107.769531 L 32.335938 107.769531 L 32.335938 107.292969 L 31.640625 105.863281 L 31.640625 104.433594 L 31.292969 103.953125 L 30.597656 103 L 30.597656 101.085938 L 30.25 101.085938 L 30.25 96.292969 L 31.292969 95.335938 L 31.640625 94.375 L 31.640625 93.410156 L 30.945312 92.929688 L 29.554688 92.449219 L 29.554688 91.96875 L 29.207031 91.96875 L 29.207031 90.523438 L 28.859375 90.039062 L 28.511719 89.558594 L 28.511719 89.078125 L 28.859375 88.59375 L 28.859375 87.628906 L 28.511719 87.144531 L 28.859375 86.179688 L 28.859375 85.695312 L 28.511719 85.210938 L 28.859375 83.761719 L 28.859375 82.792969 L 28.511719 82.308594 L 28.164062 81.820312 L 28.164062 79.394531 L 27.46875 78.425781 L 26.773438 78.425781 L 26.773438 77.9375 L 26.074219 77.453125 L 26.074219 76.480469 L 24.683594 76.480469 L 23.640625 75.507812 L 21.554688 75.507812 L 21.554688 75.019531 L 19.46875 73.558594 L 18.773438 73.070312 L 18.425781 72.582031 L 17.035156 70.140625 L 16.339844 68.671875 L 13.90625 66.222656 L 12.863281 65.734375 L 10.777344 65.734375 L 10.777344 65.242188 L 10.429688 65.242188 L 10.429688 64.753906 L 9.734375 63.773438 L 9.386719 63.28125 L 8.691406 62.789062 L 8.34375 62.789062 L 5.5625 62.296875 L 4.867188 61.804688 L 4.519531 61.316406 L 4.519531 60.824219 L 4.171875 60.824219 L 2.78125 59.347656 L 1.738281 58.855469 L 1.390625 58.359375 L 2.085938 56.882812 L 2.085938 54.90625 L 2.433594 54.414062 L 2.433594 53.425781 L 2.085938 51.941406 L 1.738281 50.949219 L 1.738281 50.453125 L 2.085938 50.453125 L 2.78125 49.460938 L 2.433594 48.964844 L 2.433594 47.972656 L 2.085938 47.972656 L 2.085938 47.476562 L 2.433594 46.980469 L 2.433594 44.992188 L 2.78125 44.496094 L 3.128906 44.496094 L 3.476562 43.996094 L 3.476562 43 L 4.171875 42.503906 L 4.171875 41.507812 L 3.128906 40.007812 L 2.78125 39.011719 L 2.433594 38.511719 L 1.042969 38.511719 L 0.347656 38.011719 L 0 37.011719 L 0 35.007812 L 0.347656 34.507812 L 1.738281 33.003906 L 2.433594 32.5 L 2.085938 31.496094 L 2.78125 30.492188 L 3.476562 29.484375 L 4.171875 29.484375 L 5.214844 28.480469 L 5.910156 28.480469 L 6.605469 27.472656 L 7.648438 27.472656 L 8.34375 26.464844 L 9.039062 26.96875 L 9.386719 26.96875 L 9.386719 26.464844 L 9.734375 26.464844 L 9.734375 25.960938 L 10.082031 25.457031 L 10.429688 25.457031 L 10.429688 10.75 L 12.167969 10.75 L 12.167969 9.21875 L 12.863281 9.21875 L 13.210938 8.707031 L 13.210938 8.195312 L 13.90625 8.195312 L 14.601562 9.21875 L 15.296875 9.21875 L 16.339844 9.730469 L 16.6875 10.238281 L 19.121094 9.730469 L 23.292969 8.195312 L 24.335938 7.6875 L 25.726562 7.175781 L 26.074219 7.6875 L 26.773438 6.664062 L 28.164062 5.640625 L 29.207031 5.128906 L 29.554688 5.128906 L 29.554688 5.640625 L 30.25 5.640625 L 30.597656 5.128906 L 30.597656 5.640625 L 30.945312 5.640625 L 31.292969 5.128906 L 31.292969 4.617188 L 31.988281 4.617188 L 32.335938 4.105469 L 33.03125 3.59375 L 33.378906 3.59375 L 33.726562 3.078125 L 33.726562 3.59375 L 34.769531 3.59375 L 34.769531 3.078125 L 35.117188 3.078125 L 35.117188 2.566406 L 35.464844 2.566406 L 35.8125 3.078125 L 35.8125 3.59375 L 36.855469 3.59375 L 36.855469 4.105469 L 37.203125 4.617188 L 36.507812 5.640625 L 36.160156 6.664062 L 35.8125 7.175781 L 35.464844 7.175781 L 35.464844 7.6875 L 35.117188 8.195312 L 35.117188 8.707031 L 35.464844 9.21875 L 35.464844 9.730469 L 34.421875 11.257812 L 34.074219 11.769531 L 33.726562 12.277344 L 34.769531 12.277344 L 36.855469 11.257812 L 37.203125 10.75 L 37.550781 10.238281 L 36.855469 10.238281 L 37.550781 10.238281 L 37.550781 9.730469 L 38.941406 11.257812 L 40.679688 12.277344 L 41.722656 12.277344 L 42.417969 12.785156 L 43.460938 12.785156 L 43.113281 12.785156 L 43.460938 13.296875 L 43.460938 13.804688 L 44.15625 13.804688 L 44.503906 13.296875 L 44.851562 13.804688 L 45.546875 13.804688 L 45.546875 14.3125 L 46.242188 14.3125 L 46.242188 14.820312 L 46.589844 14.820312 L 46.9375 15.328125 L 46.9375 15.835938 L 47.285156 16.34375 L 47.632812 17.359375 L 48.328125 18.375 L 48.328125 18.882812 L 49.023438 18.882812 L 49.371094 19.390625 L 50.414062 19.390625 L 51.457031 19.894531 L 52.5 19.894531 L 53.890625 20.402344 L 55.628906 20.90625 L 58.410156 21.921875 L 59.800781 21.921875 L 62.582031 22.929688 L 63.625 22.929688 L 64.320312 23.4375 L 65.015625 23.4375 L 65.710938 23.941406 L 66.058594 23.941406 L 67.101562 24.445312 L 68.144531 24.953125 L 69.1875 25.960938 L 70.230469 26.464844 L 71.621094 26.464844 L 71.621094 26.96875 L 71.96875 26.96875 L 72.316406 26.464844 L 72.664062 26.464844 L 73.011719 26.96875 L 73.359375 26.96875 L 74.054688 27.472656 L 74.402344 27.472656 L 74.75 26.96875 L 76.488281 26.96875 L 76.488281 27.472656 L 78.925781 27.472656 L 79.273438 27.976562 L 80.664062 27.976562 L 81.011719 28.480469 L 82.054688 28.480469 L 82.402344 28.984375 L 83.097656 28.984375 L 83.097656 29.484375 L 83.792969 30.492188 L 83.792969 30.992188 L 83.445312 30.992188 L 83.097656 31.496094 L 83.097656 32 L 83.445312 32.5 L 83.792969 32.5 L 83.792969 33.003906 L 84.488281 33.003906 L 84.835938 32.5 L 85.183594 32.5 L 85.183594 33.003906 L 85.53125 33.003906 L 85.53125 33.503906 L 87.269531 33.503906 L 87.269531 34.003906 L 87.617188 34.003906 L 87.964844 34.507812 L 88.3125 35.007812 L 88.660156 35.007812 L 88.660156 35.507812 L 88.3125 36.007812 L 88.3125 36.511719 L 88.660156 37.011719 L 88.660156 38.011719 L 88.3125 38.011719 L 88.3125 39.011719 L 88.660156 40.007812 L 88.3125 40.507812 L 88.3125 41.007812 L 87.617188 41.507812 L 87.617188 42.503906 L 87.269531 43 L 87.269531 43.5 L 89.355469 43.5 L 90.398438 43 L 91.09375 43 L 91.09375 43.996094 L 90.746094 43.996094 L 90.746094 44.496094 L 90.398438 45.488281 L 90.050781 46.484375 L 89.703125 46.484375 L 89.703125 47.476562 L 90.050781 47.972656 L 90.050781 48.46875 L 90.746094 48.46875 L 90.746094 48.964844 L 91.09375 49.460938 L 92.136719 49.957031 L 91.789062 50.949219 L 91.441406 50.949219 L 91.441406 52.433594 L 91.09375 52.929688 L 90.746094 52.929688 L 89.007812 53.425781 L 88.3125 53.917969 L 87.617188 54.414062 L 87.964844 54.90625 L 87.617188 55.894531 L 86.574219 56.882812 L 86.574219 57.375 L 86.226562 57.867188 L 86.226562 58.359375 L 85.53125 58.855469 L 85.53125 59.347656 L 85.183594 59.839844 L 85.53125 60.332031 L 85.183594 60.332031 L 85.183594 60.824219 L 84.835938 61.316406 L 84.835938 61.804688 L 84.488281 62.789062 L 84.488281 63.28125 L 84.835938 63.28125 L 85.183594 63.773438 L 86.226562 63.773438 L 86.574219 63.28125 L 86.574219 62.789062 L 87.269531 61.804688 L 87.964844 61.316406 L 89.355469 60.824219 L 89.703125 60.332031 L 89.703125 59.839844 L 90.050781 59.839844 L 90.050781 59.347656 L 90.398438 57.867188 L 91.09375 56.882812 L 91.441406 56.882812 L 91.789062 56.386719 L 92.484375 55.894531 L 92.832031 55.894531 L 92.484375 56.386719 L 92.832031 56.386719 L 93.527344 55.402344 L 93.875 55.894531 L 94.222656 55.402344 L 94.570312 55.402344 L 95.265625 55.894531 L 95.613281 56.386719 L 95.960938 56.882812 L 96.65625 56.882812 L 97.003906 57.375 L 97.003906 57.867188 L 96.308594 59.347656 L 96.308594 60.332031 L 95.960938 60.332031 L 95.613281 60.824219 L 94.917969 62.296875 L 94.570312 62.789062 L 94.222656 64.261719 L 93.527344 66.714844 L 93.527344 67.695312 L 93.179688 68.183594 L 93.179688 69.160156 L 92.832031 69.160156 L 93.179688 70.140625 L 93.875 71.117188 L 93.875 72.09375 L 92.832031 73.558594 L 92.136719 74.042969 L 91.789062 74.042969 L 91.441406 74.53125 L 90.398438 76.480469 L 90.398438 77.9375 L 90.050781 78.425781 L 90.050781 78.910156 L 89.703125 80.851562 L 89.703125 81.335938 L 90.050781 81.335938 L 90.050781 81.820312 L 90.398438 82.308594 L 90.398438 84.246094 L 90.050781 85.210938 L 89.007812 87.144531 L 88.660156 87.628906 L 88.660156 90.039062 L 87.269531 91.96875 L 87.269531 92.929688 L 86.921875 94.855469 L 86.921875 96.292969 L 87.269531 96.773438 L 87.269531 97.253906 L 86.921875 97.734375 L 86.921875 98.214844 L 87.269531 98.691406 L 87.269531 99.171875 L 86.921875 100.128906 L 86.921875 101.085938 L 87.617188 101.085938 L 87.964844 101.566406 L 87.964844 104.433594 L 88.3125 104.433594 L 89.007812 105.386719 L 89.007812 108.246094 L 88.3125 109.199219 L 88.3125 110.148438 L 88.660156 110.625 L 88.660156 111.101562 L 88.3125 111.574219 L 88.660156 113 M 34.074219 2.566406 L 33.726562 2.566406 L 33.726562 3.078125 L 33.378906 2.566406 L 33.726562 2.054688 L 34.074219 1.539062 L 34.421875 2.054688 L 34.074219 2.566406 M 41.027344 3.078125 L 41.027344 3.59375 L 40.679688 3.59375 L 40.679688 4.105469 L 38.941406 4.105469 L 39.289062 3.59375 L 40.332031 3.078125 L 41.027344 3.078125 M 36.855469 3.59375 L 37.203125 3.078125 L 37.203125 2.566406 L 37.550781 3.078125 L 37.898438 3.078125 L 38.246094 3.59375 L 37.898438 4.105469 L 37.550781 4.105469 L 36.855469 3.59375 M 43.460938 0 L 43.113281 0 L 43.113281 1.027344 L 42.765625 1.539062 L 42.070312 2.054688 L 42.070312 1.027344 L 42.417969 0.515625 L 42.765625 0 L 43.460938 0 M 40.332031 6.152344 L 38.941406 6.152344 L 38.59375 6.664062 L 38.59375 7.175781 L 37.550781 7.6875 L 36.855469 8.195312 L 36.507812 8.195312 L 36.507812 7.6875 L 36.855469 7.175781 L 38.246094 6.152344 L 38.59375 6.152344 L 38.59375 5.640625 L 39.636719 5.128906 L 39.984375 5.128906 L 40.332031 5.640625 L 40.332031 6.152344 M 102.566406 46.980469 L 101.871094 46.484375 L 101.523438 46.484375 L 101.871094 46.484375 L 101.871094 46.980469 L 101.523438 47.476562 L 101.523438 47.972656 L 101.871094 48.46875 L 101.871094 48.964844 L 101.175781 48.46875 L 100.828125 48.46875 L 101.175781 48.964844 L 101.871094 49.460938 L 101.523438 49.957031 L 101.175781 49.957031 L 101.175781 50.949219 L 100.828125 50.949219 L 100.828125 50.453125 L 100.480469 50.453125 L 100.480469 50.949219 L 100.132812 51.445312 L 99.4375 52.929688 L 99.089844 53.425781 L 99.4375 53.917969 L 99.4375 54.414062 L 98.742188 54.414062 L 98.742188 55.402344 L 98.394531 55.402344 L 97.699219 56.386719 L 97.351562 56.882812 L 96.65625 56.882812 L 95.960938 56.386719 L 95.613281 55.402344 L 95.613281 53.425781 L 96.308594 52.433594 L 97.003906 50.949219 L 97.699219 50.949219 L 97.351562 50.949219 L 97.699219 50.453125 L 97.699219 49.957031 L 98.046875 48.964844 L 98.046875 48.46875 L 98.394531 48.46875 L 98.394531 47.972656 L 98.742188 47.972656 L 99.089844 48.46875 L 99.4375 48.46875 L 99.4375 47.972656 L 100.132812 47.476562 L 100.480469 46.980469 L 100.480469 45.988281 L 101.175781 45.988281 L 101.175781 44.992188 L 102.914062 44.992188 L 102.914062 45.488281 L 102.566406 45.488281 L 102.566406 45.988281 L 102.914062 45.988281 L 102.914062 46.484375 L 102.566406 46.980469 M 105 43 L 105 43.996094 L 102.914062 43.996094 L 103.261719 43.5 L 103.261719 42.003906 L 103.609375 41.507812 L 103.609375 42.003906 L 103.957031 42.503906 L 104.304688 42.003906 L 105 42.003906 L 105 43 "/>
</svg>
