<?xml version="1.0" encoding="UTF-8"?>
<svg xmlns="http://www.w3.org/2000/svg" xmlns:xlink="http://www.w3.org/1999/xlink" width="86" height="77" viewBox="0 0 86 77">
<path fill-rule="nonzero" fill="rgb(63.921569%, 38.431373%, 89.019608%)" fill-opacity="1" d="M 1.054688 50.117188 L 1.402344 50.558594 L 2.457031 50.558594 L 3.859375 49.671875 L 5.265625 49.671875 L 5.96875 48.78125 L 6.320312 47 L 6.320312 46.554688 L 6.667969 46.109375 L 7.722656 46.109375 L 8.074219 45.664062 L 8.074219 45.21875 L 7.722656 44.773438 L 7.722656 44.328125 L 8.074219 43.882812 L 8.074219 43.4375 L 7.722656 42.988281 L 7.371094 42.542969 L 7.722656 42.097656 L 7.722656 41.648438 L 8.074219 41.648438 L 8.425781 40.753906 L 8.777344 40.753906 L 8.777344 39.414062 L 9.125 38.964844 L 9.476562 38.070312 L 10.179688 37.175781 L 10.882812 36.726562 L 11.582031 36.726562 L 11.933594 37.175781 L 12.285156 37.175781 L 12.636719 37.625 L 12.636719 38.070312 L 12.988281 38.519531 L 12.988281 38.964844 L 12.636719 38.964844 L 12.636719 39.863281 L 13.339844 39.863281 L 13.691406 39.414062 L 14.039062 38.964844 L 14.039062 38.519531 L 14.390625 38.070312 L 14.742188 38.519531 L 15.445312 38.519531 L 15.09375 38.070312 L 15.09375 36.28125 L 14.742188 36.28125 L 14.742188 35.832031 L 14.390625 35.832031 L 14.390625 35.382812 L 15.445312 34.933594 L 15.445312 33.136719 L 15.796875 32.6875 L 16.496094 31.789062 L 16.847656 30.890625 L 18.957031 30.890625 L 18.957031 29.539062 L 20.359375 28.191406 L 21.414062 28.191406 L 21.761719 28.640625 L 22.113281 29.089844 L 22.816406 29.089844 L 23.167969 28.640625 L 24.21875 28.640625 L 24.570312 28.191406 L 24.921875 28.191406 L 25.625 27.289062 L 25.976562 27.289062 L 26.675781 26.835938 L 27.378906 25.933594 L 27.730469 25.03125 L 29.835938 23.675781 L 30.890625 23.226562 L 30.890625 22.773438 L 31.242188 22.320312 L 31.242188 21.417969 L 31.59375 21.417969 L 31.59375 20.511719 L 30.890625 19.605469 L 31.242188 19.605469 L 31.59375 19.152344 L 31.59375 18.699219 L 31.941406 18.246094 L 31.941406 17.792969 L 32.292969 17.792969 L 32.292969 16.429688 L 32.996094 16.429688 L 32.996094 15.066406 L 33.347656 15.066406 L 33.347656 12.792969 L 33.699219 12.339844 L 34.050781 11.429688 L 34.050781 10.972656 L 34.398438 10.0625 L 34.398438 9.605469 L 34.75 8.695312 L 35.101562 8.695312 L 35.453125 8.238281 L 35.804688 7.324219 L 35.804688 5.953125 L 35.453125 5.953125 L 35.453125 5.496094 L 35.804688 4.582031 L 35.804688 3.667969 L 35.453125 3.207031 L 35.101562 2.292969 L 34.75 1.375 L 34.398438 1.375 L 34.75 0.917969 L 35.101562 0.457031 L 36.15625 0.457031 L 36.855469 0 L 37.207031 0 L 37.207031 20.964844 L 55.460938 20.964844 L 55.460938 32.6875 L 55.460938 32.238281 L 55.8125 32.238281 L 57.917969 30.441406 L 58.972656 30.441406 L 58.972656 29.539062 L 59.324219 29.539062 L 59.324219 29.089844 L 60.023438 29.089844 L 60.726562 28.640625 L 60.726562 28.191406 L 61.078125 28.191406 L 61.429688 27.738281 L 61.78125 27.738281 L 61.78125 26.835938 L 62.128906 26.835938 L 62.832031 26.386719 L 63.183594 26.386719 L 63.535156 26.835938 L 64.238281 26.835938 L 64.238281 27.289062 L 64.585938 26.835938 L 64.9375 26.835938 L 64.9375 26.386719 L 65.992188 25.484375 L 66.34375 25.03125 L 66.34375 24.582031 L 67.394531 24.582031 L 67.394531 24.128906 L 67.042969 24.128906 L 67.042969 23.675781 L 67.394531 23.675781 L 67.394531 23.226562 L 67.746094 23.226562 L 67.746094 22.773438 L 68.097656 22.773438 L 68.097656 23.226562 L 68.449219 23.226562 L 68.449219 23.675781 L 68.097656 23.675781 L 68.097656 24.128906 L 68.449219 24.128906 L 69.152344 24.582031 L 69.503906 25.03125 L 69.851562 25.03125 L 71.257812 25.484375 L 71.257812 25.03125 L 73.363281 25.03125 L 73.714844 24.582031 L 73.363281 24.128906 L 73.714844 24.128906 L 74.066406 23.675781 L 74.417969 23.675781 L 73.714844 23.226562 L 74.765625 23.226562 L 75.117188 22.773438 L 76.523438 22.773438 L 76.875 22.320312 L 77.222656 22.320312 L 77.574219 21.417969 L 78.980469 21.417969 L 80.03125 21.867188 L 81.085938 23.226562 L 81.4375 23.675781 L 82.488281 23.675781 L 82.839844 23.226562 L 83.191406 23.675781 L 83.542969 23.675781 L 83.542969 23.226562 L 84.246094 23.226562 L 84.246094 24.128906 L 83.894531 24.582031 L 83.542969 24.582031 L 83.894531 25.484375 L 84.246094 25.03125 L 84.597656 25.03125 L 84.597656 25.484375 L 84.246094 25.484375 L 84.246094 25.933594 L 85.296875 25.933594 L 84.945312 26.386719 L 85.296875 26.835938 L 84.945312 27.289062 L 86 27.738281 L 86 28.640625 L 85.648438 29.089844 L 86 29.539062 L 86 29.992188 L 84.945312 32.6875 L 84.597656 33.585938 L 84.246094 34.035156 L 84.246094 33.585938 L 83.894531 33.585938 L 82.839844 32.6875 L 82.140625 32.238281 L 80.03125 30.441406 L 78.980469 29.539062 L 77.925781 29.089844 L 77.222656 28.191406 L 76.171875 27.289062 L 75.820312 26.835938 L 75.46875 27.289062 L 75.117188 27.738281 L 75.117188 29.539062 L 74.765625 29.992188 L 74.417969 30.890625 L 74.417969 31.339844 L 74.066406 31.339844 L 74.417969 31.339844 L 74.417969 32.238281 L 74.066406 32.238281 L 74.066406 33.585938 L 73.363281 34.484375 L 72.660156 34.933594 L 71.960938 35.832031 L 71.960938 36.28125 L 71.609375 36.28125 L 71.960938 36.726562 L 71.609375 36.726562 L 71.257812 37.625 L 70.203125 37.625 L 70.203125 38.070312 L 69.851562 38.519531 L 69.851562 38.964844 L 68.800781 38.964844 L 68.800781 38.519531 L 68.449219 38.519531 L 68.097656 39.414062 L 67.394531 40.308594 L 66.695312 41.203125 L 66.34375 41.648438 L 66.34375 42.097656 L 65.992188 42.097656 L 65.289062 41.648438 L 64.585938 41.203125 L 64.238281 40.753906 L 63.886719 40.753906 L 63.183594 41.648438 L 63.183594 42.097656 L 62.832031 42.097656 L 62.832031 42.542969 L 62.480469 42.988281 L 62.480469 43.4375 L 62.128906 44.328125 L 62.128906 44.773438 L 61.78125 44.773438 L 61.078125 45.664062 L 60.726562 46.554688 L 60.726562 47 L 60.375 47.445312 L 60.375 47.890625 L 60.023438 48.335938 L 59.671875 49.226562 L 58.972656 49.671875 L 58.972656 50.117188 L 58.621094 50.117188 L 57.566406 49.671875 L 56.515625 49.226562 L 55.8125 49.226562 L 55.109375 48.78125 L 55.109375 48.335938 L 54.40625 47 L 54.058594 47 L 52.652344 46.109375 L 52.652344 46.554688 L 52.300781 46.554688 L 52.300781 47.890625 L 51.949219 48.335938 L 51.601562 48.78125 L 51.601562 49.671875 L 51.25 50.117188 L 51.25 50.558594 L 50.898438 51.003906 L 50.898438 51.449219 L 50.546875 51.449219 L 50.195312 51.890625 L 49.84375 52.335938 L 49.84375 53.667969 L 49.492188 53.667969 L 49.144531 54.109375 L 48.441406 54.554688 L 47.738281 55.441406 L 47.738281 56.324219 L 47.386719 57.652344 L 47.035156 58.09375 L 46.335938 59.421875 L 45.632812 59.863281 L 44.929688 61.1875 L 44.230469 62.070312 L 43.527344 62.511719 L 42.824219 63.394531 L 42.472656 64.273438 L 42.121094 65.15625 L 41.421875 66.476562 L 41.421875 66.914062 L 41.769531 66.914062 L 42.121094 67.355469 L 42.472656 67.355469 L 42.472656 67.792969 L 42.121094 67.792969 L 42.121094 68.234375 L 41.769531 68.234375 L 41.421875 68.671875 L 41.070312 68.671875 L 41.070312 69.550781 L 41.421875 69.550781 L 41.421875 69.992188 L 41.070312 70.429688 L 38.964844 71.308594 L 38.261719 72.183594 L 37.910156 71.746094 L 37.910156 71.308594 L 37.558594 71.308594 L 37.558594 70.867188 L 37.207031 71.308594 L 36.507812 71.308594 L 34.398438 72.621094 L 33.347656 73.0625 L 32.996094 73.0625 L 32.996094 72.621094 L 32.292969 72.621094 L 32.292969 72.183594 L 30.890625 72.183594 L 30.890625 73.0625 L 31.242188 73.5 L 31.242188 73.9375 L 30.890625 73.9375 L 30.890625 74.375 L 29.835938 74.8125 L 28.433594 74.8125 L 26.328125 75.25 L 24.921875 76.125 L 24.570312 75.6875 L 23.519531 74.8125 L 23.167969 74.8125 L 22.816406 74.375 L 22.816406 73.9375 L 22.113281 73.9375 L 22.113281 74.8125 L 21.761719 74.8125 L 21.761719 75.25 L 21.414062 75.25 L 20.710938 75.6875 L 20.007812 75.6875 L 19.304688 76.5625 L 18.957031 77 L 17.550781 77 L 17.199219 76.5625 L 16.847656 76.5625 L 16.148438 76.125 L 15.796875 75.6875 L 15.796875 75.25 L 14.390625 75.25 L 14.039062 74.8125 L 13.691406 74.8125 L 13.691406 73.9375 L 13.339844 73.9375 L 12.636719 73.5 L 12.636719 73.0625 L 12.285156 73.0625 L 12.285156 72.621094 L 12.636719 72.183594 L 12.285156 71.746094 L 11.582031 71.308594 L 11.582031 70.867188 L 12.285156 69.992188 L 11.933594 69.992188 L 11.933594 69.550781 L 10.53125 69.550781 L 9.125 69.113281 L 8.777344 68.671875 L 8.777344 68.234375 L 8.425781 68.234375 L 8.074219 67.355469 L 7.722656 67.355469 L 7.371094 66.914062 L 7.019531 66.914062 L 6.320312 66.476562 L 5.96875 66.476562 L 5.96875 66.035156 L 5.617188 65.15625 L 5.617188 64.714844 L 5.265625 64.273438 L 4.210938 63.394531 L 4.210938 62.953125 L 3.859375 62.070312 L 3.859375 61.628906 L 3.511719 61.628906 L 2.808594 60.746094 L 3.160156 60.304688 L 3.160156 59.863281 L 2.808594 59.863281 L 2.808594 59.421875 L 1.753906 58.980469 L 1.753906 58.539062 L 1.402344 58.09375 L 0 55.882812 L 0 55.441406 L 0.351562 55.441406 L 0.703125 54.996094 L 0.703125 54.109375 L 1.054688 54.109375 L 1.054688 52.78125 L 1.402344 52.78125 L 1.402344 52.335938 L 1.054688 51.890625 L 0.703125 51.449219 L 0.703125 50.558594 L 1.054688 50.117188 "/>
</svg>
