<svg width="500" height="500" viewBox="0 0 500 500" fill="none" xmlns="http://www.w3.org/2000/svg">
<path d="M250 8C116.347 8 8 116.347 8 250H492C492 116.347 383.653 8 250 8Z" fill="#628DE3"/>
<path d="M250 492C383.653 492 492 383.653 492 250L8 250C8 383.653 116.347 492 250 492Z" fill="#FAA34B"/>
<mask id="mask0_68_1887" style="mask-type:alpha" maskUnits="userSpaceOnUse" x="8" y="250" width="484" height="242">
<path d="M250 492C383.653 492 492 383.653 492 250L8 250C8 383.653 116.347 492 250 492Z" fill="#D9D9D9"/>
</mask>
<g mask="url(#mask0_68_1887)">
<path d="M359 467C371 462 36.5 138.5 57.0001 129.5C77.5001 120.5 221.401 98.8173 264.5 175.5C302.007 242.233 136.5 287.5 227 356.5C317.5 425.5 347 472 359 467Z" stroke="white" stroke-width="17" stroke-linecap="round"/>
<path d="M210 16.5L460.093 358.759C460.52 359.343 461.408 359.295 461.789 358.68C469.733 345.852 482.523 338.022 478 323.5C472.128 304.646 445.634 309.601 425.99 313.313C425.443 313.416 425.094 313.966 425.203 314.513C441.759 397.757 412 429.5 412 429.5" stroke="white" stroke-width="17" stroke-linecap="round"/>
</g>
<mask id="mask1_68_1887" style="mask-type:alpha" maskUnits="userSpaceOnUse" x="8" y="8" width="484" height="242">
<path d="M250 8C116.347 8 8 116.347 8 250H492C492 116.347 383.653 8 250 8Z" fill="#D9D9D9"/>
</mask>
<g mask="url(#mask1_68_1887)">
<path d="M348.5 456C360.5 451 36.5 138.5 57 129.5C77.5001 120.5 221.401 98.8173 264.5 175.5C302.007 242.233 136.5 287.5 227 356.5C317.5 425.5 336.5 461 348.5 456Z" stroke="white" stroke-width="17" stroke-linecap="round"/>
<path d="M208.5 14.5L451.688 347.205C452.197 347.901 453.296 347.671 453.501 346.834C459.957 320.506 478.538 296.758 459 278C406.5 227.596 446.5 360.5 417 380" stroke="white" stroke-width="17" stroke-linecap="square"/>
</g>
</svg>
