<svg width="200" height="200" viewBox="0 0 200 200" fill="none" xmlns="http://www.w3.org/2000/svg">
<g clip-path="url(#clip0_63_1858)">
<path d="M73.5099 59.3991L9.96971 77.3011C9.09776 77.5633 12.3613 76.6894 12.8693 75.9338C18.888 66.9823 44.2599 33.6795 73.5099 59.3991ZM73.5099 59.3991L85.8375 55.6925M73.5099 59.3991C90.8704 74.6642 109.597 112.721 126.454 187.001C108.478 107.791 90.7126 71.3241 85.8375 55.6925M85.8375 55.6925L165.924 33.116C100.088 46.9867 79.4712 35.2794 85.8375 55.6925ZM191.32 73.8145C205.782 124.249 176.62 176.858 126.186 191.32C75.751 205.782 23.1421 176.62 8.68018 126.186C-5.7817 75.751 23.3799 23.1421 73.8145 8.68017C124.249 -5.78171 176.858 23.3799 191.32 73.8145Z" stroke="#EF0FB1" stroke-width="9" stroke-linecap="round"/>
</g>
<defs>
<clipPath id="clip0_63_1858">
<rect width="200" height="200" fill="white"/>
</clipPath>
</defs>
</svg>
